%TF.GenerationSoftware,KiCad,Pcbnew,7.0.8*%
%TF.CreationDate,2024-04-16T05:21:19+09:00*%
%TF.ProjectId,pcb,7063622e-6b69-4636-9164-5f7063625858,rev?*%
%TF.SameCoordinates,Original*%
%TF.FileFunction,Legend,Top*%
%TF.FilePolarity,Positive*%
%FSLAX46Y46*%
G04 Gerber Fmt 4.6, Leading zero omitted, Abs format (unit mm)*
G04 Created by KiCad (PCBNEW 7.0.8) date 2024-04-16 05:21:19*
%MOMM*%
%LPD*%
G01*
G04 APERTURE LIST*
%ADD10C,1.600000*%
%ADD11C,0.200000*%
%ADD12C,0.150000*%
%ADD13C,0.120000*%
%ADD14C,0.100000*%
%ADD15C,1.701800*%
%ADD16C,3.000000*%
%ADD17C,3.987800*%
%ADD18C,2.200000*%
%ADD19R,1.350000X1.350000*%
%ADD20O,1.350000X1.350000*%
%ADD21R,1.400000X1.200000*%
%ADD22C,0.800000*%
%ADD23O,1.400000X1.000000*%
%ADD24C,1.778000*%
%ADD25C,2.286000*%
%ADD26O,1.500000X2.500000*%
%ADD27O,2.500000X1.500000*%
G04 APERTURE END LIST*
D10*
G36*
X196390000Y-140768667D02*
G01*
X196390000Y-146517166D01*
X188136545Y-146517166D01*
X188136545Y-144701953D01*
X195014424Y-144701953D01*
X195014424Y-140768667D01*
X196390000Y-140768667D01*
G37*
D11*
G36*
X240357564Y-131226000D02*
G01*
X238770279Y-131226000D01*
X238770279Y-128956300D01*
X240357564Y-128956300D01*
X240357564Y-129334583D01*
X239266238Y-129334583D01*
X239266238Y-129816034D01*
X240280188Y-129816034D01*
X240280188Y-130194318D01*
X239266238Y-130194318D01*
X239266238Y-130847716D01*
X240357564Y-130847716D01*
X240357564Y-131226000D01*
G37*
G36*
X241935177Y-129953592D02*
G01*
X241920132Y-129953592D01*
X241895759Y-129945532D01*
X241869388Y-129938547D01*
X241848298Y-129934013D01*
X241826084Y-129930084D01*
X241802746Y-129926759D01*
X241778284Y-129924039D01*
X241752698Y-129921923D01*
X241725989Y-129920412D01*
X241698155Y-129919505D01*
X241669197Y-129919203D01*
X241638588Y-129919511D01*
X241608285Y-129920437D01*
X241578289Y-129921979D01*
X241548599Y-129924139D01*
X241519216Y-129926916D01*
X241490139Y-129930310D01*
X241461368Y-129934321D01*
X241432904Y-129938950D01*
X241404747Y-129944195D01*
X241376896Y-129950057D01*
X241349351Y-129956537D01*
X241322113Y-129963633D01*
X241295181Y-129971347D01*
X241268556Y-129979678D01*
X241242237Y-129988626D01*
X241216224Y-129998191D01*
X241216224Y-131226000D01*
X240751967Y-131226000D01*
X240751967Y-129472140D01*
X241216224Y-129472140D01*
X241216224Y-129788093D01*
X241242528Y-129765135D01*
X241268245Y-129743142D01*
X241293374Y-129722114D01*
X241317915Y-129702052D01*
X241341868Y-129682956D01*
X241365234Y-129664825D01*
X241388012Y-129647660D01*
X241410202Y-129631460D01*
X241431804Y-129616226D01*
X241452819Y-129601957D01*
X241473246Y-129588654D01*
X241493086Y-129576316D01*
X241512337Y-129564944D01*
X241540113Y-129549696D01*
X241566566Y-129536621D01*
X241592316Y-129525097D01*
X241617980Y-129514707D01*
X241643560Y-129505451D01*
X241669054Y-129497328D01*
X241694464Y-129490338D01*
X241719788Y-129484482D01*
X241745028Y-129479760D01*
X241770182Y-129476170D01*
X241795252Y-129473715D01*
X241820236Y-129472392D01*
X241836845Y-129472140D01*
X241858744Y-129472395D01*
X241881992Y-129473050D01*
X241905255Y-129473954D01*
X241927363Y-129474974D01*
X241935177Y-129475364D01*
X241935177Y-129953592D01*
G37*
G36*
X242845560Y-129438404D02*
G01*
X242877276Y-129440362D01*
X242908865Y-129443626D01*
X242940328Y-129448196D01*
X242971666Y-129454070D01*
X243002877Y-129461251D01*
X243033963Y-129469737D01*
X243064923Y-129479529D01*
X243095756Y-129490626D01*
X243126464Y-129503029D01*
X243157046Y-129516737D01*
X243187502Y-129531751D01*
X243217832Y-129548070D01*
X243248036Y-129565695D01*
X243278114Y-129584626D01*
X243308066Y-129604862D01*
X243339769Y-129472140D01*
X243777697Y-129472140D01*
X243777697Y-131005692D01*
X243777484Y-131032306D01*
X243776847Y-131058481D01*
X243775784Y-131084218D01*
X243774296Y-131109516D01*
X243772384Y-131134375D01*
X243770046Y-131158795D01*
X243767283Y-131182777D01*
X243764095Y-131206320D01*
X243760483Y-131229424D01*
X243756445Y-131252090D01*
X243751982Y-131274317D01*
X243747094Y-131296105D01*
X243741781Y-131317454D01*
X243736043Y-131338365D01*
X243723292Y-131378871D01*
X243708840Y-131417622D01*
X243692689Y-131454618D01*
X243674837Y-131489860D01*
X243655285Y-131523347D01*
X243634033Y-131555079D01*
X243611081Y-131585056D01*
X243586429Y-131613279D01*
X243560076Y-131639747D01*
X243531854Y-131664603D01*
X243501591Y-131687855D01*
X243469288Y-131709504D01*
X243434945Y-131729549D01*
X243398561Y-131747990D01*
X243360138Y-131764828D01*
X243319674Y-131780062D01*
X243298677Y-131787078D01*
X243277170Y-131793693D01*
X243255153Y-131799907D01*
X243232626Y-131805720D01*
X243209588Y-131811132D01*
X243186041Y-131816144D01*
X243161984Y-131820754D01*
X243137417Y-131824963D01*
X243112339Y-131828772D01*
X243086752Y-131832180D01*
X243060654Y-131835186D01*
X243034047Y-131837792D01*
X243006929Y-131839997D01*
X242979302Y-131841801D01*
X242951164Y-131843205D01*
X242922517Y-131844207D01*
X242893359Y-131844808D01*
X242863691Y-131845009D01*
X242824961Y-131844742D01*
X242786281Y-131843942D01*
X242747652Y-131842609D01*
X242709073Y-131840743D01*
X242670545Y-131838344D01*
X242632066Y-131835412D01*
X242593639Y-131831947D01*
X242555261Y-131827948D01*
X242516934Y-131823417D01*
X242478657Y-131818352D01*
X242440431Y-131812754D01*
X242402255Y-131806623D01*
X242364130Y-131799959D01*
X242326055Y-131792761D01*
X242288030Y-131785031D01*
X242250055Y-131776767D01*
X242250055Y-131397946D01*
X242272623Y-131397946D01*
X242309924Y-131410439D01*
X242346599Y-131422127D01*
X242382649Y-131433008D01*
X242418073Y-131443083D01*
X242452872Y-131452352D01*
X242487045Y-131460815D01*
X242520593Y-131468472D01*
X242553515Y-131475323D01*
X242585812Y-131481368D01*
X242617483Y-131486607D01*
X242648529Y-131491040D01*
X242678949Y-131494667D01*
X242708744Y-131497488D01*
X242737913Y-131499503D01*
X242766457Y-131500712D01*
X242794375Y-131501115D01*
X242827591Y-131500747D01*
X242859669Y-131499645D01*
X242890610Y-131497809D01*
X242920413Y-131495238D01*
X242949079Y-131491932D01*
X242976607Y-131487891D01*
X243002997Y-131483116D01*
X243028250Y-131477606D01*
X243052365Y-131471362D01*
X243075342Y-131464383D01*
X243097182Y-131456669D01*
X243117884Y-131448221D01*
X243137448Y-131439038D01*
X243164662Y-131423886D01*
X243189316Y-131407081D01*
X243211594Y-131387839D01*
X243231681Y-131365377D01*
X243249577Y-131339693D01*
X243260290Y-131320782D01*
X243270029Y-131300439D01*
X243278794Y-131278664D01*
X243286586Y-131255458D01*
X243293403Y-131230820D01*
X243299247Y-131204751D01*
X243304116Y-131177251D01*
X243308012Y-131148318D01*
X243310934Y-131117955D01*
X243312882Y-131086160D01*
X243313855Y-131052933D01*
X243313977Y-131035783D01*
X243313977Y-130940138D01*
X243297068Y-130953493D01*
X243263350Y-130978933D01*
X243229767Y-131002676D01*
X243196318Y-131024724D01*
X243163003Y-131045075D01*
X243129823Y-131063731D01*
X243096777Y-131080690D01*
X243063865Y-131095954D01*
X243031087Y-131109522D01*
X242998444Y-131121394D01*
X242965936Y-131131569D01*
X242933561Y-131140049D01*
X242901321Y-131146833D01*
X242869216Y-131151921D01*
X242837244Y-131155313D01*
X242805407Y-131157009D01*
X242789539Y-131157221D01*
X242745174Y-131156374D01*
X242702218Y-131153833D01*
X242660670Y-131149598D01*
X242620531Y-131143670D01*
X242581799Y-131136047D01*
X242544477Y-131126731D01*
X242508562Y-131115721D01*
X242474057Y-131103017D01*
X242440959Y-131088619D01*
X242409270Y-131072528D01*
X242378989Y-131054742D01*
X242350117Y-131035263D01*
X242322653Y-131014089D01*
X242296598Y-130991222D01*
X242271951Y-130966661D01*
X242248712Y-130940406D01*
X242226882Y-130912458D01*
X242206460Y-130882815D01*
X242187446Y-130851479D01*
X242169841Y-130818448D01*
X242153645Y-130783724D01*
X242138857Y-130747306D01*
X242125477Y-130709194D01*
X242113505Y-130669388D01*
X242102942Y-130627889D01*
X242093788Y-130584695D01*
X242086041Y-130539808D01*
X242079704Y-130493227D01*
X242074774Y-130444952D01*
X242071253Y-130394983D01*
X242069141Y-130343320D01*
X242068720Y-130311457D01*
X242549351Y-130311457D01*
X242549743Y-130344062D01*
X242550921Y-130375517D01*
X242552883Y-130405822D01*
X242555631Y-130434976D01*
X242559163Y-130462981D01*
X242563481Y-130489835D01*
X242568583Y-130515539D01*
X242574471Y-130540092D01*
X242581143Y-130563496D01*
X242588601Y-130585749D01*
X242596844Y-130606852D01*
X242605871Y-130626805D01*
X242620885Y-130654577D01*
X242637664Y-130679761D01*
X242649832Y-130695113D01*
X242669650Y-130716239D01*
X242691423Y-130735287D01*
X242715151Y-130752257D01*
X242740835Y-130767150D01*
X242768473Y-130779964D01*
X242798067Y-130790700D01*
X242818882Y-130796703D01*
X242840567Y-130801782D01*
X242863120Y-130805938D01*
X242886542Y-130809171D01*
X242910834Y-130811480D01*
X242935994Y-130812865D01*
X242962023Y-130813327D01*
X242993056Y-130812212D01*
X243024495Y-130808869D01*
X243056340Y-130803296D01*
X243077795Y-130798342D01*
X243099431Y-130792398D01*
X243121248Y-130785463D01*
X243143245Y-130777537D01*
X243165423Y-130768621D01*
X243187781Y-130758714D01*
X243210319Y-130747816D01*
X243233039Y-130735928D01*
X243255938Y-130723048D01*
X243279018Y-130709178D01*
X243302279Y-130694318D01*
X243313977Y-130686516D01*
X243313977Y-129846662D01*
X243285562Y-129835043D01*
X243257544Y-129824567D01*
X243229923Y-129815233D01*
X243202699Y-129807042D01*
X243175871Y-129799995D01*
X243149440Y-129794090D01*
X243123405Y-129789328D01*
X243097767Y-129785709D01*
X243072526Y-129783232D01*
X243047682Y-129781899D01*
X243031339Y-129781645D01*
X243001686Y-129782162D01*
X242972974Y-129783715D01*
X242945203Y-129786302D01*
X242918373Y-129789923D01*
X242892485Y-129794580D01*
X242867538Y-129800271D01*
X242843533Y-129806997D01*
X242820469Y-129814758D01*
X242798347Y-129823554D01*
X242777166Y-129833384D01*
X242756926Y-129844250D01*
X242737627Y-129856150D01*
X242719270Y-129869085D01*
X242701855Y-129883054D01*
X242685381Y-129898059D01*
X242669848Y-129914098D01*
X242655256Y-129931172D01*
X242641606Y-129949281D01*
X242628897Y-129968424D01*
X242617130Y-129988603D01*
X242606304Y-130009816D01*
X242596420Y-130032064D01*
X242587477Y-130055346D01*
X242579475Y-130079664D01*
X242572414Y-130105016D01*
X242566295Y-130131403D01*
X242561118Y-130158825D01*
X242556882Y-130187282D01*
X242553587Y-130216773D01*
X242551233Y-130247300D01*
X242549821Y-130278861D01*
X242549351Y-130311457D01*
X242068720Y-130311457D01*
X242068436Y-130289963D01*
X242068640Y-130266098D01*
X242069253Y-130242527D01*
X242070273Y-130219249D01*
X242071702Y-130196266D01*
X242073539Y-130173576D01*
X242075785Y-130151180D01*
X242078438Y-130129078D01*
X242081500Y-130107270D01*
X242084970Y-130085755D01*
X242088849Y-130064535D01*
X242097830Y-130022975D01*
X242108445Y-129982591D01*
X242120692Y-129943383D01*
X242134573Y-129905349D01*
X242150086Y-129868492D01*
X242167232Y-129832809D01*
X242186012Y-129798302D01*
X242206424Y-129764971D01*
X242228470Y-129732815D01*
X242252148Y-129701834D01*
X242277459Y-129672029D01*
X242304112Y-129643659D01*
X242331680Y-129617120D01*
X242360163Y-129592411D01*
X242389561Y-129569532D01*
X242419874Y-129548484D01*
X242451102Y-129529266D01*
X242483246Y-129511878D01*
X242516304Y-129496321D01*
X242550278Y-129482593D01*
X242585167Y-129470696D01*
X242620971Y-129460630D01*
X242657691Y-129452393D01*
X242695325Y-129445987D01*
X242733874Y-129441412D01*
X242773339Y-129438666D01*
X242813719Y-129437751D01*
X242845560Y-129438404D01*
G37*
G36*
X245037796Y-129437987D02*
G01*
X245063808Y-129438696D01*
X245089452Y-129439876D01*
X245114727Y-129441529D01*
X245139634Y-129443654D01*
X245164172Y-129446252D01*
X245188342Y-129449322D01*
X245212144Y-129452864D01*
X245235577Y-129456878D01*
X245258642Y-129461364D01*
X245281339Y-129466323D01*
X245303667Y-129471754D01*
X245325627Y-129477658D01*
X245347219Y-129484033D01*
X245368442Y-129490881D01*
X245389296Y-129498201D01*
X245409783Y-129505994D01*
X245429901Y-129514258D01*
X245449651Y-129522995D01*
X245488045Y-129541886D01*
X245524965Y-129562666D01*
X245560413Y-129585334D01*
X245594387Y-129609892D01*
X245626887Y-129636339D01*
X245657914Y-129664675D01*
X245672875Y-129679551D01*
X245701504Y-129710446D01*
X245728287Y-129742814D01*
X245753223Y-129776656D01*
X245776311Y-129811971D01*
X245797553Y-129848759D01*
X245816947Y-129887021D01*
X245825952Y-129906705D01*
X245834495Y-129926757D01*
X245842576Y-129947177D01*
X245850195Y-129967966D01*
X245857352Y-129989123D01*
X245864048Y-130010648D01*
X245870282Y-130032542D01*
X245876054Y-130054804D01*
X245881364Y-130077434D01*
X245886213Y-130100433D01*
X245890600Y-130123800D01*
X245894525Y-130147536D01*
X245897988Y-130171640D01*
X245900990Y-130196112D01*
X245903530Y-130220953D01*
X245905607Y-130246162D01*
X245907224Y-130271739D01*
X245908378Y-130297685D01*
X245909071Y-130323999D01*
X245909302Y-130350682D01*
X245909071Y-130377265D01*
X245908378Y-130403481D01*
X245907224Y-130429332D01*
X245905607Y-130454816D01*
X245903530Y-130479933D01*
X245900990Y-130504685D01*
X245897988Y-130529070D01*
X245894525Y-130553089D01*
X245890600Y-130576742D01*
X245886213Y-130600028D01*
X245881364Y-130622948D01*
X245876054Y-130645502D01*
X245870282Y-130667690D01*
X245864048Y-130689511D01*
X245857352Y-130710966D01*
X245850195Y-130732055D01*
X245842576Y-130752778D01*
X245834495Y-130773134D01*
X245825952Y-130793124D01*
X245816947Y-130812747D01*
X245797553Y-130850896D01*
X245776311Y-130887580D01*
X245753223Y-130922798D01*
X245728287Y-130956552D01*
X245701504Y-130988840D01*
X245672875Y-131019663D01*
X245642584Y-131048814D01*
X245610821Y-131076083D01*
X245577584Y-131101472D01*
X245542873Y-131124981D01*
X245506689Y-131146608D01*
X245469032Y-131166355D01*
X245429901Y-131184222D01*
X245409783Y-131192450D01*
X245389296Y-131200207D01*
X245368442Y-131207495D01*
X245347219Y-131214312D01*
X245325627Y-131220660D01*
X245303667Y-131226537D01*
X245281339Y-131231944D01*
X245258642Y-131236881D01*
X245235577Y-131241347D01*
X245212144Y-131245344D01*
X245188342Y-131248870D01*
X245164172Y-131251926D01*
X245139634Y-131254512D01*
X245114727Y-131256628D01*
X245089452Y-131258273D01*
X245063808Y-131259449D01*
X245037796Y-131260154D01*
X245011416Y-131260389D01*
X244984970Y-131260154D01*
X244958896Y-131259449D01*
X244933193Y-131258273D01*
X244907862Y-131256628D01*
X244882902Y-131254512D01*
X244858314Y-131251926D01*
X244834097Y-131248870D01*
X244810252Y-131245344D01*
X244786778Y-131241347D01*
X244763676Y-131236881D01*
X244740945Y-131231944D01*
X244718586Y-131226537D01*
X244696598Y-131220660D01*
X244674982Y-131214312D01*
X244653737Y-131207495D01*
X244632864Y-131200207D01*
X244612363Y-131192450D01*
X244592232Y-131184222D01*
X244572474Y-131175524D01*
X244534071Y-131156717D01*
X244497155Y-131136030D01*
X244461724Y-131113462D01*
X244427780Y-131089013D01*
X244395321Y-131062683D01*
X244364349Y-131034473D01*
X244349420Y-131019663D01*
X244320921Y-130988840D01*
X244294260Y-130956552D01*
X244269437Y-130922798D01*
X244246454Y-130887580D01*
X244225309Y-130850896D01*
X244206002Y-130812747D01*
X244197039Y-130793124D01*
X244188535Y-130773134D01*
X244180491Y-130752778D01*
X244172906Y-130732055D01*
X244165781Y-130710966D01*
X244159116Y-130689511D01*
X244152910Y-130667690D01*
X244147164Y-130645502D01*
X244141878Y-130622948D01*
X244137052Y-130600028D01*
X244132685Y-130576742D01*
X244128777Y-130553089D01*
X244125330Y-130529070D01*
X244122342Y-130504685D01*
X244119814Y-130479933D01*
X244117745Y-130454816D01*
X244116136Y-130429332D01*
X244114987Y-130403481D01*
X244114298Y-130377265D01*
X244114105Y-130354981D01*
X244599281Y-130354981D01*
X244599690Y-130391643D01*
X244600916Y-130427141D01*
X244602960Y-130461475D01*
X244605821Y-130494646D01*
X244609500Y-130526652D01*
X244613997Y-130557495D01*
X244619311Y-130587174D01*
X244625442Y-130615689D01*
X244632391Y-130643040D01*
X244640158Y-130669227D01*
X244648742Y-130694250D01*
X244658144Y-130718109D01*
X244668363Y-130740805D01*
X244679400Y-130762337D01*
X244691255Y-130782705D01*
X244703927Y-130801908D01*
X244717416Y-130819948D01*
X244731723Y-130836825D01*
X244746848Y-130852537D01*
X244762790Y-130867085D01*
X244797127Y-130892691D01*
X244834734Y-130913640D01*
X244854764Y-130922369D01*
X244875611Y-130929935D01*
X244897276Y-130936336D01*
X244919759Y-130941573D01*
X244943059Y-130945647D01*
X244967176Y-130948557D01*
X244992111Y-130950302D01*
X245017864Y-130950884D01*
X245042856Y-130950302D01*
X245067055Y-130948557D01*
X245090461Y-130945647D01*
X245113073Y-130941573D01*
X245134892Y-130936336D01*
X245155917Y-130929935D01*
X245176149Y-130922369D01*
X245214233Y-130903747D01*
X245249142Y-130880470D01*
X245280879Y-130852537D01*
X245295557Y-130836825D01*
X245309441Y-130819948D01*
X245322533Y-130801908D01*
X245334830Y-130782705D01*
X245346335Y-130762337D01*
X245357046Y-130740805D01*
X245366963Y-130718109D01*
X245376088Y-130694250D01*
X245384418Y-130669227D01*
X245391956Y-130643040D01*
X245398700Y-130615689D01*
X245404650Y-130587174D01*
X245409807Y-130557495D01*
X245414171Y-130526652D01*
X245417742Y-130494646D01*
X245420518Y-130461475D01*
X245422502Y-130427141D01*
X245423692Y-130391643D01*
X245424089Y-130354981D01*
X245423686Y-130317591D01*
X245422479Y-130281389D01*
X245420467Y-130246374D01*
X245417649Y-130212545D01*
X245414027Y-130179904D01*
X245409600Y-130148449D01*
X245404368Y-130118182D01*
X245398330Y-130089101D01*
X245391488Y-130061207D01*
X245383841Y-130034501D01*
X245375389Y-130008981D01*
X245366132Y-129984648D01*
X245356070Y-129961502D01*
X245345204Y-129939544D01*
X245333532Y-129918772D01*
X245321055Y-129899187D01*
X245307773Y-129880789D01*
X245293687Y-129863578D01*
X245278795Y-129847554D01*
X245263098Y-129832717D01*
X245229290Y-129806604D01*
X245192263Y-129785238D01*
X245172541Y-129776336D01*
X245152015Y-129768621D01*
X245130684Y-129762093D01*
X245108548Y-129756751D01*
X245085607Y-129752597D01*
X245061860Y-129749630D01*
X245037309Y-129747849D01*
X245011953Y-129747256D01*
X244986564Y-129747849D01*
X244961981Y-129749630D01*
X244938204Y-129752597D01*
X244915233Y-129756751D01*
X244893068Y-129762093D01*
X244871709Y-129768621D01*
X244851156Y-129776336D01*
X244831409Y-129785238D01*
X244794333Y-129806604D01*
X244760481Y-129832717D01*
X244744764Y-129847554D01*
X244729853Y-129863578D01*
X244715748Y-129880789D01*
X244702449Y-129899187D01*
X244689956Y-129918772D01*
X244678269Y-129939544D01*
X244667388Y-129961502D01*
X244657313Y-129984648D01*
X244648044Y-130008981D01*
X244639581Y-130034501D01*
X244631924Y-130061207D01*
X244625073Y-130089101D01*
X244619028Y-130118182D01*
X244613789Y-130148449D01*
X244609356Y-130179904D01*
X244605729Y-130212545D01*
X244602908Y-130246374D01*
X244600893Y-130281389D01*
X244599684Y-130317591D01*
X244599281Y-130354981D01*
X244114105Y-130354981D01*
X244114068Y-130350682D01*
X244114300Y-130323999D01*
X244114998Y-130297685D01*
X244116160Y-130271739D01*
X244117787Y-130246162D01*
X244119879Y-130220953D01*
X244122436Y-130196112D01*
X244125458Y-130171640D01*
X244128945Y-130147536D01*
X244132897Y-130123800D01*
X244137314Y-130100433D01*
X244142196Y-130077434D01*
X244147542Y-130054804D01*
X244153354Y-130032542D01*
X244159630Y-130010648D01*
X244166371Y-129989123D01*
X244173578Y-129967966D01*
X244181249Y-129947177D01*
X244189385Y-129926757D01*
X244197986Y-129906705D01*
X244207052Y-129887021D01*
X244216583Y-129867706D01*
X244237039Y-129830181D01*
X244259355Y-129794129D01*
X244283531Y-129759551D01*
X244309567Y-129726446D01*
X244337462Y-129694815D01*
X244352107Y-129679551D01*
X244382578Y-129650271D01*
X244414480Y-129622880D01*
X244447813Y-129597377D01*
X244482578Y-129573764D01*
X244518775Y-129552040D01*
X244556403Y-129532204D01*
X244595463Y-129514258D01*
X244615529Y-129505994D01*
X244635954Y-129498201D01*
X244656736Y-129490881D01*
X244677876Y-129484033D01*
X244699374Y-129477658D01*
X244721230Y-129471754D01*
X244743444Y-129466323D01*
X244766016Y-129461364D01*
X244788946Y-129456878D01*
X244812233Y-129452864D01*
X244835878Y-129449322D01*
X244859882Y-129446252D01*
X244884243Y-129443654D01*
X244908962Y-129441529D01*
X244934038Y-129439876D01*
X244959473Y-129438696D01*
X244985266Y-129437987D01*
X245011416Y-129437751D01*
X245037796Y-129437987D01*
G37*
G36*
X247177252Y-128956464D02*
G01*
X247206129Y-128956957D01*
X247234487Y-128957778D01*
X247262326Y-128958927D01*
X247289647Y-128960406D01*
X247316450Y-128962212D01*
X247342734Y-128964348D01*
X247368500Y-128966811D01*
X247393747Y-128969603D01*
X247418476Y-128972724D01*
X247442687Y-128976173D01*
X247466379Y-128979951D01*
X247489552Y-128984057D01*
X247512208Y-128988491D01*
X247534344Y-128993254D01*
X247555963Y-128998346D01*
X247577062Y-129003766D01*
X247617707Y-129015592D01*
X247656277Y-129028731D01*
X247692774Y-129043185D01*
X247727197Y-129058952D01*
X247759546Y-129076033D01*
X247789822Y-129094429D01*
X247818023Y-129114138D01*
X247831346Y-129124485D01*
X247856723Y-129145974D01*
X247880462Y-129168395D01*
X247902564Y-129191749D01*
X247923029Y-129216034D01*
X247941857Y-129241250D01*
X247959047Y-129267399D01*
X247974600Y-129294480D01*
X247988517Y-129322493D01*
X248000796Y-129351438D01*
X248011437Y-129381314D01*
X248020442Y-129412123D01*
X248027809Y-129443863D01*
X248033539Y-129476536D01*
X248037632Y-129510140D01*
X248040088Y-129544676D01*
X248040907Y-129580145D01*
X248040463Y-129608093D01*
X248039131Y-129635585D01*
X248036911Y-129662620D01*
X248033804Y-129689198D01*
X248029808Y-129715320D01*
X248024925Y-129740986D01*
X248019154Y-129766195D01*
X248012495Y-129790948D01*
X248004948Y-129815244D01*
X247996514Y-129839083D01*
X247987191Y-129862466D01*
X247976981Y-129885392D01*
X247965882Y-129907862D01*
X247953896Y-129929876D01*
X247941022Y-129951433D01*
X247927260Y-129972533D01*
X247912611Y-129993177D01*
X247897073Y-130013364D01*
X247880648Y-130033095D01*
X247863335Y-130052369D01*
X247845133Y-130071187D01*
X247826044Y-130089548D01*
X247806067Y-130107453D01*
X247785203Y-130124901D01*
X247763450Y-130141892D01*
X247740810Y-130158428D01*
X247717281Y-130174506D01*
X247692865Y-130190128D01*
X247667561Y-130205294D01*
X247641369Y-130220003D01*
X247614290Y-130234255D01*
X247586322Y-130248051D01*
X248376741Y-131226000D01*
X247759881Y-131226000D01*
X247091974Y-130366265D01*
X246774947Y-130366265D01*
X246774947Y-131226000D01*
X246275764Y-131226000D01*
X246275764Y-129300193D01*
X246771723Y-129300193D01*
X246771723Y-130022371D01*
X246995254Y-130022371D01*
X247034637Y-130021945D01*
X247072320Y-130020666D01*
X247108302Y-130018536D01*
X247142585Y-130015553D01*
X247175167Y-130011719D01*
X247206049Y-130007032D01*
X247235231Y-130001492D01*
X247262712Y-129995101D01*
X247288494Y-129987858D01*
X247312575Y-129979762D01*
X247334957Y-129970814D01*
X247355638Y-129961014D01*
X247374618Y-129950362D01*
X247399902Y-129932785D01*
X247421360Y-129913292D01*
X247439990Y-129892149D01*
X247456787Y-129869824D01*
X247471751Y-129846320D01*
X247484883Y-129821634D01*
X247496183Y-129795768D01*
X247505650Y-129768722D01*
X247513285Y-129740494D01*
X247519088Y-129711086D01*
X247523058Y-129680498D01*
X247525196Y-129648728D01*
X247525603Y-129626893D01*
X247524725Y-129598015D01*
X247522089Y-129570422D01*
X247517697Y-129544114D01*
X247511548Y-129519090D01*
X247503643Y-129495351D01*
X247493980Y-129472896D01*
X247482561Y-129451726D01*
X247469385Y-129431840D01*
X247454451Y-129413239D01*
X247437762Y-129395923D01*
X247425659Y-129385092D01*
X247405315Y-129369920D01*
X247381562Y-129356240D01*
X247354399Y-129344052D01*
X247323826Y-129333357D01*
X247301549Y-129327056D01*
X247277758Y-129321418D01*
X247252451Y-129316444D01*
X247225628Y-129312132D01*
X247197290Y-129308484D01*
X247167436Y-129305500D01*
X247136067Y-129303178D01*
X247103183Y-129301520D01*
X247068783Y-129300525D01*
X247032868Y-129300193D01*
X246771723Y-129300193D01*
X246275764Y-129300193D01*
X246275764Y-128956300D01*
X247147857Y-128956300D01*
X247177252Y-128956464D01*
G37*
G36*
X249284886Y-129437987D02*
G01*
X249310898Y-129438696D01*
X249336542Y-129439876D01*
X249361817Y-129441529D01*
X249386724Y-129443654D01*
X249411262Y-129446252D01*
X249435432Y-129449322D01*
X249459234Y-129452864D01*
X249482667Y-129456878D01*
X249505732Y-129461364D01*
X249528429Y-129466323D01*
X249550757Y-129471754D01*
X249572717Y-129477658D01*
X249594309Y-129484033D01*
X249615532Y-129490881D01*
X249636386Y-129498201D01*
X249656873Y-129505994D01*
X249676991Y-129514258D01*
X249696741Y-129522995D01*
X249735135Y-129541886D01*
X249772055Y-129562666D01*
X249807503Y-129585334D01*
X249841477Y-129609892D01*
X249873977Y-129636339D01*
X249905004Y-129664675D01*
X249919965Y-129679551D01*
X249948594Y-129710446D01*
X249975377Y-129742814D01*
X250000313Y-129776656D01*
X250023401Y-129811971D01*
X250044643Y-129848759D01*
X250064037Y-129887021D01*
X250073042Y-129906705D01*
X250081585Y-129926757D01*
X250089666Y-129947177D01*
X250097285Y-129967966D01*
X250104442Y-129989123D01*
X250111138Y-130010648D01*
X250117372Y-130032542D01*
X250123144Y-130054804D01*
X250128455Y-130077434D01*
X250133303Y-130100433D01*
X250137690Y-130123800D01*
X250141615Y-130147536D01*
X250145078Y-130171640D01*
X250148080Y-130196112D01*
X250150620Y-130220953D01*
X250152698Y-130246162D01*
X250154314Y-130271739D01*
X250155468Y-130297685D01*
X250156161Y-130323999D01*
X250156392Y-130350682D01*
X250156161Y-130377265D01*
X250155468Y-130403481D01*
X250154314Y-130429332D01*
X250152698Y-130454816D01*
X250150620Y-130479933D01*
X250148080Y-130504685D01*
X250145078Y-130529070D01*
X250141615Y-130553089D01*
X250137690Y-130576742D01*
X250133303Y-130600028D01*
X250128455Y-130622948D01*
X250123144Y-130645502D01*
X250117372Y-130667690D01*
X250111138Y-130689511D01*
X250104442Y-130710966D01*
X250097285Y-130732055D01*
X250089666Y-130752778D01*
X250081585Y-130773134D01*
X250073042Y-130793124D01*
X250064037Y-130812747D01*
X250044643Y-130850896D01*
X250023401Y-130887580D01*
X250000313Y-130922798D01*
X249975377Y-130956552D01*
X249948594Y-130988840D01*
X249919965Y-131019663D01*
X249889674Y-131048814D01*
X249857911Y-131076083D01*
X249824674Y-131101472D01*
X249789963Y-131124981D01*
X249753779Y-131146608D01*
X249716122Y-131166355D01*
X249676991Y-131184222D01*
X249656873Y-131192450D01*
X249636386Y-131200207D01*
X249615532Y-131207495D01*
X249594309Y-131214312D01*
X249572717Y-131220660D01*
X249550757Y-131226537D01*
X249528429Y-131231944D01*
X249505732Y-131236881D01*
X249482667Y-131241347D01*
X249459234Y-131245344D01*
X249435432Y-131248870D01*
X249411262Y-131251926D01*
X249386724Y-131254512D01*
X249361817Y-131256628D01*
X249336542Y-131258273D01*
X249310898Y-131259449D01*
X249284886Y-131260154D01*
X249258506Y-131260389D01*
X249232060Y-131260154D01*
X249205986Y-131259449D01*
X249180283Y-131258273D01*
X249154952Y-131256628D01*
X249129992Y-131254512D01*
X249105404Y-131251926D01*
X249081187Y-131248870D01*
X249057342Y-131245344D01*
X249033868Y-131241347D01*
X249010766Y-131236881D01*
X248988035Y-131231944D01*
X248965676Y-131226537D01*
X248943688Y-131220660D01*
X248922072Y-131214312D01*
X248900827Y-131207495D01*
X248879954Y-131200207D01*
X248859453Y-131192450D01*
X248839322Y-131184222D01*
X248819564Y-131175524D01*
X248781161Y-131156717D01*
X248744245Y-131136030D01*
X248708814Y-131113462D01*
X248674870Y-131089013D01*
X248642411Y-131062683D01*
X248611439Y-131034473D01*
X248596510Y-131019663D01*
X248568011Y-130988840D01*
X248541350Y-130956552D01*
X248516527Y-130922798D01*
X248493544Y-130887580D01*
X248472399Y-130850896D01*
X248453092Y-130812747D01*
X248444129Y-130793124D01*
X248435625Y-130773134D01*
X248427581Y-130752778D01*
X248419996Y-130732055D01*
X248412871Y-130710966D01*
X248406206Y-130689511D01*
X248400000Y-130667690D01*
X248394254Y-130645502D01*
X248388968Y-130622948D01*
X248384142Y-130600028D01*
X248379775Y-130576742D01*
X248375867Y-130553089D01*
X248372420Y-130529070D01*
X248369432Y-130504685D01*
X248366904Y-130479933D01*
X248364835Y-130454816D01*
X248363226Y-130429332D01*
X248362077Y-130403481D01*
X248361388Y-130377265D01*
X248361195Y-130354981D01*
X248846371Y-130354981D01*
X248846780Y-130391643D01*
X248848006Y-130427141D01*
X248850050Y-130461475D01*
X248852911Y-130494646D01*
X248856590Y-130526652D01*
X248861087Y-130557495D01*
X248866401Y-130587174D01*
X248872532Y-130615689D01*
X248879481Y-130643040D01*
X248887248Y-130669227D01*
X248895832Y-130694250D01*
X248905234Y-130718109D01*
X248915453Y-130740805D01*
X248926490Y-130762337D01*
X248938345Y-130782705D01*
X248951017Y-130801908D01*
X248964506Y-130819948D01*
X248978813Y-130836825D01*
X248993938Y-130852537D01*
X249009880Y-130867085D01*
X249044217Y-130892691D01*
X249081824Y-130913640D01*
X249101854Y-130922369D01*
X249122701Y-130929935D01*
X249144366Y-130936336D01*
X249166849Y-130941573D01*
X249190149Y-130945647D01*
X249214266Y-130948557D01*
X249239201Y-130950302D01*
X249264954Y-130950884D01*
X249289946Y-130950302D01*
X249314145Y-130948557D01*
X249337551Y-130945647D01*
X249360163Y-130941573D01*
X249381982Y-130936336D01*
X249403007Y-130929935D01*
X249423239Y-130922369D01*
X249461323Y-130903747D01*
X249496232Y-130880470D01*
X249527969Y-130852537D01*
X249542647Y-130836825D01*
X249556531Y-130819948D01*
X249569623Y-130801908D01*
X249581920Y-130782705D01*
X249593425Y-130762337D01*
X249604136Y-130740805D01*
X249614053Y-130718109D01*
X249623178Y-130694250D01*
X249631508Y-130669227D01*
X249639046Y-130643040D01*
X249645790Y-130615689D01*
X249651740Y-130587174D01*
X249656898Y-130557495D01*
X249661261Y-130526652D01*
X249664832Y-130494646D01*
X249667609Y-130461475D01*
X249669592Y-130427141D01*
X249670782Y-130391643D01*
X249671179Y-130354981D01*
X249670776Y-130317591D01*
X249669569Y-130281389D01*
X249667557Y-130246374D01*
X249664739Y-130212545D01*
X249661117Y-130179904D01*
X249656690Y-130148449D01*
X249651458Y-130118182D01*
X249645420Y-130089101D01*
X249638578Y-130061207D01*
X249630931Y-130034501D01*
X249622479Y-130008981D01*
X249613222Y-129984648D01*
X249603160Y-129961502D01*
X249592294Y-129939544D01*
X249580622Y-129918772D01*
X249568145Y-129899187D01*
X249554863Y-129880789D01*
X249540777Y-129863578D01*
X249525885Y-129847554D01*
X249510188Y-129832717D01*
X249476380Y-129806604D01*
X249439353Y-129785238D01*
X249419631Y-129776336D01*
X249399105Y-129768621D01*
X249377774Y-129762093D01*
X249355638Y-129756751D01*
X249332697Y-129752597D01*
X249308950Y-129749630D01*
X249284399Y-129747849D01*
X249259043Y-129747256D01*
X249233654Y-129747849D01*
X249209071Y-129749630D01*
X249185294Y-129752597D01*
X249162323Y-129756751D01*
X249140158Y-129762093D01*
X249118799Y-129768621D01*
X249098246Y-129776336D01*
X249078499Y-129785238D01*
X249041423Y-129806604D01*
X249007571Y-129832717D01*
X248991854Y-129847554D01*
X248976943Y-129863578D01*
X248962838Y-129880789D01*
X248949539Y-129899187D01*
X248937046Y-129918772D01*
X248925359Y-129939544D01*
X248914478Y-129961502D01*
X248904403Y-129984648D01*
X248895134Y-130008981D01*
X248886671Y-130034501D01*
X248879014Y-130061207D01*
X248872163Y-130089101D01*
X248866118Y-130118182D01*
X248860879Y-130148449D01*
X248856446Y-130179904D01*
X248852819Y-130212545D01*
X248849998Y-130246374D01*
X248847983Y-130281389D01*
X248846774Y-130317591D01*
X248846371Y-130354981D01*
X248361195Y-130354981D01*
X248361158Y-130350682D01*
X248361390Y-130323999D01*
X248362088Y-130297685D01*
X248363250Y-130271739D01*
X248364877Y-130246162D01*
X248366969Y-130220953D01*
X248369526Y-130196112D01*
X248372548Y-130171640D01*
X248376035Y-130147536D01*
X248379987Y-130123800D01*
X248384404Y-130100433D01*
X248389286Y-130077434D01*
X248394632Y-130054804D01*
X248400444Y-130032542D01*
X248406720Y-130010648D01*
X248413461Y-129989123D01*
X248420668Y-129967966D01*
X248428339Y-129947177D01*
X248436475Y-129926757D01*
X248445076Y-129906705D01*
X248454142Y-129887021D01*
X248463673Y-129867706D01*
X248484129Y-129830181D01*
X248506445Y-129794129D01*
X248530621Y-129759551D01*
X248556657Y-129726446D01*
X248584552Y-129694815D01*
X248599197Y-129679551D01*
X248629668Y-129650271D01*
X248661570Y-129622880D01*
X248694903Y-129597377D01*
X248729668Y-129573764D01*
X248765865Y-129552040D01*
X248803493Y-129532204D01*
X248842553Y-129514258D01*
X248862619Y-129505994D01*
X248883044Y-129498201D01*
X248903826Y-129490881D01*
X248924966Y-129484033D01*
X248946464Y-129477658D01*
X248968320Y-129471754D01*
X248990534Y-129466323D01*
X249013106Y-129461364D01*
X249036036Y-129456878D01*
X249059323Y-129452864D01*
X249082968Y-129449322D01*
X249106972Y-129446252D01*
X249131333Y-129443654D01*
X249156052Y-129441529D01*
X249181128Y-129439876D01*
X249206563Y-129438696D01*
X249232356Y-129437987D01*
X249258506Y-129437751D01*
X249284886Y-129437987D01*
G37*
G36*
X252168709Y-131226000D02*
G01*
X251617404Y-131226000D01*
X251207418Y-130645678D01*
X250792058Y-131226000D01*
X250269232Y-131226000D01*
X250938750Y-130350682D01*
X250278367Y-129472140D01*
X250828060Y-129472140D01*
X251231598Y-130041715D01*
X251638360Y-129472140D01*
X252162798Y-129472140D01*
X251497578Y-130336711D01*
X252168709Y-131226000D01*
G37*
G36*
X252426629Y-131120682D02*
G01*
X252426629Y-130675769D01*
X252476601Y-130675769D01*
X252497251Y-130688464D01*
X252517827Y-130700755D01*
X252538328Y-130712644D01*
X252558754Y-130724129D01*
X252579106Y-130735212D01*
X252599384Y-130745891D01*
X252619587Y-130756168D01*
X252639716Y-130766041D01*
X252659770Y-130775512D01*
X252679749Y-130784579D01*
X252699654Y-130793244D01*
X252739240Y-130809364D01*
X252778529Y-130823872D01*
X252817519Y-130836768D01*
X252856211Y-130848052D01*
X252894606Y-130857724D01*
X252932702Y-130865784D01*
X252970500Y-130872232D01*
X253008000Y-130877068D01*
X253045202Y-130880292D01*
X253082106Y-130881904D01*
X253100446Y-130882106D01*
X253131687Y-130881713D01*
X253161935Y-130880536D01*
X253191192Y-130878573D01*
X253219457Y-130875825D01*
X253246731Y-130872293D01*
X253273012Y-130867975D01*
X253298302Y-130862873D01*
X253322600Y-130856985D01*
X253345907Y-130850313D01*
X253368221Y-130842855D01*
X253389544Y-130834612D01*
X253409875Y-130825585D01*
X253429214Y-130815772D01*
X253464918Y-130793792D01*
X253496654Y-130768671D01*
X253524423Y-130740411D01*
X253548226Y-130709010D01*
X253568061Y-130674470D01*
X253583929Y-130636789D01*
X253595830Y-130595969D01*
X253600293Y-130574381D01*
X253603764Y-130552008D01*
X253606243Y-130528850D01*
X253607731Y-130504907D01*
X253608227Y-130480180D01*
X253606990Y-130448835D01*
X253603278Y-130418879D01*
X253597091Y-130390312D01*
X253588430Y-130363133D01*
X253577294Y-130337343D01*
X253563683Y-130312941D01*
X253547597Y-130289927D01*
X253529037Y-130268302D01*
X253508003Y-130248065D01*
X253484493Y-130229217D01*
X253467445Y-130217423D01*
X253439964Y-130201002D01*
X253420326Y-130190953D01*
X253399635Y-130181621D01*
X253377890Y-130173006D01*
X253355091Y-130165110D01*
X253331238Y-130157932D01*
X253306332Y-130151471D01*
X253280372Y-130145728D01*
X253253358Y-130140703D01*
X253225291Y-130136396D01*
X253196170Y-130132807D01*
X253165995Y-130129936D01*
X253134767Y-130127782D01*
X253102485Y-130126347D01*
X253069149Y-130125629D01*
X253052086Y-130125539D01*
X253028303Y-130125805D01*
X253003701Y-130126605D01*
X252978280Y-130127938D01*
X252952041Y-130129804D01*
X252924983Y-130132203D01*
X252897107Y-130135135D01*
X252868412Y-130138601D01*
X252838899Y-130142599D01*
X252808567Y-130147131D01*
X252777416Y-130152196D01*
X252745447Y-130157794D01*
X252712659Y-130163925D01*
X252679052Y-130170589D01*
X252644627Y-130177786D01*
X252609383Y-130185517D01*
X252573321Y-130193780D01*
X252517438Y-130193780D01*
X252517438Y-128956300D01*
X254064961Y-128956300D01*
X254064961Y-129334583D01*
X252985994Y-129334583D01*
X252985994Y-129781645D01*
X253017729Y-129781645D01*
X253047848Y-129781645D01*
X253076353Y-129781645D01*
X253103242Y-129781645D01*
X253128516Y-129781645D01*
X253152175Y-129781645D01*
X253174219Y-129781645D01*
X253201098Y-129781645D01*
X253225106Y-129781645D01*
X253241228Y-129781645D01*
X253267661Y-129781823D01*
X253293700Y-129782359D01*
X253319342Y-129783251D01*
X253344589Y-129784500D01*
X253369440Y-129786105D01*
X253393896Y-129788068D01*
X253417956Y-129790387D01*
X253441620Y-129793063D01*
X253464888Y-129796096D01*
X253487761Y-129799486D01*
X253510239Y-129803233D01*
X253532320Y-129807336D01*
X253554006Y-129811797D01*
X253575296Y-129816614D01*
X253596191Y-129821788D01*
X253636793Y-129833206D01*
X253675813Y-129846052D01*
X253713250Y-129860325D01*
X253749105Y-129876025D01*
X253783376Y-129893152D01*
X253816066Y-129911707D01*
X253847172Y-129931689D01*
X253876696Y-129953099D01*
X253890865Y-129964339D01*
X253917933Y-129987719D01*
X253943255Y-130012187D01*
X253966830Y-130037741D01*
X253988660Y-130064384D01*
X254008743Y-130092113D01*
X254027079Y-130120930D01*
X254043669Y-130150834D01*
X254058513Y-130181825D01*
X254071611Y-130213903D01*
X254082962Y-130247069D01*
X254092567Y-130281322D01*
X254100425Y-130316662D01*
X254106537Y-130353089D01*
X254110903Y-130390604D01*
X254113523Y-130429206D01*
X254114396Y-130468896D01*
X254114145Y-130490928D01*
X254113393Y-130512695D01*
X254112138Y-130534196D01*
X254108125Y-130576402D01*
X254102105Y-130617546D01*
X254094079Y-130657627D01*
X254084046Y-130696647D01*
X254072006Y-130734605D01*
X254057960Y-130771500D01*
X254041907Y-130807334D01*
X254023848Y-130842105D01*
X254003782Y-130875814D01*
X253981709Y-130908462D01*
X253957630Y-130940047D01*
X253931544Y-130970570D01*
X253903451Y-131000031D01*
X253873352Y-131028430D01*
X253857550Y-131042231D01*
X253824731Y-131068649D01*
X253790484Y-131093362D01*
X253754810Y-131116371D01*
X253717709Y-131137675D01*
X253698623Y-131147688D01*
X253679180Y-131157275D01*
X253659381Y-131166436D01*
X253639224Y-131175171D01*
X253618711Y-131183480D01*
X253597841Y-131191362D01*
X253576615Y-131198819D01*
X253555031Y-131205849D01*
X253533090Y-131212454D01*
X253510793Y-131218632D01*
X253488139Y-131224384D01*
X253465128Y-131229710D01*
X253441760Y-131234610D01*
X253418036Y-131239084D01*
X253393954Y-131243132D01*
X253369516Y-131246754D01*
X253344721Y-131249950D01*
X253319569Y-131252719D01*
X253294061Y-131255063D01*
X253268195Y-131256980D01*
X253241973Y-131258471D01*
X253215394Y-131259537D01*
X253188458Y-131260176D01*
X253161165Y-131260389D01*
X253136015Y-131260252D01*
X253111006Y-131259843D01*
X253086139Y-131259161D01*
X253061414Y-131258206D01*
X253036830Y-131256978D01*
X253012388Y-131255477D01*
X252988088Y-131253704D01*
X252963930Y-131251657D01*
X252939913Y-131249338D01*
X252916038Y-131246746D01*
X252892304Y-131243881D01*
X252868712Y-131240743D01*
X252845262Y-131237332D01*
X252821954Y-131233648D01*
X252798787Y-131229692D01*
X252775762Y-131225462D01*
X252752878Y-131220960D01*
X252730137Y-131216185D01*
X252707537Y-131211137D01*
X252685078Y-131205816D01*
X252662762Y-131200222D01*
X252640587Y-131194356D01*
X252618553Y-131188216D01*
X252596662Y-131181804D01*
X252574912Y-131175119D01*
X252553303Y-131168161D01*
X252531837Y-131160930D01*
X252510512Y-131153426D01*
X252489329Y-131145649D01*
X252468287Y-131137600D01*
X252447387Y-131129277D01*
X252426629Y-131120682D01*
G37*
G36*
X255358522Y-128922183D02*
G01*
X255386719Y-128923002D01*
X255414438Y-128924366D01*
X255441679Y-128926276D01*
X255468440Y-128928732D01*
X255494724Y-128931733D01*
X255520528Y-128935281D01*
X255545854Y-128939374D01*
X255570702Y-128944012D01*
X255595071Y-128949197D01*
X255618961Y-128954927D01*
X255642373Y-128961203D01*
X255665306Y-128968024D01*
X255687761Y-128975392D01*
X255709737Y-128983305D01*
X255731235Y-128991764D01*
X255752254Y-129000768D01*
X255772794Y-129010318D01*
X255792856Y-129020414D01*
X255812439Y-129031056D01*
X255831544Y-129042244D01*
X255850170Y-129053977D01*
X255868318Y-129066256D01*
X255885987Y-129079080D01*
X255903177Y-129092451D01*
X255919889Y-129106367D01*
X255936123Y-129120829D01*
X255951878Y-129135836D01*
X255967154Y-129151390D01*
X255981951Y-129167489D01*
X255996271Y-129184133D01*
X256010111Y-129201324D01*
X256023500Y-129219108D01*
X256036464Y-129237535D01*
X256049002Y-129256604D01*
X256061116Y-129276316D01*
X256072805Y-129296669D01*
X256084068Y-129317665D01*
X256094907Y-129339303D01*
X256105320Y-129361584D01*
X256115309Y-129384507D01*
X256124872Y-129408072D01*
X256134010Y-129432279D01*
X256142724Y-129457129D01*
X256151012Y-129482621D01*
X256158875Y-129508755D01*
X256166313Y-129535531D01*
X256173326Y-129562950D01*
X256179915Y-129591011D01*
X256186078Y-129619714D01*
X256191816Y-129649060D01*
X256197129Y-129679048D01*
X256202017Y-129709678D01*
X256206480Y-129740950D01*
X256210517Y-129772865D01*
X256214130Y-129805422D01*
X256217318Y-129838621D01*
X256220081Y-129872463D01*
X256222419Y-129906947D01*
X256224331Y-129942073D01*
X256225819Y-129977841D01*
X256226881Y-130014252D01*
X256227519Y-130051305D01*
X256227732Y-130089000D01*
X256227520Y-130127321D01*
X256226886Y-130164974D01*
X256225828Y-130201960D01*
X256224348Y-130238278D01*
X256222445Y-130273929D01*
X256220119Y-130308913D01*
X256217369Y-130343229D01*
X256214197Y-130376877D01*
X256210602Y-130409858D01*
X256206584Y-130442172D01*
X256202144Y-130473818D01*
X256197280Y-130504796D01*
X256191993Y-130535107D01*
X256186283Y-130564751D01*
X256180151Y-130593727D01*
X256173595Y-130622036D01*
X256166617Y-130649677D01*
X256159215Y-130676651D01*
X256151391Y-130702957D01*
X256143143Y-130728596D01*
X256134473Y-130753567D01*
X256125380Y-130777871D01*
X256115864Y-130801508D01*
X256105925Y-130824476D01*
X256095563Y-130846778D01*
X256084778Y-130868412D01*
X256073570Y-130889378D01*
X256061939Y-130909678D01*
X256049885Y-130929309D01*
X256037408Y-130948273D01*
X256024508Y-130966570D01*
X256011186Y-130984199D01*
X255997442Y-131001191D01*
X255983211Y-131017644D01*
X255968493Y-131033557D01*
X255953288Y-131048931D01*
X255937596Y-131063765D01*
X255921417Y-131078060D01*
X255904752Y-131091816D01*
X255887599Y-131105032D01*
X255869959Y-131117709D01*
X255851833Y-131129846D01*
X255833219Y-131141444D01*
X255814118Y-131152502D01*
X255794531Y-131163021D01*
X255774456Y-131173001D01*
X255753895Y-131182441D01*
X255732847Y-131191341D01*
X255711311Y-131199703D01*
X255689289Y-131207524D01*
X255666780Y-131214807D01*
X255643784Y-131221550D01*
X255620300Y-131227753D01*
X255596330Y-131233417D01*
X255571873Y-131238542D01*
X255546929Y-131243127D01*
X255521498Y-131247173D01*
X255495580Y-131250679D01*
X255469175Y-131253646D01*
X255442283Y-131256073D01*
X255414904Y-131257961D01*
X255387038Y-131259310D01*
X255358686Y-131260119D01*
X255329846Y-131260389D01*
X255301071Y-131260118D01*
X255272779Y-131259304D01*
X255244970Y-131257947D01*
X255217644Y-131256048D01*
X255190800Y-131253607D01*
X255164439Y-131250622D01*
X255138561Y-131247096D01*
X255113166Y-131243026D01*
X255088253Y-131238414D01*
X255063824Y-131233260D01*
X255039876Y-131227563D01*
X255016412Y-131221323D01*
X254993431Y-131214541D01*
X254970932Y-131207216D01*
X254948916Y-131199348D01*
X254927383Y-131190938D01*
X254906332Y-131181986D01*
X254885764Y-131172491D01*
X254865679Y-131162453D01*
X254846077Y-131151873D01*
X254826958Y-131140750D01*
X254808321Y-131129084D01*
X254790167Y-131116876D01*
X254772496Y-131104125D01*
X254755308Y-131090832D01*
X254738602Y-131076996D01*
X254722379Y-131062618D01*
X254706639Y-131047697D01*
X254691382Y-131032233D01*
X254676607Y-131016227D01*
X254662315Y-130999678D01*
X254648506Y-130982587D01*
X254635183Y-130964863D01*
X254622284Y-130946485D01*
X254609807Y-130927452D01*
X254597753Y-130907763D01*
X254586122Y-130887420D01*
X254574914Y-130866422D01*
X254564129Y-130844769D01*
X254553767Y-130822461D01*
X254543828Y-130799499D01*
X254534312Y-130775881D01*
X254525219Y-130751609D01*
X254516549Y-130726682D01*
X254508301Y-130701099D01*
X254500477Y-130674862D01*
X254493075Y-130647971D01*
X254486097Y-130620424D01*
X254479541Y-130592222D01*
X254473409Y-130563366D01*
X254467699Y-130533854D01*
X254462412Y-130503688D01*
X254457548Y-130472867D01*
X254453107Y-130441391D01*
X254449090Y-130409260D01*
X254445495Y-130376474D01*
X254442322Y-130343033D01*
X254439573Y-130308938D01*
X254437247Y-130274187D01*
X254435344Y-130238782D01*
X254433864Y-130202722D01*
X254432806Y-130166007D01*
X254432172Y-130128637D01*
X254431963Y-130091150D01*
X254935443Y-130091150D01*
X254935534Y-130117823D01*
X254935808Y-130144041D01*
X254936264Y-130169806D01*
X254936904Y-130195115D01*
X254937725Y-130219971D01*
X254938730Y-130244372D01*
X254939917Y-130268318D01*
X254941286Y-130291810D01*
X254942838Y-130314848D01*
X254944573Y-130337431D01*
X254946491Y-130359560D01*
X254948591Y-130381234D01*
X254953338Y-130423220D01*
X254958817Y-130463388D01*
X254965025Y-130501738D01*
X254971965Y-130538270D01*
X254979634Y-130572985D01*
X254988034Y-130605882D01*
X254997165Y-130636962D01*
X255007026Y-130666223D01*
X255017617Y-130693667D01*
X255028939Y-130719293D01*
X255041134Y-130743173D01*
X255054210Y-130765512D01*
X255068168Y-130786311D01*
X255083008Y-130805569D01*
X255098729Y-130823286D01*
X255115332Y-130839463D01*
X255132816Y-130854099D01*
X255151182Y-130867195D01*
X255170430Y-130878749D01*
X255190559Y-130888763D01*
X255211569Y-130897237D01*
X255233462Y-130904170D01*
X255256235Y-130909562D01*
X255279891Y-130913414D01*
X255304428Y-130915725D01*
X255329846Y-130916495D01*
X255355262Y-130915712D01*
X255379793Y-130913363D01*
X255403438Y-130909449D01*
X255426197Y-130903968D01*
X255448070Y-130896922D01*
X255469058Y-130888310D01*
X255489159Y-130878132D01*
X255508375Y-130866389D01*
X255526706Y-130853079D01*
X255544150Y-130838204D01*
X255560709Y-130821763D01*
X255576382Y-130803756D01*
X255591169Y-130784183D01*
X255605070Y-130763044D01*
X255618086Y-130740340D01*
X255630216Y-130716069D01*
X255641603Y-130690128D01*
X255652255Y-130662411D01*
X255662173Y-130632919D01*
X255671355Y-130601651D01*
X255679804Y-130568607D01*
X255687517Y-130533787D01*
X255694497Y-130497192D01*
X255700741Y-130458821D01*
X255706251Y-130418674D01*
X255711026Y-130376751D01*
X255713138Y-130355124D01*
X255715066Y-130333053D01*
X255716811Y-130310538D01*
X255718372Y-130287579D01*
X255719750Y-130264176D01*
X255720943Y-130240329D01*
X255721954Y-130216038D01*
X255722780Y-130191304D01*
X255723423Y-130166125D01*
X255723882Y-130140502D01*
X255724157Y-130114436D01*
X255724249Y-130087926D01*
X255724160Y-130061255D01*
X255723893Y-130035042D01*
X255723446Y-130009288D01*
X255722822Y-129983993D01*
X255722019Y-129959157D01*
X255721038Y-129934779D01*
X255719878Y-129910860D01*
X255718540Y-129887399D01*
X255717024Y-129864397D01*
X255715329Y-129841854D01*
X255713455Y-129819769D01*
X255711404Y-129798143D01*
X255706765Y-129756266D01*
X255701413Y-129716225D01*
X255695347Y-129678017D01*
X255688567Y-129641644D01*
X255681074Y-129607106D01*
X255672867Y-129574402D01*
X255663946Y-129543532D01*
X255654312Y-129514498D01*
X255643964Y-129487297D01*
X255632903Y-129461931D01*
X255621014Y-129438181D01*
X255608185Y-129415964D01*
X255594416Y-129395279D01*
X255579706Y-129376126D01*
X255564057Y-129358505D01*
X255547466Y-129342416D01*
X255529936Y-129327860D01*
X255511465Y-129314836D01*
X255492054Y-129303344D01*
X255471702Y-129293384D01*
X255450410Y-129284957D01*
X255428178Y-129278062D01*
X255405006Y-129272699D01*
X255380893Y-129268869D01*
X255355840Y-129266570D01*
X255329846Y-129265804D01*
X255303852Y-129266572D01*
X255278799Y-129268877D01*
X255254686Y-129272718D01*
X255231514Y-129278096D01*
X255209282Y-129285010D01*
X255187990Y-129293460D01*
X255167638Y-129303447D01*
X255148227Y-129314970D01*
X255129756Y-129328030D01*
X255112226Y-129342626D01*
X255095635Y-129358759D01*
X255079986Y-129376428D01*
X255065276Y-129395633D01*
X255051507Y-129416375D01*
X255038678Y-129438654D01*
X255026789Y-129462468D01*
X255015728Y-129487971D01*
X255005380Y-129515312D01*
X254995746Y-129544492D01*
X254986825Y-129575510D01*
X254978618Y-129608367D01*
X254971125Y-129643063D01*
X254964345Y-129679598D01*
X254958279Y-129717971D01*
X254952927Y-129758183D01*
X254948288Y-129800233D01*
X254946237Y-129821948D01*
X254944363Y-129844123D01*
X254942668Y-129866757D01*
X254941152Y-129889851D01*
X254939814Y-129913404D01*
X254938654Y-129937417D01*
X254937673Y-129961890D01*
X254936870Y-129986823D01*
X254936245Y-130012215D01*
X254935799Y-130038067D01*
X254935532Y-130064378D01*
X254935443Y-130091150D01*
X254431963Y-130091150D01*
X254431960Y-130090612D01*
X254432173Y-130052916D01*
X254432811Y-130015862D01*
X254433873Y-129979449D01*
X254435361Y-129943676D01*
X254437273Y-129908546D01*
X254439611Y-129874056D01*
X254442374Y-129840208D01*
X254445562Y-129807000D01*
X254449175Y-129774435D01*
X254453212Y-129742510D01*
X254457675Y-129711226D01*
X254462563Y-129680584D01*
X254467876Y-129650583D01*
X254473614Y-129621223D01*
X254479777Y-129592505D01*
X254486366Y-129564428D01*
X254493379Y-129536992D01*
X254500817Y-129510197D01*
X254508680Y-129484043D01*
X254516968Y-129458531D01*
X254525682Y-129433660D01*
X254534820Y-129409430D01*
X254544383Y-129385841D01*
X254554372Y-129362894D01*
X254564785Y-129340587D01*
X254575624Y-129318923D01*
X254586887Y-129297899D01*
X254598576Y-129277516D01*
X254610690Y-129257775D01*
X254623228Y-129238675D01*
X254636192Y-129220216D01*
X254649581Y-129202399D01*
X254663421Y-129185142D01*
X254677740Y-129168433D01*
X254692538Y-129152272D01*
X254707814Y-129136659D01*
X254723569Y-129121594D01*
X254739803Y-129107076D01*
X254756515Y-129093107D01*
X254773705Y-129079685D01*
X254791374Y-129066811D01*
X254809522Y-129054485D01*
X254828148Y-129042706D01*
X254847253Y-129031476D01*
X254866836Y-129020793D01*
X254886898Y-129010658D01*
X254907438Y-129001071D01*
X254928457Y-128992032D01*
X254949955Y-128983541D01*
X254971931Y-128975597D01*
X254994386Y-128968202D01*
X255017319Y-128961354D01*
X255040731Y-128955054D01*
X255064621Y-128949302D01*
X255088990Y-128944097D01*
X255113838Y-128939441D01*
X255139164Y-128935332D01*
X255164968Y-128931771D01*
X255191252Y-128928758D01*
X255218013Y-128926293D01*
X255245254Y-128924375D01*
X255272973Y-128923006D01*
X255301170Y-128922184D01*
X255329846Y-128921910D01*
X255358522Y-128922183D01*
G37*
D10*
G36*
X166883454Y-144154082D02*
G01*
X166882857Y-144260972D01*
X166881065Y-144365978D01*
X166878079Y-144469098D01*
X166873898Y-144570333D01*
X166868523Y-144669682D01*
X166861953Y-144767147D01*
X166854189Y-144862726D01*
X166845230Y-144956420D01*
X166835077Y-145048228D01*
X166823729Y-145138152D01*
X166811187Y-145226190D01*
X166797450Y-145312342D01*
X166782519Y-145396610D01*
X166766393Y-145478992D01*
X166749073Y-145559490D01*
X166730558Y-145638101D01*
X166710849Y-145714828D01*
X166667847Y-145862625D01*
X166620067Y-146002882D01*
X166567508Y-146135597D01*
X166510172Y-146260772D01*
X166448058Y-146378405D01*
X166381166Y-146488498D01*
X166309496Y-146591049D01*
X166271870Y-146639497D01*
X166193727Y-146731775D01*
X166112196Y-146818100D01*
X166027276Y-146898471D01*
X165938967Y-146972889D01*
X165847269Y-147041353D01*
X165752182Y-147103864D01*
X165653706Y-147160421D01*
X165551842Y-147211025D01*
X165446588Y-147255676D01*
X165337946Y-147294373D01*
X165225915Y-147327117D01*
X165110495Y-147353907D01*
X164991686Y-147374744D01*
X164869488Y-147389628D01*
X164743902Y-147398558D01*
X164614926Y-147401535D01*
X164513296Y-147399920D01*
X164413327Y-147395078D01*
X164315017Y-147387006D01*
X164218367Y-147375706D01*
X164123378Y-147361177D01*
X164030049Y-147343420D01*
X163938379Y-147322434D01*
X163848370Y-147298220D01*
X163760021Y-147270777D01*
X163673332Y-147240105D01*
X163588303Y-147206205D01*
X163504934Y-147169077D01*
X163423225Y-147128719D01*
X163343177Y-147085133D01*
X163264788Y-147038319D01*
X163188060Y-146988276D01*
X163112991Y-146935004D01*
X163039583Y-146878504D01*
X162967835Y-146818775D01*
X162897746Y-146755818D01*
X162829318Y-146689632D01*
X162762550Y-146620217D01*
X162697442Y-146547574D01*
X162633995Y-146471702D01*
X162572207Y-146392602D01*
X162512079Y-146310273D01*
X162453612Y-146224715D01*
X162396804Y-146135929D01*
X162341657Y-146043915D01*
X162288170Y-145948671D01*
X162236342Y-145850200D01*
X162186175Y-145748499D01*
X158630000Y-148622749D01*
X158630000Y-146379623D01*
X161756308Y-143950872D01*
X161756308Y-142798046D01*
X158630000Y-142798046D01*
X158630000Y-142786322D01*
X163006831Y-142786322D01*
X163006831Y-143599162D01*
X163008381Y-143742372D01*
X163013029Y-143879400D01*
X163020776Y-144010246D01*
X163031622Y-144134909D01*
X163045567Y-144253389D01*
X163062610Y-144365688D01*
X163082753Y-144471804D01*
X163105994Y-144571737D01*
X163132334Y-144665488D01*
X163161773Y-144753057D01*
X163194311Y-144834443D01*
X163229947Y-144909647D01*
X163268683Y-144978669D01*
X163332596Y-145070609D01*
X163403482Y-145148639D01*
X163480367Y-145216382D01*
X163561545Y-145277462D01*
X163647017Y-145331878D01*
X163736782Y-145379631D01*
X163830840Y-145420721D01*
X163929192Y-145455148D01*
X164031837Y-145482912D01*
X164138775Y-145504012D01*
X164250006Y-145518449D01*
X164365531Y-145526223D01*
X164444933Y-145527704D01*
X164549942Y-145524509D01*
X164650280Y-145514927D01*
X164745947Y-145498955D01*
X164836943Y-145476596D01*
X164923268Y-145447848D01*
X165004921Y-145412711D01*
X165081903Y-145371186D01*
X165154214Y-145323272D01*
X165221854Y-145268970D01*
X165284823Y-145208280D01*
X165324207Y-145164270D01*
X165379380Y-145090293D01*
X165429125Y-145003917D01*
X165473444Y-144905142D01*
X165512336Y-144793968D01*
X165535249Y-144712963D01*
X165555750Y-144626448D01*
X165573839Y-144534421D01*
X165589516Y-144436885D01*
X165602782Y-144333837D01*
X165613635Y-144225279D01*
X165622077Y-144111210D01*
X165628107Y-143991630D01*
X165631724Y-143866539D01*
X165632930Y-143735938D01*
X165632930Y-142786322D01*
X163006831Y-142786322D01*
X158630000Y-142786322D01*
X158630000Y-140982833D01*
X166883454Y-140982833D01*
X166883454Y-144154082D01*
G37*
D11*
G36*
X103457564Y-131226000D02*
G01*
X101870279Y-131226000D01*
X101870279Y-128956300D01*
X103457564Y-128956300D01*
X103457564Y-129334583D01*
X102366238Y-129334583D01*
X102366238Y-129816034D01*
X103380188Y-129816034D01*
X103380188Y-130194318D01*
X102366238Y-130194318D01*
X102366238Y-130847716D01*
X103457564Y-130847716D01*
X103457564Y-131226000D01*
G37*
G36*
X105035177Y-129953592D02*
G01*
X105020132Y-129953592D01*
X104995759Y-129945532D01*
X104969388Y-129938547D01*
X104948298Y-129934013D01*
X104926084Y-129930084D01*
X104902746Y-129926759D01*
X104878284Y-129924039D01*
X104852698Y-129921923D01*
X104825989Y-129920412D01*
X104798155Y-129919505D01*
X104769197Y-129919203D01*
X104738588Y-129919511D01*
X104708285Y-129920437D01*
X104678289Y-129921979D01*
X104648599Y-129924139D01*
X104619216Y-129926916D01*
X104590139Y-129930310D01*
X104561368Y-129934321D01*
X104532904Y-129938950D01*
X104504747Y-129944195D01*
X104476896Y-129950057D01*
X104449351Y-129956537D01*
X104422113Y-129963633D01*
X104395181Y-129971347D01*
X104368556Y-129979678D01*
X104342237Y-129988626D01*
X104316224Y-129998191D01*
X104316224Y-131226000D01*
X103851967Y-131226000D01*
X103851967Y-129472140D01*
X104316224Y-129472140D01*
X104316224Y-129788093D01*
X104342528Y-129765135D01*
X104368245Y-129743142D01*
X104393374Y-129722114D01*
X104417915Y-129702052D01*
X104441868Y-129682956D01*
X104465234Y-129664825D01*
X104488012Y-129647660D01*
X104510202Y-129631460D01*
X104531804Y-129616226D01*
X104552819Y-129601957D01*
X104573246Y-129588654D01*
X104593086Y-129576316D01*
X104612337Y-129564944D01*
X104640113Y-129549696D01*
X104666566Y-129536621D01*
X104692316Y-129525097D01*
X104717980Y-129514707D01*
X104743560Y-129505451D01*
X104769054Y-129497328D01*
X104794464Y-129490338D01*
X104819788Y-129484482D01*
X104845028Y-129479760D01*
X104870182Y-129476170D01*
X104895252Y-129473715D01*
X104920236Y-129472392D01*
X104936845Y-129472140D01*
X104958744Y-129472395D01*
X104981992Y-129473050D01*
X105005255Y-129473954D01*
X105027363Y-129474974D01*
X105035177Y-129475364D01*
X105035177Y-129953592D01*
G37*
G36*
X105945560Y-129438404D02*
G01*
X105977276Y-129440362D01*
X106008865Y-129443626D01*
X106040328Y-129448196D01*
X106071666Y-129454070D01*
X106102877Y-129461251D01*
X106133963Y-129469737D01*
X106164923Y-129479529D01*
X106195756Y-129490626D01*
X106226464Y-129503029D01*
X106257046Y-129516737D01*
X106287502Y-129531751D01*
X106317832Y-129548070D01*
X106348036Y-129565695D01*
X106378114Y-129584626D01*
X106408066Y-129604862D01*
X106439769Y-129472140D01*
X106877697Y-129472140D01*
X106877697Y-131005692D01*
X106877484Y-131032306D01*
X106876847Y-131058481D01*
X106875784Y-131084218D01*
X106874296Y-131109516D01*
X106872384Y-131134375D01*
X106870046Y-131158795D01*
X106867283Y-131182777D01*
X106864095Y-131206320D01*
X106860483Y-131229424D01*
X106856445Y-131252090D01*
X106851982Y-131274317D01*
X106847094Y-131296105D01*
X106841781Y-131317454D01*
X106836043Y-131338365D01*
X106823292Y-131378871D01*
X106808840Y-131417622D01*
X106792689Y-131454618D01*
X106774837Y-131489860D01*
X106755285Y-131523347D01*
X106734033Y-131555079D01*
X106711081Y-131585056D01*
X106686429Y-131613279D01*
X106660076Y-131639747D01*
X106631854Y-131664603D01*
X106601591Y-131687855D01*
X106569288Y-131709504D01*
X106534945Y-131729549D01*
X106498561Y-131747990D01*
X106460138Y-131764828D01*
X106419674Y-131780062D01*
X106398677Y-131787078D01*
X106377170Y-131793693D01*
X106355153Y-131799907D01*
X106332626Y-131805720D01*
X106309588Y-131811132D01*
X106286041Y-131816144D01*
X106261984Y-131820754D01*
X106237417Y-131824963D01*
X106212339Y-131828772D01*
X106186752Y-131832180D01*
X106160654Y-131835186D01*
X106134047Y-131837792D01*
X106106929Y-131839997D01*
X106079302Y-131841801D01*
X106051164Y-131843205D01*
X106022517Y-131844207D01*
X105993359Y-131844808D01*
X105963691Y-131845009D01*
X105924961Y-131844742D01*
X105886281Y-131843942D01*
X105847652Y-131842609D01*
X105809073Y-131840743D01*
X105770545Y-131838344D01*
X105732066Y-131835412D01*
X105693639Y-131831947D01*
X105655261Y-131827948D01*
X105616934Y-131823417D01*
X105578657Y-131818352D01*
X105540431Y-131812754D01*
X105502255Y-131806623D01*
X105464130Y-131799959D01*
X105426055Y-131792761D01*
X105388030Y-131785031D01*
X105350055Y-131776767D01*
X105350055Y-131397946D01*
X105372623Y-131397946D01*
X105409924Y-131410439D01*
X105446599Y-131422127D01*
X105482649Y-131433008D01*
X105518073Y-131443083D01*
X105552872Y-131452352D01*
X105587045Y-131460815D01*
X105620593Y-131468472D01*
X105653515Y-131475323D01*
X105685812Y-131481368D01*
X105717483Y-131486607D01*
X105748529Y-131491040D01*
X105778949Y-131494667D01*
X105808744Y-131497488D01*
X105837913Y-131499503D01*
X105866457Y-131500712D01*
X105894375Y-131501115D01*
X105927591Y-131500747D01*
X105959669Y-131499645D01*
X105990610Y-131497809D01*
X106020413Y-131495238D01*
X106049079Y-131491932D01*
X106076607Y-131487891D01*
X106102997Y-131483116D01*
X106128250Y-131477606D01*
X106152365Y-131471362D01*
X106175342Y-131464383D01*
X106197182Y-131456669D01*
X106217884Y-131448221D01*
X106237448Y-131439038D01*
X106264662Y-131423886D01*
X106289316Y-131407081D01*
X106311594Y-131387839D01*
X106331681Y-131365377D01*
X106349577Y-131339693D01*
X106360290Y-131320782D01*
X106370029Y-131300439D01*
X106378794Y-131278664D01*
X106386586Y-131255458D01*
X106393403Y-131230820D01*
X106399247Y-131204751D01*
X106404116Y-131177251D01*
X106408012Y-131148318D01*
X106410934Y-131117955D01*
X106412882Y-131086160D01*
X106413855Y-131052933D01*
X106413977Y-131035783D01*
X106413977Y-130940138D01*
X106397068Y-130953493D01*
X106363350Y-130978933D01*
X106329767Y-131002676D01*
X106296318Y-131024724D01*
X106263003Y-131045075D01*
X106229823Y-131063731D01*
X106196777Y-131080690D01*
X106163865Y-131095954D01*
X106131087Y-131109522D01*
X106098444Y-131121394D01*
X106065936Y-131131569D01*
X106033561Y-131140049D01*
X106001321Y-131146833D01*
X105969216Y-131151921D01*
X105937244Y-131155313D01*
X105905407Y-131157009D01*
X105889539Y-131157221D01*
X105845174Y-131156374D01*
X105802218Y-131153833D01*
X105760670Y-131149598D01*
X105720531Y-131143670D01*
X105681799Y-131136047D01*
X105644477Y-131126731D01*
X105608562Y-131115721D01*
X105574057Y-131103017D01*
X105540959Y-131088619D01*
X105509270Y-131072528D01*
X105478989Y-131054742D01*
X105450117Y-131035263D01*
X105422653Y-131014089D01*
X105396598Y-130991222D01*
X105371951Y-130966661D01*
X105348712Y-130940406D01*
X105326882Y-130912458D01*
X105306460Y-130882815D01*
X105287446Y-130851479D01*
X105269841Y-130818448D01*
X105253645Y-130783724D01*
X105238857Y-130747306D01*
X105225477Y-130709194D01*
X105213505Y-130669388D01*
X105202942Y-130627889D01*
X105193788Y-130584695D01*
X105186041Y-130539808D01*
X105179704Y-130493227D01*
X105174774Y-130444952D01*
X105171253Y-130394983D01*
X105169141Y-130343320D01*
X105168720Y-130311457D01*
X105649351Y-130311457D01*
X105649743Y-130344062D01*
X105650921Y-130375517D01*
X105652883Y-130405822D01*
X105655631Y-130434976D01*
X105659163Y-130462981D01*
X105663481Y-130489835D01*
X105668583Y-130515539D01*
X105674471Y-130540092D01*
X105681143Y-130563496D01*
X105688601Y-130585749D01*
X105696844Y-130606852D01*
X105705871Y-130626805D01*
X105720885Y-130654577D01*
X105737664Y-130679761D01*
X105749832Y-130695113D01*
X105769650Y-130716239D01*
X105791423Y-130735287D01*
X105815151Y-130752257D01*
X105840835Y-130767150D01*
X105868473Y-130779964D01*
X105898067Y-130790700D01*
X105918882Y-130796703D01*
X105940567Y-130801782D01*
X105963120Y-130805938D01*
X105986542Y-130809171D01*
X106010834Y-130811480D01*
X106035994Y-130812865D01*
X106062023Y-130813327D01*
X106093056Y-130812212D01*
X106124495Y-130808869D01*
X106156340Y-130803296D01*
X106177795Y-130798342D01*
X106199431Y-130792398D01*
X106221248Y-130785463D01*
X106243245Y-130777537D01*
X106265423Y-130768621D01*
X106287781Y-130758714D01*
X106310319Y-130747816D01*
X106333039Y-130735928D01*
X106355938Y-130723048D01*
X106379018Y-130709178D01*
X106402279Y-130694318D01*
X106413977Y-130686516D01*
X106413977Y-129846662D01*
X106385562Y-129835043D01*
X106357544Y-129824567D01*
X106329923Y-129815233D01*
X106302699Y-129807042D01*
X106275871Y-129799995D01*
X106249440Y-129794090D01*
X106223405Y-129789328D01*
X106197767Y-129785709D01*
X106172526Y-129783232D01*
X106147682Y-129781899D01*
X106131339Y-129781645D01*
X106101686Y-129782162D01*
X106072974Y-129783715D01*
X106045203Y-129786302D01*
X106018373Y-129789923D01*
X105992485Y-129794580D01*
X105967538Y-129800271D01*
X105943533Y-129806997D01*
X105920469Y-129814758D01*
X105898347Y-129823554D01*
X105877166Y-129833384D01*
X105856926Y-129844250D01*
X105837627Y-129856150D01*
X105819270Y-129869085D01*
X105801855Y-129883054D01*
X105785381Y-129898059D01*
X105769848Y-129914098D01*
X105755256Y-129931172D01*
X105741606Y-129949281D01*
X105728897Y-129968424D01*
X105717130Y-129988603D01*
X105706304Y-130009816D01*
X105696420Y-130032064D01*
X105687477Y-130055346D01*
X105679475Y-130079664D01*
X105672414Y-130105016D01*
X105666295Y-130131403D01*
X105661118Y-130158825D01*
X105656882Y-130187282D01*
X105653587Y-130216773D01*
X105651233Y-130247300D01*
X105649821Y-130278861D01*
X105649351Y-130311457D01*
X105168720Y-130311457D01*
X105168436Y-130289963D01*
X105168640Y-130266098D01*
X105169253Y-130242527D01*
X105170273Y-130219249D01*
X105171702Y-130196266D01*
X105173539Y-130173576D01*
X105175785Y-130151180D01*
X105178438Y-130129078D01*
X105181500Y-130107270D01*
X105184970Y-130085755D01*
X105188849Y-130064535D01*
X105197830Y-130022975D01*
X105208445Y-129982591D01*
X105220692Y-129943383D01*
X105234573Y-129905349D01*
X105250086Y-129868492D01*
X105267232Y-129832809D01*
X105286012Y-129798302D01*
X105306424Y-129764971D01*
X105328470Y-129732815D01*
X105352148Y-129701834D01*
X105377459Y-129672029D01*
X105404112Y-129643659D01*
X105431680Y-129617120D01*
X105460163Y-129592411D01*
X105489561Y-129569532D01*
X105519874Y-129548484D01*
X105551102Y-129529266D01*
X105583246Y-129511878D01*
X105616304Y-129496321D01*
X105650278Y-129482593D01*
X105685167Y-129470696D01*
X105720971Y-129460630D01*
X105757691Y-129452393D01*
X105795325Y-129445987D01*
X105833874Y-129441412D01*
X105873339Y-129438666D01*
X105913719Y-129437751D01*
X105945560Y-129438404D01*
G37*
G36*
X108137796Y-129437987D02*
G01*
X108163808Y-129438696D01*
X108189452Y-129439876D01*
X108214727Y-129441529D01*
X108239634Y-129443654D01*
X108264172Y-129446252D01*
X108288342Y-129449322D01*
X108312144Y-129452864D01*
X108335577Y-129456878D01*
X108358642Y-129461364D01*
X108381339Y-129466323D01*
X108403667Y-129471754D01*
X108425627Y-129477658D01*
X108447219Y-129484033D01*
X108468442Y-129490881D01*
X108489296Y-129498201D01*
X108509783Y-129505994D01*
X108529901Y-129514258D01*
X108549651Y-129522995D01*
X108588045Y-129541886D01*
X108624965Y-129562666D01*
X108660413Y-129585334D01*
X108694387Y-129609892D01*
X108726887Y-129636339D01*
X108757914Y-129664675D01*
X108772875Y-129679551D01*
X108801504Y-129710446D01*
X108828287Y-129742814D01*
X108853223Y-129776656D01*
X108876311Y-129811971D01*
X108897553Y-129848759D01*
X108916947Y-129887021D01*
X108925952Y-129906705D01*
X108934495Y-129926757D01*
X108942576Y-129947177D01*
X108950195Y-129967966D01*
X108957352Y-129989123D01*
X108964048Y-130010648D01*
X108970282Y-130032542D01*
X108976054Y-130054804D01*
X108981364Y-130077434D01*
X108986213Y-130100433D01*
X108990600Y-130123800D01*
X108994525Y-130147536D01*
X108997988Y-130171640D01*
X109000990Y-130196112D01*
X109003530Y-130220953D01*
X109005607Y-130246162D01*
X109007224Y-130271739D01*
X109008378Y-130297685D01*
X109009071Y-130323999D01*
X109009302Y-130350682D01*
X109009071Y-130377265D01*
X109008378Y-130403481D01*
X109007224Y-130429332D01*
X109005607Y-130454816D01*
X109003530Y-130479933D01*
X109000990Y-130504685D01*
X108997988Y-130529070D01*
X108994525Y-130553089D01*
X108990600Y-130576742D01*
X108986213Y-130600028D01*
X108981364Y-130622948D01*
X108976054Y-130645502D01*
X108970282Y-130667690D01*
X108964048Y-130689511D01*
X108957352Y-130710966D01*
X108950195Y-130732055D01*
X108942576Y-130752778D01*
X108934495Y-130773134D01*
X108925952Y-130793124D01*
X108916947Y-130812747D01*
X108897553Y-130850896D01*
X108876311Y-130887580D01*
X108853223Y-130922798D01*
X108828287Y-130956552D01*
X108801504Y-130988840D01*
X108772875Y-131019663D01*
X108742584Y-131048814D01*
X108710821Y-131076083D01*
X108677584Y-131101472D01*
X108642873Y-131124981D01*
X108606689Y-131146608D01*
X108569032Y-131166355D01*
X108529901Y-131184222D01*
X108509783Y-131192450D01*
X108489296Y-131200207D01*
X108468442Y-131207495D01*
X108447219Y-131214312D01*
X108425627Y-131220660D01*
X108403667Y-131226537D01*
X108381339Y-131231944D01*
X108358642Y-131236881D01*
X108335577Y-131241347D01*
X108312144Y-131245344D01*
X108288342Y-131248870D01*
X108264172Y-131251926D01*
X108239634Y-131254512D01*
X108214727Y-131256628D01*
X108189452Y-131258273D01*
X108163808Y-131259449D01*
X108137796Y-131260154D01*
X108111416Y-131260389D01*
X108084970Y-131260154D01*
X108058896Y-131259449D01*
X108033193Y-131258273D01*
X108007862Y-131256628D01*
X107982902Y-131254512D01*
X107958314Y-131251926D01*
X107934097Y-131248870D01*
X107910252Y-131245344D01*
X107886778Y-131241347D01*
X107863676Y-131236881D01*
X107840945Y-131231944D01*
X107818586Y-131226537D01*
X107796598Y-131220660D01*
X107774982Y-131214312D01*
X107753737Y-131207495D01*
X107732864Y-131200207D01*
X107712363Y-131192450D01*
X107692232Y-131184222D01*
X107672474Y-131175524D01*
X107634071Y-131156717D01*
X107597155Y-131136030D01*
X107561724Y-131113462D01*
X107527780Y-131089013D01*
X107495321Y-131062683D01*
X107464349Y-131034473D01*
X107449420Y-131019663D01*
X107420921Y-130988840D01*
X107394260Y-130956552D01*
X107369437Y-130922798D01*
X107346454Y-130887580D01*
X107325309Y-130850896D01*
X107306002Y-130812747D01*
X107297039Y-130793124D01*
X107288535Y-130773134D01*
X107280491Y-130752778D01*
X107272906Y-130732055D01*
X107265781Y-130710966D01*
X107259116Y-130689511D01*
X107252910Y-130667690D01*
X107247164Y-130645502D01*
X107241878Y-130622948D01*
X107237052Y-130600028D01*
X107232685Y-130576742D01*
X107228777Y-130553089D01*
X107225330Y-130529070D01*
X107222342Y-130504685D01*
X107219814Y-130479933D01*
X107217745Y-130454816D01*
X107216136Y-130429332D01*
X107214987Y-130403481D01*
X107214298Y-130377265D01*
X107214105Y-130354981D01*
X107699281Y-130354981D01*
X107699690Y-130391643D01*
X107700916Y-130427141D01*
X107702960Y-130461475D01*
X107705821Y-130494646D01*
X107709500Y-130526652D01*
X107713997Y-130557495D01*
X107719311Y-130587174D01*
X107725442Y-130615689D01*
X107732391Y-130643040D01*
X107740158Y-130669227D01*
X107748742Y-130694250D01*
X107758144Y-130718109D01*
X107768363Y-130740805D01*
X107779400Y-130762337D01*
X107791255Y-130782705D01*
X107803927Y-130801908D01*
X107817416Y-130819948D01*
X107831723Y-130836825D01*
X107846848Y-130852537D01*
X107862790Y-130867085D01*
X107897127Y-130892691D01*
X107934734Y-130913640D01*
X107954764Y-130922369D01*
X107975611Y-130929935D01*
X107997276Y-130936336D01*
X108019759Y-130941573D01*
X108043059Y-130945647D01*
X108067176Y-130948557D01*
X108092111Y-130950302D01*
X108117864Y-130950884D01*
X108142856Y-130950302D01*
X108167055Y-130948557D01*
X108190461Y-130945647D01*
X108213073Y-130941573D01*
X108234892Y-130936336D01*
X108255917Y-130929935D01*
X108276149Y-130922369D01*
X108314233Y-130903747D01*
X108349142Y-130880470D01*
X108380879Y-130852537D01*
X108395557Y-130836825D01*
X108409441Y-130819948D01*
X108422533Y-130801908D01*
X108434830Y-130782705D01*
X108446335Y-130762337D01*
X108457046Y-130740805D01*
X108466963Y-130718109D01*
X108476088Y-130694250D01*
X108484418Y-130669227D01*
X108491956Y-130643040D01*
X108498700Y-130615689D01*
X108504650Y-130587174D01*
X108509807Y-130557495D01*
X108514171Y-130526652D01*
X108517742Y-130494646D01*
X108520518Y-130461475D01*
X108522502Y-130427141D01*
X108523692Y-130391643D01*
X108524089Y-130354981D01*
X108523686Y-130317591D01*
X108522479Y-130281389D01*
X108520467Y-130246374D01*
X108517649Y-130212545D01*
X108514027Y-130179904D01*
X108509600Y-130148449D01*
X108504368Y-130118182D01*
X108498330Y-130089101D01*
X108491488Y-130061207D01*
X108483841Y-130034501D01*
X108475389Y-130008981D01*
X108466132Y-129984648D01*
X108456070Y-129961502D01*
X108445204Y-129939544D01*
X108433532Y-129918772D01*
X108421055Y-129899187D01*
X108407773Y-129880789D01*
X108393687Y-129863578D01*
X108378795Y-129847554D01*
X108363098Y-129832717D01*
X108329290Y-129806604D01*
X108292263Y-129785238D01*
X108272541Y-129776336D01*
X108252015Y-129768621D01*
X108230684Y-129762093D01*
X108208548Y-129756751D01*
X108185607Y-129752597D01*
X108161860Y-129749630D01*
X108137309Y-129747849D01*
X108111953Y-129747256D01*
X108086564Y-129747849D01*
X108061981Y-129749630D01*
X108038204Y-129752597D01*
X108015233Y-129756751D01*
X107993068Y-129762093D01*
X107971709Y-129768621D01*
X107951156Y-129776336D01*
X107931409Y-129785238D01*
X107894333Y-129806604D01*
X107860481Y-129832717D01*
X107844764Y-129847554D01*
X107829853Y-129863578D01*
X107815748Y-129880789D01*
X107802449Y-129899187D01*
X107789956Y-129918772D01*
X107778269Y-129939544D01*
X107767388Y-129961502D01*
X107757313Y-129984648D01*
X107748044Y-130008981D01*
X107739581Y-130034501D01*
X107731924Y-130061207D01*
X107725073Y-130089101D01*
X107719028Y-130118182D01*
X107713789Y-130148449D01*
X107709356Y-130179904D01*
X107705729Y-130212545D01*
X107702908Y-130246374D01*
X107700893Y-130281389D01*
X107699684Y-130317591D01*
X107699281Y-130354981D01*
X107214105Y-130354981D01*
X107214068Y-130350682D01*
X107214300Y-130323999D01*
X107214998Y-130297685D01*
X107216160Y-130271739D01*
X107217787Y-130246162D01*
X107219879Y-130220953D01*
X107222436Y-130196112D01*
X107225458Y-130171640D01*
X107228945Y-130147536D01*
X107232897Y-130123800D01*
X107237314Y-130100433D01*
X107242196Y-130077434D01*
X107247542Y-130054804D01*
X107253354Y-130032542D01*
X107259630Y-130010648D01*
X107266371Y-129989123D01*
X107273578Y-129967966D01*
X107281249Y-129947177D01*
X107289385Y-129926757D01*
X107297986Y-129906705D01*
X107307052Y-129887021D01*
X107316583Y-129867706D01*
X107337039Y-129830181D01*
X107359355Y-129794129D01*
X107383531Y-129759551D01*
X107409567Y-129726446D01*
X107437462Y-129694815D01*
X107452107Y-129679551D01*
X107482578Y-129650271D01*
X107514480Y-129622880D01*
X107547813Y-129597377D01*
X107582578Y-129573764D01*
X107618775Y-129552040D01*
X107656403Y-129532204D01*
X107695463Y-129514258D01*
X107715529Y-129505994D01*
X107735954Y-129498201D01*
X107756736Y-129490881D01*
X107777876Y-129484033D01*
X107799374Y-129477658D01*
X107821230Y-129471754D01*
X107843444Y-129466323D01*
X107866016Y-129461364D01*
X107888946Y-129456878D01*
X107912233Y-129452864D01*
X107935878Y-129449322D01*
X107959882Y-129446252D01*
X107984243Y-129443654D01*
X108008962Y-129441529D01*
X108034038Y-129439876D01*
X108059473Y-129438696D01*
X108085266Y-129437987D01*
X108111416Y-129437751D01*
X108137796Y-129437987D01*
G37*
G36*
X110277252Y-128956464D02*
G01*
X110306129Y-128956957D01*
X110334487Y-128957778D01*
X110362326Y-128958927D01*
X110389647Y-128960406D01*
X110416450Y-128962212D01*
X110442734Y-128964348D01*
X110468500Y-128966811D01*
X110493747Y-128969603D01*
X110518476Y-128972724D01*
X110542687Y-128976173D01*
X110566379Y-128979951D01*
X110589552Y-128984057D01*
X110612208Y-128988491D01*
X110634344Y-128993254D01*
X110655963Y-128998346D01*
X110677062Y-129003766D01*
X110717707Y-129015592D01*
X110756277Y-129028731D01*
X110792774Y-129043185D01*
X110827197Y-129058952D01*
X110859546Y-129076033D01*
X110889822Y-129094429D01*
X110918023Y-129114138D01*
X110931346Y-129124485D01*
X110956723Y-129145974D01*
X110980462Y-129168395D01*
X111002564Y-129191749D01*
X111023029Y-129216034D01*
X111041857Y-129241250D01*
X111059047Y-129267399D01*
X111074600Y-129294480D01*
X111088517Y-129322493D01*
X111100796Y-129351438D01*
X111111437Y-129381314D01*
X111120442Y-129412123D01*
X111127809Y-129443863D01*
X111133539Y-129476536D01*
X111137632Y-129510140D01*
X111140088Y-129544676D01*
X111140907Y-129580145D01*
X111140463Y-129608093D01*
X111139131Y-129635585D01*
X111136911Y-129662620D01*
X111133804Y-129689198D01*
X111129808Y-129715320D01*
X111124925Y-129740986D01*
X111119154Y-129766195D01*
X111112495Y-129790948D01*
X111104948Y-129815244D01*
X111096514Y-129839083D01*
X111087191Y-129862466D01*
X111076981Y-129885392D01*
X111065882Y-129907862D01*
X111053896Y-129929876D01*
X111041022Y-129951433D01*
X111027260Y-129972533D01*
X111012611Y-129993177D01*
X110997073Y-130013364D01*
X110980648Y-130033095D01*
X110963335Y-130052369D01*
X110945133Y-130071187D01*
X110926044Y-130089548D01*
X110906067Y-130107453D01*
X110885203Y-130124901D01*
X110863450Y-130141892D01*
X110840810Y-130158428D01*
X110817281Y-130174506D01*
X110792865Y-130190128D01*
X110767561Y-130205294D01*
X110741369Y-130220003D01*
X110714290Y-130234255D01*
X110686322Y-130248051D01*
X111476741Y-131226000D01*
X110859881Y-131226000D01*
X110191974Y-130366265D01*
X109874947Y-130366265D01*
X109874947Y-131226000D01*
X109375764Y-131226000D01*
X109375764Y-129300193D01*
X109871723Y-129300193D01*
X109871723Y-130022371D01*
X110095254Y-130022371D01*
X110134637Y-130021945D01*
X110172320Y-130020666D01*
X110208302Y-130018536D01*
X110242585Y-130015553D01*
X110275167Y-130011719D01*
X110306049Y-130007032D01*
X110335231Y-130001492D01*
X110362712Y-129995101D01*
X110388494Y-129987858D01*
X110412575Y-129979762D01*
X110434957Y-129970814D01*
X110455638Y-129961014D01*
X110474618Y-129950362D01*
X110499902Y-129932785D01*
X110521360Y-129913292D01*
X110539990Y-129892149D01*
X110556787Y-129869824D01*
X110571751Y-129846320D01*
X110584883Y-129821634D01*
X110596183Y-129795768D01*
X110605650Y-129768722D01*
X110613285Y-129740494D01*
X110619088Y-129711086D01*
X110623058Y-129680498D01*
X110625196Y-129648728D01*
X110625603Y-129626893D01*
X110624725Y-129598015D01*
X110622089Y-129570422D01*
X110617697Y-129544114D01*
X110611548Y-129519090D01*
X110603643Y-129495351D01*
X110593980Y-129472896D01*
X110582561Y-129451726D01*
X110569385Y-129431840D01*
X110554451Y-129413239D01*
X110537762Y-129395923D01*
X110525659Y-129385092D01*
X110505315Y-129369920D01*
X110481562Y-129356240D01*
X110454399Y-129344052D01*
X110423826Y-129333357D01*
X110401549Y-129327056D01*
X110377758Y-129321418D01*
X110352451Y-129316444D01*
X110325628Y-129312132D01*
X110297290Y-129308484D01*
X110267436Y-129305500D01*
X110236067Y-129303178D01*
X110203183Y-129301520D01*
X110168783Y-129300525D01*
X110132868Y-129300193D01*
X109871723Y-129300193D01*
X109375764Y-129300193D01*
X109375764Y-128956300D01*
X110247857Y-128956300D01*
X110277252Y-128956464D01*
G37*
G36*
X112384886Y-129437987D02*
G01*
X112410898Y-129438696D01*
X112436542Y-129439876D01*
X112461817Y-129441529D01*
X112486724Y-129443654D01*
X112511262Y-129446252D01*
X112535432Y-129449322D01*
X112559234Y-129452864D01*
X112582667Y-129456878D01*
X112605732Y-129461364D01*
X112628429Y-129466323D01*
X112650757Y-129471754D01*
X112672717Y-129477658D01*
X112694309Y-129484033D01*
X112715532Y-129490881D01*
X112736386Y-129498201D01*
X112756873Y-129505994D01*
X112776991Y-129514258D01*
X112796741Y-129522995D01*
X112835135Y-129541886D01*
X112872055Y-129562666D01*
X112907503Y-129585334D01*
X112941477Y-129609892D01*
X112973977Y-129636339D01*
X113005004Y-129664675D01*
X113019965Y-129679551D01*
X113048594Y-129710446D01*
X113075377Y-129742814D01*
X113100313Y-129776656D01*
X113123401Y-129811971D01*
X113144643Y-129848759D01*
X113164037Y-129887021D01*
X113173042Y-129906705D01*
X113181585Y-129926757D01*
X113189666Y-129947177D01*
X113197285Y-129967966D01*
X113204442Y-129989123D01*
X113211138Y-130010648D01*
X113217372Y-130032542D01*
X113223144Y-130054804D01*
X113228455Y-130077434D01*
X113233303Y-130100433D01*
X113237690Y-130123800D01*
X113241615Y-130147536D01*
X113245078Y-130171640D01*
X113248080Y-130196112D01*
X113250620Y-130220953D01*
X113252698Y-130246162D01*
X113254314Y-130271739D01*
X113255468Y-130297685D01*
X113256161Y-130323999D01*
X113256392Y-130350682D01*
X113256161Y-130377265D01*
X113255468Y-130403481D01*
X113254314Y-130429332D01*
X113252698Y-130454816D01*
X113250620Y-130479933D01*
X113248080Y-130504685D01*
X113245078Y-130529070D01*
X113241615Y-130553089D01*
X113237690Y-130576742D01*
X113233303Y-130600028D01*
X113228455Y-130622948D01*
X113223144Y-130645502D01*
X113217372Y-130667690D01*
X113211138Y-130689511D01*
X113204442Y-130710966D01*
X113197285Y-130732055D01*
X113189666Y-130752778D01*
X113181585Y-130773134D01*
X113173042Y-130793124D01*
X113164037Y-130812747D01*
X113144643Y-130850896D01*
X113123401Y-130887580D01*
X113100313Y-130922798D01*
X113075377Y-130956552D01*
X113048594Y-130988840D01*
X113019965Y-131019663D01*
X112989674Y-131048814D01*
X112957911Y-131076083D01*
X112924674Y-131101472D01*
X112889963Y-131124981D01*
X112853779Y-131146608D01*
X112816122Y-131166355D01*
X112776991Y-131184222D01*
X112756873Y-131192450D01*
X112736386Y-131200207D01*
X112715532Y-131207495D01*
X112694309Y-131214312D01*
X112672717Y-131220660D01*
X112650757Y-131226537D01*
X112628429Y-131231944D01*
X112605732Y-131236881D01*
X112582667Y-131241347D01*
X112559234Y-131245344D01*
X112535432Y-131248870D01*
X112511262Y-131251926D01*
X112486724Y-131254512D01*
X112461817Y-131256628D01*
X112436542Y-131258273D01*
X112410898Y-131259449D01*
X112384886Y-131260154D01*
X112358506Y-131260389D01*
X112332060Y-131260154D01*
X112305986Y-131259449D01*
X112280283Y-131258273D01*
X112254952Y-131256628D01*
X112229992Y-131254512D01*
X112205404Y-131251926D01*
X112181187Y-131248870D01*
X112157342Y-131245344D01*
X112133868Y-131241347D01*
X112110766Y-131236881D01*
X112088035Y-131231944D01*
X112065676Y-131226537D01*
X112043688Y-131220660D01*
X112022072Y-131214312D01*
X112000827Y-131207495D01*
X111979954Y-131200207D01*
X111959453Y-131192450D01*
X111939322Y-131184222D01*
X111919564Y-131175524D01*
X111881161Y-131156717D01*
X111844245Y-131136030D01*
X111808814Y-131113462D01*
X111774870Y-131089013D01*
X111742411Y-131062683D01*
X111711439Y-131034473D01*
X111696510Y-131019663D01*
X111668011Y-130988840D01*
X111641350Y-130956552D01*
X111616527Y-130922798D01*
X111593544Y-130887580D01*
X111572399Y-130850896D01*
X111553092Y-130812747D01*
X111544129Y-130793124D01*
X111535625Y-130773134D01*
X111527581Y-130752778D01*
X111519996Y-130732055D01*
X111512871Y-130710966D01*
X111506206Y-130689511D01*
X111500000Y-130667690D01*
X111494254Y-130645502D01*
X111488968Y-130622948D01*
X111484142Y-130600028D01*
X111479775Y-130576742D01*
X111475867Y-130553089D01*
X111472420Y-130529070D01*
X111469432Y-130504685D01*
X111466904Y-130479933D01*
X111464835Y-130454816D01*
X111463226Y-130429332D01*
X111462077Y-130403481D01*
X111461388Y-130377265D01*
X111461195Y-130354981D01*
X111946371Y-130354981D01*
X111946780Y-130391643D01*
X111948006Y-130427141D01*
X111950050Y-130461475D01*
X111952911Y-130494646D01*
X111956590Y-130526652D01*
X111961087Y-130557495D01*
X111966401Y-130587174D01*
X111972532Y-130615689D01*
X111979481Y-130643040D01*
X111987248Y-130669227D01*
X111995832Y-130694250D01*
X112005234Y-130718109D01*
X112015453Y-130740805D01*
X112026490Y-130762337D01*
X112038345Y-130782705D01*
X112051017Y-130801908D01*
X112064506Y-130819948D01*
X112078813Y-130836825D01*
X112093938Y-130852537D01*
X112109880Y-130867085D01*
X112144217Y-130892691D01*
X112181824Y-130913640D01*
X112201854Y-130922369D01*
X112222701Y-130929935D01*
X112244366Y-130936336D01*
X112266849Y-130941573D01*
X112290149Y-130945647D01*
X112314266Y-130948557D01*
X112339201Y-130950302D01*
X112364954Y-130950884D01*
X112389946Y-130950302D01*
X112414145Y-130948557D01*
X112437551Y-130945647D01*
X112460163Y-130941573D01*
X112481982Y-130936336D01*
X112503007Y-130929935D01*
X112523239Y-130922369D01*
X112561323Y-130903747D01*
X112596232Y-130880470D01*
X112627969Y-130852537D01*
X112642647Y-130836825D01*
X112656531Y-130819948D01*
X112669623Y-130801908D01*
X112681920Y-130782705D01*
X112693425Y-130762337D01*
X112704136Y-130740805D01*
X112714053Y-130718109D01*
X112723178Y-130694250D01*
X112731508Y-130669227D01*
X112739046Y-130643040D01*
X112745790Y-130615689D01*
X112751740Y-130587174D01*
X112756898Y-130557495D01*
X112761261Y-130526652D01*
X112764832Y-130494646D01*
X112767609Y-130461475D01*
X112769592Y-130427141D01*
X112770782Y-130391643D01*
X112771179Y-130354981D01*
X112770776Y-130317591D01*
X112769569Y-130281389D01*
X112767557Y-130246374D01*
X112764739Y-130212545D01*
X112761117Y-130179904D01*
X112756690Y-130148449D01*
X112751458Y-130118182D01*
X112745420Y-130089101D01*
X112738578Y-130061207D01*
X112730931Y-130034501D01*
X112722479Y-130008981D01*
X112713222Y-129984648D01*
X112703160Y-129961502D01*
X112692294Y-129939544D01*
X112680622Y-129918772D01*
X112668145Y-129899187D01*
X112654863Y-129880789D01*
X112640777Y-129863578D01*
X112625885Y-129847554D01*
X112610188Y-129832717D01*
X112576380Y-129806604D01*
X112539353Y-129785238D01*
X112519631Y-129776336D01*
X112499105Y-129768621D01*
X112477774Y-129762093D01*
X112455638Y-129756751D01*
X112432697Y-129752597D01*
X112408950Y-129749630D01*
X112384399Y-129747849D01*
X112359043Y-129747256D01*
X112333654Y-129747849D01*
X112309071Y-129749630D01*
X112285294Y-129752597D01*
X112262323Y-129756751D01*
X112240158Y-129762093D01*
X112218799Y-129768621D01*
X112198246Y-129776336D01*
X112178499Y-129785238D01*
X112141423Y-129806604D01*
X112107571Y-129832717D01*
X112091854Y-129847554D01*
X112076943Y-129863578D01*
X112062838Y-129880789D01*
X112049539Y-129899187D01*
X112037046Y-129918772D01*
X112025359Y-129939544D01*
X112014478Y-129961502D01*
X112004403Y-129984648D01*
X111995134Y-130008981D01*
X111986671Y-130034501D01*
X111979014Y-130061207D01*
X111972163Y-130089101D01*
X111966118Y-130118182D01*
X111960879Y-130148449D01*
X111956446Y-130179904D01*
X111952819Y-130212545D01*
X111949998Y-130246374D01*
X111947983Y-130281389D01*
X111946774Y-130317591D01*
X111946371Y-130354981D01*
X111461195Y-130354981D01*
X111461158Y-130350682D01*
X111461390Y-130323999D01*
X111462088Y-130297685D01*
X111463250Y-130271739D01*
X111464877Y-130246162D01*
X111466969Y-130220953D01*
X111469526Y-130196112D01*
X111472548Y-130171640D01*
X111476035Y-130147536D01*
X111479987Y-130123800D01*
X111484404Y-130100433D01*
X111489286Y-130077434D01*
X111494632Y-130054804D01*
X111500444Y-130032542D01*
X111506720Y-130010648D01*
X111513461Y-129989123D01*
X111520668Y-129967966D01*
X111528339Y-129947177D01*
X111536475Y-129926757D01*
X111545076Y-129906705D01*
X111554142Y-129887021D01*
X111563673Y-129867706D01*
X111584129Y-129830181D01*
X111606445Y-129794129D01*
X111630621Y-129759551D01*
X111656657Y-129726446D01*
X111684552Y-129694815D01*
X111699197Y-129679551D01*
X111729668Y-129650271D01*
X111761570Y-129622880D01*
X111794903Y-129597377D01*
X111829668Y-129573764D01*
X111865865Y-129552040D01*
X111903493Y-129532204D01*
X111942553Y-129514258D01*
X111962619Y-129505994D01*
X111983044Y-129498201D01*
X112003826Y-129490881D01*
X112024966Y-129484033D01*
X112046464Y-129477658D01*
X112068320Y-129471754D01*
X112090534Y-129466323D01*
X112113106Y-129461364D01*
X112136036Y-129456878D01*
X112159323Y-129452864D01*
X112182968Y-129449322D01*
X112206972Y-129446252D01*
X112231333Y-129443654D01*
X112256052Y-129441529D01*
X112281128Y-129439876D01*
X112306563Y-129438696D01*
X112332356Y-129437987D01*
X112358506Y-129437751D01*
X112384886Y-129437987D01*
G37*
G36*
X115268709Y-131226000D02*
G01*
X114717404Y-131226000D01*
X114307418Y-130645678D01*
X113892058Y-131226000D01*
X113369232Y-131226000D01*
X114038750Y-130350682D01*
X113378367Y-129472140D01*
X113928060Y-129472140D01*
X114331598Y-130041715D01*
X114738360Y-129472140D01*
X115262798Y-129472140D01*
X114597578Y-130336711D01*
X115268709Y-131226000D01*
G37*
G36*
X115526629Y-131120682D02*
G01*
X115526629Y-130675769D01*
X115576601Y-130675769D01*
X115597251Y-130688464D01*
X115617827Y-130700755D01*
X115638328Y-130712644D01*
X115658754Y-130724129D01*
X115679106Y-130735212D01*
X115699384Y-130745891D01*
X115719587Y-130756168D01*
X115739716Y-130766041D01*
X115759770Y-130775512D01*
X115779749Y-130784579D01*
X115799654Y-130793244D01*
X115839240Y-130809364D01*
X115878529Y-130823872D01*
X115917519Y-130836768D01*
X115956211Y-130848052D01*
X115994606Y-130857724D01*
X116032702Y-130865784D01*
X116070500Y-130872232D01*
X116108000Y-130877068D01*
X116145202Y-130880292D01*
X116182106Y-130881904D01*
X116200446Y-130882106D01*
X116231687Y-130881713D01*
X116261935Y-130880536D01*
X116291192Y-130878573D01*
X116319457Y-130875825D01*
X116346731Y-130872293D01*
X116373012Y-130867975D01*
X116398302Y-130862873D01*
X116422600Y-130856985D01*
X116445907Y-130850313D01*
X116468221Y-130842855D01*
X116489544Y-130834612D01*
X116509875Y-130825585D01*
X116529214Y-130815772D01*
X116564918Y-130793792D01*
X116596654Y-130768671D01*
X116624423Y-130740411D01*
X116648226Y-130709010D01*
X116668061Y-130674470D01*
X116683929Y-130636789D01*
X116695830Y-130595969D01*
X116700293Y-130574381D01*
X116703764Y-130552008D01*
X116706243Y-130528850D01*
X116707731Y-130504907D01*
X116708227Y-130480180D01*
X116706990Y-130448835D01*
X116703278Y-130418879D01*
X116697091Y-130390312D01*
X116688430Y-130363133D01*
X116677294Y-130337343D01*
X116663683Y-130312941D01*
X116647597Y-130289927D01*
X116629037Y-130268302D01*
X116608003Y-130248065D01*
X116584493Y-130229217D01*
X116567445Y-130217423D01*
X116539964Y-130201002D01*
X116520326Y-130190953D01*
X116499635Y-130181621D01*
X116477890Y-130173006D01*
X116455091Y-130165110D01*
X116431238Y-130157932D01*
X116406332Y-130151471D01*
X116380372Y-130145728D01*
X116353358Y-130140703D01*
X116325291Y-130136396D01*
X116296170Y-130132807D01*
X116265995Y-130129936D01*
X116234767Y-130127782D01*
X116202485Y-130126347D01*
X116169149Y-130125629D01*
X116152086Y-130125539D01*
X116128303Y-130125805D01*
X116103701Y-130126605D01*
X116078280Y-130127938D01*
X116052041Y-130129804D01*
X116024983Y-130132203D01*
X115997107Y-130135135D01*
X115968412Y-130138601D01*
X115938899Y-130142599D01*
X115908567Y-130147131D01*
X115877416Y-130152196D01*
X115845447Y-130157794D01*
X115812659Y-130163925D01*
X115779052Y-130170589D01*
X115744627Y-130177786D01*
X115709383Y-130185517D01*
X115673321Y-130193780D01*
X115617438Y-130193780D01*
X115617438Y-128956300D01*
X117164961Y-128956300D01*
X117164961Y-129334583D01*
X116085994Y-129334583D01*
X116085994Y-129781645D01*
X116117729Y-129781645D01*
X116147848Y-129781645D01*
X116176353Y-129781645D01*
X116203242Y-129781645D01*
X116228516Y-129781645D01*
X116252175Y-129781645D01*
X116274219Y-129781645D01*
X116301098Y-129781645D01*
X116325106Y-129781645D01*
X116341228Y-129781645D01*
X116367661Y-129781823D01*
X116393700Y-129782359D01*
X116419342Y-129783251D01*
X116444589Y-129784500D01*
X116469440Y-129786105D01*
X116493896Y-129788068D01*
X116517956Y-129790387D01*
X116541620Y-129793063D01*
X116564888Y-129796096D01*
X116587761Y-129799486D01*
X116610239Y-129803233D01*
X116632320Y-129807336D01*
X116654006Y-129811797D01*
X116675296Y-129816614D01*
X116696191Y-129821788D01*
X116736793Y-129833206D01*
X116775813Y-129846052D01*
X116813250Y-129860325D01*
X116849105Y-129876025D01*
X116883376Y-129893152D01*
X116916066Y-129911707D01*
X116947172Y-129931689D01*
X116976696Y-129953099D01*
X116990865Y-129964339D01*
X117017933Y-129987719D01*
X117043255Y-130012187D01*
X117066830Y-130037741D01*
X117088660Y-130064384D01*
X117108743Y-130092113D01*
X117127079Y-130120930D01*
X117143669Y-130150834D01*
X117158513Y-130181825D01*
X117171611Y-130213903D01*
X117182962Y-130247069D01*
X117192567Y-130281322D01*
X117200425Y-130316662D01*
X117206537Y-130353089D01*
X117210903Y-130390604D01*
X117213523Y-130429206D01*
X117214396Y-130468896D01*
X117214145Y-130490928D01*
X117213393Y-130512695D01*
X117212138Y-130534196D01*
X117208125Y-130576402D01*
X117202105Y-130617546D01*
X117194079Y-130657627D01*
X117184046Y-130696647D01*
X117172006Y-130734605D01*
X117157960Y-130771500D01*
X117141907Y-130807334D01*
X117123848Y-130842105D01*
X117103782Y-130875814D01*
X117081709Y-130908462D01*
X117057630Y-130940047D01*
X117031544Y-130970570D01*
X117003451Y-131000031D01*
X116973352Y-131028430D01*
X116957550Y-131042231D01*
X116924731Y-131068649D01*
X116890484Y-131093362D01*
X116854810Y-131116371D01*
X116817709Y-131137675D01*
X116798623Y-131147688D01*
X116779180Y-131157275D01*
X116759381Y-131166436D01*
X116739224Y-131175171D01*
X116718711Y-131183480D01*
X116697841Y-131191362D01*
X116676615Y-131198819D01*
X116655031Y-131205849D01*
X116633090Y-131212454D01*
X116610793Y-131218632D01*
X116588139Y-131224384D01*
X116565128Y-131229710D01*
X116541760Y-131234610D01*
X116518036Y-131239084D01*
X116493954Y-131243132D01*
X116469516Y-131246754D01*
X116444721Y-131249950D01*
X116419569Y-131252719D01*
X116394061Y-131255063D01*
X116368195Y-131256980D01*
X116341973Y-131258471D01*
X116315394Y-131259537D01*
X116288458Y-131260176D01*
X116261165Y-131260389D01*
X116236015Y-131260252D01*
X116211006Y-131259843D01*
X116186139Y-131259161D01*
X116161414Y-131258206D01*
X116136830Y-131256978D01*
X116112388Y-131255477D01*
X116088088Y-131253704D01*
X116063930Y-131251657D01*
X116039913Y-131249338D01*
X116016038Y-131246746D01*
X115992304Y-131243881D01*
X115968712Y-131240743D01*
X115945262Y-131237332D01*
X115921954Y-131233648D01*
X115898787Y-131229692D01*
X115875762Y-131225462D01*
X115852878Y-131220960D01*
X115830137Y-131216185D01*
X115807537Y-131211137D01*
X115785078Y-131205816D01*
X115762762Y-131200222D01*
X115740587Y-131194356D01*
X115718553Y-131188216D01*
X115696662Y-131181804D01*
X115674912Y-131175119D01*
X115653303Y-131168161D01*
X115631837Y-131160930D01*
X115610512Y-131153426D01*
X115589329Y-131145649D01*
X115568287Y-131137600D01*
X115547387Y-131129277D01*
X115526629Y-131120682D01*
G37*
G36*
X118458522Y-128922183D02*
G01*
X118486719Y-128923002D01*
X118514438Y-128924366D01*
X118541679Y-128926276D01*
X118568440Y-128928732D01*
X118594724Y-128931733D01*
X118620528Y-128935281D01*
X118645854Y-128939374D01*
X118670702Y-128944012D01*
X118695071Y-128949197D01*
X118718961Y-128954927D01*
X118742373Y-128961203D01*
X118765306Y-128968024D01*
X118787761Y-128975392D01*
X118809737Y-128983305D01*
X118831235Y-128991764D01*
X118852254Y-129000768D01*
X118872794Y-129010318D01*
X118892856Y-129020414D01*
X118912439Y-129031056D01*
X118931544Y-129042244D01*
X118950170Y-129053977D01*
X118968318Y-129066256D01*
X118985987Y-129079080D01*
X119003177Y-129092451D01*
X119019889Y-129106367D01*
X119036123Y-129120829D01*
X119051878Y-129135836D01*
X119067154Y-129151390D01*
X119081951Y-129167489D01*
X119096271Y-129184133D01*
X119110111Y-129201324D01*
X119123500Y-129219108D01*
X119136464Y-129237535D01*
X119149002Y-129256604D01*
X119161116Y-129276316D01*
X119172805Y-129296669D01*
X119184068Y-129317665D01*
X119194907Y-129339303D01*
X119205320Y-129361584D01*
X119215309Y-129384507D01*
X119224872Y-129408072D01*
X119234010Y-129432279D01*
X119242724Y-129457129D01*
X119251012Y-129482621D01*
X119258875Y-129508755D01*
X119266313Y-129535531D01*
X119273326Y-129562950D01*
X119279915Y-129591011D01*
X119286078Y-129619714D01*
X119291816Y-129649060D01*
X119297129Y-129679048D01*
X119302017Y-129709678D01*
X119306480Y-129740950D01*
X119310517Y-129772865D01*
X119314130Y-129805422D01*
X119317318Y-129838621D01*
X119320081Y-129872463D01*
X119322419Y-129906947D01*
X119324331Y-129942073D01*
X119325819Y-129977841D01*
X119326881Y-130014252D01*
X119327519Y-130051305D01*
X119327732Y-130089000D01*
X119327520Y-130127321D01*
X119326886Y-130164974D01*
X119325828Y-130201960D01*
X119324348Y-130238278D01*
X119322445Y-130273929D01*
X119320119Y-130308913D01*
X119317369Y-130343229D01*
X119314197Y-130376877D01*
X119310602Y-130409858D01*
X119306584Y-130442172D01*
X119302144Y-130473818D01*
X119297280Y-130504796D01*
X119291993Y-130535107D01*
X119286283Y-130564751D01*
X119280151Y-130593727D01*
X119273595Y-130622036D01*
X119266617Y-130649677D01*
X119259215Y-130676651D01*
X119251391Y-130702957D01*
X119243143Y-130728596D01*
X119234473Y-130753567D01*
X119225380Y-130777871D01*
X119215864Y-130801508D01*
X119205925Y-130824476D01*
X119195563Y-130846778D01*
X119184778Y-130868412D01*
X119173570Y-130889378D01*
X119161939Y-130909678D01*
X119149885Y-130929309D01*
X119137408Y-130948273D01*
X119124508Y-130966570D01*
X119111186Y-130984199D01*
X119097442Y-131001191D01*
X119083211Y-131017644D01*
X119068493Y-131033557D01*
X119053288Y-131048931D01*
X119037596Y-131063765D01*
X119021417Y-131078060D01*
X119004752Y-131091816D01*
X118987599Y-131105032D01*
X118969959Y-131117709D01*
X118951833Y-131129846D01*
X118933219Y-131141444D01*
X118914118Y-131152502D01*
X118894531Y-131163021D01*
X118874456Y-131173001D01*
X118853895Y-131182441D01*
X118832847Y-131191341D01*
X118811311Y-131199703D01*
X118789289Y-131207524D01*
X118766780Y-131214807D01*
X118743784Y-131221550D01*
X118720300Y-131227753D01*
X118696330Y-131233417D01*
X118671873Y-131238542D01*
X118646929Y-131243127D01*
X118621498Y-131247173D01*
X118595580Y-131250679D01*
X118569175Y-131253646D01*
X118542283Y-131256073D01*
X118514904Y-131257961D01*
X118487038Y-131259310D01*
X118458686Y-131260119D01*
X118429846Y-131260389D01*
X118401071Y-131260118D01*
X118372779Y-131259304D01*
X118344970Y-131257947D01*
X118317644Y-131256048D01*
X118290800Y-131253607D01*
X118264439Y-131250622D01*
X118238561Y-131247096D01*
X118213166Y-131243026D01*
X118188253Y-131238414D01*
X118163824Y-131233260D01*
X118139876Y-131227563D01*
X118116412Y-131221323D01*
X118093431Y-131214541D01*
X118070932Y-131207216D01*
X118048916Y-131199348D01*
X118027383Y-131190938D01*
X118006332Y-131181986D01*
X117985764Y-131172491D01*
X117965679Y-131162453D01*
X117946077Y-131151873D01*
X117926958Y-131140750D01*
X117908321Y-131129084D01*
X117890167Y-131116876D01*
X117872496Y-131104125D01*
X117855308Y-131090832D01*
X117838602Y-131076996D01*
X117822379Y-131062618D01*
X117806639Y-131047697D01*
X117791382Y-131032233D01*
X117776607Y-131016227D01*
X117762315Y-130999678D01*
X117748506Y-130982587D01*
X117735183Y-130964863D01*
X117722284Y-130946485D01*
X117709807Y-130927452D01*
X117697753Y-130907763D01*
X117686122Y-130887420D01*
X117674914Y-130866422D01*
X117664129Y-130844769D01*
X117653767Y-130822461D01*
X117643828Y-130799499D01*
X117634312Y-130775881D01*
X117625219Y-130751609D01*
X117616549Y-130726682D01*
X117608301Y-130701099D01*
X117600477Y-130674862D01*
X117593075Y-130647971D01*
X117586097Y-130620424D01*
X117579541Y-130592222D01*
X117573409Y-130563366D01*
X117567699Y-130533854D01*
X117562412Y-130503688D01*
X117557548Y-130472867D01*
X117553107Y-130441391D01*
X117549090Y-130409260D01*
X117545495Y-130376474D01*
X117542322Y-130343033D01*
X117539573Y-130308938D01*
X117537247Y-130274187D01*
X117535344Y-130238782D01*
X117533864Y-130202722D01*
X117532806Y-130166007D01*
X117532172Y-130128637D01*
X117531963Y-130091150D01*
X118035443Y-130091150D01*
X118035534Y-130117823D01*
X118035808Y-130144041D01*
X118036264Y-130169806D01*
X118036904Y-130195115D01*
X118037725Y-130219971D01*
X118038730Y-130244372D01*
X118039917Y-130268318D01*
X118041286Y-130291810D01*
X118042838Y-130314848D01*
X118044573Y-130337431D01*
X118046491Y-130359560D01*
X118048591Y-130381234D01*
X118053338Y-130423220D01*
X118058817Y-130463388D01*
X118065025Y-130501738D01*
X118071965Y-130538270D01*
X118079634Y-130572985D01*
X118088034Y-130605882D01*
X118097165Y-130636962D01*
X118107026Y-130666223D01*
X118117617Y-130693667D01*
X118128939Y-130719293D01*
X118141134Y-130743173D01*
X118154210Y-130765512D01*
X118168168Y-130786311D01*
X118183008Y-130805569D01*
X118198729Y-130823286D01*
X118215332Y-130839463D01*
X118232816Y-130854099D01*
X118251182Y-130867195D01*
X118270430Y-130878749D01*
X118290559Y-130888763D01*
X118311569Y-130897237D01*
X118333462Y-130904170D01*
X118356235Y-130909562D01*
X118379891Y-130913414D01*
X118404428Y-130915725D01*
X118429846Y-130916495D01*
X118455262Y-130915712D01*
X118479793Y-130913363D01*
X118503438Y-130909449D01*
X118526197Y-130903968D01*
X118548070Y-130896922D01*
X118569058Y-130888310D01*
X118589159Y-130878132D01*
X118608375Y-130866389D01*
X118626706Y-130853079D01*
X118644150Y-130838204D01*
X118660709Y-130821763D01*
X118676382Y-130803756D01*
X118691169Y-130784183D01*
X118705070Y-130763044D01*
X118718086Y-130740340D01*
X118730216Y-130716069D01*
X118741603Y-130690128D01*
X118752255Y-130662411D01*
X118762173Y-130632919D01*
X118771355Y-130601651D01*
X118779804Y-130568607D01*
X118787517Y-130533787D01*
X118794497Y-130497192D01*
X118800741Y-130458821D01*
X118806251Y-130418674D01*
X118811026Y-130376751D01*
X118813138Y-130355124D01*
X118815066Y-130333053D01*
X118816811Y-130310538D01*
X118818372Y-130287579D01*
X118819750Y-130264176D01*
X118820943Y-130240329D01*
X118821954Y-130216038D01*
X118822780Y-130191304D01*
X118823423Y-130166125D01*
X118823882Y-130140502D01*
X118824157Y-130114436D01*
X118824249Y-130087926D01*
X118824160Y-130061255D01*
X118823893Y-130035042D01*
X118823446Y-130009288D01*
X118822822Y-129983993D01*
X118822019Y-129959157D01*
X118821038Y-129934779D01*
X118819878Y-129910860D01*
X118818540Y-129887399D01*
X118817024Y-129864397D01*
X118815329Y-129841854D01*
X118813455Y-129819769D01*
X118811404Y-129798143D01*
X118806765Y-129756266D01*
X118801413Y-129716225D01*
X118795347Y-129678017D01*
X118788567Y-129641644D01*
X118781074Y-129607106D01*
X118772867Y-129574402D01*
X118763946Y-129543532D01*
X118754312Y-129514498D01*
X118743964Y-129487297D01*
X118732903Y-129461931D01*
X118721014Y-129438181D01*
X118708185Y-129415964D01*
X118694416Y-129395279D01*
X118679706Y-129376126D01*
X118664057Y-129358505D01*
X118647466Y-129342416D01*
X118629936Y-129327860D01*
X118611465Y-129314836D01*
X118592054Y-129303344D01*
X118571702Y-129293384D01*
X118550410Y-129284957D01*
X118528178Y-129278062D01*
X118505006Y-129272699D01*
X118480893Y-129268869D01*
X118455840Y-129266570D01*
X118429846Y-129265804D01*
X118403852Y-129266572D01*
X118378799Y-129268877D01*
X118354686Y-129272718D01*
X118331514Y-129278096D01*
X118309282Y-129285010D01*
X118287990Y-129293460D01*
X118267638Y-129303447D01*
X118248227Y-129314970D01*
X118229756Y-129328030D01*
X118212226Y-129342626D01*
X118195635Y-129358759D01*
X118179986Y-129376428D01*
X118165276Y-129395633D01*
X118151507Y-129416375D01*
X118138678Y-129438654D01*
X118126789Y-129462468D01*
X118115728Y-129487971D01*
X118105380Y-129515312D01*
X118095746Y-129544492D01*
X118086825Y-129575510D01*
X118078618Y-129608367D01*
X118071125Y-129643063D01*
X118064345Y-129679598D01*
X118058279Y-129717971D01*
X118052927Y-129758183D01*
X118048288Y-129800233D01*
X118046237Y-129821948D01*
X118044363Y-129844123D01*
X118042668Y-129866757D01*
X118041152Y-129889851D01*
X118039814Y-129913404D01*
X118038654Y-129937417D01*
X118037673Y-129961890D01*
X118036870Y-129986823D01*
X118036245Y-130012215D01*
X118035799Y-130038067D01*
X118035532Y-130064378D01*
X118035443Y-130091150D01*
X117531963Y-130091150D01*
X117531960Y-130090612D01*
X117532173Y-130052916D01*
X117532811Y-130015862D01*
X117533873Y-129979449D01*
X117535361Y-129943676D01*
X117537273Y-129908546D01*
X117539611Y-129874056D01*
X117542374Y-129840208D01*
X117545562Y-129807000D01*
X117549175Y-129774435D01*
X117553212Y-129742510D01*
X117557675Y-129711226D01*
X117562563Y-129680584D01*
X117567876Y-129650583D01*
X117573614Y-129621223D01*
X117579777Y-129592505D01*
X117586366Y-129564428D01*
X117593379Y-129536992D01*
X117600817Y-129510197D01*
X117608680Y-129484043D01*
X117616968Y-129458531D01*
X117625682Y-129433660D01*
X117634820Y-129409430D01*
X117644383Y-129385841D01*
X117654372Y-129362894D01*
X117664785Y-129340587D01*
X117675624Y-129318923D01*
X117686887Y-129297899D01*
X117698576Y-129277516D01*
X117710690Y-129257775D01*
X117723228Y-129238675D01*
X117736192Y-129220216D01*
X117749581Y-129202399D01*
X117763421Y-129185142D01*
X117777740Y-129168433D01*
X117792538Y-129152272D01*
X117807814Y-129136659D01*
X117823569Y-129121594D01*
X117839803Y-129107076D01*
X117856515Y-129093107D01*
X117873705Y-129079685D01*
X117891374Y-129066811D01*
X117909522Y-129054485D01*
X117928148Y-129042706D01*
X117947253Y-129031476D01*
X117966836Y-129020793D01*
X117986898Y-129010658D01*
X118007438Y-129001071D01*
X118028457Y-128992032D01*
X118049955Y-128983541D01*
X118071931Y-128975597D01*
X118094386Y-128968202D01*
X118117319Y-128961354D01*
X118140731Y-128955054D01*
X118164621Y-128949302D01*
X118188990Y-128944097D01*
X118213838Y-128939441D01*
X118239164Y-128935332D01*
X118264968Y-128931771D01*
X118291252Y-128928758D01*
X118318013Y-128926293D01*
X118345254Y-128924375D01*
X118372973Y-128923006D01*
X118401170Y-128922184D01*
X118429846Y-128921910D01*
X118458522Y-128922183D01*
G37*
D12*
X207880819Y-142154761D02*
X206880819Y-142154761D01*
X206880819Y-142154761D02*
X207595104Y-141821428D01*
X207595104Y-141821428D02*
X206880819Y-141488095D01*
X206880819Y-141488095D02*
X207880819Y-141488095D01*
X207880819Y-140583333D02*
X207357009Y-140583333D01*
X207357009Y-140583333D02*
X207261771Y-140630952D01*
X207261771Y-140630952D02*
X207214152Y-140726190D01*
X207214152Y-140726190D02*
X207214152Y-140916666D01*
X207214152Y-140916666D02*
X207261771Y-141011904D01*
X207833200Y-140583333D02*
X207880819Y-140678571D01*
X207880819Y-140678571D02*
X207880819Y-140916666D01*
X207880819Y-140916666D02*
X207833200Y-141011904D01*
X207833200Y-141011904D02*
X207737961Y-141059523D01*
X207737961Y-141059523D02*
X207642723Y-141059523D01*
X207642723Y-141059523D02*
X207547485Y-141011904D01*
X207547485Y-141011904D02*
X207499866Y-140916666D01*
X207499866Y-140916666D02*
X207499866Y-140678571D01*
X207499866Y-140678571D02*
X207452247Y-140583333D01*
X207214152Y-140249999D02*
X207214152Y-139869047D01*
X206880819Y-140107142D02*
X207737961Y-140107142D01*
X207737961Y-140107142D02*
X207833200Y-140059523D01*
X207833200Y-140059523D02*
X207880819Y-139964285D01*
X207880819Y-139964285D02*
X207880819Y-139869047D01*
X207880819Y-139535713D02*
X207214152Y-139535713D01*
X207404628Y-139535713D02*
X207309390Y-139488094D01*
X207309390Y-139488094D02*
X207261771Y-139440475D01*
X207261771Y-139440475D02*
X207214152Y-139345237D01*
X207214152Y-139345237D02*
X207214152Y-139249999D01*
X207880819Y-138916665D02*
X207214152Y-138916665D01*
X206880819Y-138916665D02*
X206928438Y-138964284D01*
X206928438Y-138964284D02*
X206976057Y-138916665D01*
X206976057Y-138916665D02*
X206928438Y-138869046D01*
X206928438Y-138869046D02*
X206880819Y-138916665D01*
X206880819Y-138916665D02*
X206976057Y-138916665D01*
X207880819Y-138535713D02*
X207214152Y-138011904D01*
X207214152Y-138535713D02*
X207880819Y-138011904D01*
X207785580Y-136297618D02*
X207833200Y-136345237D01*
X207833200Y-136345237D02*
X207880819Y-136488094D01*
X207880819Y-136488094D02*
X207880819Y-136583332D01*
X207880819Y-136583332D02*
X207833200Y-136726189D01*
X207833200Y-136726189D02*
X207737961Y-136821427D01*
X207737961Y-136821427D02*
X207642723Y-136869046D01*
X207642723Y-136869046D02*
X207452247Y-136916665D01*
X207452247Y-136916665D02*
X207309390Y-136916665D01*
X207309390Y-136916665D02*
X207118914Y-136869046D01*
X207118914Y-136869046D02*
X207023676Y-136821427D01*
X207023676Y-136821427D02*
X206928438Y-136726189D01*
X206928438Y-136726189D02*
X206880819Y-136583332D01*
X206880819Y-136583332D02*
X206880819Y-136488094D01*
X206880819Y-136488094D02*
X206928438Y-136345237D01*
X206928438Y-136345237D02*
X206976057Y-136297618D01*
X207437295Y-158078571D02*
X206637295Y-158078571D01*
X206637295Y-158078571D02*
X206637295Y-157888095D01*
X206637295Y-157888095D02*
X206675390Y-157773809D01*
X206675390Y-157773809D02*
X206751580Y-157697619D01*
X206751580Y-157697619D02*
X206827771Y-157659524D01*
X206827771Y-157659524D02*
X206980152Y-157621428D01*
X206980152Y-157621428D02*
X207094438Y-157621428D01*
X207094438Y-157621428D02*
X207246819Y-157659524D01*
X207246819Y-157659524D02*
X207323009Y-157697619D01*
X207323009Y-157697619D02*
X207399200Y-157773809D01*
X207399200Y-157773809D02*
X207437295Y-157888095D01*
X207437295Y-157888095D02*
X207437295Y-158078571D01*
X207513485Y-157469048D02*
X207513485Y-156859524D01*
X207399200Y-156707143D02*
X207437295Y-156592857D01*
X207437295Y-156592857D02*
X207437295Y-156402381D01*
X207437295Y-156402381D02*
X207399200Y-156326190D01*
X207399200Y-156326190D02*
X207361104Y-156288095D01*
X207361104Y-156288095D02*
X207284914Y-156250000D01*
X207284914Y-156250000D02*
X207208723Y-156250000D01*
X207208723Y-156250000D02*
X207132533Y-156288095D01*
X207132533Y-156288095D02*
X207094438Y-156326190D01*
X207094438Y-156326190D02*
X207056342Y-156402381D01*
X207056342Y-156402381D02*
X207018247Y-156554762D01*
X207018247Y-156554762D02*
X206980152Y-156630952D01*
X206980152Y-156630952D02*
X206942057Y-156669047D01*
X206942057Y-156669047D02*
X206865866Y-156707143D01*
X206865866Y-156707143D02*
X206789676Y-156707143D01*
X206789676Y-156707143D02*
X206713485Y-156669047D01*
X206713485Y-156669047D02*
X206675390Y-156630952D01*
X206675390Y-156630952D02*
X206637295Y-156554762D01*
X206637295Y-156554762D02*
X206637295Y-156364285D01*
X206637295Y-156364285D02*
X206675390Y-156250000D01*
X207399200Y-155602380D02*
X207437295Y-155678571D01*
X207437295Y-155678571D02*
X207437295Y-155830952D01*
X207437295Y-155830952D02*
X207399200Y-155907142D01*
X207399200Y-155907142D02*
X207323009Y-155945238D01*
X207323009Y-155945238D02*
X207018247Y-155945238D01*
X207018247Y-155945238D02*
X206942057Y-155907142D01*
X206942057Y-155907142D02*
X206903961Y-155830952D01*
X206903961Y-155830952D02*
X206903961Y-155678571D01*
X206903961Y-155678571D02*
X206942057Y-155602380D01*
X206942057Y-155602380D02*
X207018247Y-155564285D01*
X207018247Y-155564285D02*
X207094438Y-155564285D01*
X207094438Y-155564285D02*
X207170628Y-155945238D01*
X207437295Y-155107143D02*
X207399200Y-155183333D01*
X207399200Y-155183333D02*
X207323009Y-155221428D01*
X207323009Y-155221428D02*
X206637295Y-155221428D01*
X207437295Y-154383333D02*
X207437295Y-154840476D01*
X207437295Y-154611904D02*
X206637295Y-154611904D01*
X206637295Y-154611904D02*
X206751580Y-154688095D01*
X206751580Y-154688095D02*
X206827771Y-154764285D01*
X206827771Y-154764285D02*
X206865866Y-154840476D01*
X210239817Y-155202381D02*
X210954102Y-155202381D01*
X210954102Y-155202381D02*
X211096959Y-155250000D01*
X211096959Y-155250000D02*
X211192198Y-155345238D01*
X211192198Y-155345238D02*
X211239817Y-155488095D01*
X211239817Y-155488095D02*
X211239817Y-155583333D01*
X211239817Y-154583333D02*
X211192198Y-154678571D01*
X211192198Y-154678571D02*
X211144578Y-154726190D01*
X211144578Y-154726190D02*
X211049340Y-154773809D01*
X211049340Y-154773809D02*
X210763626Y-154773809D01*
X210763626Y-154773809D02*
X210668388Y-154726190D01*
X210668388Y-154726190D02*
X210620769Y-154678571D01*
X210620769Y-154678571D02*
X210573150Y-154583333D01*
X210573150Y-154583333D02*
X210573150Y-154440476D01*
X210573150Y-154440476D02*
X210620769Y-154345238D01*
X210620769Y-154345238D02*
X210668388Y-154297619D01*
X210668388Y-154297619D02*
X210763626Y-154250000D01*
X210763626Y-154250000D02*
X211049340Y-154250000D01*
X211049340Y-154250000D02*
X211144578Y-154297619D01*
X211144578Y-154297619D02*
X211192198Y-154345238D01*
X211192198Y-154345238D02*
X211239817Y-154440476D01*
X211239817Y-154440476D02*
X211239817Y-154583333D01*
X210573150Y-153916666D02*
X211239817Y-153678571D01*
X210573150Y-153440476D02*
X211239817Y-153678571D01*
X211239817Y-153678571D02*
X211477912Y-153773809D01*
X211477912Y-153773809D02*
X211525531Y-153821428D01*
X211525531Y-153821428D02*
X211573150Y-153916666D01*
X211192198Y-153107142D02*
X211239817Y-153011904D01*
X211239817Y-153011904D02*
X211239817Y-152821428D01*
X211239817Y-152821428D02*
X211192198Y-152726190D01*
X211192198Y-152726190D02*
X211096959Y-152678571D01*
X211096959Y-152678571D02*
X211049340Y-152678571D01*
X211049340Y-152678571D02*
X210954102Y-152726190D01*
X210954102Y-152726190D02*
X210906483Y-152821428D01*
X210906483Y-152821428D02*
X210906483Y-152964285D01*
X210906483Y-152964285D02*
X210858864Y-153059523D01*
X210858864Y-153059523D02*
X210763626Y-153107142D01*
X210763626Y-153107142D02*
X210716007Y-153107142D01*
X210716007Y-153107142D02*
X210620769Y-153059523D01*
X210620769Y-153059523D02*
X210573150Y-152964285D01*
X210573150Y-152964285D02*
X210573150Y-152821428D01*
X210573150Y-152821428D02*
X210620769Y-152726190D01*
X210573150Y-152392856D02*
X210573150Y-152011904D01*
X210239817Y-152249999D02*
X211096959Y-152249999D01*
X211096959Y-152249999D02*
X211192198Y-152202380D01*
X211192198Y-152202380D02*
X211239817Y-152107142D01*
X211239817Y-152107142D02*
X211239817Y-152011904D01*
X211239817Y-151678570D02*
X210573150Y-151678570D01*
X210239817Y-151678570D02*
X210287436Y-151726189D01*
X210287436Y-151726189D02*
X210335055Y-151678570D01*
X210335055Y-151678570D02*
X210287436Y-151630951D01*
X210287436Y-151630951D02*
X210239817Y-151678570D01*
X210239817Y-151678570D02*
X210335055Y-151678570D01*
X211192198Y-150773809D02*
X211239817Y-150869047D01*
X211239817Y-150869047D02*
X211239817Y-151059523D01*
X211239817Y-151059523D02*
X211192198Y-151154761D01*
X211192198Y-151154761D02*
X211144578Y-151202380D01*
X211144578Y-151202380D02*
X211049340Y-151249999D01*
X211049340Y-151249999D02*
X210763626Y-151249999D01*
X210763626Y-151249999D02*
X210668388Y-151202380D01*
X210668388Y-151202380D02*
X210620769Y-151154761D01*
X210620769Y-151154761D02*
X210573150Y-151059523D01*
X210573150Y-151059523D02*
X210573150Y-150869047D01*
X210573150Y-150869047D02*
X210620769Y-150773809D01*
X211239817Y-150345237D02*
X210239817Y-150345237D01*
X210858864Y-150249999D02*
X211239817Y-149964285D01*
X210573150Y-149964285D02*
X210954102Y-150345237D01*
X146071180Y-136295238D02*
X147071180Y-136295238D01*
X147071180Y-136295238D02*
X146356895Y-136628571D01*
X146356895Y-136628571D02*
X147071180Y-136961904D01*
X147071180Y-136961904D02*
X146071180Y-136961904D01*
X146071180Y-137866666D02*
X146594990Y-137866666D01*
X146594990Y-137866666D02*
X146690228Y-137819047D01*
X146690228Y-137819047D02*
X146737847Y-137723809D01*
X146737847Y-137723809D02*
X146737847Y-137533333D01*
X146737847Y-137533333D02*
X146690228Y-137438095D01*
X146118800Y-137866666D02*
X146071180Y-137771428D01*
X146071180Y-137771428D02*
X146071180Y-137533333D01*
X146071180Y-137533333D02*
X146118800Y-137438095D01*
X146118800Y-137438095D02*
X146214038Y-137390476D01*
X146214038Y-137390476D02*
X146309276Y-137390476D01*
X146309276Y-137390476D02*
X146404514Y-137438095D01*
X146404514Y-137438095D02*
X146452133Y-137533333D01*
X146452133Y-137533333D02*
X146452133Y-137771428D01*
X146452133Y-137771428D02*
X146499752Y-137866666D01*
X146737847Y-138200000D02*
X146737847Y-138580952D01*
X147071180Y-138342857D02*
X146214038Y-138342857D01*
X146214038Y-138342857D02*
X146118800Y-138390476D01*
X146118800Y-138390476D02*
X146071180Y-138485714D01*
X146071180Y-138485714D02*
X146071180Y-138580952D01*
X146071180Y-138914286D02*
X146737847Y-138914286D01*
X146547371Y-138914286D02*
X146642609Y-138961905D01*
X146642609Y-138961905D02*
X146690228Y-139009524D01*
X146690228Y-139009524D02*
X146737847Y-139104762D01*
X146737847Y-139104762D02*
X146737847Y-139200000D01*
X146071180Y-139533334D02*
X146737847Y-139533334D01*
X147071180Y-139533334D02*
X147023561Y-139485715D01*
X147023561Y-139485715D02*
X146975942Y-139533334D01*
X146975942Y-139533334D02*
X147023561Y-139580953D01*
X147023561Y-139580953D02*
X147071180Y-139533334D01*
X147071180Y-139533334D02*
X146975942Y-139533334D01*
X146071180Y-139914286D02*
X146737847Y-140438095D01*
X146737847Y-139914286D02*
X146071180Y-140438095D01*
X146071180Y-142152381D02*
X146547371Y-141819048D01*
X146071180Y-141580953D02*
X147071180Y-141580953D01*
X147071180Y-141580953D02*
X147071180Y-141961905D01*
X147071180Y-141961905D02*
X147023561Y-142057143D01*
X147023561Y-142057143D02*
X146975942Y-142104762D01*
X146975942Y-142104762D02*
X146880704Y-142152381D01*
X146880704Y-142152381D02*
X146737847Y-142152381D01*
X146737847Y-142152381D02*
X146642609Y-142104762D01*
X146642609Y-142104762D02*
X146594990Y-142057143D01*
X146594990Y-142057143D02*
X146547371Y-141961905D01*
X146547371Y-141961905D02*
X146547371Y-141580953D01*
X207854819Y-150676190D02*
X206854819Y-150676190D01*
X206854819Y-150676190D02*
X206854819Y-150295238D01*
X206854819Y-150295238D02*
X206902438Y-150200000D01*
X206902438Y-150200000D02*
X206950057Y-150152381D01*
X206950057Y-150152381D02*
X207045295Y-150104762D01*
X207045295Y-150104762D02*
X207188152Y-150104762D01*
X207188152Y-150104762D02*
X207283390Y-150152381D01*
X207283390Y-150152381D02*
X207331009Y-150200000D01*
X207331009Y-150200000D02*
X207378628Y-150295238D01*
X207378628Y-150295238D02*
X207378628Y-150676190D01*
X207854819Y-149533333D02*
X207807200Y-149628571D01*
X207807200Y-149628571D02*
X207759580Y-149676190D01*
X207759580Y-149676190D02*
X207664342Y-149723809D01*
X207664342Y-149723809D02*
X207378628Y-149723809D01*
X207378628Y-149723809D02*
X207283390Y-149676190D01*
X207283390Y-149676190D02*
X207235771Y-149628571D01*
X207235771Y-149628571D02*
X207188152Y-149533333D01*
X207188152Y-149533333D02*
X207188152Y-149390476D01*
X207188152Y-149390476D02*
X207235771Y-149295238D01*
X207235771Y-149295238D02*
X207283390Y-149247619D01*
X207283390Y-149247619D02*
X207378628Y-149200000D01*
X207378628Y-149200000D02*
X207664342Y-149200000D01*
X207664342Y-149200000D02*
X207759580Y-149247619D01*
X207759580Y-149247619D02*
X207807200Y-149295238D01*
X207807200Y-149295238D02*
X207854819Y-149390476D01*
X207854819Y-149390476D02*
X207854819Y-149533333D01*
X207188152Y-148866666D02*
X207854819Y-148676190D01*
X207854819Y-148676190D02*
X207378628Y-148485714D01*
X207378628Y-148485714D02*
X207854819Y-148295238D01*
X207854819Y-148295238D02*
X207188152Y-148104762D01*
X207807200Y-147342857D02*
X207854819Y-147438095D01*
X207854819Y-147438095D02*
X207854819Y-147628571D01*
X207854819Y-147628571D02*
X207807200Y-147723809D01*
X207807200Y-147723809D02*
X207711961Y-147771428D01*
X207711961Y-147771428D02*
X207331009Y-147771428D01*
X207331009Y-147771428D02*
X207235771Y-147723809D01*
X207235771Y-147723809D02*
X207188152Y-147628571D01*
X207188152Y-147628571D02*
X207188152Y-147438095D01*
X207188152Y-147438095D02*
X207235771Y-147342857D01*
X207235771Y-147342857D02*
X207331009Y-147295238D01*
X207331009Y-147295238D02*
X207426247Y-147295238D01*
X207426247Y-147295238D02*
X207521485Y-147771428D01*
X207854819Y-146866666D02*
X207188152Y-146866666D01*
X207378628Y-146866666D02*
X207283390Y-146819047D01*
X207283390Y-146819047D02*
X207235771Y-146771428D01*
X207235771Y-146771428D02*
X207188152Y-146676190D01*
X207188152Y-146676190D02*
X207188152Y-146580952D01*
X149845180Y-146723809D02*
X150845180Y-146723809D01*
X150845180Y-146723809D02*
X150845180Y-147104761D01*
X150845180Y-147104761D02*
X150797561Y-147199999D01*
X150797561Y-147199999D02*
X150749942Y-147247618D01*
X150749942Y-147247618D02*
X150654704Y-147295237D01*
X150654704Y-147295237D02*
X150511847Y-147295237D01*
X150511847Y-147295237D02*
X150416609Y-147247618D01*
X150416609Y-147247618D02*
X150368990Y-147199999D01*
X150368990Y-147199999D02*
X150321371Y-147104761D01*
X150321371Y-147104761D02*
X150321371Y-146723809D01*
X149845180Y-147866666D02*
X149892800Y-147771428D01*
X149892800Y-147771428D02*
X149940419Y-147723809D01*
X149940419Y-147723809D02*
X150035657Y-147676190D01*
X150035657Y-147676190D02*
X150321371Y-147676190D01*
X150321371Y-147676190D02*
X150416609Y-147723809D01*
X150416609Y-147723809D02*
X150464228Y-147771428D01*
X150464228Y-147771428D02*
X150511847Y-147866666D01*
X150511847Y-147866666D02*
X150511847Y-148009523D01*
X150511847Y-148009523D02*
X150464228Y-148104761D01*
X150464228Y-148104761D02*
X150416609Y-148152380D01*
X150416609Y-148152380D02*
X150321371Y-148199999D01*
X150321371Y-148199999D02*
X150035657Y-148199999D01*
X150035657Y-148199999D02*
X149940419Y-148152380D01*
X149940419Y-148152380D02*
X149892800Y-148104761D01*
X149892800Y-148104761D02*
X149845180Y-148009523D01*
X149845180Y-148009523D02*
X149845180Y-147866666D01*
X150511847Y-148533333D02*
X149845180Y-148723809D01*
X149845180Y-148723809D02*
X150321371Y-148914285D01*
X150321371Y-148914285D02*
X149845180Y-149104761D01*
X149845180Y-149104761D02*
X150511847Y-149295237D01*
X149892800Y-150057142D02*
X149845180Y-149961904D01*
X149845180Y-149961904D02*
X149845180Y-149771428D01*
X149845180Y-149771428D02*
X149892800Y-149676190D01*
X149892800Y-149676190D02*
X149988038Y-149628571D01*
X149988038Y-149628571D02*
X150368990Y-149628571D01*
X150368990Y-149628571D02*
X150464228Y-149676190D01*
X150464228Y-149676190D02*
X150511847Y-149771428D01*
X150511847Y-149771428D02*
X150511847Y-149961904D01*
X150511847Y-149961904D02*
X150464228Y-150057142D01*
X150464228Y-150057142D02*
X150368990Y-150104761D01*
X150368990Y-150104761D02*
X150273752Y-150104761D01*
X150273752Y-150104761D02*
X150178514Y-149628571D01*
X149845180Y-150533333D02*
X150511847Y-150533333D01*
X150321371Y-150533333D02*
X150416609Y-150580952D01*
X150416609Y-150580952D02*
X150464228Y-150628571D01*
X150464228Y-150628571D02*
X150511847Y-150723809D01*
X150511847Y-150723809D02*
X150511847Y-150819047D01*
X211654819Y-142154761D02*
X210654819Y-142154761D01*
X210654819Y-142154761D02*
X211369104Y-141821428D01*
X211369104Y-141821428D02*
X210654819Y-141488095D01*
X210654819Y-141488095D02*
X211654819Y-141488095D01*
X211654819Y-140583333D02*
X211131009Y-140583333D01*
X211131009Y-140583333D02*
X211035771Y-140630952D01*
X211035771Y-140630952D02*
X210988152Y-140726190D01*
X210988152Y-140726190D02*
X210988152Y-140916666D01*
X210988152Y-140916666D02*
X211035771Y-141011904D01*
X211607200Y-140583333D02*
X211654819Y-140678571D01*
X211654819Y-140678571D02*
X211654819Y-140916666D01*
X211654819Y-140916666D02*
X211607200Y-141011904D01*
X211607200Y-141011904D02*
X211511961Y-141059523D01*
X211511961Y-141059523D02*
X211416723Y-141059523D01*
X211416723Y-141059523D02*
X211321485Y-141011904D01*
X211321485Y-141011904D02*
X211273866Y-140916666D01*
X211273866Y-140916666D02*
X211273866Y-140678571D01*
X211273866Y-140678571D02*
X211226247Y-140583333D01*
X210988152Y-140249999D02*
X210988152Y-139869047D01*
X210654819Y-140107142D02*
X211511961Y-140107142D01*
X211511961Y-140107142D02*
X211607200Y-140059523D01*
X211607200Y-140059523D02*
X211654819Y-139964285D01*
X211654819Y-139964285D02*
X211654819Y-139869047D01*
X211654819Y-139535713D02*
X210988152Y-139535713D01*
X211178628Y-139535713D02*
X211083390Y-139488094D01*
X211083390Y-139488094D02*
X211035771Y-139440475D01*
X211035771Y-139440475D02*
X210988152Y-139345237D01*
X210988152Y-139345237D02*
X210988152Y-139249999D01*
X211654819Y-138916665D02*
X210988152Y-138916665D01*
X210654819Y-138916665D02*
X210702438Y-138964284D01*
X210702438Y-138964284D02*
X210750057Y-138916665D01*
X210750057Y-138916665D02*
X210702438Y-138869046D01*
X210702438Y-138869046D02*
X210654819Y-138916665D01*
X210654819Y-138916665D02*
X210750057Y-138916665D01*
X211654819Y-138535713D02*
X210988152Y-138011904D01*
X210988152Y-138535713D02*
X211654819Y-138011904D01*
X211654819Y-136297618D02*
X211178628Y-136630951D01*
X211654819Y-136869046D02*
X210654819Y-136869046D01*
X210654819Y-136869046D02*
X210654819Y-136488094D01*
X210654819Y-136488094D02*
X210702438Y-136392856D01*
X210702438Y-136392856D02*
X210750057Y-136345237D01*
X210750057Y-136345237D02*
X210845295Y-136297618D01*
X210845295Y-136297618D02*
X210988152Y-136297618D01*
X210988152Y-136297618D02*
X211083390Y-136345237D01*
X211083390Y-136345237D02*
X211131009Y-136392856D01*
X211131009Y-136392856D02*
X211178628Y-136488094D01*
X211178628Y-136488094D02*
X211178628Y-136869046D01*
X149845180Y-136205238D02*
X150845180Y-136205238D01*
X150845180Y-136205238D02*
X150130895Y-136538571D01*
X150130895Y-136538571D02*
X150845180Y-136871904D01*
X150845180Y-136871904D02*
X149845180Y-136871904D01*
X149845180Y-137776666D02*
X150368990Y-137776666D01*
X150368990Y-137776666D02*
X150464228Y-137729047D01*
X150464228Y-137729047D02*
X150511847Y-137633809D01*
X150511847Y-137633809D02*
X150511847Y-137443333D01*
X150511847Y-137443333D02*
X150464228Y-137348095D01*
X149892800Y-137776666D02*
X149845180Y-137681428D01*
X149845180Y-137681428D02*
X149845180Y-137443333D01*
X149845180Y-137443333D02*
X149892800Y-137348095D01*
X149892800Y-137348095D02*
X149988038Y-137300476D01*
X149988038Y-137300476D02*
X150083276Y-137300476D01*
X150083276Y-137300476D02*
X150178514Y-137348095D01*
X150178514Y-137348095D02*
X150226133Y-137443333D01*
X150226133Y-137443333D02*
X150226133Y-137681428D01*
X150226133Y-137681428D02*
X150273752Y-137776666D01*
X150511847Y-138110000D02*
X150511847Y-138490952D01*
X150845180Y-138252857D02*
X149988038Y-138252857D01*
X149988038Y-138252857D02*
X149892800Y-138300476D01*
X149892800Y-138300476D02*
X149845180Y-138395714D01*
X149845180Y-138395714D02*
X149845180Y-138490952D01*
X149845180Y-138824286D02*
X150511847Y-138824286D01*
X150321371Y-138824286D02*
X150416609Y-138871905D01*
X150416609Y-138871905D02*
X150464228Y-138919524D01*
X150464228Y-138919524D02*
X150511847Y-139014762D01*
X150511847Y-139014762D02*
X150511847Y-139110000D01*
X149845180Y-139443334D02*
X150511847Y-139443334D01*
X150845180Y-139443334D02*
X150797561Y-139395715D01*
X150797561Y-139395715D02*
X150749942Y-139443334D01*
X150749942Y-139443334D02*
X150797561Y-139490953D01*
X150797561Y-139490953D02*
X150845180Y-139443334D01*
X150845180Y-139443334D02*
X150749942Y-139443334D01*
X149845180Y-139824286D02*
X150511847Y-140348095D01*
X150511847Y-139824286D02*
X149845180Y-140348095D01*
X149940419Y-142062381D02*
X149892800Y-142014762D01*
X149892800Y-142014762D02*
X149845180Y-141871905D01*
X149845180Y-141871905D02*
X149845180Y-141776667D01*
X149845180Y-141776667D02*
X149892800Y-141633810D01*
X149892800Y-141633810D02*
X149988038Y-141538572D01*
X149988038Y-141538572D02*
X150083276Y-141490953D01*
X150083276Y-141490953D02*
X150273752Y-141443334D01*
X150273752Y-141443334D02*
X150416609Y-141443334D01*
X150416609Y-141443334D02*
X150607085Y-141490953D01*
X150607085Y-141490953D02*
X150702323Y-141538572D01*
X150702323Y-141538572D02*
X150797561Y-141633810D01*
X150797561Y-141633810D02*
X150845180Y-141776667D01*
X150845180Y-141776667D02*
X150845180Y-141871905D01*
X150845180Y-141871905D02*
X150797561Y-142014762D01*
X150797561Y-142014762D02*
X150749942Y-142062381D01*
X143723333Y-156994819D02*
X143723333Y-155994819D01*
X144151904Y-156090057D02*
X144199523Y-156042438D01*
X144199523Y-156042438D02*
X144294761Y-155994819D01*
X144294761Y-155994819D02*
X144532856Y-155994819D01*
X144532856Y-155994819D02*
X144628094Y-156042438D01*
X144628094Y-156042438D02*
X144675713Y-156090057D01*
X144675713Y-156090057D02*
X144723332Y-156185295D01*
X144723332Y-156185295D02*
X144723332Y-156280533D01*
X144723332Y-156280533D02*
X144675713Y-156423390D01*
X144675713Y-156423390D02*
X144104285Y-156994819D01*
X144104285Y-156994819D02*
X144723332Y-156994819D01*
X145723332Y-156899580D02*
X145675713Y-156947200D01*
X145675713Y-156947200D02*
X145532856Y-156994819D01*
X145532856Y-156994819D02*
X145437618Y-156994819D01*
X145437618Y-156994819D02*
X145294761Y-156947200D01*
X145294761Y-156947200D02*
X145199523Y-156851961D01*
X145199523Y-156851961D02*
X145151904Y-156756723D01*
X145151904Y-156756723D02*
X145104285Y-156566247D01*
X145104285Y-156566247D02*
X145104285Y-156423390D01*
X145104285Y-156423390D02*
X145151904Y-156232914D01*
X145151904Y-156232914D02*
X145199523Y-156137676D01*
X145199523Y-156137676D02*
X145294761Y-156042438D01*
X145294761Y-156042438D02*
X145437618Y-155994819D01*
X145437618Y-155994819D02*
X145532856Y-155994819D01*
X145532856Y-155994819D02*
X145675713Y-156042438D01*
X145675713Y-156042438D02*
X145723332Y-156090057D01*
X145913809Y-157090057D02*
X146675713Y-157090057D01*
X146913809Y-156328152D02*
X146913809Y-157328152D01*
X146913809Y-156375771D02*
X147009047Y-156328152D01*
X147009047Y-156328152D02*
X147199523Y-156328152D01*
X147199523Y-156328152D02*
X147294761Y-156375771D01*
X147294761Y-156375771D02*
X147342380Y-156423390D01*
X147342380Y-156423390D02*
X147389999Y-156518628D01*
X147389999Y-156518628D02*
X147389999Y-156804342D01*
X147389999Y-156804342D02*
X147342380Y-156899580D01*
X147342380Y-156899580D02*
X147294761Y-156947200D01*
X147294761Y-156947200D02*
X147199523Y-156994819D01*
X147199523Y-156994819D02*
X147009047Y-156994819D01*
X147009047Y-156994819D02*
X146913809Y-156947200D01*
X147818571Y-156994819D02*
X147818571Y-156328152D01*
X147818571Y-155994819D02*
X147770952Y-156042438D01*
X147770952Y-156042438D02*
X147818571Y-156090057D01*
X147818571Y-156090057D02*
X147866190Y-156042438D01*
X147866190Y-156042438D02*
X147818571Y-155994819D01*
X147818571Y-155994819D02*
X147818571Y-156090057D01*
X148294761Y-156328152D02*
X148294761Y-156994819D01*
X148294761Y-156423390D02*
X148342380Y-156375771D01*
X148342380Y-156375771D02*
X148437618Y-156328152D01*
X148437618Y-156328152D02*
X148580475Y-156328152D01*
X148580475Y-156328152D02*
X148675713Y-156375771D01*
X148675713Y-156375771D02*
X148723332Y-156471009D01*
X148723332Y-156471009D02*
X148723332Y-156994819D01*
X149342380Y-156994819D02*
X149247142Y-156947200D01*
X149247142Y-156947200D02*
X149199523Y-156899580D01*
X149199523Y-156899580D02*
X149151904Y-156804342D01*
X149151904Y-156804342D02*
X149151904Y-156518628D01*
X149151904Y-156518628D02*
X149199523Y-156423390D01*
X149199523Y-156423390D02*
X149247142Y-156375771D01*
X149247142Y-156375771D02*
X149342380Y-156328152D01*
X149342380Y-156328152D02*
X149485237Y-156328152D01*
X149485237Y-156328152D02*
X149580475Y-156375771D01*
X149580475Y-156375771D02*
X149628094Y-156423390D01*
X149628094Y-156423390D02*
X149675713Y-156518628D01*
X149675713Y-156518628D02*
X149675713Y-156804342D01*
X149675713Y-156804342D02*
X149628094Y-156899580D01*
X149628094Y-156899580D02*
X149580475Y-156947200D01*
X149580475Y-156947200D02*
X149485237Y-156994819D01*
X149485237Y-156994819D02*
X149342380Y-156994819D01*
X150532856Y-156328152D02*
X150532856Y-156994819D01*
X150104285Y-156328152D02*
X150104285Y-156851961D01*
X150104285Y-156851961D02*
X150151904Y-156947200D01*
X150151904Y-156947200D02*
X150247142Y-156994819D01*
X150247142Y-156994819D02*
X150389999Y-156994819D01*
X150389999Y-156994819D02*
X150485237Y-156947200D01*
X150485237Y-156947200D02*
X150532856Y-156899580D01*
X150866190Y-156328152D02*
X151247142Y-156328152D01*
X151009047Y-155994819D02*
X151009047Y-156851961D01*
X151009047Y-156851961D02*
X151056666Y-156947200D01*
X151056666Y-156947200D02*
X151151904Y-156994819D01*
X151151904Y-156994819D02*
X151247142Y-156994819D01*
X152104285Y-156994819D02*
X151532857Y-156994819D01*
X151818571Y-156994819D02*
X151818571Y-155994819D01*
X151818571Y-155994819D02*
X151723333Y-156137676D01*
X151723333Y-156137676D02*
X151628095Y-156232914D01*
X151628095Y-156232914D02*
X151532857Y-156280533D01*
%TO.C,SW31_R1*%
X103550000Y-76109851D02*
X103550000Y-75109851D01*
X103550000Y-89109851D02*
X103550000Y-88109851D01*
X103550000Y-89109851D02*
X104550000Y-89109851D01*
X104550000Y-75109851D02*
X103550000Y-75109851D01*
X116550000Y-89109851D02*
X117550000Y-89109851D01*
X117550000Y-75109851D02*
X116550000Y-75109851D01*
X117550000Y-75109851D02*
X117550000Y-76109851D01*
X117550000Y-88109851D02*
X117550000Y-89109851D01*
%TO.C,SW42_L1*%
X202450000Y-90109851D02*
X202450000Y-89109851D01*
X202450000Y-103109851D02*
X202450000Y-102109851D01*
X202450000Y-103109851D02*
X203450000Y-103109851D01*
X203450000Y-89109851D02*
X202450000Y-89109851D01*
X215450000Y-103109851D02*
X216450000Y-103109851D01*
X216450000Y-89109851D02*
X215450000Y-89109851D01*
X216450000Y-89109851D02*
X216450000Y-90109851D01*
X216450000Y-102109851D02*
X216450000Y-103109851D01*
%TO.C,SW52_L1*%
X183450000Y-95109851D02*
X183450000Y-94109851D01*
X183450000Y-108109851D02*
X183450000Y-107109851D01*
X183450000Y-108109851D02*
X184450000Y-108109851D01*
X184450000Y-94109851D02*
X183450000Y-94109851D01*
X196450000Y-108109851D02*
X197450000Y-108109851D01*
X197450000Y-94109851D02*
X196450000Y-94109851D01*
X197450000Y-94109851D02*
X197450000Y-95109851D01*
X197450000Y-107109851D02*
X197450000Y-108109851D01*
%TO.C,SW12_R1*%
X141550000Y-90109851D02*
X141550000Y-89109851D01*
X141550000Y-103109851D02*
X141550000Y-102109851D01*
X141550000Y-103109851D02*
X142550000Y-103109851D01*
X142550000Y-89109851D02*
X141550000Y-89109851D01*
X154550000Y-103109851D02*
X155550000Y-103109851D01*
X155550000Y-89109851D02*
X154550000Y-89109851D01*
X155550000Y-89109851D02*
X155550000Y-90109851D01*
X155550000Y-102109851D02*
X155550000Y-103109851D01*
%TO.C,SW11_R1*%
X141550000Y-71109851D02*
X141550000Y-70109851D01*
X141550000Y-84109851D02*
X141550000Y-83109851D01*
X141550000Y-84109851D02*
X142550000Y-84109851D01*
X142550000Y-70109851D02*
X141550000Y-70109851D01*
X154550000Y-84109851D02*
X155550000Y-84109851D01*
X155550000Y-70109851D02*
X154550000Y-70109851D01*
X155550000Y-70109851D02*
X155550000Y-71109851D01*
X155550000Y-83109851D02*
X155550000Y-84109851D01*
%TO.C,SW50_R1*%
X65550000Y-67109851D02*
X65550000Y-66109851D01*
X65550000Y-80109851D02*
X65550000Y-79109851D01*
X65550000Y-80109851D02*
X66550000Y-80109851D01*
X66550000Y-66109851D02*
X65550000Y-66109851D01*
X78550000Y-80109851D02*
X79550000Y-80109851D01*
X79550000Y-66109851D02*
X78550000Y-66109851D01*
X79550000Y-66109851D02*
X79550000Y-67109851D01*
X79550000Y-79109851D02*
X79550000Y-80109851D01*
%TO.C,SW10_R1*%
X141550000Y-52109851D02*
X141550000Y-51109851D01*
X141550000Y-65109851D02*
X141550000Y-64109851D01*
X141550000Y-65109851D02*
X142550000Y-65109851D01*
X142550000Y-51109851D02*
X141550000Y-51109851D01*
X154550000Y-65109851D02*
X155550000Y-65109851D01*
X155550000Y-51109851D02*
X154550000Y-51109851D01*
X155550000Y-51109851D02*
X155550000Y-52109851D01*
X155550000Y-64109851D02*
X155550000Y-65109851D01*
%TO.C,SW14_R1*%
X138000000Y-149500000D02*
X138000000Y-150500000D01*
X138000000Y-136500000D02*
X138000000Y-137500000D01*
X138000000Y-136500000D02*
X137000000Y-136500000D01*
X137000000Y-150500000D02*
X138000000Y-150500000D01*
X125000000Y-136500000D02*
X124000000Y-136500000D01*
X124000000Y-150500000D02*
X125000000Y-150500000D01*
X124000000Y-150500000D02*
X124000000Y-149500000D01*
X124000000Y-137500000D02*
X124000000Y-136500000D01*
%TO.C,SW40_R1*%
X84550000Y-62109851D02*
X84550000Y-61109851D01*
X84550000Y-75109851D02*
X84550000Y-74109851D01*
X84550000Y-75109851D02*
X85550000Y-75109851D01*
X85550000Y-61109851D02*
X84550000Y-61109851D01*
X97550000Y-75109851D02*
X98550000Y-75109851D01*
X98550000Y-61109851D02*
X97550000Y-61109851D01*
X98550000Y-61109851D02*
X98550000Y-62109851D01*
X98550000Y-74109851D02*
X98550000Y-75109851D01*
%TO.C,SW32_R1*%
X103550000Y-95109851D02*
X103550000Y-94109851D01*
X103550000Y-108109851D02*
X103550000Y-107109851D01*
X103550000Y-108109851D02*
X104550000Y-108109851D01*
X104550000Y-94109851D02*
X103550000Y-94109851D01*
X116550000Y-108109851D02*
X117550000Y-108109851D01*
X117550000Y-94109851D02*
X116550000Y-94109851D01*
X117550000Y-94109851D02*
X117550000Y-95109851D01*
X117550000Y-107109851D02*
X117550000Y-108109851D01*
%TO.C,SW12_L1*%
X259450000Y-100109851D02*
X259450000Y-99109851D01*
X259450000Y-113109851D02*
X259450000Y-112109851D01*
X259450000Y-113109851D02*
X260450000Y-113109851D01*
X260450000Y-99109851D02*
X259450000Y-99109851D01*
X272450000Y-113109851D02*
X273450000Y-113109851D01*
X273450000Y-99109851D02*
X272450000Y-99109851D01*
X273450000Y-99109851D02*
X273450000Y-100109851D01*
X273450000Y-112109851D02*
X273450000Y-113109851D01*
%TO.C,SW53_R1*%
X65550000Y-124109851D02*
X65550000Y-123109851D01*
X65550000Y-137109851D02*
X65550000Y-136109851D01*
X65550000Y-137109851D02*
X66550000Y-137109851D01*
X66550000Y-123109851D02*
X65550000Y-123109851D01*
X78550000Y-137109851D02*
X79550000Y-137109851D01*
X79550000Y-123109851D02*
X78550000Y-123109851D01*
X79550000Y-123109851D02*
X79550000Y-124109851D01*
X79550000Y-136109851D02*
X79550000Y-137109851D01*
%TO.C,SW42_R1*%
X84550000Y-100109851D02*
X84550000Y-99109851D01*
X84550000Y-113109851D02*
X84550000Y-112109851D01*
X84550000Y-113109851D02*
X85550000Y-113109851D01*
X85550000Y-99109851D02*
X84550000Y-99109851D01*
X97550000Y-113109851D02*
X98550000Y-113109851D01*
X98550000Y-99109851D02*
X97550000Y-99109851D01*
X98550000Y-99109851D02*
X98550000Y-100109851D01*
X98550000Y-112109851D02*
X98550000Y-113109851D01*
%TO.C,SW33_R1*%
X103550000Y-114109851D02*
X103550000Y-113109851D01*
X103550000Y-127109851D02*
X103550000Y-126109851D01*
X103550000Y-127109851D02*
X104550000Y-127109851D01*
X104550000Y-113109851D02*
X103550000Y-113109851D01*
X116550000Y-127109851D02*
X117550000Y-127109851D01*
X117550000Y-113109851D02*
X116550000Y-113109851D01*
X117550000Y-113109851D02*
X117550000Y-114109851D01*
X117550000Y-126109851D02*
X117550000Y-127109851D01*
D13*
%TO.C,Col_L1*%
X210310000Y-145310000D02*
X209250000Y-145310000D01*
X210310000Y-144250000D02*
X210310000Y-145310000D01*
X210310000Y-143250000D02*
X210310000Y-133190000D01*
X210310000Y-143250000D02*
X208190000Y-143250000D01*
X210310000Y-133190000D02*
X208190000Y-133190000D01*
X208190000Y-143250000D02*
X208190000Y-133190000D01*
D11*
%TO.C,D_Sel1*%
X210200000Y-153050000D02*
X210200000Y-159050000D01*
X207800000Y-153050000D02*
X210200000Y-153050000D01*
X207800000Y-153175000D02*
X210200000Y-153175000D01*
X210200000Y-153325000D02*
X207800000Y-153325000D01*
X210200000Y-153450000D02*
X207800000Y-153450000D01*
X210200000Y-159050000D02*
X207800000Y-159050000D01*
X207800000Y-159050000D02*
X207800000Y-153050000D01*
D12*
%TO.C,SW10_L1*%
X259450000Y-62109851D02*
X259450000Y-61109851D01*
X259450000Y-75109851D02*
X259450000Y-74109851D01*
X259450000Y-75109851D02*
X260450000Y-75109851D01*
X260450000Y-61109851D02*
X259450000Y-61109851D01*
X272450000Y-75109851D02*
X273450000Y-75109851D01*
X273450000Y-61109851D02*
X272450000Y-61109851D01*
X273450000Y-61109851D02*
X273450000Y-62109851D01*
X273450000Y-74109851D02*
X273450000Y-75109851D01*
%TO.C,SW22_R1*%
X122550000Y-90109851D02*
X122550000Y-89109851D01*
X122550000Y-103109851D02*
X122550000Y-102109851D01*
X122550000Y-103109851D02*
X123550000Y-103109851D01*
X123550000Y-89109851D02*
X122550000Y-89109851D01*
X135550000Y-103109851D02*
X136550000Y-103109851D01*
X136550000Y-89109851D02*
X135550000Y-89109851D01*
X136550000Y-89109851D02*
X136550000Y-90109851D01*
X136550000Y-102109851D02*
X136550000Y-103109851D01*
D13*
%TO.C,MatrixC_R1*%
X133810000Y-129740000D02*
X133810000Y-130800000D01*
X132750000Y-129740000D02*
X133810000Y-129740000D01*
X131750000Y-129740000D02*
X121690000Y-129740000D01*
X131750000Y-129740000D02*
X131750000Y-131860000D01*
X121690000Y-129740000D02*
X121690000Y-131860000D01*
X131750000Y-131860000D02*
X121690000Y-131860000D01*
%TO.C,Joystick1*%
X214060000Y-158810000D02*
X213000000Y-158810000D01*
X214060000Y-157750000D02*
X214060000Y-158810000D01*
X214060000Y-156750000D02*
X214060000Y-146690000D01*
X214060000Y-156750000D02*
X211940000Y-156750000D01*
X214060000Y-146690000D02*
X211940000Y-146690000D01*
X211940000Y-156750000D02*
X211940000Y-146690000D01*
D12*
%TO.C,SW53_L1*%
X183450000Y-114109851D02*
X183450000Y-113109851D01*
X183450000Y-127109851D02*
X183450000Y-126109851D01*
X183450000Y-127109851D02*
X184450000Y-127109851D01*
X184450000Y-113109851D02*
X183450000Y-113109851D01*
X196450000Y-127109851D02*
X197450000Y-127109851D01*
X197450000Y-113109851D02*
X196450000Y-113109851D01*
X197450000Y-113109851D02*
X197450000Y-114109851D01*
X197450000Y-126109851D02*
X197450000Y-127109851D01*
D13*
%TO.C,Main_to_Sub1*%
X143240000Y-127419851D02*
X143240000Y-126359851D01*
X144300000Y-127419851D02*
X143240000Y-127419851D01*
X145300000Y-127419851D02*
X155360000Y-127419851D01*
X145300000Y-127419851D02*
X145300000Y-125299851D01*
X155360000Y-127419851D02*
X155360000Y-125299851D01*
X145300000Y-125299851D02*
X155360000Y-125299851D01*
%TO.C,Main_to_Sub_L1*%
X202640000Y-127419851D02*
X202640000Y-126359851D01*
X203700000Y-127419851D02*
X202640000Y-127419851D01*
X204700000Y-127419851D02*
X214760000Y-127419851D01*
X204700000Y-127419851D02*
X204700000Y-125299851D01*
X214760000Y-127419851D02*
X214760000Y-125299851D01*
X204700000Y-125299851D02*
X214760000Y-125299851D01*
D12*
%TO.C,SW21_R1*%
X122550000Y-71109851D02*
X122550000Y-70109851D01*
X122550000Y-84109851D02*
X122550000Y-83109851D01*
X122550000Y-84109851D02*
X123550000Y-84109851D01*
X123550000Y-70109851D02*
X122550000Y-70109851D01*
X135550000Y-84109851D02*
X136550000Y-84109851D01*
X136550000Y-70109851D02*
X135550000Y-70109851D01*
X136550000Y-70109851D02*
X136550000Y-71109851D01*
X136550000Y-83109851D02*
X136550000Y-84109851D01*
D14*
%TO.C,Joystick3*%
X278607946Y-147001873D02*
G75*
G03*
X278607946Y-147001873I-11704700J0D01*
G01*
D12*
%TO.C,SW41_R1*%
X84550000Y-81109851D02*
X84550000Y-80109851D01*
X84550000Y-94109851D02*
X84550000Y-93109851D01*
X84550000Y-94109851D02*
X85550000Y-94109851D01*
X85550000Y-80109851D02*
X84550000Y-80109851D01*
X97550000Y-94109851D02*
X98550000Y-94109851D01*
X98550000Y-80109851D02*
X97550000Y-80109851D01*
X98550000Y-80109851D02*
X98550000Y-81109851D01*
X98550000Y-93109851D02*
X98550000Y-94109851D01*
D13*
%TO.C,MatrixR_R1*%
X236310000Y-125340000D02*
X236310000Y-126400000D01*
X235250000Y-125340000D02*
X236310000Y-125340000D01*
X234250000Y-125340000D02*
X224190000Y-125340000D01*
X234250000Y-125340000D02*
X234250000Y-127460000D01*
X224190000Y-125340000D02*
X224190000Y-127460000D01*
X234250000Y-127460000D02*
X224190000Y-127460000D01*
D12*
%TO.C,SW23_L1*%
X240450000Y-114109851D02*
X240450000Y-113109851D01*
X240450000Y-127109851D02*
X240450000Y-126109851D01*
X240450000Y-127109851D02*
X241450000Y-127109851D01*
X241450000Y-113109851D02*
X240450000Y-113109851D01*
X253450000Y-127109851D02*
X254450000Y-127109851D01*
X254450000Y-113109851D02*
X253450000Y-113109851D01*
X254450000Y-113109851D02*
X254450000Y-114109851D01*
X254450000Y-126109851D02*
X254450000Y-127109851D01*
D13*
%TO.C,Row_R1*%
X143690000Y-133140000D02*
X144750000Y-133140000D01*
X143690000Y-134200000D02*
X143690000Y-133140000D01*
X143690000Y-135200000D02*
X143690000Y-145260000D01*
X143690000Y-135200000D02*
X145810000Y-135200000D01*
X143690000Y-145260000D02*
X145810000Y-145260000D01*
X145810000Y-135200000D02*
X145810000Y-145260000D01*
%TO.C,Power_Mtrx_L1*%
X217940000Y-127419851D02*
X217940000Y-126359851D01*
X219000000Y-127419851D02*
X217940000Y-127419851D01*
X220000000Y-127419851D02*
X222060000Y-127419851D01*
X220000000Y-127419851D02*
X220000000Y-125299851D01*
X222060000Y-127419851D02*
X222060000Y-125299851D01*
X220000000Y-125299851D02*
X222060000Y-125299851D01*
D12*
%TO.C,SW43_R1*%
X84550000Y-119109851D02*
X84550000Y-118109851D01*
X84550000Y-132109851D02*
X84550000Y-131109851D01*
X84550000Y-132109851D02*
X85550000Y-132109851D01*
X85550000Y-118109851D02*
X84550000Y-118109851D01*
X97550000Y-132109851D02*
X98550000Y-132109851D01*
X98550000Y-118109851D02*
X97550000Y-118109851D01*
X98550000Y-118109851D02*
X98550000Y-119109851D01*
X98550000Y-131109851D02*
X98550000Y-132109851D01*
D13*
%TO.C,MatrixC_L1*%
X236310000Y-129740000D02*
X236310000Y-130800000D01*
X235250000Y-129740000D02*
X236310000Y-129740000D01*
X234250000Y-129740000D02*
X224190000Y-129740000D01*
X234250000Y-129740000D02*
X234250000Y-131860000D01*
X224190000Y-129740000D02*
X224190000Y-131860000D01*
X234250000Y-131860000D02*
X224190000Y-131860000D01*
D12*
%TO.C,SW03_L1*%
X278450000Y-124109851D02*
X278450000Y-123109851D01*
X278450000Y-137109851D02*
X278450000Y-136109851D01*
X278450000Y-137109851D02*
X279450000Y-137109851D01*
X279450000Y-123109851D02*
X278450000Y-123109851D01*
X291450000Y-137109851D02*
X292450000Y-137109851D01*
X292450000Y-123109851D02*
X291450000Y-123109851D01*
X292450000Y-123109851D02*
X292450000Y-124109851D01*
X292450000Y-136109851D02*
X292450000Y-137109851D01*
%TO.C,SW54_L1*%
X253000000Y-149500000D02*
X253000000Y-150500000D01*
X253000000Y-136500000D02*
X253000000Y-137500000D01*
X253000000Y-136500000D02*
X252000000Y-136500000D01*
X252000000Y-150500000D02*
X253000000Y-150500000D01*
X240000000Y-136500000D02*
X239000000Y-136500000D01*
X239000000Y-150500000D02*
X240000000Y-150500000D01*
X239000000Y-150500000D02*
X239000000Y-149500000D01*
X239000000Y-137500000D02*
X239000000Y-136500000D01*
%TO.C,SW00_L1*%
X278450000Y-67109851D02*
X278450000Y-66109851D01*
X278450000Y-80109851D02*
X278450000Y-79109851D01*
X278450000Y-80109851D02*
X279450000Y-80109851D01*
X279450000Y-66109851D02*
X278450000Y-66109851D01*
X291450000Y-80109851D02*
X292450000Y-80109851D01*
X292450000Y-66109851D02*
X291450000Y-66109851D01*
X292450000Y-66109851D02*
X292450000Y-67109851D01*
X292450000Y-79109851D02*
X292450000Y-80109851D01*
%TO.C,SW03_R1*%
X160550000Y-114109851D02*
X160550000Y-113109851D01*
X160550000Y-127109851D02*
X160550000Y-126109851D01*
X160550000Y-127109851D02*
X161550000Y-127109851D01*
X161550000Y-113109851D02*
X160550000Y-113109851D01*
X173550000Y-127109851D02*
X174550000Y-127109851D01*
X174550000Y-113109851D02*
X173550000Y-113109851D01*
X174550000Y-113109851D02*
X174550000Y-114109851D01*
X174550000Y-126109851D02*
X174550000Y-127109851D01*
%TO.C,SW32_L1*%
X221450000Y-90109851D02*
X221450000Y-89109851D01*
X221450000Y-103109851D02*
X221450000Y-102109851D01*
X221450000Y-103109851D02*
X222450000Y-103109851D01*
X222450000Y-89109851D02*
X221450000Y-89109851D01*
X234450000Y-103109851D02*
X235450000Y-103109851D01*
X235450000Y-89109851D02*
X234450000Y-89109851D01*
X235450000Y-89109851D02*
X235450000Y-90109851D01*
X235450000Y-102109851D02*
X235450000Y-103109851D01*
%TO.C,SW22_L1*%
X240450000Y-95109851D02*
X240450000Y-94109851D01*
X240450000Y-108109851D02*
X240450000Y-107109851D01*
X240450000Y-108109851D02*
X241450000Y-108109851D01*
X241450000Y-94109851D02*
X240450000Y-94109851D01*
X253450000Y-108109851D02*
X254450000Y-108109851D01*
X254450000Y-94109851D02*
X253450000Y-94109851D01*
X254450000Y-94109851D02*
X254450000Y-95109851D01*
X254450000Y-107109851D02*
X254450000Y-108109851D01*
%TO.C,SW00_R1*%
X160550000Y-57109851D02*
X160550000Y-56109851D01*
X160550000Y-70109851D02*
X160550000Y-69109851D01*
X160550000Y-70109851D02*
X161550000Y-70109851D01*
X161550000Y-56109851D02*
X160550000Y-56109851D01*
X173550000Y-70109851D02*
X174550000Y-70109851D01*
X174550000Y-56109851D02*
X173550000Y-56109851D01*
X174550000Y-56109851D02*
X174550000Y-57109851D01*
X174550000Y-69109851D02*
X174550000Y-70109851D01*
%TO.C,SW02_R1*%
X160550000Y-95109851D02*
X160550000Y-94109851D01*
X160550000Y-108109851D02*
X160550000Y-107109851D01*
X160550000Y-108109851D02*
X161550000Y-108109851D01*
X161550000Y-94109851D02*
X160550000Y-94109851D01*
X173550000Y-108109851D02*
X174550000Y-108109851D01*
X174550000Y-94109851D02*
X173550000Y-94109851D01*
X174550000Y-94109851D02*
X174550000Y-95109851D01*
X174550000Y-107109851D02*
X174550000Y-108109851D01*
D13*
%TO.C,Power_Ctrlr_L1*%
X210310000Y-150810000D02*
X209250000Y-150810000D01*
X210310000Y-149750000D02*
X210310000Y-150810000D01*
X210310000Y-148750000D02*
X210310000Y-146690000D01*
X210310000Y-148750000D02*
X208190000Y-148750000D01*
X210310000Y-146690000D02*
X208190000Y-146690000D01*
X208190000Y-148750000D02*
X208190000Y-146690000D01*
%TO.C,Sub_to_Main_L1*%
X225940000Y-156560000D02*
X225940000Y-155500000D01*
X227000000Y-156560000D02*
X225940000Y-156560000D01*
X228000000Y-156560000D02*
X238060000Y-156560000D01*
X228000000Y-156560000D02*
X228000000Y-154440000D01*
X238060000Y-156560000D02*
X238060000Y-154440000D01*
X228000000Y-154440000D02*
X238060000Y-154440000D01*
D12*
%TO.C,SW30_R1*%
X103550000Y-57109851D02*
X103550000Y-56109851D01*
X103550000Y-70109851D02*
X103550000Y-69109851D01*
X103550000Y-70109851D02*
X104550000Y-70109851D01*
X104550000Y-56109851D02*
X103550000Y-56109851D01*
X116550000Y-70109851D02*
X117550000Y-70109851D01*
X117550000Y-56109851D02*
X116550000Y-56109851D01*
X117550000Y-56109851D02*
X117550000Y-57109851D01*
X117550000Y-69109851D02*
X117550000Y-70109851D01*
%TO.C,SW51_R1*%
X65550000Y-86109851D02*
X65550000Y-85109851D01*
X65550000Y-99109851D02*
X65550000Y-98109851D01*
X65550000Y-99109851D02*
X66550000Y-99109851D01*
X66550000Y-85109851D02*
X65550000Y-85109851D01*
X78550000Y-99109851D02*
X79550000Y-99109851D01*
X79550000Y-85109851D02*
X78550000Y-85109851D01*
X79550000Y-85109851D02*
X79550000Y-86109851D01*
X79550000Y-98109851D02*
X79550000Y-99109851D01*
D13*
%TO.C,MatrixR_R2*%
X133810000Y-125340000D02*
X133810000Y-126400000D01*
X132750000Y-125340000D02*
X133810000Y-125340000D01*
X131750000Y-125340000D02*
X121690000Y-125340000D01*
X131750000Y-125340000D02*
X131750000Y-127460000D01*
X121690000Y-125340000D02*
X121690000Y-127460000D01*
X131750000Y-127460000D02*
X121690000Y-127460000D01*
%TO.C,Power_Ctrlr_R1*%
X147440000Y-146640000D02*
X148500000Y-146640000D01*
X147440000Y-147700000D02*
X147440000Y-146640000D01*
X147440000Y-148700000D02*
X147440000Y-150760000D01*
X147440000Y-148700000D02*
X149560000Y-148700000D01*
X147440000Y-150760000D02*
X149560000Y-150760000D01*
X149560000Y-148700000D02*
X149560000Y-150760000D01*
D12*
%TO.C,SW30_L1*%
X221450000Y-52109851D02*
X221450000Y-51109851D01*
X221450000Y-65109851D02*
X221450000Y-64109851D01*
X221450000Y-65109851D02*
X222450000Y-65109851D01*
X222450000Y-51109851D02*
X221450000Y-51109851D01*
X234450000Y-65109851D02*
X235450000Y-65109851D01*
X235450000Y-51109851D02*
X234450000Y-51109851D01*
X235450000Y-51109851D02*
X235450000Y-52109851D01*
X235450000Y-64109851D02*
X235450000Y-65109851D01*
D13*
%TO.C,Joystick2*%
X274843246Y-140941873D02*
X275903246Y-140941873D01*
X274843246Y-142001873D02*
X274843246Y-140941873D01*
X274843246Y-143001873D02*
X274843246Y-153061873D01*
X274843246Y-143001873D02*
X276963246Y-143001873D01*
X274843246Y-153061873D02*
X276963246Y-153061873D01*
X276963246Y-143001873D02*
X276963246Y-153061873D01*
D12*
%TO.C,SW21_L1*%
X240450000Y-76109851D02*
X240450000Y-75109851D01*
X240450000Y-89109851D02*
X240450000Y-88109851D01*
X240450000Y-89109851D02*
X241450000Y-89109851D01*
X241450000Y-75109851D02*
X240450000Y-75109851D01*
X253450000Y-89109851D02*
X254450000Y-89109851D01*
X254450000Y-75109851D02*
X253450000Y-75109851D01*
X254450000Y-75109851D02*
X254450000Y-76109851D01*
X254450000Y-88109851D02*
X254450000Y-89109851D01*
D13*
%TO.C,Sub_to_Main1*%
X119940000Y-156560000D02*
X119940000Y-155500000D01*
X121000000Y-156560000D02*
X119940000Y-156560000D01*
X122000000Y-156560000D02*
X132060000Y-156560000D01*
X122000000Y-156560000D02*
X122000000Y-154440000D01*
X132060000Y-156560000D02*
X132060000Y-154440000D01*
X122000000Y-154440000D02*
X132060000Y-154440000D01*
%TO.C,Power_Mtrx_R1*%
X136140000Y-127460000D02*
X136140000Y-126400000D01*
X137200000Y-127460000D02*
X136140000Y-127460000D01*
X138200000Y-127460000D02*
X140260000Y-127460000D01*
X138200000Y-127460000D02*
X138200000Y-125340000D01*
X140260000Y-127460000D02*
X140260000Y-125340000D01*
X138200000Y-125340000D02*
X140260000Y-125340000D01*
D12*
%TO.C,SW51_L1*%
X183450000Y-76109851D02*
X183450000Y-75109851D01*
X183450000Y-89109851D02*
X183450000Y-88109851D01*
X183450000Y-89109851D02*
X184450000Y-89109851D01*
X184450000Y-75109851D02*
X183450000Y-75109851D01*
X196450000Y-89109851D02*
X197450000Y-89109851D01*
X197450000Y-75109851D02*
X196450000Y-75109851D01*
X197450000Y-75109851D02*
X197450000Y-76109851D01*
X197450000Y-88109851D02*
X197450000Y-89109851D01*
%TO.C,SW31_L1*%
X221450000Y-71109851D02*
X221450000Y-70109851D01*
X221450000Y-84109851D02*
X221450000Y-83109851D01*
X221450000Y-84109851D02*
X222450000Y-84109851D01*
X222450000Y-70109851D02*
X221450000Y-70109851D01*
X234450000Y-84109851D02*
X235450000Y-84109851D01*
X235450000Y-70109851D02*
X234450000Y-70109851D01*
X235450000Y-70109851D02*
X235450000Y-71109851D01*
X235450000Y-83109851D02*
X235450000Y-84109851D01*
%TO.C,SW52_R1*%
X65550000Y-105109851D02*
X65550000Y-104109851D01*
X65550000Y-118109851D02*
X65550000Y-117109851D01*
X65550000Y-118109851D02*
X66550000Y-118109851D01*
X66550000Y-104109851D02*
X65550000Y-104109851D01*
X78550000Y-118109851D02*
X79550000Y-118109851D01*
X79550000Y-104109851D02*
X78550000Y-104109851D01*
X79550000Y-104109851D02*
X79550000Y-105109851D01*
X79550000Y-117109851D02*
X79550000Y-118109851D01*
%TO.C,SW40_L1*%
X202450000Y-52109851D02*
X202450000Y-51109851D01*
X202450000Y-65109851D02*
X202450000Y-64109851D01*
X202450000Y-65109851D02*
X203450000Y-65109851D01*
X203450000Y-51109851D02*
X202450000Y-51109851D01*
X215450000Y-65109851D02*
X216450000Y-65109851D01*
X216450000Y-51109851D02*
X215450000Y-51109851D01*
X216450000Y-51109851D02*
X216450000Y-52109851D01*
X216450000Y-64109851D02*
X216450000Y-65109851D01*
%TO.C,SW23_R1*%
X122550000Y-109109851D02*
X122550000Y-108109851D01*
X122550000Y-122109851D02*
X122550000Y-121109851D01*
X122550000Y-122109851D02*
X123550000Y-122109851D01*
X123550000Y-108109851D02*
X122550000Y-108109851D01*
X135550000Y-122109851D02*
X136550000Y-122109851D01*
X136550000Y-108109851D02*
X135550000Y-108109851D01*
X136550000Y-108109851D02*
X136550000Y-109109851D01*
X136550000Y-121109851D02*
X136550000Y-122109851D01*
%TO.C,SW13_L1*%
X259450000Y-119109851D02*
X259450000Y-118109851D01*
X259450000Y-132109851D02*
X259450000Y-131109851D01*
X259450000Y-132109851D02*
X260450000Y-132109851D01*
X260450000Y-118109851D02*
X259450000Y-118109851D01*
X272450000Y-132109851D02*
X273450000Y-132109851D01*
X273450000Y-118109851D02*
X272450000Y-118109851D01*
X273450000Y-118109851D02*
X273450000Y-119109851D01*
X273450000Y-131109851D02*
X273450000Y-132109851D01*
%TO.C,SW33_L1*%
X221450000Y-109109851D02*
X221450000Y-108109851D01*
X221450000Y-122109851D02*
X221450000Y-121109851D01*
X221450000Y-122109851D02*
X222450000Y-122109851D01*
X222450000Y-108109851D02*
X221450000Y-108109851D01*
X234450000Y-122109851D02*
X235450000Y-122109851D01*
X235450000Y-108109851D02*
X234450000Y-108109851D01*
X235450000Y-108109851D02*
X235450000Y-109109851D01*
X235450000Y-121109851D02*
X235450000Y-122109851D01*
%TO.C,SW01_L1*%
X278450000Y-86109851D02*
X278450000Y-85109851D01*
X278450000Y-99109851D02*
X278450000Y-98109851D01*
X278450000Y-99109851D02*
X279450000Y-99109851D01*
X279450000Y-85109851D02*
X278450000Y-85109851D01*
X291450000Y-99109851D02*
X292450000Y-99109851D01*
X292450000Y-85109851D02*
X291450000Y-85109851D01*
X292450000Y-85109851D02*
X292450000Y-86109851D01*
X292450000Y-98109851D02*
X292450000Y-99109851D01*
D13*
%TO.C,Row_L1*%
X214060000Y-145310000D02*
X213000000Y-145310000D01*
X214060000Y-144250000D02*
X214060000Y-145310000D01*
X214060000Y-143250000D02*
X214060000Y-133190000D01*
X214060000Y-143250000D02*
X211940000Y-143250000D01*
X214060000Y-133190000D02*
X211940000Y-133190000D01*
X211940000Y-143250000D02*
X211940000Y-133190000D01*
D12*
%TO.C,SW43_L1*%
X202450000Y-109109851D02*
X202450000Y-108109851D01*
X202450000Y-122109851D02*
X202450000Y-121109851D01*
X202450000Y-122109851D02*
X203450000Y-122109851D01*
X203450000Y-108109851D02*
X202450000Y-108109851D01*
X215450000Y-122109851D02*
X216450000Y-122109851D01*
X216450000Y-108109851D02*
X215450000Y-108109851D01*
X216450000Y-108109851D02*
X216450000Y-109109851D01*
X216450000Y-121109851D02*
X216450000Y-122109851D01*
%TO.C,SW01_R1*%
X160550000Y-76109851D02*
X160550000Y-75109851D01*
X160550000Y-89109851D02*
X160550000Y-88109851D01*
X160550000Y-89109851D02*
X161550000Y-89109851D01*
X161550000Y-75109851D02*
X160550000Y-75109851D01*
X173550000Y-89109851D02*
X174550000Y-89109851D01*
X174550000Y-75109851D02*
X173550000Y-75109851D01*
X174550000Y-75109851D02*
X174550000Y-76109851D01*
X174550000Y-88109851D02*
X174550000Y-89109851D01*
%TO.C,SW02_L1*%
X278450000Y-105109851D02*
X278450000Y-104109851D01*
X278450000Y-118109851D02*
X278450000Y-117109851D01*
X278450000Y-118109851D02*
X279450000Y-118109851D01*
X279450000Y-104109851D02*
X278450000Y-104109851D01*
X291450000Y-118109851D02*
X292450000Y-118109851D01*
X292450000Y-104109851D02*
X291450000Y-104109851D01*
X292450000Y-104109851D02*
X292450000Y-105109851D01*
X292450000Y-117109851D02*
X292450000Y-118109851D01*
%TO.C,SW20_R1*%
X122550000Y-52109851D02*
X122550000Y-51109851D01*
X122550000Y-65109851D02*
X122550000Y-64109851D01*
X122550000Y-65109851D02*
X123550000Y-65109851D01*
X123550000Y-51109851D02*
X122550000Y-51109851D01*
X135550000Y-65109851D02*
X136550000Y-65109851D01*
X136550000Y-51109851D02*
X135550000Y-51109851D01*
X136550000Y-51109851D02*
X136550000Y-52109851D01*
X136550000Y-64109851D02*
X136550000Y-65109851D01*
D13*
%TO.C,CoL_R1*%
X147440000Y-133140000D02*
X148500000Y-133140000D01*
X147440000Y-134200000D02*
X147440000Y-133140000D01*
X147440000Y-135200000D02*
X147440000Y-145260000D01*
X147440000Y-135200000D02*
X149560000Y-135200000D01*
X147440000Y-145260000D02*
X149560000Y-145260000D01*
X149560000Y-135200000D02*
X149560000Y-145260000D01*
%TO.C,I2C_pinout1*%
X151810000Y-152940000D02*
X151810000Y-154000000D01*
X150750000Y-152940000D02*
X151810000Y-152940000D01*
X149750000Y-152940000D02*
X143690000Y-152940000D01*
X149750000Y-152940000D02*
X149750000Y-155060000D01*
X143690000Y-152940000D02*
X143690000Y-155060000D01*
X149750000Y-155060000D02*
X143690000Y-155060000D01*
D12*
%TO.C,SW44_L1*%
X234000000Y-149500000D02*
X234000000Y-150500000D01*
X234000000Y-136500000D02*
X234000000Y-137500000D01*
X234000000Y-136500000D02*
X233000000Y-136500000D01*
X233000000Y-150500000D02*
X234000000Y-150500000D01*
X221000000Y-136500000D02*
X220000000Y-136500000D01*
X220000000Y-150500000D02*
X221000000Y-150500000D01*
X220000000Y-150500000D02*
X220000000Y-149500000D01*
X220000000Y-137500000D02*
X220000000Y-136500000D01*
%TO.C,SW20_L1*%
X240450000Y-57109851D02*
X240450000Y-56109851D01*
X240450000Y-70109851D02*
X240450000Y-69109851D01*
X240450000Y-70109851D02*
X241450000Y-70109851D01*
X241450000Y-56109851D02*
X240450000Y-56109851D01*
X253450000Y-70109851D02*
X254450000Y-70109851D01*
X254450000Y-56109851D02*
X253450000Y-56109851D01*
X254450000Y-56109851D02*
X254450000Y-57109851D01*
X254450000Y-69109851D02*
X254450000Y-70109851D01*
%TO.C,SW11_L1*%
X259450000Y-81109851D02*
X259450000Y-80109851D01*
X259450000Y-94109851D02*
X259450000Y-93109851D01*
X259450000Y-94109851D02*
X260450000Y-94109851D01*
X260450000Y-80109851D02*
X259450000Y-80109851D01*
X272450000Y-94109851D02*
X273450000Y-94109851D01*
X273450000Y-80109851D02*
X272450000Y-80109851D01*
X273450000Y-80109851D02*
X273450000Y-81109851D01*
X273450000Y-93109851D02*
X273450000Y-94109851D01*
%TO.C,SW50_L1*%
X183450000Y-57109851D02*
X183450000Y-56109851D01*
X183450000Y-70109851D02*
X183450000Y-69109851D01*
X183450000Y-70109851D02*
X184450000Y-70109851D01*
X184450000Y-56109851D02*
X183450000Y-56109851D01*
X196450000Y-70109851D02*
X197450000Y-70109851D01*
X197450000Y-56109851D02*
X196450000Y-56109851D01*
X197450000Y-56109851D02*
X197450000Y-57109851D01*
X197450000Y-69109851D02*
X197450000Y-70109851D01*
%TO.C,SW04_R1*%
X119000000Y-149500000D02*
X119000000Y-150500000D01*
X119000000Y-136500000D02*
X119000000Y-137500000D01*
X119000000Y-136500000D02*
X118000000Y-136500000D01*
X118000000Y-150500000D02*
X119000000Y-150500000D01*
X106000000Y-136500000D02*
X105000000Y-136500000D01*
X105000000Y-150500000D02*
X106000000Y-150500000D01*
X105000000Y-150500000D02*
X105000000Y-149500000D01*
X105000000Y-137500000D02*
X105000000Y-136500000D01*
%TO.C,SW13_R1*%
X141550000Y-109109851D02*
X141550000Y-108109851D01*
X141550000Y-122109851D02*
X141550000Y-121109851D01*
X141550000Y-122109851D02*
X142550000Y-122109851D01*
X142550000Y-108109851D02*
X141550000Y-108109851D01*
X154550000Y-122109851D02*
X155550000Y-122109851D01*
X155550000Y-108109851D02*
X154550000Y-108109851D01*
X155550000Y-108109851D02*
X155550000Y-109109851D01*
X155550000Y-121109851D02*
X155550000Y-122109851D01*
%TO.C,SW41_L1*%
X202450000Y-71109851D02*
X202450000Y-70109851D01*
X202450000Y-84109851D02*
X202450000Y-83109851D01*
X202450000Y-84109851D02*
X203450000Y-84109851D01*
X203450000Y-70109851D02*
X202450000Y-70109851D01*
X215450000Y-84109851D02*
X216450000Y-84109851D01*
X216450000Y-70109851D02*
X215450000Y-70109851D01*
X216450000Y-70109851D02*
X216450000Y-71109851D01*
X216450000Y-83109851D02*
X216450000Y-84109851D01*
%TD*%
%LPC*%
D15*
%TO.C,SW31_R1*%
X105470000Y-82109851D03*
D16*
X106740000Y-79569851D03*
D17*
X110550000Y-82109851D03*
D16*
X113090000Y-77029851D03*
D15*
X115630000Y-82109851D03*
%TD*%
D18*
%TO.C,H11*%
X157550000Y-67609851D03*
%TD*%
D15*
%TO.C,SW42_L1*%
X204370000Y-96109851D03*
D16*
X205640000Y-93569851D03*
D17*
X209450000Y-96109851D03*
D16*
X211990000Y-91029851D03*
D15*
X214530000Y-96109851D03*
%TD*%
%TO.C,SW52_L1*%
X185370000Y-101109851D03*
D16*
X186640000Y-98569851D03*
D17*
X190450000Y-101109851D03*
D16*
X192990000Y-96029851D03*
D15*
X195530000Y-101109851D03*
%TD*%
%TO.C,SW12_R1*%
X143470000Y-96109851D03*
D16*
X144740000Y-93569851D03*
D17*
X148550000Y-96109851D03*
D16*
X151090000Y-91029851D03*
D15*
X153630000Y-96109851D03*
%TD*%
%TO.C,SW11_R1*%
X143470000Y-77109851D03*
D16*
X144740000Y-74569851D03*
D17*
X148550000Y-77109851D03*
D16*
X151090000Y-72029851D03*
D15*
X153630000Y-77109851D03*
%TD*%
D18*
%TO.C,H6*%
X220000000Y-154000000D03*
%TD*%
D15*
%TO.C,SW50_R1*%
X67470000Y-73109851D03*
D16*
X68740000Y-70569851D03*
D17*
X72550000Y-73109851D03*
D16*
X75090000Y-68029851D03*
D15*
X77630000Y-73109851D03*
%TD*%
%TO.C,SW10_R1*%
X143470000Y-58109851D03*
D16*
X144740000Y-55569851D03*
D17*
X148550000Y-58109851D03*
D16*
X151090000Y-53029851D03*
D15*
X153630000Y-58109851D03*
%TD*%
%TO.C,SW14_R1*%
X136080000Y-143500000D03*
D16*
X134810000Y-146040000D03*
D17*
X131000000Y-143500000D03*
D16*
X128460000Y-148580000D03*
D15*
X125920000Y-143500000D03*
%TD*%
%TO.C,SW40_R1*%
X86470000Y-68109851D03*
D16*
X87740000Y-65569851D03*
D17*
X91550000Y-68109851D03*
D16*
X94090000Y-63029851D03*
D15*
X96630000Y-68109851D03*
%TD*%
%TO.C,SW32_R1*%
X105470000Y-101109851D03*
D16*
X106740000Y-98569851D03*
D17*
X110550000Y-101109851D03*
D16*
X113090000Y-96029851D03*
D15*
X115630000Y-101109851D03*
%TD*%
D18*
%TO.C,H10*%
X120550000Y-86609851D03*
%TD*%
D15*
%TO.C,SW12_L1*%
X261370000Y-106109851D03*
D16*
X262640000Y-103569851D03*
D17*
X266450000Y-106109851D03*
D16*
X268990000Y-101029851D03*
D15*
X271530000Y-106109851D03*
%TD*%
%TO.C,SW53_R1*%
X67470000Y-130109851D03*
D16*
X68740000Y-127569851D03*
D17*
X72550000Y-130109851D03*
D16*
X75090000Y-125029851D03*
D15*
X77630000Y-130109851D03*
%TD*%
%TO.C,SW42_R1*%
X86470000Y-106109851D03*
D16*
X87740000Y-103569851D03*
D17*
X91550000Y-106109851D03*
D16*
X94090000Y-101029851D03*
D15*
X96630000Y-106109851D03*
%TD*%
%TO.C,SW33_R1*%
X105470000Y-120109851D03*
D16*
X106740000Y-117569851D03*
D17*
X110550000Y-120109851D03*
D16*
X113090000Y-115029851D03*
D15*
X115630000Y-120109851D03*
%TD*%
D18*
%TO.C,H1*%
X200450000Y-67609851D03*
%TD*%
D19*
%TO.C,Col_L1*%
X209250000Y-144250000D03*
D20*
X209250000Y-142250000D03*
X209250000Y-140250000D03*
X209250000Y-138250000D03*
X209250000Y-136250000D03*
X209250000Y-134250000D03*
%TD*%
D21*
%TO.C,D_Sel1*%
X209000000Y-154550000D03*
X209000000Y-157950000D03*
%TD*%
D15*
%TO.C,SW10_L1*%
X261370000Y-68109851D03*
D16*
X262640000Y-65569851D03*
D17*
X266450000Y-68109851D03*
D16*
X268990000Y-63029851D03*
D15*
X271530000Y-68109851D03*
%TD*%
%TO.C,SW22_R1*%
X124470000Y-96109851D03*
D16*
X125740000Y-93569851D03*
D17*
X129550000Y-96109851D03*
D16*
X132090000Y-91029851D03*
D15*
X134630000Y-96109851D03*
%TD*%
D22*
%TO.C,TRRS1*%
X176400000Y-158000000D03*
X169400000Y-158000000D03*
D23*
X167800000Y-160300000D03*
X171800000Y-160300000D03*
X174800000Y-160300000D03*
X166700000Y-155700000D03*
%TD*%
D19*
%TO.C,MatrixC_R1*%
X132750000Y-130800000D03*
D20*
X130750000Y-130800000D03*
X128750000Y-130800000D03*
X126750000Y-130800000D03*
X124750000Y-130800000D03*
X122750000Y-130800000D03*
%TD*%
D19*
%TO.C,Joystick1*%
X213000000Y-157750000D03*
D20*
X213000000Y-155750000D03*
X213000000Y-153750000D03*
X213000000Y-151750000D03*
X213000000Y-149750000D03*
X213000000Y-147750000D03*
%TD*%
D15*
%TO.C,SW53_L1*%
X185370000Y-120109851D03*
D16*
X186640000Y-117569851D03*
D17*
X190450000Y-120109851D03*
D16*
X192990000Y-115029851D03*
D15*
X195530000Y-120109851D03*
%TD*%
D22*
%TO.C,TRRS2*%
X181600000Y-158000000D03*
X188600000Y-158000000D03*
D23*
X190200000Y-155700000D03*
X186200000Y-155700000D03*
X183200000Y-155700000D03*
X191300000Y-160300000D03*
%TD*%
D19*
%TO.C,Main_to_Sub1*%
X144300000Y-126359851D03*
D20*
X146300000Y-126359851D03*
X148300000Y-126359851D03*
X150300000Y-126359851D03*
X152300000Y-126359851D03*
X154300000Y-126359851D03*
%TD*%
D19*
%TO.C,Main_to_Sub_L1*%
X203700000Y-126359851D03*
D20*
X205700000Y-126359851D03*
X207700000Y-126359851D03*
X209700000Y-126359851D03*
X211700000Y-126359851D03*
X213700000Y-126359851D03*
%TD*%
D15*
%TO.C,SW21_R1*%
X124470000Y-77109851D03*
D16*
X125740000Y-74569851D03*
D17*
X129550000Y-77109851D03*
D16*
X132090000Y-72029851D03*
D15*
X134630000Y-77109851D03*
%TD*%
D24*
%TO.C,Joystick3*%
X263653246Y-136701873D03*
X270153246Y-136701873D03*
X263653246Y-141201873D03*
X270153246Y-141201873D03*
X264403246Y-155701873D03*
X266903246Y-155701873D03*
X269403246Y-155701873D03*
D25*
X260603246Y-142001873D03*
X260603246Y-152001873D03*
X273203246Y-152001873D03*
X273203246Y-142001873D03*
D24*
X258203246Y-144501873D03*
X258203246Y-147049212D03*
X258203246Y-149501873D03*
%TD*%
D15*
%TO.C,SW41_R1*%
X86470000Y-87109851D03*
D16*
X87740000Y-84569851D03*
D17*
X91550000Y-87109851D03*
D16*
X94090000Y-82029851D03*
D15*
X96630000Y-87109851D03*
%TD*%
D19*
%TO.C,MatrixR_R1*%
X235250000Y-126400000D03*
D20*
X233250000Y-126400000D03*
X231250000Y-126400000D03*
X229250000Y-126400000D03*
X227250000Y-126400000D03*
X225250000Y-126400000D03*
%TD*%
D15*
%TO.C,SW23_L1*%
X242370000Y-120109851D03*
D16*
X243640000Y-117569851D03*
D17*
X247450000Y-120109851D03*
D16*
X249990000Y-115029851D03*
D15*
X252530000Y-120109851D03*
%TD*%
D19*
%TO.C,Row_R1*%
X144750000Y-134200000D03*
D20*
X144750000Y-136200000D03*
X144750000Y-138200000D03*
X144750000Y-140200000D03*
X144750000Y-142200000D03*
X144750000Y-144200000D03*
%TD*%
D19*
%TO.C,Power_Mtrx_L1*%
X219000000Y-126359851D03*
D20*
X221000000Y-126359851D03*
%TD*%
D18*
%TO.C,H8*%
X82550000Y-77609851D03*
%TD*%
%TO.C,H9*%
X82550000Y-115609851D03*
%TD*%
D15*
%TO.C,SW43_R1*%
X86470000Y-125109851D03*
D16*
X87740000Y-122569851D03*
D17*
X91550000Y-125109851D03*
D16*
X94090000Y-120029851D03*
D15*
X96630000Y-125109851D03*
%TD*%
D19*
%TO.C,MatrixC_L1*%
X235250000Y-130800000D03*
D20*
X233250000Y-130800000D03*
X231250000Y-130800000D03*
X229250000Y-130800000D03*
X227250000Y-130800000D03*
X225250000Y-130800000D03*
%TD*%
D18*
%TO.C,H14*%
X138000000Y-154000000D03*
%TD*%
D15*
%TO.C,SW03_L1*%
X280370000Y-130109851D03*
D16*
X281640000Y-127569851D03*
D17*
X285450000Y-130109851D03*
D16*
X287990000Y-125029851D03*
D15*
X290530000Y-130109851D03*
%TD*%
%TO.C,SW54_L1*%
X251080000Y-143500000D03*
D16*
X249810000Y-146040000D03*
D17*
X246000000Y-143500000D03*
D16*
X243460000Y-148580000D03*
D15*
X240920000Y-143500000D03*
%TD*%
D18*
%TO.C,H4*%
X275450000Y-77609851D03*
%TD*%
D15*
%TO.C,SW00_L1*%
X280370000Y-73109851D03*
D16*
X281640000Y-70569851D03*
D17*
X285450000Y-73109851D03*
D16*
X287990000Y-68029851D03*
D15*
X290530000Y-73109851D03*
%TD*%
D18*
%TO.C,H7*%
X253000000Y-154000000D03*
%TD*%
D15*
%TO.C,SW03_R1*%
X162470000Y-120109851D03*
D16*
X163740000Y-117569851D03*
D17*
X167550000Y-120109851D03*
D16*
X170090000Y-115029851D03*
D15*
X172630000Y-120109851D03*
%TD*%
%TO.C,SW32_L1*%
X223370000Y-96109851D03*
D16*
X224640000Y-93569851D03*
D17*
X228450000Y-96109851D03*
D16*
X230990000Y-91029851D03*
D15*
X233530000Y-96109851D03*
%TD*%
%TO.C,SW22_L1*%
X242370000Y-101109851D03*
D16*
X243640000Y-98569851D03*
D17*
X247450000Y-101109851D03*
D16*
X249990000Y-96029851D03*
D15*
X252530000Y-101109851D03*
%TD*%
%TO.C,SW00_R1*%
X162470000Y-63109851D03*
D16*
X163740000Y-60569851D03*
D17*
X167550000Y-63109851D03*
D16*
X170090000Y-58029851D03*
D15*
X172630000Y-63109851D03*
%TD*%
%TO.C,SW02_R1*%
X162470000Y-101109851D03*
D16*
X163740000Y-98569851D03*
D17*
X167550000Y-101109851D03*
D16*
X170090000Y-96029851D03*
D15*
X172630000Y-101109851D03*
%TD*%
D19*
%TO.C,Power_Ctrlr_L1*%
X209250000Y-149750000D03*
D20*
X209250000Y-147750000D03*
%TD*%
D19*
%TO.C,Sub_to_Main_L1*%
X227000000Y-155500000D03*
D20*
X229000000Y-155500000D03*
X231000000Y-155500000D03*
X233000000Y-155500000D03*
X235000000Y-155500000D03*
X237000000Y-155500000D03*
%TD*%
D18*
%TO.C,H3*%
X237450000Y-86609851D03*
%TD*%
D15*
%TO.C,SW30_R1*%
X105470000Y-63109851D03*
D16*
X106740000Y-60569851D03*
D17*
X110550000Y-63109851D03*
D16*
X113090000Y-58029851D03*
D15*
X115630000Y-63109851D03*
%TD*%
%TO.C,SW51_R1*%
X67470000Y-92109851D03*
D16*
X68740000Y-89569851D03*
D17*
X72550000Y-92109851D03*
D16*
X75090000Y-87029851D03*
D15*
X77630000Y-92109851D03*
%TD*%
D26*
%TO.C,MCU2*%
X183590000Y-135976000D03*
X186130000Y-135976000D03*
X188670000Y-135976000D03*
X191210000Y-135976000D03*
X193750000Y-135976000D03*
X196290000Y-135976000D03*
X198830000Y-135976000D03*
X201370000Y-135976000D03*
X203910000Y-135976000D03*
D27*
X204410000Y-139016000D03*
X204410000Y-141556000D03*
X204410000Y-144096000D03*
X204410000Y-146636000D03*
X204410000Y-149176000D03*
D26*
X203910000Y-152216000D03*
X201370000Y-152216000D03*
X198830000Y-152216000D03*
X196290000Y-152216000D03*
X193750000Y-152216000D03*
X191210000Y-152216000D03*
X188670000Y-152216000D03*
X186130000Y-152216000D03*
X183590000Y-152216000D03*
%TD*%
%TO.C,MCU1*%
X174410000Y-152216000D03*
X171870000Y-152216000D03*
X169330000Y-152216000D03*
X166790000Y-152216000D03*
X164250000Y-152216000D03*
X161710000Y-152216000D03*
X159170000Y-152216000D03*
X156630000Y-152216000D03*
X154090000Y-152216000D03*
D27*
X153590000Y-149176000D03*
X153590000Y-146636000D03*
X153590000Y-144096000D03*
X153590000Y-141556000D03*
X153590000Y-139016000D03*
D26*
X154090000Y-135976000D03*
X156630000Y-135976000D03*
X159170000Y-135976000D03*
X161710000Y-135976000D03*
X164250000Y-135976000D03*
X166790000Y-135976000D03*
X169330000Y-135976000D03*
X171870000Y-135976000D03*
X174410000Y-135976000D03*
%TD*%
D19*
%TO.C,MatrixR_R2*%
X132750000Y-126400000D03*
D20*
X130750000Y-126400000D03*
X128750000Y-126400000D03*
X126750000Y-126400000D03*
X124750000Y-126400000D03*
X122750000Y-126400000D03*
%TD*%
D18*
%TO.C,H13*%
X105000000Y-154000000D03*
%TD*%
D19*
%TO.C,Power_Ctrlr_R1*%
X148500000Y-147700000D03*
D20*
X148500000Y-149700000D03*
%TD*%
D15*
%TO.C,SW30_L1*%
X223370000Y-58109851D03*
D16*
X224640000Y-55569851D03*
D17*
X228450000Y-58109851D03*
D16*
X230990000Y-53029851D03*
D15*
X233530000Y-58109851D03*
%TD*%
D19*
%TO.C,Joystick2*%
X275903246Y-142001873D03*
D20*
X275903246Y-144001873D03*
X275903246Y-146001873D03*
X275903246Y-148001873D03*
X275903246Y-150001873D03*
X275903246Y-152001873D03*
%TD*%
D15*
%TO.C,SW21_L1*%
X242370000Y-82109851D03*
D16*
X243640000Y-79569851D03*
D17*
X247450000Y-82109851D03*
D16*
X249990000Y-77029851D03*
D15*
X252530000Y-82109851D03*
%TD*%
D19*
%TO.C,Sub_to_Main1*%
X121000000Y-155500000D03*
D20*
X123000000Y-155500000D03*
X125000000Y-155500000D03*
X127000000Y-155500000D03*
X129000000Y-155500000D03*
X131000000Y-155500000D03*
%TD*%
D19*
%TO.C,Power_Mtrx_R1*%
X137200000Y-126400000D03*
D20*
X139200000Y-126400000D03*
%TD*%
D15*
%TO.C,SW51_L1*%
X185370000Y-82109851D03*
D16*
X186640000Y-79569851D03*
D17*
X190450000Y-82109851D03*
D16*
X192990000Y-77029851D03*
D15*
X195530000Y-82109851D03*
%TD*%
%TO.C,SW31_L1*%
X223370000Y-77109851D03*
D16*
X224640000Y-74569851D03*
D17*
X228450000Y-77109851D03*
D16*
X230990000Y-72029851D03*
D15*
X233530000Y-77109851D03*
%TD*%
D18*
%TO.C,H12*%
X157550000Y-105609852D03*
%TD*%
D15*
%TO.C,SW52_R1*%
X67470000Y-111109851D03*
D16*
X68740000Y-108569851D03*
D17*
X72550000Y-111109851D03*
D16*
X75090000Y-106029851D03*
D15*
X77630000Y-111109851D03*
%TD*%
%TO.C,SW40_L1*%
X204370000Y-58109851D03*
D16*
X205640000Y-55569851D03*
D17*
X209450000Y-58109851D03*
D16*
X211990000Y-53029851D03*
D15*
X214530000Y-58109851D03*
%TD*%
%TO.C,SW23_R1*%
X124470000Y-115109851D03*
D16*
X125740000Y-112569851D03*
D17*
X129550000Y-115109851D03*
D16*
X132090000Y-110029851D03*
D15*
X134630000Y-115109851D03*
%TD*%
%TO.C,SW13_L1*%
X261370000Y-125109851D03*
D16*
X262640000Y-122569851D03*
D17*
X266450000Y-125109851D03*
D16*
X268990000Y-120029851D03*
D15*
X271530000Y-125109851D03*
%TD*%
%TO.C,SW33_L1*%
X223370000Y-115109851D03*
D16*
X224640000Y-112569851D03*
D17*
X228450000Y-115109851D03*
D16*
X230990000Y-110029851D03*
D15*
X233530000Y-115109851D03*
%TD*%
%TO.C,SW01_L1*%
X280370000Y-92109851D03*
D16*
X281640000Y-89569851D03*
D17*
X285450000Y-92109851D03*
D16*
X287990000Y-87029851D03*
D15*
X290530000Y-92109851D03*
%TD*%
D19*
%TO.C,Row_L1*%
X213000000Y-144250000D03*
D20*
X213000000Y-142250000D03*
X213000000Y-140250000D03*
X213000000Y-138250000D03*
X213000000Y-136250000D03*
X213000000Y-134250000D03*
%TD*%
D15*
%TO.C,SW43_L1*%
X204370000Y-115109851D03*
D16*
X205640000Y-112569851D03*
D17*
X209450000Y-115109851D03*
D16*
X211990000Y-110029851D03*
D15*
X214530000Y-115109851D03*
%TD*%
%TO.C,SW01_R1*%
X162470000Y-82109851D03*
D16*
X163740000Y-79569851D03*
D17*
X167550000Y-82109851D03*
D16*
X170090000Y-77029851D03*
D15*
X172630000Y-82109851D03*
%TD*%
%TO.C,SW02_L1*%
X280370000Y-111109851D03*
D16*
X281640000Y-108569851D03*
D17*
X285450000Y-111109851D03*
D16*
X287990000Y-106029851D03*
D15*
X290530000Y-111109851D03*
%TD*%
%TO.C,SW20_R1*%
X124470000Y-58109851D03*
D16*
X125740000Y-55569851D03*
D17*
X129550000Y-58109851D03*
D16*
X132090000Y-53029851D03*
D15*
X134630000Y-58109851D03*
%TD*%
D18*
%TO.C,H2*%
X200450000Y-105609852D03*
%TD*%
D19*
%TO.C,CoL_R1*%
X148500000Y-134200000D03*
D20*
X148500000Y-136200000D03*
X148500000Y-138200000D03*
X148500000Y-140200000D03*
X148500000Y-142200000D03*
X148500000Y-144200000D03*
%TD*%
D19*
%TO.C,I2C_pinout1*%
X150750000Y-154000000D03*
D20*
X148750000Y-154000000D03*
X146750000Y-154000000D03*
X144750000Y-154000000D03*
%TD*%
D15*
%TO.C,SW44_L1*%
X232080000Y-143500000D03*
D16*
X230810000Y-146040000D03*
D17*
X227000000Y-143500000D03*
D16*
X224460000Y-148580000D03*
D15*
X221920000Y-143500000D03*
%TD*%
%TO.C,SW20_L1*%
X242370000Y-63109851D03*
D16*
X243640000Y-60569851D03*
D17*
X247450000Y-63109851D03*
D16*
X249990000Y-58029851D03*
D15*
X252530000Y-63109851D03*
%TD*%
%TO.C,SW11_L1*%
X261370000Y-87109851D03*
D16*
X262640000Y-84569851D03*
D17*
X266450000Y-87109851D03*
D16*
X268990000Y-82029851D03*
D15*
X271530000Y-87109851D03*
%TD*%
D18*
%TO.C,H5*%
X275450000Y-115609851D03*
%TD*%
D15*
%TO.C,SW50_L1*%
X185370000Y-63109851D03*
D16*
X186640000Y-60569851D03*
D17*
X190450000Y-63109851D03*
D16*
X192990000Y-58029851D03*
D15*
X195530000Y-63109851D03*
%TD*%
%TO.C,SW04_R1*%
X117080000Y-143500000D03*
D16*
X115810000Y-146040000D03*
D17*
X112000000Y-143500000D03*
D16*
X109460000Y-148580000D03*
D15*
X106920000Y-143500000D03*
%TD*%
%TO.C,SW13_R1*%
X143470000Y-115109851D03*
D16*
X144740000Y-112569851D03*
D17*
X148550000Y-115109851D03*
D16*
X151090000Y-110029851D03*
D15*
X153630000Y-115109851D03*
%TD*%
%TO.C,SW41_L1*%
X204370000Y-77109851D03*
D16*
X205640000Y-74569851D03*
D17*
X209450000Y-77109851D03*
D16*
X211990000Y-72029851D03*
D15*
X214530000Y-77109851D03*
%TD*%
%LPD*%
M02*
