%TF.GenerationSoftware,KiCad,Pcbnew,7.0.8*%
%TF.CreationDate,2024-04-16T05:21:19+09:00*%
%TF.ProjectId,pcb,7063622e-6b69-4636-9164-5f7063625858,rev?*%
%TF.SameCoordinates,Original*%
%TF.FileFunction,Soldermask,Top*%
%TF.FilePolarity,Negative*%
%FSLAX46Y46*%
G04 Gerber Fmt 4.6, Leading zero omitted, Abs format (unit mm)*
G04 Created by KiCad (PCBNEW 7.0.8) date 2024-04-16 05:21:19*
%MOMM*%
%LPD*%
G01*
G04 APERTURE LIST*
%ADD10C,1.701800*%
%ADD11C,3.000000*%
%ADD12C,3.987800*%
%ADD13C,2.200000*%
%ADD14R,1.350000X1.350000*%
%ADD15O,1.350000X1.350000*%
%ADD16R,1.400000X1.200000*%
%ADD17C,0.800000*%
%ADD18O,1.400000X1.000000*%
%ADD19C,1.778000*%
%ADD20C,2.286000*%
%ADD21O,1.500000X2.500000*%
%ADD22O,2.500000X1.500000*%
G04 APERTURE END LIST*
D10*
%TO.C,SW31_R1*%
X105470000Y-82109851D03*
D11*
X106740000Y-79569851D03*
D12*
X110550000Y-82109851D03*
D11*
X113090000Y-77029851D03*
D10*
X115630000Y-82109851D03*
%TD*%
D13*
%TO.C,H11*%
X157550000Y-67609851D03*
%TD*%
D10*
%TO.C,SW42_L1*%
X204370000Y-96109851D03*
D11*
X205640000Y-93569851D03*
D12*
X209450000Y-96109851D03*
D11*
X211990000Y-91029851D03*
D10*
X214530000Y-96109851D03*
%TD*%
%TO.C,SW52_L1*%
X185370000Y-101109851D03*
D11*
X186640000Y-98569851D03*
D12*
X190450000Y-101109851D03*
D11*
X192990000Y-96029851D03*
D10*
X195530000Y-101109851D03*
%TD*%
%TO.C,SW12_R1*%
X143470000Y-96109851D03*
D11*
X144740000Y-93569851D03*
D12*
X148550000Y-96109851D03*
D11*
X151090000Y-91029851D03*
D10*
X153630000Y-96109851D03*
%TD*%
%TO.C,SW11_R1*%
X143470000Y-77109851D03*
D11*
X144740000Y-74569851D03*
D12*
X148550000Y-77109851D03*
D11*
X151090000Y-72029851D03*
D10*
X153630000Y-77109851D03*
%TD*%
D13*
%TO.C,H6*%
X220000000Y-154000000D03*
%TD*%
D10*
%TO.C,SW50_R1*%
X67470000Y-73109851D03*
D11*
X68740000Y-70569851D03*
D12*
X72550000Y-73109851D03*
D11*
X75090000Y-68029851D03*
D10*
X77630000Y-73109851D03*
%TD*%
%TO.C,SW10_R1*%
X143470000Y-58109851D03*
D11*
X144740000Y-55569851D03*
D12*
X148550000Y-58109851D03*
D11*
X151090000Y-53029851D03*
D10*
X153630000Y-58109851D03*
%TD*%
%TO.C,SW14_R1*%
X136080000Y-143500000D03*
D11*
X134810000Y-146040000D03*
D12*
X131000000Y-143500000D03*
D11*
X128460000Y-148580000D03*
D10*
X125920000Y-143500000D03*
%TD*%
%TO.C,SW40_R1*%
X86470000Y-68109851D03*
D11*
X87740000Y-65569851D03*
D12*
X91550000Y-68109851D03*
D11*
X94090000Y-63029851D03*
D10*
X96630000Y-68109851D03*
%TD*%
%TO.C,SW32_R1*%
X105470000Y-101109851D03*
D11*
X106740000Y-98569851D03*
D12*
X110550000Y-101109851D03*
D11*
X113090000Y-96029851D03*
D10*
X115630000Y-101109851D03*
%TD*%
D13*
%TO.C,H10*%
X120550000Y-86609851D03*
%TD*%
D10*
%TO.C,SW12_L1*%
X261370000Y-106109851D03*
D11*
X262640000Y-103569851D03*
D12*
X266450000Y-106109851D03*
D11*
X268990000Y-101029851D03*
D10*
X271530000Y-106109851D03*
%TD*%
%TO.C,SW53_R1*%
X67470000Y-130109851D03*
D11*
X68740000Y-127569851D03*
D12*
X72550000Y-130109851D03*
D11*
X75090000Y-125029851D03*
D10*
X77630000Y-130109851D03*
%TD*%
%TO.C,SW42_R1*%
X86470000Y-106109851D03*
D11*
X87740000Y-103569851D03*
D12*
X91550000Y-106109851D03*
D11*
X94090000Y-101029851D03*
D10*
X96630000Y-106109851D03*
%TD*%
%TO.C,SW33_R1*%
X105470000Y-120109851D03*
D11*
X106740000Y-117569851D03*
D12*
X110550000Y-120109851D03*
D11*
X113090000Y-115029851D03*
D10*
X115630000Y-120109851D03*
%TD*%
D13*
%TO.C,H1*%
X200450000Y-67609851D03*
%TD*%
D14*
%TO.C,Col_L1*%
X209250000Y-144250000D03*
D15*
X209250000Y-142250000D03*
X209250000Y-140250000D03*
X209250000Y-138250000D03*
X209250000Y-136250000D03*
X209250000Y-134250000D03*
%TD*%
D16*
%TO.C,D_Sel1*%
X209000000Y-154550000D03*
X209000000Y-157950000D03*
%TD*%
D10*
%TO.C,SW10_L1*%
X261370000Y-68109851D03*
D11*
X262640000Y-65569851D03*
D12*
X266450000Y-68109851D03*
D11*
X268990000Y-63029851D03*
D10*
X271530000Y-68109851D03*
%TD*%
%TO.C,SW22_R1*%
X124470000Y-96109851D03*
D11*
X125740000Y-93569851D03*
D12*
X129550000Y-96109851D03*
D11*
X132090000Y-91029851D03*
D10*
X134630000Y-96109851D03*
%TD*%
D17*
%TO.C,TRRS1*%
X176400000Y-158000000D03*
X169400000Y-158000000D03*
D18*
X167800000Y-160300000D03*
X171800000Y-160300000D03*
X174800000Y-160300000D03*
X166700000Y-155700000D03*
%TD*%
D14*
%TO.C,MatrixC_R1*%
X132750000Y-130800000D03*
D15*
X130750000Y-130800000D03*
X128750000Y-130800000D03*
X126750000Y-130800000D03*
X124750000Y-130800000D03*
X122750000Y-130800000D03*
%TD*%
D14*
%TO.C,Joystick1*%
X213000000Y-157750000D03*
D15*
X213000000Y-155750000D03*
X213000000Y-153750000D03*
X213000000Y-151750000D03*
X213000000Y-149750000D03*
X213000000Y-147750000D03*
%TD*%
D10*
%TO.C,SW53_L1*%
X185370000Y-120109851D03*
D11*
X186640000Y-117569851D03*
D12*
X190450000Y-120109851D03*
D11*
X192990000Y-115029851D03*
D10*
X195530000Y-120109851D03*
%TD*%
D17*
%TO.C,TRRS2*%
X181600000Y-158000000D03*
X188600000Y-158000000D03*
D18*
X190200000Y-155700000D03*
X186200000Y-155700000D03*
X183200000Y-155700000D03*
X191300000Y-160300000D03*
%TD*%
D14*
%TO.C,Main_to_Sub1*%
X144300000Y-126359851D03*
D15*
X146300000Y-126359851D03*
X148300000Y-126359851D03*
X150300000Y-126359851D03*
X152300000Y-126359851D03*
X154300000Y-126359851D03*
%TD*%
D14*
%TO.C,Main_to_Sub_L1*%
X203700000Y-126359851D03*
D15*
X205700000Y-126359851D03*
X207700000Y-126359851D03*
X209700000Y-126359851D03*
X211700000Y-126359851D03*
X213700000Y-126359851D03*
%TD*%
D10*
%TO.C,SW21_R1*%
X124470000Y-77109851D03*
D11*
X125740000Y-74569851D03*
D12*
X129550000Y-77109851D03*
D11*
X132090000Y-72029851D03*
D10*
X134630000Y-77109851D03*
%TD*%
D19*
%TO.C,Joystick3*%
X263653246Y-136701873D03*
X270153246Y-136701873D03*
X263653246Y-141201873D03*
X270153246Y-141201873D03*
X264403246Y-155701873D03*
X266903246Y-155701873D03*
X269403246Y-155701873D03*
D20*
X260603246Y-142001873D03*
X260603246Y-152001873D03*
X273203246Y-152001873D03*
X273203246Y-142001873D03*
D19*
X258203246Y-144501873D03*
X258203246Y-147049212D03*
X258203246Y-149501873D03*
%TD*%
D10*
%TO.C,SW41_R1*%
X86470000Y-87109851D03*
D11*
X87740000Y-84569851D03*
D12*
X91550000Y-87109851D03*
D11*
X94090000Y-82029851D03*
D10*
X96630000Y-87109851D03*
%TD*%
D14*
%TO.C,MatrixR_R1*%
X235250000Y-126400000D03*
D15*
X233250000Y-126400000D03*
X231250000Y-126400000D03*
X229250000Y-126400000D03*
X227250000Y-126400000D03*
X225250000Y-126400000D03*
%TD*%
D10*
%TO.C,SW23_L1*%
X242370000Y-120109851D03*
D11*
X243640000Y-117569851D03*
D12*
X247450000Y-120109851D03*
D11*
X249990000Y-115029851D03*
D10*
X252530000Y-120109851D03*
%TD*%
D14*
%TO.C,Row_R1*%
X144750000Y-134200000D03*
D15*
X144750000Y-136200000D03*
X144750000Y-138200000D03*
X144750000Y-140200000D03*
X144750000Y-142200000D03*
X144750000Y-144200000D03*
%TD*%
D14*
%TO.C,Power_Mtrx_L1*%
X219000000Y-126359851D03*
D15*
X221000000Y-126359851D03*
%TD*%
D13*
%TO.C,H8*%
X82550000Y-77609851D03*
%TD*%
%TO.C,H9*%
X82550000Y-115609851D03*
%TD*%
D10*
%TO.C,SW43_R1*%
X86470000Y-125109851D03*
D11*
X87740000Y-122569851D03*
D12*
X91550000Y-125109851D03*
D11*
X94090000Y-120029851D03*
D10*
X96630000Y-125109851D03*
%TD*%
D14*
%TO.C,MatrixC_L1*%
X235250000Y-130800000D03*
D15*
X233250000Y-130800000D03*
X231250000Y-130800000D03*
X229250000Y-130800000D03*
X227250000Y-130800000D03*
X225250000Y-130800000D03*
%TD*%
D13*
%TO.C,H14*%
X138000000Y-154000000D03*
%TD*%
D10*
%TO.C,SW03_L1*%
X280370000Y-130109851D03*
D11*
X281640000Y-127569851D03*
D12*
X285450000Y-130109851D03*
D11*
X287990000Y-125029851D03*
D10*
X290530000Y-130109851D03*
%TD*%
%TO.C,SW54_L1*%
X251080000Y-143500000D03*
D11*
X249810000Y-146040000D03*
D12*
X246000000Y-143500000D03*
D11*
X243460000Y-148580000D03*
D10*
X240920000Y-143500000D03*
%TD*%
D13*
%TO.C,H4*%
X275450000Y-77609851D03*
%TD*%
D10*
%TO.C,SW00_L1*%
X280370000Y-73109851D03*
D11*
X281640000Y-70569851D03*
D12*
X285450000Y-73109851D03*
D11*
X287990000Y-68029851D03*
D10*
X290530000Y-73109851D03*
%TD*%
D13*
%TO.C,H7*%
X253000000Y-154000000D03*
%TD*%
D10*
%TO.C,SW03_R1*%
X162470000Y-120109851D03*
D11*
X163740000Y-117569851D03*
D12*
X167550000Y-120109851D03*
D11*
X170090000Y-115029851D03*
D10*
X172630000Y-120109851D03*
%TD*%
%TO.C,SW32_L1*%
X223370000Y-96109851D03*
D11*
X224640000Y-93569851D03*
D12*
X228450000Y-96109851D03*
D11*
X230990000Y-91029851D03*
D10*
X233530000Y-96109851D03*
%TD*%
%TO.C,SW22_L1*%
X242370000Y-101109851D03*
D11*
X243640000Y-98569851D03*
D12*
X247450000Y-101109851D03*
D11*
X249990000Y-96029851D03*
D10*
X252530000Y-101109851D03*
%TD*%
%TO.C,SW00_R1*%
X162470000Y-63109851D03*
D11*
X163740000Y-60569851D03*
D12*
X167550000Y-63109851D03*
D11*
X170090000Y-58029851D03*
D10*
X172630000Y-63109851D03*
%TD*%
%TO.C,SW02_R1*%
X162470000Y-101109851D03*
D11*
X163740000Y-98569851D03*
D12*
X167550000Y-101109851D03*
D11*
X170090000Y-96029851D03*
D10*
X172630000Y-101109851D03*
%TD*%
D14*
%TO.C,Power_Ctrlr_L1*%
X209250000Y-149750000D03*
D15*
X209250000Y-147750000D03*
%TD*%
D14*
%TO.C,Sub_to_Main_L1*%
X227000000Y-155500000D03*
D15*
X229000000Y-155500000D03*
X231000000Y-155500000D03*
X233000000Y-155500000D03*
X235000000Y-155500000D03*
X237000000Y-155500000D03*
%TD*%
D13*
%TO.C,H3*%
X237450000Y-86609851D03*
%TD*%
D10*
%TO.C,SW30_R1*%
X105470000Y-63109851D03*
D11*
X106740000Y-60569851D03*
D12*
X110550000Y-63109851D03*
D11*
X113090000Y-58029851D03*
D10*
X115630000Y-63109851D03*
%TD*%
%TO.C,SW51_R1*%
X67470000Y-92109851D03*
D11*
X68740000Y-89569851D03*
D12*
X72550000Y-92109851D03*
D11*
X75090000Y-87029851D03*
D10*
X77630000Y-92109851D03*
%TD*%
D21*
%TO.C,MCU2*%
X183590000Y-135976000D03*
X186130000Y-135976000D03*
X188670000Y-135976000D03*
X191210000Y-135976000D03*
X193750000Y-135976000D03*
X196290000Y-135976000D03*
X198830000Y-135976000D03*
X201370000Y-135976000D03*
X203910000Y-135976000D03*
D22*
X204410000Y-139016000D03*
X204410000Y-141556000D03*
X204410000Y-144096000D03*
X204410000Y-146636000D03*
X204410000Y-149176000D03*
D21*
X203910000Y-152216000D03*
X201370000Y-152216000D03*
X198830000Y-152216000D03*
X196290000Y-152216000D03*
X193750000Y-152216000D03*
X191210000Y-152216000D03*
X188670000Y-152216000D03*
X186130000Y-152216000D03*
X183590000Y-152216000D03*
%TD*%
%TO.C,MCU1*%
X174410000Y-152216000D03*
X171870000Y-152216000D03*
X169330000Y-152216000D03*
X166790000Y-152216000D03*
X164250000Y-152216000D03*
X161710000Y-152216000D03*
X159170000Y-152216000D03*
X156630000Y-152216000D03*
X154090000Y-152216000D03*
D22*
X153590000Y-149176000D03*
X153590000Y-146636000D03*
X153590000Y-144096000D03*
X153590000Y-141556000D03*
X153590000Y-139016000D03*
D21*
X154090000Y-135976000D03*
X156630000Y-135976000D03*
X159170000Y-135976000D03*
X161710000Y-135976000D03*
X164250000Y-135976000D03*
X166790000Y-135976000D03*
X169330000Y-135976000D03*
X171870000Y-135976000D03*
X174410000Y-135976000D03*
%TD*%
D14*
%TO.C,MatrixR_R2*%
X132750000Y-126400000D03*
D15*
X130750000Y-126400000D03*
X128750000Y-126400000D03*
X126750000Y-126400000D03*
X124750000Y-126400000D03*
X122750000Y-126400000D03*
%TD*%
D13*
%TO.C,H13*%
X105000000Y-154000000D03*
%TD*%
D14*
%TO.C,Power_Ctrlr_R1*%
X148500000Y-147700000D03*
D15*
X148500000Y-149700000D03*
%TD*%
D10*
%TO.C,SW30_L1*%
X223370000Y-58109851D03*
D11*
X224640000Y-55569851D03*
D12*
X228450000Y-58109851D03*
D11*
X230990000Y-53029851D03*
D10*
X233530000Y-58109851D03*
%TD*%
D14*
%TO.C,Joystick2*%
X275903246Y-142001873D03*
D15*
X275903246Y-144001873D03*
X275903246Y-146001873D03*
X275903246Y-148001873D03*
X275903246Y-150001873D03*
X275903246Y-152001873D03*
%TD*%
D10*
%TO.C,SW21_L1*%
X242370000Y-82109851D03*
D11*
X243640000Y-79569851D03*
D12*
X247450000Y-82109851D03*
D11*
X249990000Y-77029851D03*
D10*
X252530000Y-82109851D03*
%TD*%
D14*
%TO.C,Sub_to_Main1*%
X121000000Y-155500000D03*
D15*
X123000000Y-155500000D03*
X125000000Y-155500000D03*
X127000000Y-155500000D03*
X129000000Y-155500000D03*
X131000000Y-155500000D03*
%TD*%
D14*
%TO.C,Power_Mtrx_R1*%
X137200000Y-126400000D03*
D15*
X139200000Y-126400000D03*
%TD*%
D10*
%TO.C,SW51_L1*%
X185370000Y-82109851D03*
D11*
X186640000Y-79569851D03*
D12*
X190450000Y-82109851D03*
D11*
X192990000Y-77029851D03*
D10*
X195530000Y-82109851D03*
%TD*%
%TO.C,SW31_L1*%
X223370000Y-77109851D03*
D11*
X224640000Y-74569851D03*
D12*
X228450000Y-77109851D03*
D11*
X230990000Y-72029851D03*
D10*
X233530000Y-77109851D03*
%TD*%
D13*
%TO.C,H12*%
X157550000Y-105609852D03*
%TD*%
D10*
%TO.C,SW52_R1*%
X67470000Y-111109851D03*
D11*
X68740000Y-108569851D03*
D12*
X72550000Y-111109851D03*
D11*
X75090000Y-106029851D03*
D10*
X77630000Y-111109851D03*
%TD*%
%TO.C,SW40_L1*%
X204370000Y-58109851D03*
D11*
X205640000Y-55569851D03*
D12*
X209450000Y-58109851D03*
D11*
X211990000Y-53029851D03*
D10*
X214530000Y-58109851D03*
%TD*%
%TO.C,SW23_R1*%
X124470000Y-115109851D03*
D11*
X125740000Y-112569851D03*
D12*
X129550000Y-115109851D03*
D11*
X132090000Y-110029851D03*
D10*
X134630000Y-115109851D03*
%TD*%
%TO.C,SW13_L1*%
X261370000Y-125109851D03*
D11*
X262640000Y-122569851D03*
D12*
X266450000Y-125109851D03*
D11*
X268990000Y-120029851D03*
D10*
X271530000Y-125109851D03*
%TD*%
%TO.C,SW33_L1*%
X223370000Y-115109851D03*
D11*
X224640000Y-112569851D03*
D12*
X228450000Y-115109851D03*
D11*
X230990000Y-110029851D03*
D10*
X233530000Y-115109851D03*
%TD*%
%TO.C,SW01_L1*%
X280370000Y-92109851D03*
D11*
X281640000Y-89569851D03*
D12*
X285450000Y-92109851D03*
D11*
X287990000Y-87029851D03*
D10*
X290530000Y-92109851D03*
%TD*%
D14*
%TO.C,Row_L1*%
X213000000Y-144250000D03*
D15*
X213000000Y-142250000D03*
X213000000Y-140250000D03*
X213000000Y-138250000D03*
X213000000Y-136250000D03*
X213000000Y-134250000D03*
%TD*%
D10*
%TO.C,SW43_L1*%
X204370000Y-115109851D03*
D11*
X205640000Y-112569851D03*
D12*
X209450000Y-115109851D03*
D11*
X211990000Y-110029851D03*
D10*
X214530000Y-115109851D03*
%TD*%
%TO.C,SW01_R1*%
X162470000Y-82109851D03*
D11*
X163740000Y-79569851D03*
D12*
X167550000Y-82109851D03*
D11*
X170090000Y-77029851D03*
D10*
X172630000Y-82109851D03*
%TD*%
%TO.C,SW02_L1*%
X280370000Y-111109851D03*
D11*
X281640000Y-108569851D03*
D12*
X285450000Y-111109851D03*
D11*
X287990000Y-106029851D03*
D10*
X290530000Y-111109851D03*
%TD*%
%TO.C,SW20_R1*%
X124470000Y-58109851D03*
D11*
X125740000Y-55569851D03*
D12*
X129550000Y-58109851D03*
D11*
X132090000Y-53029851D03*
D10*
X134630000Y-58109851D03*
%TD*%
D13*
%TO.C,H2*%
X200450000Y-105609852D03*
%TD*%
D14*
%TO.C,CoL_R1*%
X148500000Y-134200000D03*
D15*
X148500000Y-136200000D03*
X148500000Y-138200000D03*
X148500000Y-140200000D03*
X148500000Y-142200000D03*
X148500000Y-144200000D03*
%TD*%
D14*
%TO.C,I2C_pinout1*%
X150750000Y-154000000D03*
D15*
X148750000Y-154000000D03*
X146750000Y-154000000D03*
X144750000Y-154000000D03*
%TD*%
D10*
%TO.C,SW44_L1*%
X232080000Y-143500000D03*
D11*
X230810000Y-146040000D03*
D12*
X227000000Y-143500000D03*
D11*
X224460000Y-148580000D03*
D10*
X221920000Y-143500000D03*
%TD*%
%TO.C,SW20_L1*%
X242370000Y-63109851D03*
D11*
X243640000Y-60569851D03*
D12*
X247450000Y-63109851D03*
D11*
X249990000Y-58029851D03*
D10*
X252530000Y-63109851D03*
%TD*%
%TO.C,SW11_L1*%
X261370000Y-87109851D03*
D11*
X262640000Y-84569851D03*
D12*
X266450000Y-87109851D03*
D11*
X268990000Y-82029851D03*
D10*
X271530000Y-87109851D03*
%TD*%
D13*
%TO.C,H5*%
X275450000Y-115609851D03*
%TD*%
D10*
%TO.C,SW50_L1*%
X185370000Y-63109851D03*
D11*
X186640000Y-60569851D03*
D12*
X190450000Y-63109851D03*
D11*
X192990000Y-58029851D03*
D10*
X195530000Y-63109851D03*
%TD*%
%TO.C,SW04_R1*%
X117080000Y-143500000D03*
D11*
X115810000Y-146040000D03*
D12*
X112000000Y-143500000D03*
D11*
X109460000Y-148580000D03*
D10*
X106920000Y-143500000D03*
%TD*%
%TO.C,SW13_R1*%
X143470000Y-115109851D03*
D11*
X144740000Y-112569851D03*
D12*
X148550000Y-115109851D03*
D11*
X151090000Y-110029851D03*
D10*
X153630000Y-115109851D03*
%TD*%
%TO.C,SW41_L1*%
X204370000Y-77109851D03*
D11*
X205640000Y-74569851D03*
D12*
X209450000Y-77109851D03*
D11*
X211990000Y-72029851D03*
D10*
X214530000Y-77109851D03*
%TD*%
M02*
