M48
; DRILL file {KiCad 7.0.8} date Tue Apr 16 05:21:03 2024
; FORMAT={-:-/ absolute / inch / decimal}
; #@! TF.CreationDate,2024-04-16T05:21:03+09:00
; #@! TF.GenerationSoftware,Kicad,Pcbnew,7.0.8
; #@! TF.FileFunction,NonPlated,1,2,NPTH
FMAT,2
INCH
; #@! TA.AperFunction,NonPlated,NPTH,ComponentDrill
T1C0.0315
; #@! TA.AperFunction,NonPlated,NPTH,ComponentDrill
T2C0.0670
; #@! TA.AperFunction,NonPlated,NPTH,ComponentDrill
T3C0.0866
; #@! TA.AperFunction,NonPlated,NPTH,ComponentDrill
T4C0.1181
; #@! TA.AperFunction,NonPlated,NPTH,ComponentDrill
T5C0.1570
%
G90
G05
T1
X6.6693Y-6.2205
X6.9449Y-6.2205
X7.1496Y-6.2205
X7.4252Y-6.2205
T2
X2.6563Y-2.8783
X2.6563Y-3.6264
X2.6563Y-4.3744
X2.6563Y-5.1224
X3.0563Y-2.8783
X3.0563Y-3.6264
X3.0563Y-4.3744
X3.0563Y-5.1224
X3.4043Y-2.6815
X3.4043Y-3.4295
X3.4043Y-4.1776
X3.4043Y-4.9256
X3.8043Y-2.6815
X3.8043Y-3.4295
X3.8043Y-4.1776
X3.8043Y-4.9256
X4.1524Y-2.4846
X4.1524Y-3.2327
X4.1524Y-3.9807
X4.1524Y-4.7287
X4.2094Y-5.6496
X4.5524Y-2.4846
X4.5524Y-3.2327
X4.5524Y-3.9807
X4.5524Y-4.7287
X4.6094Y-5.6496
X4.9004Y-2.2878
X4.9004Y-3.0358
X4.9004Y-3.7839
X4.9004Y-4.5319
X4.9575Y-5.6496
X5.3004Y-2.2878
X5.3004Y-3.0358
X5.3004Y-3.7839
X5.3004Y-4.5319
X5.3575Y-5.6496
X5.6484Y-2.2878
X5.6484Y-3.0358
X5.6484Y-3.7839
X5.6484Y-4.5319
X6.0484Y-2.2878
X6.0484Y-3.0358
X6.0484Y-3.7839
X6.0484Y-4.5319
X6.3965Y-2.4846
X6.3965Y-3.2327
X6.3965Y-3.9807
X6.3965Y-4.7287
X6.7965Y-2.4846
X6.7965Y-3.2327
X6.7965Y-3.9807
X6.7965Y-4.7287
X7.298Y-2.4846
X7.298Y-3.2327
X7.298Y-3.9807
X7.298Y-4.7287
X7.698Y-2.4846
X7.698Y-3.2327
X7.698Y-3.9807
X7.698Y-4.7287
X8.0461Y-2.2878
X8.0461Y-3.0358
X8.0461Y-3.7839
X8.0461Y-4.5319
X8.4461Y-2.2878
X8.4461Y-3.0358
X8.4461Y-3.7839
X8.4461Y-4.5319
X8.737Y-5.6496
X8.7941Y-2.2878
X8.7941Y-3.0358
X8.7941Y-3.7839
X8.7941Y-4.5319
X9.137Y-5.6496
X9.1941Y-2.2878
X9.1941Y-3.0358
X9.1941Y-3.7839
X9.1941Y-4.5319
X9.485Y-5.6496
X9.5421Y-2.4846
X9.5421Y-3.2327
X9.5421Y-3.9807
X9.5421Y-4.7287
X9.885Y-5.6496
X9.9421Y-2.4846
X9.9421Y-3.2327
X9.9421Y-3.9807
X9.9421Y-4.7287
X10.2902Y-2.6815
X10.2902Y-3.4295
X10.2902Y-4.1776
X10.2902Y-4.9256
X10.6902Y-2.6815
X10.6902Y-3.4295
X10.6902Y-4.1776
X10.6902Y-4.9256
X11.0382Y-2.8783
X11.0382Y-3.6264
X11.0382Y-4.3744
X11.0382Y-5.1224
X11.4382Y-2.8783
X11.4382Y-3.6264
X11.4382Y-4.3744
X11.4382Y-5.1224
T3
X3.25Y-3.0555
X3.25Y-4.5516
X4.1339Y-6.063
X4.7461Y-3.4098
X5.4331Y-6.063
X6.2028Y-2.6618
X6.2028Y-4.1579
X7.8917Y-2.6618
X7.8917Y-4.1579
X8.6614Y-6.063
X9.3484Y-3.4098
X9.9606Y-6.063
X10.8445Y-3.0555
X10.8445Y-4.5516
T4
X2.7063Y-2.7783
X2.7063Y-3.5264
X2.7063Y-4.2744
X2.7063Y-5.0224
X2.9563Y-2.6783
X2.9563Y-3.4264
X2.9563Y-4.1744
X2.9563Y-4.9224
X3.4543Y-2.5815
X3.4543Y-3.3295
X3.4543Y-4.0776
X3.4543Y-4.8256
X3.7043Y-2.4815
X3.7043Y-3.2295
X3.7043Y-3.9776
X3.7043Y-4.7256
X4.2024Y-2.3846
X4.2024Y-3.1327
X4.2024Y-3.8807
X4.2024Y-4.6287
X4.3094Y-5.8496
X4.4524Y-2.2846
X4.4524Y-3.0327
X4.4524Y-3.7807
X4.4524Y-4.5287
X4.5594Y-5.7496
X4.9504Y-2.1878
X4.9504Y-2.9358
X4.9504Y-3.6839
X4.9504Y-4.4319
X5.0575Y-5.8496
X5.2004Y-2.0878
X5.2004Y-2.8358
X5.2004Y-3.5839
X5.2004Y-4.3319
X5.3075Y-5.7496
X5.6984Y-2.1878
X5.6984Y-2.9358
X5.6984Y-3.6839
X5.6984Y-4.4319
X5.9484Y-2.0878
X5.9484Y-2.8358
X5.9484Y-3.5839
X5.9484Y-4.3319
X6.4465Y-2.3846
X6.4465Y-3.1327
X6.4465Y-3.8807
X6.4465Y-4.6287
X6.6965Y-2.2846
X6.6965Y-3.0327
X6.6965Y-3.7807
X6.6965Y-4.5287
X7.348Y-2.3846
X7.348Y-3.1327
X7.348Y-3.8807
X7.348Y-4.6287
X7.598Y-2.2846
X7.598Y-3.0327
X7.598Y-3.7807
X7.598Y-4.5287
X8.0961Y-2.1878
X8.0961Y-2.9358
X8.0961Y-3.6839
X8.0961Y-4.4319
X8.3461Y-2.0878
X8.3461Y-2.8358
X8.3461Y-3.5839
X8.3461Y-4.3319
X8.837Y-5.8496
X8.8441Y-2.1878
X8.8441Y-2.9358
X8.8441Y-3.6839
X8.8441Y-4.4319
X9.087Y-5.7496
X9.0941Y-2.0878
X9.0941Y-2.8358
X9.0941Y-3.5839
X9.0941Y-4.3319
X9.585Y-5.8496
X9.5921Y-2.3846
X9.5921Y-3.1327
X9.5921Y-3.8807
X9.5921Y-4.6287
X9.835Y-5.7496
X9.8421Y-2.2846
X9.8421Y-3.0327
X9.8421Y-3.7807
X9.8421Y-4.5287
X10.3402Y-2.5815
X10.3402Y-3.3295
X10.3402Y-4.0776
X10.3402Y-4.8256
X10.5902Y-2.4815
X10.5902Y-3.2295
X10.5902Y-3.9776
X10.5902Y-4.7256
X11.0882Y-2.7783
X11.0882Y-3.5264
X11.0882Y-4.2744
X11.0882Y-5.0224
X11.3382Y-2.6783
X11.3382Y-3.4264
X11.3382Y-4.1744
X11.3382Y-4.9224
T5
X2.8563Y-2.8783
X2.8563Y-3.6264
X2.8563Y-4.3744
X2.8563Y-5.1224
X3.6043Y-2.6815
X3.6043Y-3.4295
X3.6043Y-4.1776
X3.6043Y-4.9256
X4.3524Y-2.4846
X4.3524Y-3.2327
X4.3524Y-3.9807
X4.3524Y-4.7287
X4.4094Y-5.6496
X5.1004Y-2.2878
X5.1004Y-3.0358
X5.1004Y-3.7839
X5.1004Y-4.5319
X5.1575Y-5.6496
X5.8484Y-2.2878
X5.8484Y-3.0358
X5.8484Y-3.7839
X5.8484Y-4.5319
X6.5965Y-2.4846
X6.5965Y-3.2327
X6.5965Y-3.9807
X6.5965Y-4.7287
X7.498Y-2.4846
X7.498Y-3.2327
X7.498Y-3.9807
X7.498Y-4.7287
X8.2461Y-2.2878
X8.2461Y-3.0358
X8.2461Y-3.7839
X8.2461Y-4.5319
X8.937Y-5.6496
X8.9941Y-2.2878
X8.9941Y-3.0358
X8.9941Y-3.7839
X8.9941Y-4.5319
X9.685Y-5.6496
X9.7421Y-2.4846
X9.7421Y-3.2327
X9.7421Y-3.9807
X9.7421Y-4.7287
X10.4902Y-2.6815
X10.4902Y-3.4295
X10.4902Y-4.1776
X10.4902Y-4.9256
X11.2382Y-2.8783
X11.2382Y-3.6264
X11.2382Y-4.3744
X11.2382Y-5.1224
T0
M30
