%TF.GenerationSoftware,KiCad,Pcbnew,7.0.8*%
%TF.CreationDate,2024-04-16T05:21:19+09:00*%
%TF.ProjectId,pcb,7063622e-6b69-4636-9164-5f7063625858,rev?*%
%TF.SameCoordinates,Original*%
%TF.FileFunction,Profile,NP*%
%FSLAX46Y46*%
G04 Gerber Fmt 4.6, Leading zero omitted, Abs format (unit mm)*
G04 Created by KiCad (PCBNEW 7.0.8) date 2024-04-16 05:21:19*
%MOMM*%
%LPD*%
G01*
G04 APERTURE LIST*
%TA.AperFunction,Profile*%
%ADD10C,0.100000*%
%TD*%
%TA.AperFunction,Profile*%
%ADD11C,0.050000*%
%TD*%
%TA.AperFunction,Profile*%
%ADD12C,0.120000*%
%TD*%
G04 APERTURE END LIST*
D10*
X179500000Y-53964814D02*
X179500000Y-55000000D01*
X138500000Y-157000000D02*
X104500000Y-157000000D01*
X168000000Y-130500000D02*
G75*
G03*
X168000000Y-130500000I-500000J0D01*
G01*
X178500000Y-55000000D02*
X178500000Y-53964814D01*
X267403246Y-158751873D02*
G75*
G03*
X266403246Y-158751873I-500000J0D01*
G01*
X182000001Y-131000001D02*
G75*
G03*
X180000001Y-133000000I-1J-1999999D01*
G01*
X178500000Y-109250000D02*
G75*
G03*
X179500000Y-109250000I500000J0D01*
G01*
X110000000Y-134500000D02*
G75*
G03*
X110000000Y-134500000I-500000J0D01*
G01*
X255500000Y-141000000D02*
X255500001Y-137000000D01*
X278450000Y-139000000D02*
X291900000Y-139000000D01*
X220925617Y-130504572D02*
G75*
G03*
X219058947Y-129222522I-1866817J-718128D01*
G01*
X105500000Y-135000000D02*
G75*
G03*
X105500000Y-134000000I0J500000D01*
G01*
X61100000Y-134000000D02*
X61100000Y-63964814D01*
X267403246Y-135251873D02*
X267403246Y-135001873D01*
X158049986Y-46464814D02*
G75*
G03*
X160550000Y-48964814I2500014J14D01*
G01*
X267403246Y-158751873D02*
X267403246Y-159001873D01*
X138941052Y-129222522D02*
X150036000Y-129220000D01*
X179999993Y-159045107D02*
G75*
G03*
X181999999Y-161045107I2000007J7D01*
G01*
X253500000Y-157000000D02*
G75*
G03*
X255500000Y-155000000I0J2000000D01*
G01*
X273450000Y-134000000D02*
X252500000Y-134000000D01*
X179500000Y-59000000D02*
G75*
G03*
X179500000Y-59000000I-500000J0D01*
G01*
X214000001Y-131000000D02*
X196500000Y-131000000D01*
X273450000Y-53964814D02*
X259450000Y-53964814D01*
X237949986Y-46464814D02*
G75*
G03*
X235450000Y-43964814I-2499986J14D01*
G01*
X235400000Y-135000000D02*
X219500001Y-135000000D01*
X144004217Y-131000017D02*
G75*
G03*
X142004217Y-133000000I-17J-1999983D01*
G01*
X179500000Y-63000000D02*
G75*
G03*
X179500000Y-63000000I-500000J0D01*
G01*
X184500000Y-48964800D02*
G75*
G03*
X179500000Y-53964814I0J-5000000D01*
G01*
X177995785Y-159130893D02*
X177999999Y-133000000D01*
X252500000Y-135000000D02*
X253500001Y-135000000D01*
X197450000Y-48964814D02*
X184500000Y-48964814D01*
X179500000Y-115250000D02*
G75*
G03*
X179500000Y-115250000I-500000J0D01*
G01*
X249000000Y-134500000D02*
G75*
G03*
X249000000Y-134500000I-500000J0D01*
G01*
X235399999Y-136500000D02*
G75*
G03*
X237599999Y-136500000I1100000J0D01*
G01*
X221328371Y-132715647D02*
X220925638Y-130504564D01*
X140500000Y-137000000D02*
G75*
G03*
X138499999Y-135000000I-2000000J0D01*
G01*
X108000000Y-134500000D02*
G75*
G03*
X108000000Y-134500000I-500000J0D01*
G01*
X143999999Y-161130893D02*
X175995785Y-161130893D01*
X112000000Y-134500000D02*
G75*
G03*
X112000000Y-134500000I-500000J0D01*
G01*
X291900000Y-139000000D02*
G75*
G03*
X296900000Y-134000000I0J5000000D01*
G01*
X179500000Y-125000000D02*
X179500000Y-121250000D01*
X120400000Y-136400000D02*
G75*
G03*
X122600000Y-136400000I1100000J0D01*
G01*
X266403246Y-135251873D02*
G75*
G03*
X267403246Y-135251873I500000J0D01*
G01*
X179500000Y-113250000D02*
G75*
G03*
X179500000Y-113250000I-500000J0D01*
G01*
X216000003Y-159045107D02*
X216000001Y-133000000D01*
X237599999Y-136500000D02*
X237600000Y-135000000D01*
X173500000Y-130000000D02*
G75*
G03*
X178500000Y-125000000I0J5000000D01*
G01*
X253500000Y-157000000D02*
X219500000Y-157000000D01*
X136671628Y-132715647D02*
X137074361Y-130504564D01*
X219500001Y-135000001D02*
G75*
G03*
X217500001Y-137000000I-1J-1999999D01*
G01*
X254450000Y-48964814D02*
X240450000Y-48964814D01*
X296900000Y-134000000D02*
X296900000Y-63964814D01*
X84550000Y-134000000D02*
G75*
G03*
X82050000Y-136500000I0J-2500000D01*
G01*
X170000000Y-130500000D02*
G75*
G03*
X170000000Y-130500000I-500000J0D01*
G01*
X117500000Y-134000000D02*
G75*
G03*
X117500000Y-135000000I0J-500000D01*
G01*
X214000003Y-161045103D02*
G75*
G03*
X216000003Y-159045107I-3J2000003D01*
G01*
X255500000Y-141000000D02*
G75*
G03*
X256500000Y-141000000I500000J0D01*
G01*
X178499986Y-53964814D02*
G75*
G03*
X173500000Y-48964814I-4999986J14D01*
G01*
X102499999Y-137000000D02*
X102500000Y-155000000D01*
X197400000Y-130000000D02*
X196500000Y-130000000D01*
X161500000Y-131000000D02*
G75*
G03*
X161500000Y-130000000I0J500000D01*
G01*
X178500000Y-125000000D02*
X178500000Y-121250000D01*
X173500000Y-131000000D02*
X175999999Y-131000000D01*
X189000000Y-130500000D02*
G75*
G03*
X189000000Y-130500000I-500000J0D01*
G01*
X221328351Y-132715655D02*
G75*
G03*
X223195062Y-133997689I1866749J718055D01*
G01*
X247000000Y-134500000D02*
G75*
G03*
X247000000Y-134500000I-500000J0D01*
G01*
X140500000Y-155000000D02*
X140499999Y-137000000D01*
X173500000Y-130000000D02*
G75*
G03*
X173500000Y-131000000I0J-500000D01*
G01*
X266403248Y-135001924D02*
G75*
G03*
X256500000Y-141000000I499952J-11999976D01*
G01*
X179500000Y-111250000D02*
G75*
G03*
X179500000Y-111250000I-500000J0D01*
G01*
X179500000Y-125000000D02*
G75*
G03*
X184500000Y-130000000I5000000J0D01*
G01*
X266403246Y-135251873D02*
X266403246Y-135001873D01*
X122550000Y-43964800D02*
G75*
G03*
X120050000Y-46464814I0J-2500000D01*
G01*
X178500000Y-55000000D02*
G75*
G03*
X179500000Y-55000000I500000J0D01*
G01*
X122550000Y-43964814D02*
X155550000Y-43964814D01*
X98550000Y-53964800D02*
G75*
G03*
X101050000Y-51464814I0J2500000D01*
G01*
X256500000Y-145000000D02*
G75*
G03*
X256500000Y-145000000I-500000J0D01*
G01*
X255500000Y-137000000D02*
G75*
G03*
X253500001Y-135000000I-2000000J0D01*
G01*
X275949986Y-56464814D02*
G75*
G03*
X278450000Y-58964814I2500014J14D01*
G01*
X79550000Y-139000000D02*
X66100000Y-139000000D01*
X117500000Y-135000000D02*
X120400000Y-135000000D01*
X179500000Y-65000000D02*
G75*
G03*
X179500000Y-65000000I-500000J0D01*
G01*
X142000007Y-159130893D02*
G75*
G03*
X143999999Y-161130893I1999993J-7D01*
G01*
X175995785Y-161130885D02*
G75*
G03*
X177995785Y-159130893I15J1999985D01*
G01*
X182000001Y-131000000D02*
X184500000Y-131000000D01*
X138500000Y-157000000D02*
G75*
G03*
X140500000Y-155000000I0J2000000D01*
G01*
X195000000Y-130500000D02*
G75*
G03*
X195000000Y-130500000I-500000J0D01*
G01*
X79550000Y-139000000D02*
G75*
G03*
X82050000Y-136500000I0J2500000D01*
G01*
X79550000Y-58964800D02*
G75*
G03*
X82050000Y-56464814I0J2500000D01*
G01*
X122600000Y-136400000D02*
X122600000Y-135000000D01*
X179500000Y-57000000D02*
G75*
G03*
X179500000Y-57000000I-500000J0D01*
G01*
X214000003Y-161045107D02*
X181999999Y-161045107D01*
X256500000Y-149000000D02*
G75*
G03*
X256500000Y-149000000I-500000J0D01*
G01*
X191000000Y-130500000D02*
G75*
G03*
X191000000Y-130500000I-500000J0D01*
G01*
X84550000Y-53964800D02*
G75*
G03*
X82050000Y-56464814I0J-2500000D01*
G01*
X61100000Y-134000000D02*
G75*
G03*
X66100000Y-139000000I5000000J0D01*
G01*
X122600000Y-135000000D02*
X138499999Y-135000000D01*
X184500000Y-131000000D02*
G75*
G03*
X184500000Y-130000000I0J500000D01*
G01*
X179500000Y-109250000D02*
X179500000Y-67000000D01*
X196500000Y-130000000D02*
G75*
G03*
X196500000Y-131000000I0J-500000D01*
G01*
X105500000Y-135000000D02*
X104499999Y-135000000D01*
X256949986Y-51464814D02*
G75*
G03*
X259450000Y-53964814I2500014J14D01*
G01*
X251000000Y-134500000D02*
G75*
G03*
X251000000Y-134500000I-500000J0D01*
G01*
X178000000Y-133000000D02*
G75*
G03*
X175999999Y-131000000I-2000000J0D01*
G01*
X202450000Y-43964800D02*
G75*
G03*
X199950000Y-46464814I0J-2500000D01*
G01*
X193000000Y-130500000D02*
G75*
G03*
X193000000Y-130500000I-500000J0D01*
G01*
X179500000Y-121250000D02*
G75*
G03*
X178500000Y-121250000I-500000J0D01*
G01*
X138941052Y-129222493D02*
G75*
G03*
X137074361Y-130504564I-52J-1999907D01*
G01*
X66100000Y-58964814D02*
X79550000Y-58964814D01*
X187000000Y-130500000D02*
G75*
G03*
X187000000Y-130500000I-500000J0D01*
G01*
X255500000Y-155000000D02*
X255500000Y-153000000D01*
X291900000Y-58964814D02*
X278450000Y-58964814D01*
X150036000Y-129220000D02*
X160600000Y-130000000D01*
X102500000Y-155000000D02*
G75*
G03*
X104500000Y-157000000I2000000J0D01*
G01*
X120400000Y-136400000D02*
X120400000Y-135000000D01*
X117550000Y-48964800D02*
G75*
G03*
X120050000Y-46464814I0J2500000D01*
G01*
X275950000Y-136500000D02*
G75*
G03*
X278450000Y-139000000I2500000J0D01*
G01*
X160550000Y-48964814D02*
X173500000Y-48964814D01*
X235450000Y-43964814D02*
X202450000Y-43964814D01*
X197450000Y-48964800D02*
G75*
G03*
X199950000Y-46464814I0J2500000D01*
G01*
X217500000Y-155000000D02*
G75*
G03*
X219500000Y-157000000I2000000J0D01*
G01*
X252500000Y-134000000D02*
G75*
G03*
X252500000Y-135000000I0J-500000D01*
G01*
X243000000Y-134500000D02*
G75*
G03*
X243000000Y-134500000I-500000J0D01*
G01*
X134804937Y-133997701D02*
G75*
G03*
X136671628Y-132715647I63J1999901D01*
G01*
X158049986Y-46464814D02*
G75*
G03*
X155550000Y-43964814I-2499986J14D01*
G01*
X256500000Y-147000000D02*
G75*
G03*
X256500000Y-147000000I-500000J0D01*
G01*
X217500001Y-137000000D02*
X217500000Y-155000000D01*
X179500000Y-61000000D02*
G75*
G03*
X179500000Y-61000000I-500000J0D01*
G01*
X179500000Y-119250000D02*
G75*
G03*
X179500000Y-119250000I-500000J0D01*
G01*
X256499979Y-153003758D02*
G75*
G03*
X266403246Y-159001873I10403221J6001858D01*
G01*
X240500000Y-135000000D02*
G75*
G03*
X240500000Y-134000000I0J500000D01*
G01*
X103550000Y-48964800D02*
G75*
G03*
X101050000Y-51464814I0J-2500000D01*
G01*
X256500000Y-151000000D02*
G75*
G03*
X256500000Y-151000000I-500000J0D01*
G01*
X256949986Y-51464814D02*
G75*
G03*
X254450000Y-48964814I-2499986J14D01*
G01*
X160600000Y-130000000D02*
X161500000Y-130000000D01*
X207964000Y-129220000D02*
X197400000Y-130000000D01*
X161500000Y-131000000D02*
X144004217Y-131000000D01*
X141999999Y-159130893D02*
X142004217Y-133000000D01*
X134804937Y-133997689D02*
X117500000Y-134000000D01*
X164000000Y-130500000D02*
G75*
G03*
X164000000Y-130500000I-500000J0D01*
G01*
X216000000Y-133000000D02*
G75*
G03*
X214000001Y-131000000I-2000000J0D01*
G01*
X166000000Y-130500000D02*
G75*
G03*
X166000000Y-130500000I-500000J0D01*
G01*
X256500000Y-143000000D02*
G75*
G03*
X256500000Y-143000000I-500000J0D01*
G01*
X240500000Y-135000000D02*
X237600000Y-135000000D01*
X66100000Y-58964800D02*
G75*
G03*
X61100000Y-63964814I0J-5000000D01*
G01*
X266403246Y-158751873D02*
X266403246Y-159001873D01*
X245000000Y-134500000D02*
G75*
G03*
X245000000Y-134500000I-500000J0D01*
G01*
X256500000Y-153000000D02*
G75*
G03*
X255500000Y-153000000I-500000J0D01*
G01*
X116000000Y-134500000D02*
G75*
G03*
X116000000Y-134500000I-500000J0D01*
G01*
X104499999Y-134999999D02*
G75*
G03*
X102499999Y-137000000I1J-2000001D01*
G01*
X103550000Y-48964814D02*
X117550000Y-48964814D01*
X235399999Y-136500000D02*
X235400000Y-135000000D01*
X275950000Y-136500000D02*
G75*
G03*
X273450000Y-134000000I-2500000J0D01*
G01*
X179500000Y-117250000D02*
G75*
G03*
X179500000Y-117250000I-500000J0D01*
G01*
X275949986Y-56464814D02*
G75*
G03*
X273450000Y-53964814I-2499986J14D01*
G01*
X223195062Y-133997689D02*
X240500000Y-134000000D01*
X296899986Y-63964814D02*
G75*
G03*
X291900000Y-58964814I-4999986J14D01*
G01*
X179999999Y-159045107D02*
X180000001Y-133000000D01*
X179500000Y-67000000D02*
G75*
G03*
X178500000Y-67000000I-500000J0D01*
G01*
X267403246Y-159001866D02*
G75*
G03*
X267403246Y-135001874I-499996J11999996D01*
G01*
X237949986Y-46464814D02*
G75*
G03*
X240450000Y-48964814I2500014J14D01*
G01*
X178500000Y-67000000D02*
X178500000Y-109250000D01*
X219058947Y-129222522D02*
X207964000Y-129220000D01*
X114000000Y-134500000D02*
G75*
G03*
X114000000Y-134500000I-500000J0D01*
G01*
X105500000Y-134000000D02*
X84550000Y-134000000D01*
X172000000Y-130500000D02*
G75*
G03*
X172000000Y-130500000I-500000J0D01*
G01*
X84550000Y-53964814D02*
X98550000Y-53964814D01*
D11*
%TO.C,Joystick3*%
X272003246Y-147001873D02*
G75*
G03*
X272003246Y-147001873I-800000J0D01*
G01*
X263403246Y-147001873D02*
G75*
G03*
X263403246Y-147001873I-800000J0D01*
G01*
D12*
%TO.C,LED44_L1*%
X228700000Y-140000000D02*
X228700000Y-137000000D01*
X228700000Y-137000000D02*
X225300000Y-137000000D01*
X225300000Y-140000000D02*
X228700000Y-140000000D01*
X225300000Y-137000000D02*
X225300000Y-140000000D01*
%TO.C,LED32_L1*%
X226750000Y-99609851D02*
X226750000Y-102609851D01*
X226750000Y-102609851D02*
X230150000Y-102609851D01*
X230150000Y-99609851D02*
X226750000Y-99609851D01*
X230150000Y-102609851D02*
X230150000Y-99609851D01*
%TO.C,LED43_R1*%
X89850000Y-128609851D02*
X89850000Y-131609851D01*
X89850000Y-131609851D02*
X93250000Y-131609851D01*
X93250000Y-128609851D02*
X89850000Y-128609851D01*
X93250000Y-131609851D02*
X93250000Y-128609851D01*
%TO.C,LED20_R1*%
X127850000Y-61609851D02*
X127850000Y-64609851D01*
X127850000Y-64609851D02*
X131250000Y-64609851D01*
X131250000Y-61609851D02*
X127850000Y-61609851D01*
X131250000Y-64609851D02*
X131250000Y-61609851D01*
%TO.C,LED52_L1*%
X188750000Y-104609851D02*
X188750000Y-107609851D01*
X188750000Y-107609851D02*
X192150000Y-107609851D01*
X192150000Y-104609851D02*
X188750000Y-104609851D01*
X192150000Y-107609851D02*
X192150000Y-104609851D01*
%TO.C,LED03_R1*%
X165850000Y-123609851D02*
X165850000Y-126609851D01*
X165850000Y-126609851D02*
X169250000Y-126609851D01*
X169250000Y-123609851D02*
X165850000Y-123609851D01*
X169250000Y-126609851D02*
X169250000Y-123609851D01*
%TO.C,LED31_R1*%
X108850000Y-85609851D02*
X108850000Y-88609851D01*
X108850000Y-88609851D02*
X112250000Y-88609851D01*
X112250000Y-85609851D02*
X108850000Y-85609851D01*
X112250000Y-88609851D02*
X112250000Y-85609851D01*
%TO.C,LED33_L1*%
X226750000Y-118609851D02*
X226750000Y-121609851D01*
X226750000Y-121609851D02*
X230150000Y-121609851D01*
X230150000Y-118609851D02*
X226750000Y-118609851D01*
X230150000Y-121609851D02*
X230150000Y-118609851D01*
%TO.C,LED33_R1*%
X108850000Y-123609851D02*
X108850000Y-126609851D01*
X108850000Y-126609851D02*
X112250000Y-126609851D01*
X112250000Y-123609851D02*
X108850000Y-123609851D01*
X112250000Y-126609851D02*
X112250000Y-123609851D01*
%TO.C,LED51_R1*%
X70850000Y-95609851D02*
X70850000Y-98609851D01*
X70850000Y-98609851D02*
X74250000Y-98609851D01*
X74250000Y-95609851D02*
X70850000Y-95609851D01*
X74250000Y-98609851D02*
X74250000Y-95609851D01*
%TO.C,LED22_R1*%
X127850000Y-99609851D02*
X127850000Y-102609851D01*
X127850000Y-102609851D02*
X131250000Y-102609851D01*
X131250000Y-99609851D02*
X127850000Y-99609851D01*
X131250000Y-102609851D02*
X131250000Y-99609851D01*
%TO.C,LED02_L1*%
X283750000Y-114609851D02*
X283750000Y-117609851D01*
X283750000Y-117609851D02*
X287150000Y-117609851D01*
X287150000Y-114609851D02*
X283750000Y-114609851D01*
X287150000Y-117609851D02*
X287150000Y-114609851D01*
%TO.C,LED43_L1*%
X207750000Y-118609851D02*
X207750000Y-121609851D01*
X207750000Y-121609851D02*
X211150000Y-121609851D01*
X211150000Y-118609851D02*
X207750000Y-118609851D01*
X211150000Y-121609851D02*
X211150000Y-118609851D01*
%TO.C,LED00_R1*%
X165850000Y-66609851D02*
X165850000Y-69609851D01*
X165850000Y-69609851D02*
X169250000Y-69609851D01*
X169250000Y-66609851D02*
X165850000Y-66609851D01*
X169250000Y-69609851D02*
X169250000Y-66609851D01*
%TO.C,LED21_R1*%
X127850000Y-80609851D02*
X127850000Y-83609851D01*
X127850000Y-83609851D02*
X131250000Y-83609851D01*
X131250000Y-80609851D02*
X127850000Y-80609851D01*
X131250000Y-83609851D02*
X131250000Y-80609851D01*
%TO.C,LED40_R1*%
X89850000Y-71609851D02*
X89850000Y-74609851D01*
X89850000Y-74609851D02*
X93250000Y-74609851D01*
X93250000Y-71609851D02*
X89850000Y-71609851D01*
X93250000Y-74609851D02*
X93250000Y-71609851D01*
%TO.C,LED01_R1*%
X165850000Y-85609851D02*
X165850000Y-88609851D01*
X165850000Y-88609851D02*
X169250000Y-88609851D01*
X169250000Y-85609851D02*
X165850000Y-85609851D01*
X169250000Y-88609851D02*
X169250000Y-85609851D01*
%TO.C,LED02_R1*%
X165850000Y-104609851D02*
X165850000Y-107609851D01*
X165850000Y-107609851D02*
X169250000Y-107609851D01*
X169250000Y-104609851D02*
X165850000Y-104609851D01*
X169250000Y-107609851D02*
X169250000Y-104609851D01*
%TO.C,LED11_L1*%
X264750000Y-90609851D02*
X264750000Y-93609851D01*
X264750000Y-93609851D02*
X268150000Y-93609851D01*
X268150000Y-90609851D02*
X264750000Y-90609851D01*
X268150000Y-93609851D02*
X268150000Y-90609851D01*
%TO.C,LED23_R1*%
X127850000Y-118609851D02*
X127850000Y-121609851D01*
X127850000Y-121609851D02*
X131250000Y-121609851D01*
X131250000Y-118609851D02*
X127850000Y-118609851D01*
X131250000Y-121609851D02*
X131250000Y-118609851D01*
%TO.C,LE300_R1*%
X108850000Y-66609851D02*
X108850000Y-69609851D01*
X108850000Y-69609851D02*
X112250000Y-69609851D01*
X112250000Y-66609851D02*
X108850000Y-66609851D01*
X112250000Y-69609851D02*
X112250000Y-66609851D01*
%TO.C,LED41_L1*%
X207750000Y-80609851D02*
X207750000Y-83609851D01*
X207750000Y-83609851D02*
X211150000Y-83609851D01*
X211150000Y-80609851D02*
X207750000Y-80609851D01*
X211150000Y-83609851D02*
X211150000Y-80609851D01*
%TO.C,LED03_L1*%
X283750000Y-133609851D02*
X283750000Y-136609851D01*
X283750000Y-136609851D02*
X287150000Y-136609851D01*
X287150000Y-133609851D02*
X283750000Y-133609851D01*
X287150000Y-136609851D02*
X287150000Y-133609851D01*
%TO.C,LED10_R1*%
X146850000Y-61609851D02*
X146850000Y-64609851D01*
X146850000Y-64609851D02*
X150250000Y-64609851D01*
X150250000Y-61609851D02*
X146850000Y-61609851D01*
X150250000Y-64609851D02*
X150250000Y-61609851D01*
%TO.C,LED50_L1*%
X188750000Y-66609851D02*
X188750000Y-69609851D01*
X188750000Y-69609851D02*
X192150000Y-69609851D01*
X192150000Y-66609851D02*
X188750000Y-66609851D01*
X192150000Y-69609851D02*
X192150000Y-66609851D01*
%TO.C,LED50_R1*%
X70850000Y-76609851D02*
X70850000Y-79609851D01*
X70850000Y-79609851D02*
X74250000Y-79609851D01*
X74250000Y-76609851D02*
X70850000Y-76609851D01*
X74250000Y-79609851D02*
X74250000Y-76609851D01*
%TO.C,LED10_L1*%
X264750000Y-71609851D02*
X264750000Y-74609851D01*
X264750000Y-74609851D02*
X268150000Y-74609851D01*
X268150000Y-71609851D02*
X264750000Y-71609851D01*
X268150000Y-74609851D02*
X268150000Y-71609851D01*
%TO.C,LED13_L1*%
X264750000Y-128609851D02*
X264750000Y-131609851D01*
X264750000Y-131609851D02*
X268150000Y-131609851D01*
X268150000Y-128609851D02*
X264750000Y-128609851D01*
X268150000Y-131609851D02*
X268150000Y-128609851D01*
%TO.C,LED42_L1*%
X207750000Y-99609851D02*
X207750000Y-102609851D01*
X207750000Y-102609851D02*
X211150000Y-102609851D01*
X211150000Y-99609851D02*
X207750000Y-99609851D01*
X211150000Y-102609851D02*
X211150000Y-99609851D01*
%TO.C,LED52_R1*%
X70850000Y-114609851D02*
X70850000Y-117609851D01*
X70850000Y-117609851D02*
X74250000Y-117609851D01*
X74250000Y-114609851D02*
X70850000Y-114609851D01*
X74250000Y-117609851D02*
X74250000Y-114609851D01*
%TO.C,LED11_R1*%
X146850000Y-80609851D02*
X146850000Y-83609851D01*
X146850000Y-83609851D02*
X150250000Y-83609851D01*
X150250000Y-80609851D02*
X146850000Y-80609851D01*
X150250000Y-83609851D02*
X150250000Y-80609851D01*
%TO.C,LED53_R1*%
X70850000Y-133609851D02*
X70850000Y-136609851D01*
X70850000Y-136609851D02*
X74250000Y-136609851D01*
X74250000Y-133609851D02*
X70850000Y-133609851D01*
X74250000Y-136609851D02*
X74250000Y-133609851D01*
%TO.C,LED31_L1*%
X226750000Y-80609851D02*
X226750000Y-83609851D01*
X226750000Y-83609851D02*
X230150000Y-83609851D01*
X230150000Y-80609851D02*
X226750000Y-80609851D01*
X230150000Y-83609851D02*
X230150000Y-80609851D01*
%TO.C,LED23_L1*%
X245750000Y-123609851D02*
X245750000Y-126609851D01*
X245750000Y-126609851D02*
X249150000Y-126609851D01*
X249150000Y-123609851D02*
X245750000Y-123609851D01*
X249150000Y-126609851D02*
X249150000Y-123609851D01*
%TO.C,LED21_L1*%
X245750000Y-85609851D02*
X245750000Y-88609851D01*
X245750000Y-88609851D02*
X249150000Y-88609851D01*
X249150000Y-85609851D02*
X245750000Y-85609851D01*
X249150000Y-88609851D02*
X249150000Y-85609851D01*
%TO.C,LED13_R1*%
X146850000Y-118609851D02*
X146850000Y-121609851D01*
X146850000Y-121609851D02*
X150250000Y-121609851D01*
X150250000Y-118609851D02*
X146850000Y-118609851D01*
X150250000Y-121609851D02*
X150250000Y-118609851D01*
%TO.C,LED14_R1*%
X132700000Y-140000000D02*
X132700000Y-137000000D01*
X132700000Y-137000000D02*
X129300000Y-137000000D01*
X129300000Y-140000000D02*
X132700000Y-140000000D01*
X129300000Y-137000000D02*
X129300000Y-140000000D01*
%TO.C,LED41_R1*%
X89850000Y-90609851D02*
X89850000Y-93609851D01*
X89850000Y-93609851D02*
X93250000Y-93609851D01*
X93250000Y-90609851D02*
X89850000Y-90609851D01*
X93250000Y-93609851D02*
X93250000Y-90609851D01*
%TO.C,LED04_R1*%
X113700000Y-140000000D02*
X113700000Y-137000000D01*
X113700000Y-137000000D02*
X110300000Y-137000000D01*
X110300000Y-140000000D02*
X113700000Y-140000000D01*
X110300000Y-137000000D02*
X110300000Y-140000000D01*
%TO.C,LED00_L1*%
X283750000Y-76609851D02*
X283750000Y-79609851D01*
X283750000Y-79609851D02*
X287150000Y-79609851D01*
X287150000Y-76609851D02*
X283750000Y-76609851D01*
X287150000Y-79609851D02*
X287150000Y-76609851D01*
%TO.C,LED30_L1*%
X226750000Y-61609851D02*
X226750000Y-64609851D01*
X226750000Y-64609851D02*
X230150000Y-64609851D01*
X230150000Y-61609851D02*
X226750000Y-61609851D01*
X230150000Y-64609851D02*
X230150000Y-61609851D01*
%TO.C,LED32_R1*%
X108850000Y-104609851D02*
X108850000Y-107609851D01*
X108850000Y-107609851D02*
X112250000Y-107609851D01*
X112250000Y-104609851D02*
X108850000Y-104609851D01*
X112250000Y-107609851D02*
X112250000Y-104609851D01*
%TO.C,LED12_R1*%
X146850000Y-99609851D02*
X146850000Y-102609851D01*
X146850000Y-102609851D02*
X150250000Y-102609851D01*
X150250000Y-99609851D02*
X146850000Y-99609851D01*
X150250000Y-102609851D02*
X150250000Y-99609851D01*
%TO.C,LED42_R1*%
X89850000Y-109609851D02*
X89850000Y-112609851D01*
X89850000Y-112609851D02*
X93250000Y-112609851D01*
X93250000Y-109609851D02*
X89850000Y-109609851D01*
X93250000Y-112609851D02*
X93250000Y-109609851D01*
%TO.C,LED51_L1*%
X188750000Y-85609851D02*
X188750000Y-88609851D01*
X188750000Y-88609851D02*
X192150000Y-88609851D01*
X192150000Y-85609851D02*
X188750000Y-85609851D01*
X192150000Y-88609851D02*
X192150000Y-85609851D01*
%TO.C,LED54_L1*%
X247700000Y-140000000D02*
X247700000Y-137000000D01*
X247700000Y-137000000D02*
X244300000Y-137000000D01*
X244300000Y-140000000D02*
X247700000Y-140000000D01*
X244300000Y-137000000D02*
X244300000Y-140000000D01*
%TO.C,LED53_L1*%
X188750000Y-123609851D02*
X188750000Y-126609851D01*
X188750000Y-126609851D02*
X192150000Y-126609851D01*
X192150000Y-123609851D02*
X188750000Y-123609851D01*
X192150000Y-126609851D02*
X192150000Y-123609851D01*
%TO.C,LED40_L1*%
X207750000Y-61609851D02*
X207750000Y-64609851D01*
X207750000Y-64609851D02*
X211150000Y-64609851D01*
X211150000Y-61609851D02*
X207750000Y-61609851D01*
X211150000Y-64609851D02*
X211150000Y-61609851D01*
%TO.C,LED12_L1*%
X264750000Y-109609851D02*
X264750000Y-112609851D01*
X264750000Y-112609851D02*
X268150000Y-112609851D01*
X268150000Y-109609851D02*
X264750000Y-109609851D01*
X268150000Y-112609851D02*
X268150000Y-109609851D01*
%TO.C,LED01_L1*%
X283750000Y-95609851D02*
X283750000Y-98609851D01*
X283750000Y-98609851D02*
X287150000Y-98609851D01*
X287150000Y-95609851D02*
X283750000Y-95609851D01*
X287150000Y-98609851D02*
X287150000Y-95609851D01*
%TO.C,LED20_L1*%
X245750000Y-66609851D02*
X245750000Y-69609851D01*
X245750000Y-69609851D02*
X249150000Y-69609851D01*
X249150000Y-66609851D02*
X245750000Y-66609851D01*
X249150000Y-69609851D02*
X249150000Y-66609851D01*
%TO.C,LED22_L1*%
X245750000Y-104609851D02*
X245750000Y-107609851D01*
X245750000Y-107609851D02*
X249150000Y-107609851D01*
X249150000Y-104609851D02*
X245750000Y-104609851D01*
X249150000Y-107609851D02*
X249150000Y-104609851D01*
%TD*%
M02*
