M48
; DRILL file {KiCad 7.0.8} date Tue Apr 16 05:21:03 2024
; FORMAT={-:-/ absolute / inch / decimal}
; #@! TF.CreationDate,2024-04-16T05:21:03+09:00
; #@! TF.GenerationSoftware,Kicad,Pcbnew,7.0.8
; #@! TF.FileFunction,Plated,1,2,PTH
FMAT,2
INCH
; #@! TA.AperFunction,Plated,PTH,ViaDrill
T1C0.0157
; #@! TA.AperFunction,Plated,PTH,ComponentDrill
T2C0.0315
; #@! TA.AperFunction,Plated,PTH,ComponentDrill
T3C0.0350
; #@! TA.AperFunction,Plated,PTH,ComponentDrill
T4C0.0354
; #@! TA.AperFunction,Plated,PTH,ComponentDrill
T5C0.0394
; #@! TA.AperFunction,Plated,PTH,ComponentDrill
T6C0.0550
%
G90
G05
T1
X2.5823Y-2.876
X2.5823Y-3.624
X2.5823Y-4.372
X2.5823Y-5.1201
X3.1535Y-2.8898
X3.1759Y-3.5968
X3.1759Y-4.3449
X3.1759Y-5.0929
X3.3307Y-2.6787
X3.3307Y-3.4268
X3.3307Y-4.1748
X3.3307Y-4.9228
X3.902Y-2.7681
X3.9055Y-3.5079
X3.9055Y-4.2559
X3.9065Y-5.0069
X4.0157Y-5.062
X4.0787Y-2.4819
X4.0787Y-3.2299
X4.0787Y-3.9779
X4.0787Y-4.726
X4.5419Y-2.9384
X4.5419Y-2.1904
X4.5424Y-3.6869
X4.5424Y-4.435
X4.7638Y-5.502
X4.7933Y-5.5315
X4.8228Y-5.4449
X4.8268Y-2.285
X4.8268Y-3.0331
X4.8268Y-3.7811
X4.8268Y-4.5291
X5.5236Y-4.7244
X5.5648Y-4.8544
X5.5748Y-2.285
X5.5748Y-3.0331
X5.5748Y-3.7811
X5.5748Y-4.5291
X5.9843Y-3.3268
X5.9843Y-4.0748
X5.9939Y-2.5848
X5.9961Y-4.8268
X6.0748Y-4.7583
X6.1417Y-4.8819
X6.1726Y-3.1201
X6.1726Y-3.8681
X6.1726Y-4.6161
X6.2953Y-2.7874
X6.3228Y-2.4819
X6.3228Y-3.2299
X6.3228Y-3.9779
X6.3248Y-4.7421
X7.2244Y-2.4819
X7.2244Y-3.2299
X7.2244Y-3.9779
X7.2244Y-4.726
X7.7717Y-2.4997
X7.7913Y-3.9761
X7.8163Y-3.2031
X7.8163Y-4.6992
X7.9724Y-2.285
X7.9724Y-3.0331
X7.9724Y-3.7811
X7.9724Y-4.5291
X8.3661Y-4.8268
X8.5512Y-2.5142
X8.5512Y-3.2622
X8.5512Y-4.0102
X8.5512Y-4.7583
X8.5787Y-4.6457
X8.7205Y-2.285
X8.7205Y-3.0331
X8.7205Y-3.7811
X8.7205Y-4.5291
X9.1876Y-2.7415
X9.1876Y-3.4896
X9.1876Y-4.2376
X9.1881Y-1.994
X9.2717Y-5.502
X9.3032Y-5.5315
X9.3307Y-5.4449
X9.4685Y-2.4819
X9.4685Y-3.2299
X9.4685Y-3.9779
X9.4685Y-4.726
X10.2165Y-2.6787
X10.2165Y-3.4268
X10.2165Y-4.1748
X10.2165Y-4.9228
X10.6201Y-4.4726
X10.6203Y-3.7283
X10.624Y-2.9805
X10.7874Y-5.0108
X10.8143Y-3.5138
X10.8143Y-4.2618
X10.8425Y-5.2012
X10.9252Y-3.1988
X10.9646Y-2.8756
X10.9646Y-3.6236
X10.9646Y-4.3716
X10.9646Y-5.1197
T2
X4.7638Y-6.122
X4.8327Y-4.9764
X4.8327Y-5.1496
X4.8425Y-6.122
X4.9114Y-4.9764
X4.9114Y-5.1496
X4.9213Y-6.122
X4.9902Y-4.9764
X4.9902Y-5.1496
X5.0Y-6.122
X5.0689Y-4.9764
X5.0689Y-5.1496
X5.0787Y-6.122
X5.1476Y-4.9764
X5.1476Y-5.1496
X5.1575Y-6.122
X5.2264Y-4.9764
X5.2264Y-5.1496
X5.4016Y-4.9764
X5.4803Y-4.9764
X5.6811Y-4.9748
X5.6988Y-5.2835
X5.6988Y-5.3622
X5.6988Y-5.4409
X5.6988Y-5.5197
X5.6988Y-5.5984
X5.6988Y-5.6772
X5.6988Y-6.063
X5.7598Y-4.9748
X5.7776Y-6.063
X5.8386Y-4.9748
X5.8465Y-5.2835
X5.8465Y-5.3622
X5.8465Y-5.4409
X5.8465Y-5.5197
X5.8465Y-5.5984
X5.8465Y-5.6772
X5.8465Y-5.815
X5.8465Y-5.8937
X5.8563Y-6.063
X5.9173Y-4.9748
X5.935Y-6.063
X5.9961Y-4.9748
X6.0748Y-4.9748
X8.0197Y-4.9748
X8.0984Y-4.9748
X8.1772Y-4.9748
X8.2382Y-5.2854
X8.2382Y-5.3642
X8.2382Y-5.4429
X8.2382Y-5.5217
X8.2382Y-5.6004
X8.2382Y-5.6791
X8.2382Y-5.8169
X8.2382Y-5.8957
X8.2559Y-4.9748
X8.3346Y-4.9748
X8.3858Y-5.2854
X8.3858Y-5.3642
X8.3858Y-5.4429
X8.3858Y-5.5217
X8.3858Y-5.6004
X8.3858Y-5.6791
X8.3858Y-5.8169
X8.3858Y-5.8957
X8.3858Y-5.9744
X8.3858Y-6.0531
X8.3858Y-6.1319
X8.3858Y-6.2106
X8.4134Y-4.9748
X8.622Y-4.9748
X8.7008Y-4.9748
X8.8681Y-4.9764
X8.8681Y-5.1496
X8.937Y-6.122
X8.9469Y-4.9764
X8.9469Y-5.1496
X9.0157Y-6.122
X9.0256Y-4.9764
X9.0256Y-5.1496
X9.0945Y-6.122
X9.1043Y-4.9764
X9.1043Y-5.1496
X9.1732Y-6.122
X9.1831Y-4.9764
X9.1831Y-5.1496
X9.252Y-6.122
X9.2618Y-4.9764
X9.2618Y-5.1496
X9.3307Y-6.122
X10.8623Y-5.5906
X10.8623Y-5.6694
X10.8623Y-5.7481
X10.8623Y-5.8268
X10.8623Y-5.9056
X10.8623Y-5.9843
T3
X10.1655Y-5.6891
X10.1655Y-5.7893
X10.1655Y-5.8859
X10.4096Y-6.13
X10.508Y-6.13
X10.6064Y-6.13
T4
X10.38Y-5.382
X10.38Y-5.5591
X10.636Y-5.382
X10.636Y-5.5591
T5
X6.0665Y-5.3731
X6.0665Y-5.4731
X6.0665Y-5.5731
X6.0665Y-5.6731
X6.0665Y-5.7731
X6.0665Y-5.8731
X6.0665Y-5.9731
X6.1665Y-5.3731
X6.1665Y-5.9731
X6.2665Y-5.3731
X6.2665Y-5.9731
X6.3665Y-5.3731
X6.3665Y-5.9731
X6.4665Y-5.3731
X6.4665Y-5.9731
X6.5665Y-5.3731
X6.5665Y-5.9731
X6.6665Y-5.3731
X6.6665Y-5.9731
X6.7665Y-5.3731
X6.7665Y-5.9731
X6.8665Y-5.3731
X6.8665Y-5.9731
X7.228Y-5.3731
X7.228Y-5.9731
X7.328Y-5.3731
X7.328Y-5.9731
X7.428Y-5.3731
X7.428Y-5.9731
X7.528Y-5.3731
X7.528Y-5.9731
X7.628Y-5.3731
X7.628Y-5.9731
X7.728Y-5.3731
X7.728Y-5.9731
X7.828Y-5.3731
X7.828Y-5.9731
X7.928Y-5.3731
X7.928Y-5.9731
X8.028Y-5.3731
X8.028Y-5.4731
X8.028Y-5.5731
X8.028Y-5.6731
X8.028Y-5.7731
X8.028Y-5.8731
X8.028Y-5.9731
T6
X10.26Y-5.5906
X10.26Y-5.9843
X10.756Y-5.5906
X10.756Y-5.9843
T4
G00X6.5709Y-6.1299
M15
G01X6.5551Y-6.1299
M16
G05
G00X6.5709Y-6.1299
M15
G01X6.5551Y-6.1299
M16
G05
G00X6.6142Y-6.311
M15
G01X6.5984Y-6.311
M16
G05
G00X6.6142Y-6.311
M15
G01X6.5984Y-6.311
M16
G05
G00X6.7717Y-6.311
M15
G01X6.7559Y-6.311
M16
G05
G00X6.7717Y-6.311
M15
G01X6.7559Y-6.311
M16
G05
G00X6.8898Y-6.311
M15
G01X6.874Y-6.311
M16
G05
G00X6.8898Y-6.311
M15
G01X6.874Y-6.311
M16
G05
G00X7.2047Y-6.1299
M15
G01X7.2205Y-6.1299
M16
G05
G00X7.2047Y-6.1299
M15
G01X7.2205Y-6.1299
M16
G05
G00X7.3228Y-6.1299
M15
G01X7.3386Y-6.1299
M16
G05
G00X7.3228Y-6.1299
M15
G01X7.3386Y-6.1299
M16
G05
G00X7.4803Y-6.1299
M15
G01X7.4961Y-6.1299
M16
G05
G00X7.4803Y-6.1299
M15
G01X7.4961Y-6.1299
M16
G05
G00X7.5236Y-6.311
M15
G01X7.5394Y-6.311
M16
G05
G00X7.5236Y-6.311
M15
G01X7.5394Y-6.311
M16
G05
T0
M30
