%TF.GenerationSoftware,KiCad,Pcbnew,7.0.8*%
%TF.CreationDate,2024-04-16T05:21:19+09:00*%
%TF.ProjectId,pcb,7063622e-6b69-4636-9164-5f7063625858,rev?*%
%TF.SameCoordinates,Original*%
%TF.FileFunction,Soldermask,Bot*%
%TF.FilePolarity,Negative*%
%FSLAX46Y46*%
G04 Gerber Fmt 4.6, Leading zero omitted, Abs format (unit mm)*
G04 Created by KiCad (PCBNEW 7.0.8) date 2024-04-16 05:21:19*
%MOMM*%
%LPD*%
G01*
G04 APERTURE LIST*
G04 Aperture macros list*
%AMRoundRect*
0 Rectangle with rounded corners*
0 $1 Rounding radius*
0 $2 $3 $4 $5 $6 $7 $8 $9 X,Y pos of 4 corners*
0 Add a 4 corners polygon primitive as box body*
4,1,4,$2,$3,$4,$5,$6,$7,$8,$9,$2,$3,0*
0 Add four circle primitives for the rounded corners*
1,1,$1+$1,$2,$3*
1,1,$1+$1,$4,$5*
1,1,$1+$1,$6,$7*
1,1,$1+$1,$8,$9*
0 Add four rect primitives between the rounded corners*
20,1,$1+$1,$2,$3,$4,$5,0*
20,1,$1+$1,$4,$5,$6,$7,0*
20,1,$1+$1,$6,$7,$8,$9,0*
20,1,$1+$1,$8,$9,$2,$3,0*%
G04 Aperture macros list end*
%ADD10C,1.701800*%
%ADD11C,3.000000*%
%ADD12C,3.987800*%
%ADD13R,2.550000X2.500000*%
%ADD14C,2.200000*%
%ADD15R,1.350000X1.350000*%
%ADD16O,1.350000X1.350000*%
%ADD17C,0.800000*%
%ADD18O,2.000000X1.600000*%
%ADD19C,1.778000*%
%ADD20C,2.286000*%
%ADD21O,1.500000X2.500000*%
%ADD22O,2.500000X1.500000*%
%ADD23R,1.700000X0.820000*%
%ADD24RoundRect,0.205000X0.645000X0.205000X-0.645000X0.205000X-0.645000X-0.205000X0.645000X-0.205000X0*%
%ADD25RoundRect,0.205000X-0.645000X-0.205000X0.645000X-0.205000X0.645000X0.205000X-0.645000X0.205000X0*%
%ADD26R,1.200000X1.400000*%
G04 APERTURE END LIST*
D10*
%TO.C,SW31_R1*%
X105470000Y-82109851D03*
D11*
X106740000Y-79569851D03*
D12*
X110550000Y-82109851D03*
D11*
X113090000Y-77029851D03*
D10*
X115630000Y-82109851D03*
D13*
X116840000Y-77029851D03*
X102990000Y-79569851D03*
%TD*%
D14*
%TO.C,H11*%
X157550000Y-67609851D03*
%TD*%
D10*
%TO.C,SW42_L1*%
X204370000Y-96109851D03*
D11*
X205640000Y-93569851D03*
D12*
X209450000Y-96109851D03*
D11*
X211990000Y-91029851D03*
D10*
X214530000Y-96109851D03*
D13*
X215740000Y-91029851D03*
X201890000Y-93569851D03*
%TD*%
D10*
%TO.C,SW52_L1*%
X185370000Y-101109851D03*
D11*
X186640000Y-98569851D03*
D12*
X190450000Y-101109851D03*
D11*
X192990000Y-96029851D03*
D10*
X195530000Y-101109851D03*
D13*
X196740000Y-96029851D03*
X182890000Y-98569851D03*
%TD*%
D10*
%TO.C,SW12_R1*%
X143470000Y-96109851D03*
D11*
X144740000Y-93569851D03*
D12*
X148550000Y-96109851D03*
D11*
X151090000Y-91029851D03*
D10*
X153630000Y-96109851D03*
D13*
X154840000Y-91029851D03*
X140990000Y-93569851D03*
%TD*%
D10*
%TO.C,SW11_R1*%
X143470000Y-77109851D03*
D11*
X144740000Y-74569851D03*
D12*
X148550000Y-77109851D03*
D11*
X151090000Y-72029851D03*
D10*
X153630000Y-77109851D03*
D13*
X154840000Y-72029851D03*
X140990000Y-74569851D03*
%TD*%
D14*
%TO.C,H6*%
X220000000Y-154000000D03*
%TD*%
D10*
%TO.C,SW50_R1*%
X67470000Y-73109851D03*
D11*
X68740000Y-70569851D03*
D12*
X72550000Y-73109851D03*
D11*
X75090000Y-68029851D03*
D10*
X77630000Y-73109851D03*
D13*
X78840000Y-68029851D03*
X64990000Y-70569851D03*
%TD*%
D10*
%TO.C,SW10_R1*%
X143470000Y-58109851D03*
D11*
X144740000Y-55569851D03*
D12*
X148550000Y-58109851D03*
D11*
X151090000Y-53029851D03*
D10*
X153630000Y-58109851D03*
D13*
X154840000Y-53029851D03*
X140990000Y-55569851D03*
%TD*%
D10*
%TO.C,SW14_R1*%
X136080000Y-143500000D03*
D11*
X134810000Y-146040000D03*
D12*
X131000000Y-143500000D03*
D11*
X128460000Y-148580000D03*
D10*
X125920000Y-143500000D03*
D13*
X124710000Y-148580000D03*
X138560000Y-146040000D03*
%TD*%
D10*
%TO.C,SW40_R1*%
X86470000Y-68109851D03*
D11*
X87740000Y-65569851D03*
D12*
X91550000Y-68109851D03*
D11*
X94090000Y-63029851D03*
D10*
X96630000Y-68109851D03*
D13*
X97840000Y-63029851D03*
X83990000Y-65569851D03*
%TD*%
D10*
%TO.C,SW32_R1*%
X105470000Y-101109851D03*
D11*
X106740000Y-98569851D03*
D12*
X110550000Y-101109851D03*
D11*
X113090000Y-96029851D03*
D10*
X115630000Y-101109851D03*
D13*
X116840000Y-96029851D03*
X102990000Y-98569851D03*
%TD*%
D14*
%TO.C,H10*%
X120550000Y-86609851D03*
%TD*%
D10*
%TO.C,SW12_L1*%
X261370000Y-106109851D03*
D11*
X262640000Y-103569851D03*
D12*
X266450000Y-106109851D03*
D11*
X268990000Y-101029851D03*
D10*
X271530000Y-106109851D03*
D13*
X272740000Y-101029851D03*
X258890000Y-103569851D03*
%TD*%
D10*
%TO.C,SW53_R1*%
X67470000Y-130109851D03*
D11*
X68740000Y-127569851D03*
D12*
X72550000Y-130109851D03*
D11*
X75090000Y-125029851D03*
D10*
X77630000Y-130109851D03*
D13*
X78840000Y-125029851D03*
X64990000Y-127569851D03*
%TD*%
D10*
%TO.C,SW42_R1*%
X86470000Y-106109851D03*
D11*
X87740000Y-103569851D03*
D12*
X91550000Y-106109851D03*
D11*
X94090000Y-101029851D03*
D10*
X96630000Y-106109851D03*
D13*
X97840000Y-101029851D03*
X83990000Y-103569851D03*
%TD*%
D10*
%TO.C,SW33_R1*%
X105470000Y-120109851D03*
D11*
X106740000Y-117569851D03*
D12*
X110550000Y-120109851D03*
D11*
X113090000Y-115029851D03*
D10*
X115630000Y-120109851D03*
D13*
X116840000Y-115029851D03*
X102990000Y-117569851D03*
%TD*%
D14*
%TO.C,H1*%
X200450000Y-67609851D03*
%TD*%
D15*
%TO.C,Col_L1*%
X209250000Y-144250000D03*
D16*
X209250000Y-142250000D03*
X209250000Y-140250000D03*
X209250000Y-138250000D03*
X209250000Y-136250000D03*
X209250000Y-134250000D03*
%TD*%
D10*
%TO.C,SW10_L1*%
X261370000Y-68109851D03*
D11*
X262640000Y-65569851D03*
D12*
X266450000Y-68109851D03*
D11*
X268990000Y-63029851D03*
D10*
X271530000Y-68109851D03*
D13*
X272740000Y-63029851D03*
X258890000Y-65569851D03*
%TD*%
D10*
%TO.C,SW22_R1*%
X124470000Y-96109851D03*
D11*
X125740000Y-93569851D03*
D12*
X129550000Y-96109851D03*
D11*
X132090000Y-91029851D03*
D10*
X134630000Y-96109851D03*
D13*
X135840000Y-91029851D03*
X121990000Y-93569851D03*
%TD*%
D17*
%TO.C,TRRS1*%
X176400000Y-158000000D03*
X169400000Y-158000000D03*
D18*
X167800000Y-160300000D03*
X171800000Y-160300000D03*
X174800000Y-160300000D03*
X166700000Y-155700000D03*
%TD*%
D15*
%TO.C,MatrixC_R1*%
X132750000Y-130800000D03*
D16*
X130750000Y-130800000D03*
X128750000Y-130800000D03*
X126750000Y-130800000D03*
X124750000Y-130800000D03*
X122750000Y-130800000D03*
%TD*%
D15*
%TO.C,Joystick1*%
X213000000Y-157750000D03*
D16*
X213000000Y-155750000D03*
X213000000Y-153750000D03*
X213000000Y-151750000D03*
X213000000Y-149750000D03*
X213000000Y-147750000D03*
%TD*%
D10*
%TO.C,SW53_L1*%
X185370000Y-120109851D03*
D11*
X186640000Y-117569851D03*
D12*
X190450000Y-120109851D03*
D11*
X192990000Y-115029851D03*
D10*
X195530000Y-120109851D03*
D13*
X196740000Y-115029851D03*
X182890000Y-117569851D03*
%TD*%
D17*
%TO.C,TRRS2*%
X181600000Y-158000000D03*
X188600000Y-158000000D03*
D18*
X190200000Y-155700000D03*
X186200000Y-155700000D03*
X183200000Y-155700000D03*
X191300000Y-160300000D03*
%TD*%
D15*
%TO.C,Main_to_Sub1*%
X144300000Y-126359851D03*
D16*
X146300000Y-126359851D03*
X148300000Y-126359851D03*
X150300000Y-126359851D03*
X152300000Y-126359851D03*
X154300000Y-126359851D03*
%TD*%
D15*
%TO.C,Main_to_Sub_L1*%
X203700000Y-126359851D03*
D16*
X205700000Y-126359851D03*
X207700000Y-126359851D03*
X209700000Y-126359851D03*
X211700000Y-126359851D03*
X213700000Y-126359851D03*
%TD*%
D10*
%TO.C,SW21_R1*%
X124470000Y-77109851D03*
D11*
X125740000Y-74569851D03*
D12*
X129550000Y-77109851D03*
D11*
X132090000Y-72029851D03*
D10*
X134630000Y-77109851D03*
D13*
X135840000Y-72029851D03*
X121990000Y-74569851D03*
%TD*%
D19*
%TO.C,Joystick3*%
X263653246Y-136701873D03*
X270153246Y-136701873D03*
X263653246Y-141201873D03*
X270153246Y-141201873D03*
X264403246Y-155701873D03*
X266903246Y-155701873D03*
X269403246Y-155701873D03*
D20*
X260603246Y-142001873D03*
X260603246Y-152001873D03*
X273203246Y-152001873D03*
X273203246Y-142001873D03*
D19*
X258203246Y-144501873D03*
X258203246Y-147049212D03*
X258203246Y-149501873D03*
%TD*%
D10*
%TO.C,SW41_R1*%
X86470000Y-87109851D03*
D11*
X87740000Y-84569851D03*
D12*
X91550000Y-87109851D03*
D11*
X94090000Y-82029851D03*
D10*
X96630000Y-87109851D03*
D13*
X97840000Y-82029851D03*
X83990000Y-84569851D03*
%TD*%
D15*
%TO.C,MatrixR_R1*%
X235250000Y-126400000D03*
D16*
X233250000Y-126400000D03*
X231250000Y-126400000D03*
X229250000Y-126400000D03*
X227250000Y-126400000D03*
X225250000Y-126400000D03*
%TD*%
D10*
%TO.C,SW23_L1*%
X242370000Y-120109851D03*
D11*
X243640000Y-117569851D03*
D12*
X247450000Y-120109851D03*
D11*
X249990000Y-115029851D03*
D10*
X252530000Y-120109851D03*
D13*
X253740000Y-115029851D03*
X239890000Y-117569851D03*
%TD*%
D15*
%TO.C,Row_R1*%
X144750000Y-134200000D03*
D16*
X144750000Y-136200000D03*
X144750000Y-138200000D03*
X144750000Y-140200000D03*
X144750000Y-142200000D03*
X144750000Y-144200000D03*
%TD*%
D15*
%TO.C,Power_Mtrx_L1*%
X219000000Y-126359851D03*
D16*
X221000000Y-126359851D03*
%TD*%
D14*
%TO.C,H8*%
X82550000Y-77609851D03*
%TD*%
%TO.C,H9*%
X82550000Y-115609851D03*
%TD*%
D10*
%TO.C,SW43_R1*%
X86470000Y-125109851D03*
D11*
X87740000Y-122569851D03*
D12*
X91550000Y-125109851D03*
D11*
X94090000Y-120029851D03*
D10*
X96630000Y-125109851D03*
D13*
X97840000Y-120029851D03*
X83990000Y-122569851D03*
%TD*%
D15*
%TO.C,MatrixC_L1*%
X235250000Y-130800000D03*
D16*
X233250000Y-130800000D03*
X231250000Y-130800000D03*
X229250000Y-130800000D03*
X227250000Y-130800000D03*
X225250000Y-130800000D03*
%TD*%
D14*
%TO.C,H14*%
X138000000Y-154000000D03*
%TD*%
D10*
%TO.C,SW03_L1*%
X280370000Y-130109851D03*
D11*
X281640000Y-127569851D03*
D12*
X285450000Y-130109851D03*
D11*
X287990000Y-125029851D03*
D10*
X290530000Y-130109851D03*
D13*
X291740000Y-125029851D03*
X277890000Y-127569851D03*
%TD*%
D10*
%TO.C,SW54_L1*%
X251080000Y-143500000D03*
D11*
X249810000Y-146040000D03*
D12*
X246000000Y-143500000D03*
D11*
X243460000Y-148580000D03*
D10*
X240920000Y-143500000D03*
D13*
X239710000Y-148580000D03*
X253560000Y-146040000D03*
%TD*%
D14*
%TO.C,H4*%
X275450000Y-77609851D03*
%TD*%
D10*
%TO.C,SW00_L1*%
X280370000Y-73109851D03*
D11*
X281640000Y-70569851D03*
D12*
X285450000Y-73109851D03*
D11*
X287990000Y-68029851D03*
D10*
X290530000Y-73109851D03*
D13*
X291740000Y-68029851D03*
X277890000Y-70569851D03*
%TD*%
D14*
%TO.C,H7*%
X253000000Y-154000000D03*
%TD*%
D10*
%TO.C,SW03_R1*%
X162470000Y-120109851D03*
D11*
X163740000Y-117569851D03*
D12*
X167550000Y-120109851D03*
D11*
X170090000Y-115029851D03*
D10*
X172630000Y-120109851D03*
D13*
X173840000Y-115029851D03*
X159990000Y-117569851D03*
%TD*%
D10*
%TO.C,SW32_L1*%
X223370000Y-96109851D03*
D11*
X224640000Y-93569851D03*
D12*
X228450000Y-96109851D03*
D11*
X230990000Y-91029851D03*
D10*
X233530000Y-96109851D03*
D13*
X234740000Y-91029851D03*
X220890000Y-93569851D03*
%TD*%
D10*
%TO.C,SW22_L1*%
X242370000Y-101109851D03*
D11*
X243640000Y-98569851D03*
D12*
X247450000Y-101109851D03*
D11*
X249990000Y-96029851D03*
D10*
X252530000Y-101109851D03*
D13*
X253740000Y-96029851D03*
X239890000Y-98569851D03*
%TD*%
D10*
%TO.C,SW00_R1*%
X162470000Y-63109851D03*
D11*
X163740000Y-60569851D03*
D12*
X167550000Y-63109851D03*
D11*
X170090000Y-58029851D03*
D10*
X172630000Y-63109851D03*
D13*
X173840000Y-58029851D03*
X159990000Y-60569851D03*
%TD*%
D10*
%TO.C,SW02_R1*%
X162470000Y-101109851D03*
D11*
X163740000Y-98569851D03*
D12*
X167550000Y-101109851D03*
D11*
X170090000Y-96029851D03*
D10*
X172630000Y-101109851D03*
D13*
X173840000Y-96029851D03*
X159990000Y-98569851D03*
%TD*%
D15*
%TO.C,Power_Ctrlr_L1*%
X209250000Y-149750000D03*
D16*
X209250000Y-147750000D03*
%TD*%
D15*
%TO.C,Sub_to_Main_L1*%
X227000000Y-155500000D03*
D16*
X229000000Y-155500000D03*
X231000000Y-155500000D03*
X233000000Y-155500000D03*
X235000000Y-155500000D03*
X237000000Y-155500000D03*
%TD*%
D14*
%TO.C,H3*%
X237450000Y-86609851D03*
%TD*%
D10*
%TO.C,SW30_R1*%
X105470000Y-63109851D03*
D11*
X106740000Y-60569851D03*
D12*
X110550000Y-63109851D03*
D11*
X113090000Y-58029851D03*
D10*
X115630000Y-63109851D03*
D13*
X116840000Y-58029851D03*
X102990000Y-60569851D03*
%TD*%
D10*
%TO.C,SW51_R1*%
X67470000Y-92109851D03*
D11*
X68740000Y-89569851D03*
D12*
X72550000Y-92109851D03*
D11*
X75090000Y-87029851D03*
D10*
X77630000Y-92109851D03*
D13*
X78840000Y-87029851D03*
X64990000Y-89569851D03*
%TD*%
D21*
%TO.C,MCU2*%
X183590000Y-135976000D03*
X186130000Y-135976000D03*
X188670000Y-135976000D03*
X191210000Y-135976000D03*
X193750000Y-135976000D03*
X196290000Y-135976000D03*
X198830000Y-135976000D03*
X201370000Y-135976000D03*
X203910000Y-135976000D03*
D22*
X204410000Y-139016000D03*
X204410000Y-141556000D03*
X204410000Y-144096000D03*
X204410000Y-146636000D03*
X204410000Y-149176000D03*
D21*
X203910000Y-152216000D03*
X201370000Y-152216000D03*
X198830000Y-152216000D03*
X196290000Y-152216000D03*
X193750000Y-152216000D03*
X191210000Y-152216000D03*
X188670000Y-152216000D03*
X186130000Y-152216000D03*
X183590000Y-152216000D03*
%TD*%
%TO.C,MCU1*%
X174410000Y-152216000D03*
X171870000Y-152216000D03*
X169330000Y-152216000D03*
X166790000Y-152216000D03*
X164250000Y-152216000D03*
X161710000Y-152216000D03*
X159170000Y-152216000D03*
X156630000Y-152216000D03*
X154090000Y-152216000D03*
D22*
X153590000Y-149176000D03*
X153590000Y-146636000D03*
X153590000Y-144096000D03*
X153590000Y-141556000D03*
X153590000Y-139016000D03*
D21*
X154090000Y-135976000D03*
X156630000Y-135976000D03*
X159170000Y-135976000D03*
X161710000Y-135976000D03*
X164250000Y-135976000D03*
X166790000Y-135976000D03*
X169330000Y-135976000D03*
X171870000Y-135976000D03*
X174410000Y-135976000D03*
%TD*%
D15*
%TO.C,MatrixR_R2*%
X132750000Y-126400000D03*
D16*
X130750000Y-126400000D03*
X128750000Y-126400000D03*
X126750000Y-126400000D03*
X124750000Y-126400000D03*
X122750000Y-126400000D03*
%TD*%
D14*
%TO.C,H13*%
X105000000Y-154000000D03*
%TD*%
D15*
%TO.C,Power_Ctrlr_R1*%
X148500000Y-147700000D03*
D16*
X148500000Y-149700000D03*
%TD*%
D10*
%TO.C,SW30_L1*%
X223370000Y-58109851D03*
D11*
X224640000Y-55569851D03*
D12*
X228450000Y-58109851D03*
D11*
X230990000Y-53029851D03*
D10*
X233530000Y-58109851D03*
D13*
X234740000Y-53029851D03*
X220890000Y-55569851D03*
%TD*%
D15*
%TO.C,Joystick2*%
X275903246Y-142001873D03*
D16*
X275903246Y-144001873D03*
X275903246Y-146001873D03*
X275903246Y-148001873D03*
X275903246Y-150001873D03*
X275903246Y-152001873D03*
%TD*%
D10*
%TO.C,SW21_L1*%
X242370000Y-82109851D03*
D11*
X243640000Y-79569851D03*
D12*
X247450000Y-82109851D03*
D11*
X249990000Y-77029851D03*
D10*
X252530000Y-82109851D03*
D13*
X253740000Y-77029851D03*
X239890000Y-79569851D03*
%TD*%
D15*
%TO.C,Sub_to_Main1*%
X121000000Y-155500000D03*
D16*
X123000000Y-155500000D03*
X125000000Y-155500000D03*
X127000000Y-155500000D03*
X129000000Y-155500000D03*
X131000000Y-155500000D03*
%TD*%
D15*
%TO.C,Power_Mtrx_R1*%
X137200000Y-126400000D03*
D16*
X139200000Y-126400000D03*
%TD*%
D10*
%TO.C,SW51_L1*%
X185370000Y-82109851D03*
D11*
X186640000Y-79569851D03*
D12*
X190450000Y-82109851D03*
D11*
X192990000Y-77029851D03*
D10*
X195530000Y-82109851D03*
D13*
X196740000Y-77029851D03*
X182890000Y-79569851D03*
%TD*%
D10*
%TO.C,SW31_L1*%
X223370000Y-77109851D03*
D11*
X224640000Y-74569851D03*
D12*
X228450000Y-77109851D03*
D11*
X230990000Y-72029851D03*
D10*
X233530000Y-77109851D03*
D13*
X234740000Y-72029851D03*
X220890000Y-74569851D03*
%TD*%
D14*
%TO.C,H12*%
X157550000Y-105609852D03*
%TD*%
D10*
%TO.C,SW52_R1*%
X67470000Y-111109851D03*
D11*
X68740000Y-108569851D03*
D12*
X72550000Y-111109851D03*
D11*
X75090000Y-106029851D03*
D10*
X77630000Y-111109851D03*
D13*
X78840000Y-106029851D03*
X64990000Y-108569851D03*
%TD*%
D10*
%TO.C,SW40_L1*%
X204370000Y-58109851D03*
D11*
X205640000Y-55569851D03*
D12*
X209450000Y-58109851D03*
D11*
X211990000Y-53029851D03*
D10*
X214530000Y-58109851D03*
D13*
X215740000Y-53029851D03*
X201890000Y-55569851D03*
%TD*%
D10*
%TO.C,SW23_R1*%
X124470000Y-115109851D03*
D11*
X125740000Y-112569851D03*
D12*
X129550000Y-115109851D03*
D11*
X132090000Y-110029851D03*
D10*
X134630000Y-115109851D03*
D13*
X135840000Y-110029851D03*
X121990000Y-112569851D03*
%TD*%
D10*
%TO.C,SW13_L1*%
X261370000Y-125109851D03*
D11*
X262640000Y-122569851D03*
D12*
X266450000Y-125109851D03*
D11*
X268990000Y-120029851D03*
D10*
X271530000Y-125109851D03*
D13*
X272740000Y-120029851D03*
X258890000Y-122569851D03*
%TD*%
D10*
%TO.C,SW33_L1*%
X223370000Y-115109851D03*
D11*
X224640000Y-112569851D03*
D12*
X228450000Y-115109851D03*
D11*
X230990000Y-110029851D03*
D10*
X233530000Y-115109851D03*
D13*
X234740000Y-110029851D03*
X220890000Y-112569851D03*
%TD*%
D10*
%TO.C,SW01_L1*%
X280370000Y-92109851D03*
D11*
X281640000Y-89569851D03*
D12*
X285450000Y-92109851D03*
D11*
X287990000Y-87029851D03*
D10*
X290530000Y-92109851D03*
D13*
X291740000Y-87029851D03*
X277890000Y-89569851D03*
%TD*%
D15*
%TO.C,Row_L1*%
X213000000Y-144250000D03*
D16*
X213000000Y-142250000D03*
X213000000Y-140250000D03*
X213000000Y-138250000D03*
X213000000Y-136250000D03*
X213000000Y-134250000D03*
%TD*%
D10*
%TO.C,SW43_L1*%
X204370000Y-115109851D03*
D11*
X205640000Y-112569851D03*
D12*
X209450000Y-115109851D03*
D11*
X211990000Y-110029851D03*
D10*
X214530000Y-115109851D03*
D13*
X215740000Y-110029851D03*
X201890000Y-112569851D03*
%TD*%
D10*
%TO.C,SW01_R1*%
X162470000Y-82109851D03*
D11*
X163740000Y-79569851D03*
D12*
X167550000Y-82109851D03*
D11*
X170090000Y-77029851D03*
D10*
X172630000Y-82109851D03*
D13*
X173840000Y-77029851D03*
X159990000Y-79569851D03*
%TD*%
D10*
%TO.C,SW02_L1*%
X280370000Y-111109851D03*
D11*
X281640000Y-108569851D03*
D12*
X285450000Y-111109851D03*
D11*
X287990000Y-106029851D03*
D10*
X290530000Y-111109851D03*
D13*
X291740000Y-106029851D03*
X277890000Y-108569851D03*
%TD*%
D10*
%TO.C,SW20_R1*%
X124470000Y-58109851D03*
D11*
X125740000Y-55569851D03*
D12*
X129550000Y-58109851D03*
D11*
X132090000Y-53029851D03*
D10*
X134630000Y-58109851D03*
D13*
X135840000Y-53029851D03*
X121990000Y-55569851D03*
%TD*%
D14*
%TO.C,H2*%
X200450000Y-105609852D03*
%TD*%
D15*
%TO.C,CoL_R1*%
X148500000Y-134200000D03*
D16*
X148500000Y-136200000D03*
X148500000Y-138200000D03*
X148500000Y-140200000D03*
X148500000Y-142200000D03*
X148500000Y-144200000D03*
%TD*%
D15*
%TO.C,I2C_pinout1*%
X150750000Y-154000000D03*
D16*
X148750000Y-154000000D03*
X146750000Y-154000000D03*
X144750000Y-154000000D03*
%TD*%
D10*
%TO.C,SW44_L1*%
X232080000Y-143500000D03*
D11*
X230810000Y-146040000D03*
D12*
X227000000Y-143500000D03*
D11*
X224460000Y-148580000D03*
D10*
X221920000Y-143500000D03*
D13*
X220710000Y-148580000D03*
X234560000Y-146040000D03*
%TD*%
D10*
%TO.C,SW20_L1*%
X242370000Y-63109851D03*
D11*
X243640000Y-60569851D03*
D12*
X247450000Y-63109851D03*
D11*
X249990000Y-58029851D03*
D10*
X252530000Y-63109851D03*
D13*
X253740000Y-58029851D03*
X239890000Y-60569851D03*
%TD*%
D10*
%TO.C,SW11_L1*%
X261370000Y-87109851D03*
D11*
X262640000Y-84569851D03*
D12*
X266450000Y-87109851D03*
D11*
X268990000Y-82029851D03*
D10*
X271530000Y-87109851D03*
D13*
X272740000Y-82029851D03*
X258890000Y-84569851D03*
%TD*%
D14*
%TO.C,H5*%
X275450000Y-115609851D03*
%TD*%
D10*
%TO.C,SW50_L1*%
X185370000Y-63109851D03*
D11*
X186640000Y-60569851D03*
D12*
X190450000Y-63109851D03*
D11*
X192990000Y-58029851D03*
D10*
X195530000Y-63109851D03*
D13*
X196740000Y-58029851D03*
X182890000Y-60569851D03*
%TD*%
D10*
%TO.C,SW04_R1*%
X117080000Y-143500000D03*
D11*
X115810000Y-146040000D03*
D12*
X112000000Y-143500000D03*
D11*
X109460000Y-148580000D03*
D10*
X106920000Y-143500000D03*
D13*
X105710000Y-148580000D03*
X119560000Y-146040000D03*
%TD*%
D10*
%TO.C,SW13_R1*%
X143470000Y-115109851D03*
D11*
X144740000Y-112569851D03*
D12*
X148550000Y-115109851D03*
D11*
X151090000Y-110029851D03*
D10*
X153630000Y-115109851D03*
D13*
X154840000Y-110029851D03*
X140990000Y-112569851D03*
%TD*%
D10*
%TO.C,SW41_L1*%
X204370000Y-77109851D03*
D11*
X205640000Y-74569851D03*
D12*
X209450000Y-77109851D03*
D11*
X211990000Y-72029851D03*
D10*
X214530000Y-77109851D03*
D13*
X215740000Y-72029851D03*
X201890000Y-74569851D03*
%TD*%
D23*
%TO.C,LED44_L1*%
X229550000Y-139250000D03*
X229550000Y-137750000D03*
D24*
X224450000Y-137750000D03*
D23*
X224450000Y-139250000D03*
%TD*%
%TO.C,LED32_L1*%
X225900000Y-100359851D03*
X225900000Y-101859851D03*
D25*
X231000000Y-101859851D03*
D23*
X231000000Y-100359851D03*
%TD*%
%TO.C,LED43_R1*%
X89000000Y-129359851D03*
X89000000Y-130859851D03*
D25*
X94100000Y-130859851D03*
D23*
X94100000Y-129359851D03*
%TD*%
%TO.C,LED20_R1*%
X127000000Y-62359851D03*
X127000000Y-63859851D03*
D25*
X132100000Y-63859851D03*
D23*
X132100000Y-62359851D03*
%TD*%
D26*
%TO.C,D23_L1*%
X241500000Y-113609851D03*
X244900000Y-113609851D03*
%TD*%
D23*
%TO.C,LED52_L1*%
X187900000Y-105359851D03*
X187900000Y-106859851D03*
D25*
X193000000Y-106859851D03*
D23*
X193000000Y-105359851D03*
%TD*%
%TO.C,LED03_R1*%
X165000000Y-124359851D03*
X165000000Y-125859851D03*
D25*
X170100000Y-125859851D03*
D23*
X170100000Y-124359851D03*
%TD*%
%TO.C,LED31_R1*%
X108000000Y-86359851D03*
X108000000Y-87859851D03*
D25*
X113100000Y-87859851D03*
D23*
X113100000Y-86359851D03*
%TD*%
%TO.C,LED33_L1*%
X225900000Y-119359851D03*
X225900000Y-120859851D03*
D25*
X231000000Y-120859851D03*
D23*
X231000000Y-119359851D03*
%TD*%
%TO.C,LED33_R1*%
X108000000Y-124359851D03*
X108000000Y-125859851D03*
D25*
X113100000Y-125859851D03*
D23*
X113100000Y-124359851D03*
%TD*%
%TO.C,LED51_R1*%
X70000000Y-96359851D03*
X70000000Y-97859851D03*
D25*
X75100000Y-97859851D03*
D23*
X75100000Y-96359851D03*
%TD*%
D26*
%TO.C,D11_L1*%
X260500000Y-80553306D03*
X263900000Y-80553306D03*
%TD*%
%TO.C,D21_R1*%
X123600000Y-70609851D03*
X127000000Y-70609851D03*
%TD*%
D23*
%TO.C,LED22_R1*%
X127000000Y-100359851D03*
X127000000Y-101859851D03*
D25*
X132100000Y-101859851D03*
D23*
X132100000Y-100359851D03*
%TD*%
%TO.C,LED02_L1*%
X282900000Y-115359851D03*
X282900000Y-116859851D03*
D25*
X288000000Y-116859851D03*
D23*
X288000000Y-115359851D03*
%TD*%
D26*
%TO.C,D10_L1*%
X260500000Y-61609851D03*
X263900000Y-61609851D03*
%TD*%
D23*
%TO.C,LED43_L1*%
X206900000Y-119359851D03*
X206900000Y-120859851D03*
D25*
X212000000Y-120859851D03*
D23*
X212000000Y-119359851D03*
%TD*%
D26*
%TO.C,D03_L1*%
X279500000Y-123609851D03*
X282900000Y-123609851D03*
%TD*%
%TO.C,D00_R1*%
X161600000Y-56609851D03*
X165000000Y-56609851D03*
%TD*%
%TO.C,D53_R1*%
X66600000Y-123609851D03*
X70000000Y-123609851D03*
%TD*%
%TO.C,D53_L1*%
X184500000Y-113609851D03*
X187900000Y-113609851D03*
%TD*%
D23*
%TO.C,LED00_R1*%
X165000000Y-67359851D03*
X165000000Y-68859851D03*
D25*
X170100000Y-68859851D03*
D23*
X170100000Y-67359851D03*
%TD*%
%TO.C,LED21_R1*%
X127000000Y-81359851D03*
X127000000Y-82859851D03*
D25*
X132100000Y-82859851D03*
D23*
X132100000Y-81359851D03*
%TD*%
D26*
%TO.C,D42_R1*%
X85600000Y-99609851D03*
X89000000Y-99609851D03*
%TD*%
%TO.C,D44_L1*%
X232950000Y-150000000D03*
X229550000Y-150000000D03*
%TD*%
D23*
%TO.C,LED40_R1*%
X89000000Y-72359851D03*
X89000000Y-73859851D03*
D25*
X94100000Y-73859851D03*
D23*
X94100000Y-72359851D03*
%TD*%
D26*
%TO.C,D01_L1*%
X279500000Y-85553306D03*
X282900000Y-85553306D03*
%TD*%
%TO.C,D04_R1*%
X117950000Y-150000000D03*
X114550000Y-150000000D03*
%TD*%
%TO.C,D33_L1*%
X222500000Y-108609851D03*
X225900000Y-108609851D03*
%TD*%
%TO.C,D01_R1*%
X161600000Y-75609851D03*
X165000000Y-75609851D03*
%TD*%
D23*
%TO.C,LED01_R1*%
X165000000Y-86359851D03*
X165000000Y-87859851D03*
D25*
X170100000Y-87859851D03*
D23*
X170100000Y-86359851D03*
%TD*%
D26*
%TO.C,D50_L1*%
X184500000Y-56609851D03*
X187900000Y-56609851D03*
%TD*%
D23*
%TO.C,LED02_R1*%
X165000000Y-105359851D03*
X165000000Y-106859851D03*
D25*
X170100000Y-106859851D03*
D23*
X170100000Y-105359851D03*
%TD*%
D26*
%TO.C,D43_L1*%
X203500000Y-108609851D03*
X206900000Y-108609851D03*
%TD*%
%TO.C,D41_R1*%
X85600000Y-80609851D03*
X89000000Y-80609851D03*
%TD*%
%TO.C,D20_L1*%
X241500000Y-56609851D03*
X244900000Y-56609851D03*
%TD*%
D23*
%TO.C,LED11_L1*%
X263900000Y-91359851D03*
X263900000Y-92859851D03*
D25*
X269000000Y-92859851D03*
D23*
X269000000Y-91359851D03*
%TD*%
D26*
%TO.C,D22_L1*%
X241500000Y-94609851D03*
X244900000Y-94609851D03*
%TD*%
D23*
%TO.C,LED23_R1*%
X127000000Y-119359851D03*
X127000000Y-120859851D03*
D25*
X132100000Y-120859851D03*
D23*
X132100000Y-119359851D03*
%TD*%
D26*
%TO.C,D02_R1*%
X161600000Y-94609851D03*
X165000000Y-94609851D03*
%TD*%
D23*
%TO.C,LE300_R1*%
X108000000Y-67359851D03*
X108000000Y-68859851D03*
D25*
X113100000Y-68859851D03*
D23*
X113100000Y-67359851D03*
%TD*%
%TO.C,LED41_L1*%
X206900000Y-81359851D03*
X206900000Y-82859851D03*
D25*
X212000000Y-82859851D03*
D23*
X212000000Y-81359851D03*
%TD*%
D26*
%TO.C,D11_R1*%
X142600000Y-70609851D03*
X146000000Y-70609851D03*
%TD*%
%TO.C,D10_R1*%
X142600000Y-51609851D03*
X146000000Y-51609851D03*
%TD*%
D23*
%TO.C,LED03_L1*%
X282900000Y-134359851D03*
X282900000Y-135859851D03*
D25*
X288000000Y-135859851D03*
D23*
X288000000Y-134359851D03*
%TD*%
D26*
%TO.C,D50_R1*%
X66600000Y-66609851D03*
X70000000Y-66609851D03*
%TD*%
%TO.C,D00_L1*%
X279500000Y-66609851D03*
X282900000Y-66609851D03*
%TD*%
D23*
%TO.C,LED10_R1*%
X146000000Y-62359851D03*
X146000000Y-63859851D03*
D25*
X151100000Y-63859851D03*
D23*
X151100000Y-62359851D03*
%TD*%
%TO.C,LED50_L1*%
X187900000Y-67359851D03*
X187900000Y-68859851D03*
D25*
X193000000Y-68859851D03*
D23*
X193000000Y-67359851D03*
%TD*%
%TO.C,LED50_R1*%
X70000000Y-77359851D03*
X70000000Y-78859851D03*
D25*
X75100000Y-78859851D03*
D23*
X75100000Y-77359851D03*
%TD*%
%TO.C,LED10_L1*%
X263900000Y-72359851D03*
X263900000Y-73859851D03*
D25*
X269000000Y-73859851D03*
D23*
X269000000Y-72359851D03*
%TD*%
D26*
%TO.C,D40_L1*%
X203500000Y-51609851D03*
X206900000Y-51609851D03*
%TD*%
%TO.C,D31_R1*%
X104600000Y-75609851D03*
X108000000Y-75609851D03*
%TD*%
%TO.C,D32_R1*%
X104600000Y-94609851D03*
X108000000Y-94609851D03*
%TD*%
%TO.C,D20_R1*%
X123600000Y-51609851D03*
X127000000Y-51609851D03*
%TD*%
%TO.C,D30_L1*%
X222500000Y-51609851D03*
X225900000Y-51609851D03*
%TD*%
D23*
%TO.C,LED13_L1*%
X263900000Y-129359851D03*
X263900000Y-130859851D03*
D25*
X269000000Y-130859851D03*
D23*
X269000000Y-129359851D03*
%TD*%
%TO.C,LED42_L1*%
X206900000Y-100359851D03*
X206900000Y-101859851D03*
D25*
X212000000Y-101859851D03*
D23*
X212000000Y-100359851D03*
%TD*%
%TO.C,LED52_R1*%
X70000000Y-115359851D03*
X70000000Y-116859851D03*
D25*
X75100000Y-116859851D03*
D23*
X75100000Y-115359851D03*
%TD*%
%TO.C,LED11_R1*%
X146000000Y-81359851D03*
X146000000Y-82859851D03*
D25*
X151100000Y-82859851D03*
D23*
X151100000Y-81359851D03*
%TD*%
D26*
%TO.C,D22_R1*%
X123600000Y-89609851D03*
X127000000Y-89609851D03*
%TD*%
D23*
%TO.C,LED53_R1*%
X70000000Y-134359851D03*
X70000000Y-135859851D03*
D25*
X75100000Y-135859851D03*
D23*
X75100000Y-134359851D03*
%TD*%
%TO.C,LED31_L1*%
X225900000Y-81359851D03*
X225900000Y-82859851D03*
D25*
X231000000Y-82859851D03*
D23*
X231000000Y-81359851D03*
%TD*%
D26*
%TO.C,D33_R1*%
X104600000Y-113609851D03*
X108000000Y-113609851D03*
%TD*%
D23*
%TO.C,LED23_L1*%
X244900000Y-124359851D03*
X244900000Y-125859851D03*
D25*
X250000000Y-125859851D03*
D23*
X250000000Y-124359851D03*
%TD*%
D26*
%TO.C,D02_L1*%
X279500000Y-104609851D03*
X282900000Y-104609851D03*
%TD*%
%TO.C,D32_L1*%
X222500000Y-89609851D03*
X225900000Y-89609851D03*
%TD*%
D23*
%TO.C,LED21_L1*%
X244900000Y-86359851D03*
X244900000Y-87859851D03*
D25*
X250000000Y-87859851D03*
D23*
X250000000Y-86359851D03*
%TD*%
D26*
%TO.C,D41_L1*%
X203500000Y-70609851D03*
X206900000Y-70609851D03*
%TD*%
%TO.C,D51_R1*%
X66600000Y-85609851D03*
X70000000Y-85609851D03*
%TD*%
%TO.C,D23_R1*%
X123600000Y-108609851D03*
X127000000Y-108609851D03*
%TD*%
%TO.C,D31_L1*%
X222500000Y-70609851D03*
X225900000Y-70609851D03*
%TD*%
%TO.C,D13_R1*%
X142600000Y-108609851D03*
X146000000Y-108609851D03*
%TD*%
%TO.C,D40_R1*%
X85600000Y-61609851D03*
X89000000Y-61609851D03*
%TD*%
%TO.C,D52_R1*%
X66600000Y-104609851D03*
X70000000Y-104609851D03*
%TD*%
D23*
%TO.C,LED13_R1*%
X146000000Y-119359851D03*
X146000000Y-120859851D03*
D25*
X151100000Y-120859851D03*
D23*
X151100000Y-119359851D03*
%TD*%
%TO.C,LED14_R1*%
X133550000Y-139250000D03*
X133550000Y-137750000D03*
D24*
X128450000Y-137750000D03*
D23*
X128450000Y-139250000D03*
%TD*%
D26*
%TO.C,D54_L1*%
X251900000Y-150000000D03*
X248500000Y-150000000D03*
%TD*%
D23*
%TO.C,LED41_R1*%
X89000000Y-91359851D03*
X89000000Y-92859851D03*
D25*
X94100000Y-92859851D03*
D23*
X94100000Y-91359851D03*
%TD*%
D26*
%TO.C,D12_L1*%
X260500000Y-99609851D03*
X263900000Y-99609851D03*
%TD*%
%TO.C,D21_L1*%
X241500000Y-75553306D03*
X244900000Y-75553306D03*
%TD*%
D23*
%TO.C,LED04_R1*%
X114550000Y-139250000D03*
X114550000Y-137750000D03*
D24*
X109450000Y-137750000D03*
D23*
X109450000Y-139250000D03*
%TD*%
D26*
%TO.C,D12_R1*%
X142600000Y-89609851D03*
X146000000Y-89609851D03*
%TD*%
%TO.C,D43_R1*%
X85600000Y-118609851D03*
X89000000Y-118609851D03*
%TD*%
D23*
%TO.C,LED00_L1*%
X282900000Y-77359851D03*
X282900000Y-78859851D03*
D25*
X288000000Y-78859851D03*
D23*
X288000000Y-77359851D03*
%TD*%
%TO.C,LED30_L1*%
X225900000Y-62359851D03*
X225900000Y-63859851D03*
D25*
X231000000Y-63859851D03*
D23*
X231000000Y-62359851D03*
%TD*%
%TO.C,LED32_R1*%
X108000000Y-105359851D03*
X108000000Y-106859851D03*
D25*
X113100000Y-106859851D03*
D23*
X113100000Y-105359851D03*
%TD*%
%TO.C,LED12_R1*%
X146000000Y-100359851D03*
X146000000Y-101859851D03*
D25*
X151100000Y-101859851D03*
D23*
X151100000Y-100359851D03*
%TD*%
%TO.C,LED42_R1*%
X89000000Y-110359851D03*
X89000000Y-111859851D03*
D25*
X94100000Y-111859851D03*
D23*
X94100000Y-110359851D03*
%TD*%
%TO.C,LED51_L1*%
X187900000Y-86359851D03*
X187900000Y-87859851D03*
D25*
X193000000Y-87859851D03*
D23*
X193000000Y-86359851D03*
%TD*%
D26*
%TO.C,D30_R1*%
X104600000Y-56609851D03*
X108000000Y-56609851D03*
%TD*%
%TO.C,D14_R1*%
X136900000Y-150000000D03*
X133500000Y-150000000D03*
%TD*%
D23*
%TO.C,LED54_L1*%
X248550000Y-139250000D03*
X248550000Y-137750000D03*
D24*
X243450000Y-137750000D03*
D23*
X243450000Y-139250000D03*
%TD*%
%TO.C,LED53_L1*%
X187900000Y-124359851D03*
X187900000Y-125859851D03*
D25*
X193000000Y-125859851D03*
D23*
X193000000Y-124359851D03*
%TD*%
%TO.C,LED40_L1*%
X206900000Y-62359851D03*
X206900000Y-63859851D03*
D25*
X212000000Y-63859851D03*
D23*
X212000000Y-62359851D03*
%TD*%
%TO.C,LED12_L1*%
X263900000Y-110359851D03*
X263900000Y-111859851D03*
D25*
X269000000Y-111859851D03*
D23*
X269000000Y-110359851D03*
%TD*%
D26*
%TO.C,D51_L1*%
X184500000Y-75609851D03*
X187900000Y-75609851D03*
%TD*%
D23*
%TO.C,LED01_L1*%
X282900000Y-96359851D03*
X282900000Y-97859851D03*
D25*
X288000000Y-97859851D03*
D23*
X288000000Y-96359851D03*
%TD*%
%TO.C,LED20_L1*%
X244900000Y-67359851D03*
X244900000Y-68859851D03*
D25*
X250000000Y-68859851D03*
D23*
X250000000Y-67359851D03*
%TD*%
%TO.C,LED22_L1*%
X244900000Y-105359851D03*
X244900000Y-106859851D03*
D25*
X250000000Y-106859851D03*
D23*
X250000000Y-105359851D03*
%TD*%
D26*
%TO.C,D42_L1*%
X203500000Y-89609851D03*
X206900000Y-89609851D03*
%TD*%
%TO.C,D03_R1*%
X161600000Y-113609851D03*
X165000000Y-113609851D03*
%TD*%
%TO.C,D52_L1*%
X184500000Y-94609851D03*
X187900000Y-94609851D03*
%TD*%
%TO.C,D13_L1*%
X260500000Y-118609851D03*
X263900000Y-118609851D03*
%TD*%
M02*
