%TF.GenerationSoftware,KiCad,Pcbnew,7.0.8*%
%TF.CreationDate,2024-04-16T05:21:19+09:00*%
%TF.ProjectId,pcb,7063622e-6b69-4636-9164-5f7063625858,rev?*%
%TF.SameCoordinates,Original*%
%TF.FileFunction,Copper,L2,Bot*%
%TF.FilePolarity,Positive*%
%FSLAX46Y46*%
G04 Gerber Fmt 4.6, Leading zero omitted, Abs format (unit mm)*
G04 Created by KiCad (PCBNEW 7.0.8) date 2024-04-16 05:21:19*
%MOMM*%
%LPD*%
G01*
G04 APERTURE LIST*
G04 Aperture macros list*
%AMRoundRect*
0 Rectangle with rounded corners*
0 $1 Rounding radius*
0 $2 $3 $4 $5 $6 $7 $8 $9 X,Y pos of 4 corners*
0 Add a 4 corners polygon primitive as box body*
4,1,4,$2,$3,$4,$5,$6,$7,$8,$9,$2,$3,0*
0 Add four circle primitives for the rounded corners*
1,1,$1+$1,$2,$3*
1,1,$1+$1,$4,$5*
1,1,$1+$1,$6,$7*
1,1,$1+$1,$8,$9*
0 Add four rect primitives between the rounded corners*
20,1,$1+$1,$2,$3,$4,$5,0*
20,1,$1+$1,$4,$5,$6,$7,0*
20,1,$1+$1,$6,$7,$8,$9,0*
20,1,$1+$1,$8,$9,$2,$3,0*%
G04 Aperture macros list end*
%TA.AperFunction,SMDPad,CuDef*%
%ADD10R,2.550000X2.500000*%
%TD*%
%TA.AperFunction,ComponentPad*%
%ADD11R,1.350000X1.350000*%
%TD*%
%TA.AperFunction,ComponentPad*%
%ADD12O,1.350000X1.350000*%
%TD*%
%TA.AperFunction,ComponentPad*%
%ADD13O,1.400000X1.000000*%
%TD*%
%TA.AperFunction,ComponentPad*%
%ADD14O,2.000000X1.600000*%
%TD*%
%TA.AperFunction,ComponentPad*%
%ADD15C,1.778000*%
%TD*%
%TA.AperFunction,ComponentPad*%
%ADD16C,2.286000*%
%TD*%
%TA.AperFunction,ComponentPad*%
%ADD17O,1.500000X2.500000*%
%TD*%
%TA.AperFunction,ComponentPad*%
%ADD18O,2.500000X1.500000*%
%TD*%
%TA.AperFunction,SMDPad,CuDef*%
%ADD19R,1.700000X0.820000*%
%TD*%
%TA.AperFunction,SMDPad,CuDef*%
%ADD20RoundRect,0.205000X0.645000X0.205000X-0.645000X0.205000X-0.645000X-0.205000X0.645000X-0.205000X0*%
%TD*%
%TA.AperFunction,SMDPad,CuDef*%
%ADD21RoundRect,0.205000X-0.645000X-0.205000X0.645000X-0.205000X0.645000X0.205000X-0.645000X0.205000X0*%
%TD*%
%TA.AperFunction,SMDPad,CuDef*%
%ADD22R,1.200000X1.400000*%
%TD*%
%TA.AperFunction,ViaPad*%
%ADD23C,0.800000*%
%TD*%
%TA.AperFunction,Conductor*%
%ADD24C,0.200000*%
%TD*%
%TA.AperFunction,Conductor*%
%ADD25C,0.250000*%
%TD*%
G04 APERTURE END LIST*
D10*
%TO.P,SW31_R1,1,1*%
%TO.N,Net-(D31_R1-A)*%
X116840000Y-77029851D03*
%TO.P,SW31_R1,2,2*%
%TO.N,col3_R*%
X102990000Y-79569851D03*
%TD*%
%TO.P,SW42_L1,1,1*%
%TO.N,Net-(D42_L1-A)*%
X215740000Y-91029851D03*
%TO.P,SW42_L1,2,2*%
%TO.N,col4_L*%
X201890000Y-93569851D03*
%TD*%
%TO.P,SW52_L1,1,1*%
%TO.N,Net-(D52_L1-A)*%
X196740000Y-96029851D03*
%TO.P,SW52_L1,2,2*%
%TO.N,col5_L*%
X182890000Y-98569851D03*
%TD*%
%TO.P,SW12_R1,1,1*%
%TO.N,Net-(D12_R1-A)*%
X154840000Y-91029851D03*
%TO.P,SW12_R1,2,2*%
%TO.N,col1_R*%
X140990000Y-93569851D03*
%TD*%
%TO.P,SW11_R1,1,1*%
%TO.N,Net-(D11_R1-A)*%
X154840000Y-72029851D03*
%TO.P,SW11_R1,2,2*%
%TO.N,col1_R*%
X140990000Y-74569851D03*
%TD*%
%TO.P,SW50_R1,1,1*%
%TO.N,Net-(D50_R1-A)*%
X78840000Y-68029851D03*
%TO.P,SW50_R1,2,2*%
%TO.N,col5_R*%
X64990000Y-70569851D03*
%TD*%
%TO.P,SW10_R1,1,1*%
%TO.N,Net-(D10_R1-A)*%
X154840000Y-53029851D03*
%TO.P,SW10_R1,2,2*%
%TO.N,col1_R*%
X140990000Y-55569851D03*
%TD*%
%TO.P,SW14_R1,1,1*%
%TO.N,Net-(D14_R1-A)*%
X124710000Y-148580000D03*
%TO.P,SW14_R1,2,2*%
%TO.N,col1_Sub_R*%
X138560000Y-146040000D03*
%TD*%
%TO.P,SW40_R1,1,1*%
%TO.N,Net-(D40_R1-A)*%
X97840000Y-63029851D03*
%TO.P,SW40_R1,2,2*%
%TO.N,col4_R*%
X83990000Y-65569851D03*
%TD*%
%TO.P,SW32_R1,1,1*%
%TO.N,Net-(D32_R1-A)*%
X116840000Y-96029851D03*
%TO.P,SW32_R1,2,2*%
%TO.N,col3_R*%
X102990000Y-98569851D03*
%TD*%
%TO.P,SW12_L1,1,1*%
%TO.N,Net-(D12_L1-A)*%
X272740000Y-101029851D03*
%TO.P,SW12_L1,2,2*%
%TO.N,col1_L*%
X258890000Y-103569851D03*
%TD*%
%TO.P,SW53_R1,1,1*%
%TO.N,Net-(D53_R1-A)*%
X78840000Y-125029851D03*
%TO.P,SW53_R1,2,2*%
%TO.N,col5_R*%
X64990000Y-127569851D03*
%TD*%
%TO.P,SW42_R1,1,1*%
%TO.N,Net-(D42_R1-A)*%
X97840000Y-101029851D03*
%TO.P,SW42_R1,2,2*%
%TO.N,col4_R*%
X83990000Y-103569851D03*
%TD*%
%TO.P,SW33_R1,1,1*%
%TO.N,Net-(D33_R1-A)*%
X116840000Y-115029851D03*
%TO.P,SW33_R1,2,2*%
%TO.N,col3_R*%
X102990000Y-117569851D03*
%TD*%
D11*
%TO.P,Col_L1,1,Pin_1*%
%TO.N,JS_SEL*%
X209250000Y-144250000D03*
D12*
%TO.P,Col_L1,2,Pin_2*%
%TO.N,Net-(Col_L1-Pin_2)*%
X209250000Y-142250000D03*
%TO.P,Col_L1,3,Pin_3*%
%TO.N,Net-(Col_L1-Pin_3)*%
X209250000Y-140250000D03*
%TO.P,Col_L1,4,Pin_4*%
%TO.N,Net-(Col_L1-Pin_4)*%
X209250000Y-138250000D03*
%TO.P,Col_L1,5,Pin_5*%
%TO.N,Net-(Col_L1-Pin_5)*%
X209250000Y-136250000D03*
%TO.P,Col_L1,6,Pin_6*%
%TO.N,Net-(Col_L1-Pin_6)*%
X209250000Y-134250000D03*
%TD*%
D10*
%TO.P,SW10_L1,1,1*%
%TO.N,Net-(D10_L1-A)*%
X272740000Y-63029851D03*
%TO.P,SW10_L1,2,2*%
%TO.N,col1_L*%
X258890000Y-65569851D03*
%TD*%
%TO.P,SW22_R1,1,1*%
%TO.N,Net-(D22_R1-A)*%
X135840000Y-91029851D03*
%TO.P,SW22_R1,2,2*%
%TO.N,col2_R*%
X121990000Y-93569851D03*
%TD*%
D13*
%TO.P,TRRS1,R1*%
%TO.N,I2C_VCC*%
X167800000Y-160300000D03*
D14*
X167800000Y-160300000D03*
D13*
%TO.P,TRRS1,R2*%
%TO.N,Net-(MCU1-1)*%
X171800000Y-160300000D03*
D14*
X171800000Y-160300000D03*
D13*
%TO.P,TRRS1,S*%
%TO.N,Net-(MCU1-0)*%
X174800000Y-160300000D03*
D14*
X174800000Y-160300000D03*
D13*
%TO.P,TRRS1,T*%
%TO.N,GND_R1*%
X166700000Y-155700000D03*
D14*
X166700000Y-155700000D03*
%TD*%
D11*
%TO.P,MatrixC_R1,1,Pin_1*%
%TO.N,col0_R*%
X132750000Y-130800000D03*
D12*
%TO.P,MatrixC_R1,2,Pin_2*%
%TO.N,col1_R*%
X130750000Y-130800000D03*
%TO.P,MatrixC_R1,3,Pin_3*%
%TO.N,col2_R*%
X128750000Y-130800000D03*
%TO.P,MatrixC_R1,4,Pin_4*%
%TO.N,col3_R*%
X126750000Y-130800000D03*
%TO.P,MatrixC_R1,5,Pin_5*%
%TO.N,col4_R*%
X124750000Y-130800000D03*
%TO.P,MatrixC_R1,6,Pin_6*%
%TO.N,col5_R*%
X122750000Y-130800000D03*
%TD*%
D11*
%TO.P,Joystick1,1,Pin_1*%
%TO.N,VCC_5V_L1*%
X213000000Y-157750000D03*
D12*
%TO.P,Joystick1,2,Pin_2*%
%TO.N,JS_V*%
X213000000Y-155750000D03*
%TO.P,Joystick1,3,Pin_3*%
%TO.N,JS_H*%
X213000000Y-153750000D03*
%TO.P,Joystick1,4,Pin_4*%
%TO.N,JS_SEL*%
X213000000Y-151750000D03*
%TO.P,Joystick1,5,Pin_5*%
%TO.N,Net-(D_Sel1-A)*%
X213000000Y-149750000D03*
%TO.P,Joystick1,6,Pin_6*%
%TO.N,GND_L1*%
X213000000Y-147750000D03*
%TD*%
D10*
%TO.P,SW53_L1,1,1*%
%TO.N,Net-(D53_L1-A)*%
X196740000Y-115029851D03*
%TO.P,SW53_L1,2,2*%
%TO.N,col5_L*%
X182890000Y-117569851D03*
%TD*%
D13*
%TO.P,TRRS2,R1*%
%TO.N,VCC_3V_L1*%
X190200000Y-155700000D03*
D14*
X190200000Y-155700000D03*
D13*
%TO.P,TRRS2,R2*%
%TO.N,Net-(MCU2-1)*%
X186200000Y-155700000D03*
D14*
X186200000Y-155700000D03*
D13*
%TO.P,TRRS2,S*%
%TO.N,Net-(MCU2-0)*%
X183200000Y-155700000D03*
D14*
X183200000Y-155700000D03*
D13*
%TO.P,TRRS2,T*%
%TO.N,GND_L1*%
X191300000Y-160300000D03*
D14*
X191300000Y-160300000D03*
%TD*%
D11*
%TO.P,Main_to_Sub1,1,Pin_1*%
%TO.N,VDD_R*%
X144300000Y-126359851D03*
D12*
%TO.P,Main_to_Sub1,2,Pin_2*%
%TO.N,col0_R*%
X146300000Y-126359851D03*
%TO.P,Main_to_Sub1,3,Pin_3*%
%TO.N,col1_R*%
X148300000Y-126359851D03*
%TO.P,Main_to_Sub1,4,Pin_4*%
%TO.N,row4_R*%
X150300000Y-126359851D03*
%TO.P,Main_to_Sub1,5,Pin_5*%
%TO.N,LED_Main_R*%
X152300000Y-126359851D03*
%TO.P,Main_to_Sub1,6,Pin_6*%
%TO.N,GND_R*%
X154300000Y-126359851D03*
%TD*%
D11*
%TO.P,Main_to_Sub_L1,1,Pin_1*%
%TO.N,VDD_L*%
X203700000Y-126359851D03*
D12*
%TO.P,Main_to_Sub_L1,2,Pin_2*%
%TO.N,col4_L*%
X205700000Y-126359851D03*
%TO.P,Main_to_Sub_L1,3,Pin_3*%
%TO.N,col5_L*%
X207700000Y-126359851D03*
%TO.P,Main_to_Sub_L1,4,Pin_4*%
%TO.N,row4_L*%
X209700000Y-126359851D03*
%TO.P,Main_to_Sub_L1,5,Pin_5*%
%TO.N,LED_Main_L*%
X211700000Y-126359851D03*
%TO.P,Main_to_Sub_L1,6,Pin_6*%
%TO.N,GND_L*%
X213700000Y-126359851D03*
%TD*%
D10*
%TO.P,SW21_R1,1,1*%
%TO.N,Net-(D21_R1-A)*%
X135840000Y-72029851D03*
%TO.P,SW21_R1,2,2*%
%TO.N,col2_R*%
X121990000Y-74569851D03*
%TD*%
D15*
%TO.P,Joystick3,B1A,SEL+*%
%TO.N,Net-(Joystick2-Pin_4)*%
X263653246Y-136701873D03*
%TO.P,Joystick3,B1B*%
%TO.N,N/C*%
X270153246Y-136701873D03*
%TO.P,Joystick3,B2A,SEL-*%
%TO.N,Net-(Joystick2-Pin_5)*%
X263653246Y-141201873D03*
%TO.P,Joystick3,B2B*%
%TO.N,N/C*%
X270153246Y-141201873D03*
%TO.P,Joystick3,H1,H+*%
%TO.N,Net-(Joystick2-Pin_1)*%
X264403246Y-155701873D03*
%TO.P,Joystick3,H2,H*%
%TO.N,Net-(Joystick2-Pin_3)*%
X266903246Y-155701873D03*
%TO.P,Joystick3,H3,H-*%
%TO.N,Net-(Joystick2-Pin_6)*%
X269403246Y-155701873D03*
D16*
%TO.P,Joystick3,S1,SHIELD*%
%TO.N,unconnected-(Joystick3-SHIELD-PadS1)*%
X260603246Y-142001873D03*
%TO.P,Joystick3,S2,SHIELD*%
X260603246Y-152001873D03*
%TO.P,Joystick3,S3,SHIELD*%
X273203246Y-152001873D03*
%TO.P,Joystick3,S4,SHIELD*%
X273203246Y-142001873D03*
D15*
%TO.P,Joystick3,V1,V+*%
%TO.N,Net-(Joystick2-Pin_1)*%
X258203246Y-144501873D03*
%TO.P,Joystick3,V2,V*%
%TO.N,Net-(Joystick2-Pin_2)*%
X258203246Y-147049212D03*
%TO.P,Joystick3,V3,V-*%
%TO.N,Net-(Joystick2-Pin_6)*%
X258203246Y-149501873D03*
%TD*%
D10*
%TO.P,SW41_R1,1,1*%
%TO.N,Net-(D41_R1-A)*%
X97840000Y-82029851D03*
%TO.P,SW41_R1,2,2*%
%TO.N,col4_R*%
X83990000Y-84569851D03*
%TD*%
D11*
%TO.P,MatrixR_R1,1,Pin_1*%
%TO.N,LED_L*%
X235250000Y-126400000D03*
D12*
%TO.P,MatrixR_R1,2,Pin_2*%
%TO.N,row0_L*%
X233250000Y-126400000D03*
%TO.P,MatrixR_R1,3,Pin_3*%
%TO.N,row1_L*%
X231250000Y-126400000D03*
%TO.P,MatrixR_R1,4,Pin_4*%
%TO.N,row2_L*%
X229250000Y-126400000D03*
%TO.P,MatrixR_R1,5,Pin_5*%
%TO.N,row3_L*%
X227250000Y-126400000D03*
%TO.P,MatrixR_R1,6,Pin_6*%
%TO.N,row4_L*%
X225250000Y-126400000D03*
%TD*%
D10*
%TO.P,SW23_L1,1,1*%
%TO.N,Net-(D23_L1-A)*%
X253740000Y-115029851D03*
%TO.P,SW23_L1,2,2*%
%TO.N,col2_L*%
X239890000Y-117569851D03*
%TD*%
D11*
%TO.P,Row_R1,1,Pin_1*%
%TO.N,Net-(MCU1-13)*%
X144750000Y-134200000D03*
D12*
%TO.P,Row_R1,2,Pin_2*%
%TO.N,Net-(MCU1-12)*%
X144750000Y-136200000D03*
%TO.P,Row_R1,3,Pin_3*%
%TO.N,Net-(MCU1-11)*%
X144750000Y-138200000D03*
%TO.P,Row_R1,4,Pin_4*%
%TO.N,Net-(MCU1-10)*%
X144750000Y-140200000D03*
%TO.P,Row_R1,5,Pin_5*%
%TO.N,Net-(MCU1-9)*%
X144750000Y-142200000D03*
%TO.P,Row_R1,6,Pin_6*%
%TO.N,Net-(MCU1-8)*%
X144750000Y-144200000D03*
%TD*%
D11*
%TO.P,Power_Mtrx_L1,1,Pin_1*%
%TO.N,GND_L*%
X219000000Y-126359851D03*
D12*
%TO.P,Power_Mtrx_L1,2,Pin_2*%
%TO.N,VDD_L*%
X221000000Y-126359851D03*
%TD*%
D10*
%TO.P,SW43_R1,1,1*%
%TO.N,Net-(D43_R1-A)*%
X97840000Y-120029851D03*
%TO.P,SW43_R1,2,2*%
%TO.N,col4_R*%
X83990000Y-122569851D03*
%TD*%
D11*
%TO.P,MatrixC_L1,1,Pin_1*%
%TO.N,col0_L*%
X235250000Y-130800000D03*
D12*
%TO.P,MatrixC_L1,2,Pin_2*%
%TO.N,col1_L*%
X233250000Y-130800000D03*
%TO.P,MatrixC_L1,3,Pin_3*%
%TO.N,col2_L*%
X231250000Y-130800000D03*
%TO.P,MatrixC_L1,4,Pin_4*%
%TO.N,col3_L*%
X229250000Y-130800000D03*
%TO.P,MatrixC_L1,5,Pin_5*%
%TO.N,col4_L*%
X227250000Y-130800000D03*
%TO.P,MatrixC_L1,6,Pin_6*%
%TO.N,col5_L*%
X225250000Y-130800000D03*
%TD*%
D10*
%TO.P,SW03_L1,1,1*%
%TO.N,Net-(D03_L1-A)*%
X291740000Y-125029851D03*
%TO.P,SW03_L1,2,2*%
%TO.N,col0_L*%
X277890000Y-127569851D03*
%TD*%
%TO.P,SW54_L1,1,1*%
%TO.N,Net-(D54_L1-A)*%
X239710000Y-148580000D03*
%TO.P,SW54_L1,2,2*%
%TO.N,col5_Sub_L*%
X253560000Y-146040000D03*
%TD*%
%TO.P,SW00_L1,1,1*%
%TO.N,Net-(D00_L1-A)*%
X291740000Y-68029851D03*
%TO.P,SW00_L1,2,2*%
%TO.N,col0_L*%
X277890000Y-70569851D03*
%TD*%
%TO.P,SW03_R1,1,1*%
%TO.N,Net-(D03_R1-A)*%
X173840000Y-115029851D03*
%TO.P,SW03_R1,2,2*%
%TO.N,col0_R*%
X159990000Y-117569851D03*
%TD*%
%TO.P,SW32_L1,1,1*%
%TO.N,Net-(D32_L1-A)*%
X234740000Y-91029851D03*
%TO.P,SW32_L1,2,2*%
%TO.N,col3_L*%
X220890000Y-93569851D03*
%TD*%
%TO.P,SW22_L1,1,1*%
%TO.N,Net-(D22_L1-A)*%
X253740000Y-96029851D03*
%TO.P,SW22_L1,2,2*%
%TO.N,col2_L*%
X239890000Y-98569851D03*
%TD*%
%TO.P,SW00_R1,1,1*%
%TO.N,Net-(D00_R1-A)*%
X173840000Y-58029851D03*
%TO.P,SW00_R1,2,2*%
%TO.N,col0_R*%
X159990000Y-60569851D03*
%TD*%
%TO.P,SW02_R1,1,1*%
%TO.N,Net-(D02_R1-A)*%
X173840000Y-96029851D03*
%TO.P,SW02_R1,2,2*%
%TO.N,col0_R*%
X159990000Y-98569851D03*
%TD*%
D11*
%TO.P,Power_Ctrlr_L1,1,Pin_1*%
%TO.N,GND_L1*%
X209250000Y-149750000D03*
D12*
%TO.P,Power_Ctrlr_L1,2,Pin_2*%
%TO.N,VCC_3V_L1*%
X209250000Y-147750000D03*
%TD*%
D11*
%TO.P,Sub_to_Main_L1,1,Pin_1*%
%TO.N,VDD_Sub_L*%
X227000000Y-155500000D03*
D12*
%TO.P,Sub_to_Main_L1,2,Pin_2*%
%TO.N,col4_Sub_L*%
X229000000Y-155500000D03*
%TO.P,Sub_to_Main_L1,3,Pin_3*%
%TO.N,col5_Sub_L*%
X231000000Y-155500000D03*
%TO.P,Sub_to_Main_L1,4,Pin_4*%
%TO.N,row4_Sub_L*%
X233000000Y-155500000D03*
%TO.P,Sub_to_Main_L1,5,Pin_5*%
%TO.N,LED_Sub_L*%
X235000000Y-155500000D03*
%TO.P,Sub_to_Main_L1,6,Pin_6*%
%TO.N,GND_Sub_L*%
X237000000Y-155500000D03*
%TD*%
D10*
%TO.P,SW30_R1,1,1*%
%TO.N,Net-(D30_R1-A)*%
X116840000Y-58029851D03*
%TO.P,SW30_R1,2,2*%
%TO.N,col3_R*%
X102990000Y-60569851D03*
%TD*%
%TO.P,SW51_R1,1,1*%
%TO.N,Net-(D51_R1-A)*%
X78840000Y-87029851D03*
%TO.P,SW51_R1,2,2*%
%TO.N,col5_R*%
X64990000Y-89569851D03*
%TD*%
D17*
%TO.P,MCU2,1,0*%
%TO.N,Net-(MCU2-0)*%
X183590000Y-135976000D03*
%TO.P,MCU2,2,1*%
%TO.N,Net-(MCU2-1)*%
X186130000Y-135976000D03*
%TO.P,MCU2,3,2*%
%TO.N,JS_SEL*%
X188670000Y-135976000D03*
%TO.P,MCU2,4,3*%
%TO.N,Net-(Col_L1-Pin_2)*%
X191210000Y-135976000D03*
%TO.P,MCU2,5,4*%
%TO.N,Net-(Col_L1-Pin_3)*%
X193750000Y-135976000D03*
%TO.P,MCU2,6,5*%
%TO.N,Net-(Col_L1-Pin_4)*%
X196290000Y-135976000D03*
%TO.P,MCU2,7,6*%
%TO.N,Net-(Col_L1-Pin_5)*%
X198830000Y-135976000D03*
%TO.P,MCU2,8,7*%
%TO.N,Net-(Col_L1-Pin_6)*%
X201370000Y-135976000D03*
%TO.P,MCU2,9,8*%
%TO.N,JS_SEL_m*%
X203910000Y-135976000D03*
D18*
%TO.P,MCU2,10,9*%
%TO.N,Net-(MCU2-9)*%
X204410000Y-139016000D03*
%TO.P,MCU2,11,10*%
%TO.N,Net-(MCU2-10)*%
X204410000Y-141556000D03*
%TO.P,MCU2,12,11*%
%TO.N,Net-(MCU2-11)*%
X204410000Y-144096000D03*
%TO.P,MCU2,13,12*%
%TO.N,Net-(MCU2-12)*%
X204410000Y-146636000D03*
%TO.P,MCU2,14,13*%
%TO.N,Net-(MCU2-13)*%
X204410000Y-149176000D03*
D17*
%TO.P,MCU2,15,14*%
%TO.N,unconnected-(MCU2-14-Pad15)*%
X203910000Y-152216000D03*
%TO.P,MCU2,16,15*%
%TO.N,unconnected-(MCU2-15-Pad16)*%
X201370000Y-152216000D03*
%TO.P,MCU2,17,26*%
%TO.N,unconnected-(MCU2-26-Pad17)*%
X198830000Y-152216000D03*
%TO.P,MCU2,18,27*%
%TO.N,unconnected-(MCU2-27-Pad18)*%
X196290000Y-152216000D03*
%TO.P,MCU2,19,28*%
%TO.N,JS_H*%
X193750000Y-152216000D03*
%TO.P,MCU2,20,29*%
%TO.N,JS_V*%
X191210000Y-152216000D03*
%TO.P,MCU2,21,3V3*%
%TO.N,VCC_3V_L1*%
X188670000Y-152216000D03*
%TO.P,MCU2,22,GND*%
%TO.N,GND_L1*%
X186130000Y-152216000D03*
%TO.P,MCU2,23,5V*%
%TO.N,VCC_5V_L1*%
X183590000Y-152216000D03*
%TD*%
%TO.P,MCU1,1,0*%
%TO.N,Net-(MCU1-0)*%
X174410000Y-152216000D03*
%TO.P,MCU1,2,1*%
%TO.N,Net-(MCU1-1)*%
X171870000Y-152216000D03*
%TO.P,MCU1,3,2*%
%TO.N,Net-(CoL_R1-Pin_1)*%
X169330000Y-152216000D03*
%TO.P,MCU1,4,3*%
%TO.N,Net-(CoL_R1-Pin_2)*%
X166790000Y-152216000D03*
%TO.P,MCU1,5,4*%
%TO.N,Net-(CoL_R1-Pin_3)*%
X164250000Y-152216000D03*
%TO.P,MCU1,6,5*%
%TO.N,Net-(CoL_R1-Pin_4)*%
X161710000Y-152216000D03*
%TO.P,MCU1,7,6*%
%TO.N,Net-(CoL_R1-Pin_5)*%
X159170000Y-152216000D03*
%TO.P,MCU1,8,7*%
%TO.N,Net-(CoL_R1-Pin_6)*%
X156630000Y-152216000D03*
%TO.P,MCU1,9,8*%
%TO.N,Net-(MCU1-8)*%
X154090000Y-152216000D03*
D18*
%TO.P,MCU1,10,9*%
%TO.N,Net-(MCU1-9)*%
X153590000Y-149176000D03*
%TO.P,MCU1,11,10*%
%TO.N,Net-(MCU1-10)*%
X153590000Y-146636000D03*
%TO.P,MCU1,12,11*%
%TO.N,Net-(MCU1-11)*%
X153590000Y-144096000D03*
%TO.P,MCU1,13,12*%
%TO.N,Net-(MCU1-12)*%
X153590000Y-141556000D03*
%TO.P,MCU1,14,13*%
%TO.N,Net-(MCU1-13)*%
X153590000Y-139016000D03*
D17*
%TO.P,MCU1,15,14*%
%TO.N,unconnected-(MCU1-14-Pad15)*%
X154090000Y-135976000D03*
%TO.P,MCU1,16,15*%
%TO.N,unconnected-(MCU1-15-Pad16)*%
X156630000Y-135976000D03*
%TO.P,MCU1,17,26*%
%TO.N,I2C_SDA*%
X159170000Y-135976000D03*
%TO.P,MCU1,18,27*%
%TO.N,I2C_SCL*%
X161710000Y-135976000D03*
%TO.P,MCU1,19,28*%
%TO.N,unconnected-(MCU1-28-Pad19)*%
X164250000Y-135976000D03*
%TO.P,MCU1,20,29*%
%TO.N,unconnected-(MCU1-29-Pad20)*%
X166790000Y-135976000D03*
%TO.P,MCU1,21,3V3*%
%TO.N,I2C_VCC*%
X169330000Y-135976000D03*
%TO.P,MCU1,22,GND*%
%TO.N,GND_R1*%
X171870000Y-135976000D03*
%TO.P,MCU1,23,5V*%
%TO.N,unconnected-(MCU1-5V-Pad23)*%
X174410000Y-135976000D03*
%TD*%
D11*
%TO.P,MatrixR_R2,1,Pin_1*%
%TO.N,LED_R*%
X132750000Y-126400000D03*
D12*
%TO.P,MatrixR_R2,2,Pin_2*%
%TO.N,row0_R*%
X130750000Y-126400000D03*
%TO.P,MatrixR_R2,3,Pin_3*%
%TO.N,row1_R*%
X128750000Y-126400000D03*
%TO.P,MatrixR_R2,4,Pin_4*%
%TO.N,row2_R*%
X126750000Y-126400000D03*
%TO.P,MatrixR_R2,5,Pin_5*%
%TO.N,row3_R*%
X124750000Y-126400000D03*
%TO.P,MatrixR_R2,6,Pin_6*%
%TO.N,row4_R*%
X122750000Y-126400000D03*
%TD*%
D11*
%TO.P,Power_Ctrlr_R1,1,Pin_1*%
%TO.N,GND_R1*%
X148500000Y-147700000D03*
D12*
%TO.P,Power_Ctrlr_R1,2,Pin_2*%
%TO.N,I2C_VCC*%
X148500000Y-149700000D03*
%TD*%
D10*
%TO.P,SW30_L1,1,1*%
%TO.N,Net-(D30_L1-A)*%
X234740000Y-53029851D03*
%TO.P,SW30_L1,2,2*%
%TO.N,col3_L*%
X220890000Y-55569851D03*
%TD*%
D11*
%TO.P,Joystick2,1,Pin_1*%
%TO.N,Net-(Joystick2-Pin_1)*%
X275903246Y-142001873D03*
D12*
%TO.P,Joystick2,2,Pin_2*%
%TO.N,Net-(Joystick2-Pin_2)*%
X275903246Y-144001873D03*
%TO.P,Joystick2,3,Pin_3*%
%TO.N,Net-(Joystick2-Pin_3)*%
X275903246Y-146001873D03*
%TO.P,Joystick2,4,Pin_4*%
%TO.N,Net-(Joystick2-Pin_4)*%
X275903246Y-148001873D03*
%TO.P,Joystick2,5,Pin_5*%
%TO.N,Net-(Joystick2-Pin_5)*%
X275903246Y-150001873D03*
%TO.P,Joystick2,6,Pin_6*%
%TO.N,Net-(Joystick2-Pin_6)*%
X275903246Y-152001873D03*
%TD*%
D10*
%TO.P,SW21_L1,1,1*%
%TO.N,Net-(D21_L1-A)*%
X253740000Y-77029851D03*
%TO.P,SW21_L1,2,2*%
%TO.N,col2_L*%
X239890000Y-79569851D03*
%TD*%
D11*
%TO.P,Sub_to_Main1,1,Pin_1*%
%TO.N,VDD_Sub_R*%
X121000000Y-155500000D03*
D12*
%TO.P,Sub_to_Main1,2,Pin_2*%
%TO.N,col0_Sub_R*%
X123000000Y-155500000D03*
%TO.P,Sub_to_Main1,3,Pin_3*%
%TO.N,col1_Sub_R*%
X125000000Y-155500000D03*
%TO.P,Sub_to_Main1,4,Pin_4*%
%TO.N,row4_Sub_R*%
X127000000Y-155500000D03*
%TO.P,Sub_to_Main1,5,Pin_5*%
%TO.N,LED_Sub_R*%
X129000000Y-155500000D03*
%TO.P,Sub_to_Main1,6,Pin_6*%
%TO.N,GND_Sub_R*%
X131000000Y-155500000D03*
%TD*%
D11*
%TO.P,Power_Mtrx_R1,1,Pin_1*%
%TO.N,GND_R*%
X137200000Y-126400000D03*
D12*
%TO.P,Power_Mtrx_R1,2,Pin_2*%
%TO.N,VDD_R*%
X139200000Y-126400000D03*
%TD*%
D10*
%TO.P,SW51_L1,1,1*%
%TO.N,Net-(D51_L1-A)*%
X196740000Y-77029851D03*
%TO.P,SW51_L1,2,2*%
%TO.N,col5_L*%
X182890000Y-79569851D03*
%TD*%
%TO.P,SW31_L1,1,1*%
%TO.N,Net-(D31_L1-A)*%
X234740000Y-72029851D03*
%TO.P,SW31_L1,2,2*%
%TO.N,col3_L*%
X220890000Y-74569851D03*
%TD*%
%TO.P,SW52_R1,1,1*%
%TO.N,Net-(D52_R1-A)*%
X78840000Y-106029851D03*
%TO.P,SW52_R1,2,2*%
%TO.N,col5_R*%
X64990000Y-108569851D03*
%TD*%
%TO.P,SW40_L1,1,1*%
%TO.N,Net-(D40_L1-A)*%
X215740000Y-53029851D03*
%TO.P,SW40_L1,2,2*%
%TO.N,col4_L*%
X201890000Y-55569851D03*
%TD*%
%TO.P,SW23_R1,1,1*%
%TO.N,Net-(D23_R1-A)*%
X135840000Y-110029851D03*
%TO.P,SW23_R1,2,2*%
%TO.N,col2_R*%
X121990000Y-112569851D03*
%TD*%
%TO.P,SW13_L1,1,1*%
%TO.N,Net-(D13_L1-A)*%
X272740000Y-120029851D03*
%TO.P,SW13_L1,2,2*%
%TO.N,col1_L*%
X258890000Y-122569851D03*
%TD*%
%TO.P,SW33_L1,1,1*%
%TO.N,Net-(D33_L1-A)*%
X234740000Y-110029851D03*
%TO.P,SW33_L1,2,2*%
%TO.N,col3_L*%
X220890000Y-112569851D03*
%TD*%
%TO.P,SW01_L1,1,1*%
%TO.N,Net-(D01_L1-A)*%
X291740000Y-87029851D03*
%TO.P,SW01_L1,2,2*%
%TO.N,col0_L*%
X277890000Y-89569851D03*
%TD*%
D11*
%TO.P,Row_L1,1,Pin_1*%
%TO.N,Net-(MCU2-13)*%
X213000000Y-144250000D03*
D12*
%TO.P,Row_L1,2,Pin_2*%
%TO.N,Net-(MCU2-12)*%
X213000000Y-142250000D03*
%TO.P,Row_L1,3,Pin_3*%
%TO.N,Net-(MCU2-11)*%
X213000000Y-140250000D03*
%TO.P,Row_L1,4,Pin_4*%
%TO.N,Net-(MCU2-10)*%
X213000000Y-138250000D03*
%TO.P,Row_L1,5,Pin_5*%
%TO.N,Net-(MCU2-9)*%
X213000000Y-136250000D03*
%TO.P,Row_L1,6,Pin_6*%
%TO.N,JS_SEL_m*%
X213000000Y-134250000D03*
%TD*%
D10*
%TO.P,SW43_L1,1,1*%
%TO.N,Net-(D43_L1-A)*%
X215740000Y-110029851D03*
%TO.P,SW43_L1,2,2*%
%TO.N,col4_L*%
X201890000Y-112569851D03*
%TD*%
%TO.P,SW01_R1,1,1*%
%TO.N,Net-(D01_R1-A)*%
X173840000Y-77029851D03*
%TO.P,SW01_R1,2,2*%
%TO.N,col0_R*%
X159990000Y-79569851D03*
%TD*%
%TO.P,SW02_L1,1,1*%
%TO.N,Net-(D02_L1-A)*%
X291740000Y-106029851D03*
%TO.P,SW02_L1,2,2*%
%TO.N,col0_L*%
X277890000Y-108569851D03*
%TD*%
%TO.P,SW20_R1,1,1*%
%TO.N,Net-(D20_R1-A)*%
X135840000Y-53029851D03*
%TO.P,SW20_R1,2,2*%
%TO.N,col2_R*%
X121990000Y-55569851D03*
%TD*%
D11*
%TO.P,CoL_R1,1,Pin_1*%
%TO.N,Net-(CoL_R1-Pin_1)*%
X148500000Y-134200000D03*
D12*
%TO.P,CoL_R1,2,Pin_2*%
%TO.N,Net-(CoL_R1-Pin_2)*%
X148500000Y-136200000D03*
%TO.P,CoL_R1,3,Pin_3*%
%TO.N,Net-(CoL_R1-Pin_3)*%
X148500000Y-138200000D03*
%TO.P,CoL_R1,4,Pin_4*%
%TO.N,Net-(CoL_R1-Pin_4)*%
X148500000Y-140200000D03*
%TO.P,CoL_R1,5,Pin_5*%
%TO.N,Net-(CoL_R1-Pin_5)*%
X148500000Y-142200000D03*
%TO.P,CoL_R1,6,Pin_6*%
%TO.N,Net-(CoL_R1-Pin_6)*%
X148500000Y-144200000D03*
%TD*%
D11*
%TO.P,I2C_pinout1,1,Pin_1*%
%TO.N,GND_R1*%
X150750000Y-154000000D03*
D12*
%TO.P,I2C_pinout1,2,Pin_2*%
%TO.N,I2C_VCC*%
X148750000Y-154000000D03*
%TO.P,I2C_pinout1,3,Pin_3*%
%TO.N,I2C_SCL*%
X146750000Y-154000000D03*
%TO.P,I2C_pinout1,4,Pin_4*%
%TO.N,I2C_SDA*%
X144750000Y-154000000D03*
%TD*%
D10*
%TO.P,SW44_L1,1,1*%
%TO.N,Net-(D44_L1-A)*%
X220710000Y-148580000D03*
%TO.P,SW44_L1,2,2*%
%TO.N,col4_Sub_L*%
X234560000Y-146040000D03*
%TD*%
%TO.P,SW20_L1,1,1*%
%TO.N,Net-(D20_L1-A)*%
X253740000Y-58029851D03*
%TO.P,SW20_L1,2,2*%
%TO.N,col2_L*%
X239890000Y-60569851D03*
%TD*%
%TO.P,SW11_L1,1,1*%
%TO.N,Net-(D11_L1-A)*%
X272740000Y-82029851D03*
%TO.P,SW11_L1,2,2*%
%TO.N,col1_L*%
X258890000Y-84569851D03*
%TD*%
%TO.P,SW50_L1,1,1*%
%TO.N,Net-(D50_L1-A)*%
X196740000Y-58029851D03*
%TO.P,SW50_L1,2,2*%
%TO.N,col5_L*%
X182890000Y-60569851D03*
%TD*%
%TO.P,SW04_R1,1,1*%
%TO.N,Net-(D04_R1-A)*%
X105710000Y-148580000D03*
%TO.P,SW04_R1,2,2*%
%TO.N,col0_Sub_R*%
X119560000Y-146040000D03*
%TD*%
%TO.P,SW13_R1,1,1*%
%TO.N,Net-(D13_R1-A)*%
X154840000Y-110029851D03*
%TO.P,SW13_R1,2,2*%
%TO.N,col1_R*%
X140990000Y-112569851D03*
%TD*%
%TO.P,SW41_L1,1,1*%
%TO.N,Net-(D41_L1-A)*%
X215740000Y-72029851D03*
%TO.P,SW41_L1,2,2*%
%TO.N,col4_L*%
X201890000Y-74569851D03*
%TD*%
D19*
%TO.P,LED44_L1,1,VDD*%
%TO.N,VDD_Sub_L*%
X229550000Y-139250000D03*
%TO.P,LED44_L1,2,DOUT*%
%TO.N,Net-(LED44_L1-DOUT)*%
X229550000Y-137750000D03*
D20*
%TO.P,LED44_L1,3,VSS*%
%TO.N,GND_Sub_L*%
X224450000Y-137750000D03*
D19*
%TO.P,LED44_L1,4,DIN*%
%TO.N,LED_Sub_L*%
X224450000Y-139250000D03*
%TD*%
%TO.P,LED32_L1,1,VDD*%
%TO.N,VDD_L*%
X225900000Y-100359851D03*
%TO.P,LED32_L1,2,DOUT*%
%TO.N,Net-(LED32_L1-DOUT)*%
X225900000Y-101859851D03*
D21*
%TO.P,LED32_L1,3,VSS*%
%TO.N,GND_L*%
X231000000Y-101859851D03*
D19*
%TO.P,LED32_L1,4,DIN*%
%TO.N,Net-(LED22_L1-DOUT)*%
X231000000Y-100359851D03*
%TD*%
%TO.P,LED43_R1,1,VDD*%
%TO.N,VDD_R*%
X89000000Y-129359851D03*
%TO.P,LED43_R1,2,DOUT*%
%TO.N,Net-(LED43_R1-DOUT)*%
X89000000Y-130859851D03*
D21*
%TO.P,LED43_R1,3,VSS*%
%TO.N,GND_R*%
X94100000Y-130859851D03*
D19*
%TO.P,LED43_R1,4,DIN*%
%TO.N,Net-(LED33_R1-DOUT)*%
X94100000Y-129359851D03*
%TD*%
%TO.P,LED20_R1,1,VDD*%
%TO.N,VDD_R*%
X127000000Y-62359851D03*
%TO.P,LED20_R1,2,DOUT*%
%TO.N,Net-(LE300_R1-DIN)*%
X127000000Y-63859851D03*
D21*
%TO.P,LED20_R1,3,VSS*%
%TO.N,GND_R*%
X132100000Y-63859851D03*
D19*
%TO.P,LED20_R1,4,DIN*%
%TO.N,Net-(LED10_R1-DOUT)*%
X132100000Y-62359851D03*
%TD*%
D22*
%TO.P,D23_L1,1,K*%
%TO.N,row3_L*%
X241500000Y-113609851D03*
%TO.P,D23_L1,2,A*%
%TO.N,Net-(D23_L1-A)*%
X244900000Y-113609851D03*
%TD*%
D19*
%TO.P,LED52_L1,1,VDD*%
%TO.N,VDD_L*%
X187900000Y-105359851D03*
%TO.P,LED52_L1,2,DOUT*%
%TO.N,Net-(LED03_L1-DIN)*%
X187900000Y-106859851D03*
D21*
%TO.P,LED52_L1,3,VSS*%
%TO.N,GND_L*%
X193000000Y-106859851D03*
D19*
%TO.P,LED52_L1,4,DIN*%
%TO.N,Net-(LED42_L1-DOUT)*%
X193000000Y-105359851D03*
%TD*%
%TO.P,LED03_R1,1,VDD*%
%TO.N,VDD_R*%
X165000000Y-124359851D03*
%TO.P,LED03_R1,2,DOUT*%
%TO.N,Net-(LED03_R1-DOUT)*%
X165000000Y-125859851D03*
D21*
%TO.P,LED03_R1,3,VSS*%
%TO.N,GND_R*%
X170100000Y-125859851D03*
D19*
%TO.P,LED03_R1,4,DIN*%
%TO.N,Net-(LED03_R1-DIN)*%
X170100000Y-124359851D03*
%TD*%
%TO.P,LED31_R1,1,VDD*%
%TO.N,VDD_R*%
X108000000Y-86359851D03*
%TO.P,LED31_R1,2,DOUT*%
%TO.N,Net-(LED31_R1-DOUT)*%
X108000000Y-87859851D03*
D21*
%TO.P,LED31_R1,3,VSS*%
%TO.N,GND_R*%
X113100000Y-87859851D03*
D19*
%TO.P,LED31_R1,4,DIN*%
%TO.N,Net-(LED21_R1-DOUT)*%
X113100000Y-86359851D03*
%TD*%
%TO.P,LED33_L1,1,VDD*%
%TO.N,VDD_L*%
X225900000Y-119359851D03*
%TO.P,LED33_L1,2,DOUT*%
%TO.N,Net-(LED33_L1-DOUT)*%
X225900000Y-120859851D03*
D21*
%TO.P,LED33_L1,3,VSS*%
%TO.N,GND_L*%
X231000000Y-120859851D03*
D19*
%TO.P,LED33_L1,4,DIN*%
%TO.N,Net-(LED23_L1-DOUT)*%
X231000000Y-119359851D03*
%TD*%
%TO.P,LED33_R1,1,VDD*%
%TO.N,VDD_R*%
X108000000Y-124359851D03*
%TO.P,LED33_R1,2,DOUT*%
%TO.N,Net-(LED33_R1-DOUT)*%
X108000000Y-125859851D03*
D21*
%TO.P,LED33_R1,3,VSS*%
%TO.N,GND_R*%
X113100000Y-125859851D03*
D19*
%TO.P,LED33_R1,4,DIN*%
%TO.N,Net-(LED23_R1-DOUT)*%
X113100000Y-124359851D03*
%TD*%
%TO.P,LED51_R1,1,VDD*%
%TO.N,VDD_R*%
X70000000Y-96359851D03*
%TO.P,LED51_R1,2,DOUT*%
%TO.N,Net-(LED02_R1-DIN)*%
X70000000Y-97859851D03*
D21*
%TO.P,LED51_R1,3,VSS*%
%TO.N,GND_R*%
X75100000Y-97859851D03*
D19*
%TO.P,LED51_R1,4,DIN*%
%TO.N,Net-(LED41_R1-DOUT)*%
X75100000Y-96359851D03*
%TD*%
D22*
%TO.P,D11_L1,1,K*%
%TO.N,row1_L*%
X260500000Y-80553306D03*
%TO.P,D11_L1,2,A*%
%TO.N,Net-(D11_L1-A)*%
X263900000Y-80553306D03*
%TD*%
%TO.P,D21_R1,1,K*%
%TO.N,row1_R*%
X123600000Y-70609851D03*
%TO.P,D21_R1,2,A*%
%TO.N,Net-(D21_R1-A)*%
X127000000Y-70609851D03*
%TD*%
D19*
%TO.P,LED22_R1,1,VDD*%
%TO.N,VDD_R*%
X127000000Y-100359851D03*
%TO.P,LED22_R1,2,DOUT*%
%TO.N,Net-(LED22_R1-DOUT)*%
X127000000Y-101859851D03*
D21*
%TO.P,LED22_R1,3,VSS*%
%TO.N,GND_R*%
X132100000Y-101859851D03*
D19*
%TO.P,LED22_R1,4,DIN*%
%TO.N,Net-(LED12_R1-DOUT)*%
X132100000Y-100359851D03*
%TD*%
%TO.P,LED02_L1,1,VDD*%
%TO.N,VDD_L*%
X282900000Y-115359851D03*
%TO.P,LED02_L1,2,DOUT*%
%TO.N,Net-(LED02_L1-DOUT)*%
X282900000Y-116859851D03*
D21*
%TO.P,LED02_L1,3,VSS*%
%TO.N,GND_L*%
X288000000Y-116859851D03*
D19*
%TO.P,LED02_L1,4,DIN*%
%TO.N,Net-(LED02_L1-DIN)*%
X288000000Y-115359851D03*
%TD*%
D22*
%TO.P,D10_L1,1,K*%
%TO.N,row0_L*%
X260500000Y-61609851D03*
%TO.P,D10_L1,2,A*%
%TO.N,Net-(D10_L1-A)*%
X263900000Y-61609851D03*
%TD*%
D19*
%TO.P,LED43_L1,1,VDD*%
%TO.N,VDD_L*%
X206900000Y-119359851D03*
%TO.P,LED43_L1,2,DOUT*%
%TO.N,Net-(LED43_L1-DOUT)*%
X206900000Y-120859851D03*
D21*
%TO.P,LED43_L1,3,VSS*%
%TO.N,GND_L*%
X212000000Y-120859851D03*
D19*
%TO.P,LED43_L1,4,DIN*%
%TO.N,Net-(LED33_L1-DOUT)*%
X212000000Y-119359851D03*
%TD*%
D22*
%TO.P,D03_L1,1,K*%
%TO.N,row3_L*%
X279500000Y-123609851D03*
%TO.P,D03_L1,2,A*%
%TO.N,Net-(D03_L1-A)*%
X282900000Y-123609851D03*
%TD*%
%TO.P,D00_R1,1,K*%
%TO.N,row0_R*%
X161600000Y-56609851D03*
%TO.P,D00_R1,2,A*%
%TO.N,Net-(D00_R1-A)*%
X165000000Y-56609851D03*
%TD*%
%TO.P,D53_R1,1,K*%
%TO.N,row3_R*%
X66600000Y-123609851D03*
%TO.P,D53_R1,2,A*%
%TO.N,Net-(D53_R1-A)*%
X70000000Y-123609851D03*
%TD*%
%TO.P,D53_L1,1,K*%
%TO.N,row3_L*%
X184500000Y-113609851D03*
%TO.P,D53_L1,2,A*%
%TO.N,Net-(D53_L1-A)*%
X187900000Y-113609851D03*
%TD*%
D19*
%TO.P,LED00_R1,1,VDD*%
%TO.N,VDD_R*%
X165000000Y-67359851D03*
%TO.P,LED00_R1,2,DOUT*%
%TO.N,Net-(LED00_R1-DOUT)*%
X165000000Y-68859851D03*
D21*
%TO.P,LED00_R1,3,VSS*%
%TO.N,GND_R*%
X170100000Y-68859851D03*
D19*
%TO.P,LED00_R1,4,DIN*%
%TO.N,LED_R*%
X170100000Y-67359851D03*
%TD*%
%TO.P,LED21_R1,1,VDD*%
%TO.N,VDD_R*%
X127000000Y-81359851D03*
%TO.P,LED21_R1,2,DOUT*%
%TO.N,Net-(LED21_R1-DOUT)*%
X127000000Y-82859851D03*
D21*
%TO.P,LED21_R1,3,VSS*%
%TO.N,GND_R*%
X132100000Y-82859851D03*
D19*
%TO.P,LED21_R1,4,DIN*%
%TO.N,Net-(LED11_R1-DOUT)*%
X132100000Y-81359851D03*
%TD*%
D22*
%TO.P,D42_R1,1,K*%
%TO.N,row2_R*%
X85600000Y-99609851D03*
%TO.P,D42_R1,2,A*%
%TO.N,Net-(D42_R1-A)*%
X89000000Y-99609851D03*
%TD*%
%TO.P,D44_L1,1,K*%
%TO.N,row4_Sub_L*%
X232950000Y-150000000D03*
%TO.P,D44_L1,2,A*%
%TO.N,Net-(D44_L1-A)*%
X229550000Y-150000000D03*
%TD*%
D19*
%TO.P,LED40_R1,1,VDD*%
%TO.N,VDD_R*%
X89000000Y-72359851D03*
%TO.P,LED40_R1,2,DOUT*%
%TO.N,Net-(LED40_R1-DOUT)*%
X89000000Y-73859851D03*
D21*
%TO.P,LED40_R1,3,VSS*%
%TO.N,GND_R*%
X94100000Y-73859851D03*
D19*
%TO.P,LED40_R1,4,DIN*%
%TO.N,Net-(LE300_R1-DOUT)*%
X94100000Y-72359851D03*
%TD*%
D22*
%TO.P,D01_L1,1,K*%
%TO.N,row1_L*%
X279500000Y-85553306D03*
%TO.P,D01_L1,2,A*%
%TO.N,Net-(D01_L1-A)*%
X282900000Y-85553306D03*
%TD*%
%TO.P,D04_R1,1,K*%
%TO.N,row4_Sub_R*%
X117950000Y-150000000D03*
%TO.P,D04_R1,2,A*%
%TO.N,Net-(D04_R1-A)*%
X114550000Y-150000000D03*
%TD*%
%TO.P,D33_L1,1,K*%
%TO.N,row3_L*%
X222500000Y-108609851D03*
%TO.P,D33_L1,2,A*%
%TO.N,Net-(D33_L1-A)*%
X225900000Y-108609851D03*
%TD*%
%TO.P,D01_R1,1,K*%
%TO.N,row1_R*%
X161600000Y-75609851D03*
%TO.P,D01_R1,2,A*%
%TO.N,Net-(D01_R1-A)*%
X165000000Y-75609851D03*
%TD*%
D19*
%TO.P,LED01_R1,1,VDD*%
%TO.N,VDD_R*%
X165000000Y-86359851D03*
%TO.P,LED01_R1,2,DOUT*%
%TO.N,Net-(LED01_R1-DOUT)*%
X165000000Y-87859851D03*
D21*
%TO.P,LED01_R1,3,VSS*%
%TO.N,GND_R*%
X170100000Y-87859851D03*
D19*
%TO.P,LED01_R1,4,DIN*%
%TO.N,Net-(LED01_R1-DIN)*%
X170100000Y-86359851D03*
%TD*%
D22*
%TO.P,D50_L1,1,K*%
%TO.N,row0_L*%
X184500000Y-56609851D03*
%TO.P,D50_L1,2,A*%
%TO.N,Net-(D50_L1-A)*%
X187900000Y-56609851D03*
%TD*%
D19*
%TO.P,LED02_R1,1,VDD*%
%TO.N,VDD_R*%
X165000000Y-105359851D03*
%TO.P,LED02_R1,2,DOUT*%
%TO.N,Net-(LED02_R1-DOUT)*%
X165000000Y-106859851D03*
D21*
%TO.P,LED02_R1,3,VSS*%
%TO.N,GND_R*%
X170100000Y-106859851D03*
D19*
%TO.P,LED02_R1,4,DIN*%
%TO.N,Net-(LED02_R1-DIN)*%
X170100000Y-105359851D03*
%TD*%
D22*
%TO.P,D43_L1,1,K*%
%TO.N,row3_L*%
X203500000Y-108609851D03*
%TO.P,D43_L1,2,A*%
%TO.N,Net-(D43_L1-A)*%
X206900000Y-108609851D03*
%TD*%
%TO.P,D41_R1,1,K*%
%TO.N,row1_R*%
X85600000Y-80609851D03*
%TO.P,D41_R1,2,A*%
%TO.N,Net-(D41_R1-A)*%
X89000000Y-80609851D03*
%TD*%
%TO.P,D20_L1,1,K*%
%TO.N,row0_L*%
X241500000Y-56609851D03*
%TO.P,D20_L1,2,A*%
%TO.N,Net-(D20_L1-A)*%
X244900000Y-56609851D03*
%TD*%
D19*
%TO.P,LED11_L1,1,VDD*%
%TO.N,VDD_L*%
X263900000Y-91359851D03*
%TO.P,LED11_L1,2,DOUT*%
%TO.N,Net-(LED11_L1-DOUT)*%
X263900000Y-92859851D03*
D21*
%TO.P,LED11_L1,3,VSS*%
%TO.N,GND_L*%
X269000000Y-92859851D03*
D19*
%TO.P,LED11_L1,4,DIN*%
%TO.N,Net-(LED01_L1-DOUT)*%
X269000000Y-91359851D03*
%TD*%
D22*
%TO.P,D22_L1,1,K*%
%TO.N,row2_L*%
X241500000Y-94609851D03*
%TO.P,D22_L1,2,A*%
%TO.N,Net-(D22_L1-A)*%
X244900000Y-94609851D03*
%TD*%
D19*
%TO.P,LED23_R1,1,VDD*%
%TO.N,VDD_R*%
X127000000Y-119359851D03*
%TO.P,LED23_R1,2,DOUT*%
%TO.N,Net-(LED23_R1-DOUT)*%
X127000000Y-120859851D03*
D21*
%TO.P,LED23_R1,3,VSS*%
%TO.N,GND_R*%
X132100000Y-120859851D03*
D19*
%TO.P,LED23_R1,4,DIN*%
%TO.N,Net-(LED13_R1-DOUT)*%
X132100000Y-119359851D03*
%TD*%
D22*
%TO.P,D02_R1,1,K*%
%TO.N,row2_R*%
X161600000Y-94609851D03*
%TO.P,D02_R1,2,A*%
%TO.N,Net-(D02_R1-A)*%
X165000000Y-94609851D03*
%TD*%
D19*
%TO.P,LE300_R1,1,VDD*%
%TO.N,VDD_R*%
X108000000Y-67359851D03*
%TO.P,LE300_R1,2,DOUT*%
%TO.N,Net-(LE300_R1-DOUT)*%
X108000000Y-68859851D03*
D21*
%TO.P,LE300_R1,3,VSS*%
%TO.N,GND_R*%
X113100000Y-68859851D03*
D19*
%TO.P,LE300_R1,4,DIN*%
%TO.N,Net-(LE300_R1-DIN)*%
X113100000Y-67359851D03*
%TD*%
%TO.P,LED41_L1,1,VDD*%
%TO.N,VDD_L*%
X206900000Y-81359851D03*
%TO.P,LED41_L1,2,DOUT*%
%TO.N,Net-(LED41_L1-DOUT)*%
X206900000Y-82859851D03*
D21*
%TO.P,LED41_L1,3,VSS*%
%TO.N,GND_L*%
X212000000Y-82859851D03*
D19*
%TO.P,LED41_L1,4,DIN*%
%TO.N,Net-(LED31_L1-DOUT)*%
X212000000Y-81359851D03*
%TD*%
D22*
%TO.P,D11_R1,1,K*%
%TO.N,row1_R*%
X142600000Y-70609851D03*
%TO.P,D11_R1,2,A*%
%TO.N,Net-(D11_R1-A)*%
X146000000Y-70609851D03*
%TD*%
%TO.P,D10_R1,1,K*%
%TO.N,row0_R*%
X142600000Y-51609851D03*
%TO.P,D10_R1,2,A*%
%TO.N,Net-(D10_R1-A)*%
X146000000Y-51609851D03*
%TD*%
D19*
%TO.P,LED03_L1,1,VDD*%
%TO.N,VDD_L*%
X282900000Y-134359851D03*
%TO.P,LED03_L1,2,DOUT*%
%TO.N,Net-(LED03_L1-DOUT)*%
X282900000Y-135859851D03*
D21*
%TO.P,LED03_L1,3,VSS*%
%TO.N,GND_L*%
X288000000Y-135859851D03*
D19*
%TO.P,LED03_L1,4,DIN*%
%TO.N,Net-(LED03_L1-DIN)*%
X288000000Y-134359851D03*
%TD*%
D22*
%TO.P,D50_R1,1,K*%
%TO.N,row0_R*%
X66600000Y-66609851D03*
%TO.P,D50_R1,2,A*%
%TO.N,Net-(D50_R1-A)*%
X70000000Y-66609851D03*
%TD*%
%TO.P,D00_L1,1,K*%
%TO.N,row0_L*%
X279500000Y-66609851D03*
%TO.P,D00_L1,2,A*%
%TO.N,Net-(D00_L1-A)*%
X282900000Y-66609851D03*
%TD*%
D19*
%TO.P,LED10_R1,1,VDD*%
%TO.N,VDD_R*%
X146000000Y-62359851D03*
%TO.P,LED10_R1,2,DOUT*%
%TO.N,Net-(LED10_R1-DOUT)*%
X146000000Y-63859851D03*
D21*
%TO.P,LED10_R1,3,VSS*%
%TO.N,GND_R*%
X151100000Y-63859851D03*
D19*
%TO.P,LED10_R1,4,DIN*%
%TO.N,Net-(LED00_R1-DOUT)*%
X151100000Y-62359851D03*
%TD*%
%TO.P,LED50_L1,1,VDD*%
%TO.N,VDD_L*%
X187900000Y-67359851D03*
%TO.P,LED50_L1,2,DOUT*%
%TO.N,Net-(LED01_L1-DIN)*%
X187900000Y-68859851D03*
D21*
%TO.P,LED50_L1,3,VSS*%
%TO.N,GND_L*%
X193000000Y-68859851D03*
D19*
%TO.P,LED50_L1,4,DIN*%
%TO.N,Net-(LED40_L1-DOUT)*%
X193000000Y-67359851D03*
%TD*%
%TO.P,LED50_R1,1,VDD*%
%TO.N,VDD_R*%
X70000000Y-77359851D03*
%TO.P,LED50_R1,2,DOUT*%
%TO.N,Net-(LED01_R1-DIN)*%
X70000000Y-78859851D03*
D21*
%TO.P,LED50_R1,3,VSS*%
%TO.N,GND_R*%
X75100000Y-78859851D03*
D19*
%TO.P,LED50_R1,4,DIN*%
%TO.N,Net-(LED40_R1-DOUT)*%
X75100000Y-77359851D03*
%TD*%
%TO.P,LED10_L1,1,VDD*%
%TO.N,VDD_L*%
X263900000Y-72359851D03*
%TO.P,LED10_L1,2,DOUT*%
%TO.N,Net-(LED10_L1-DOUT)*%
X263900000Y-73859851D03*
D21*
%TO.P,LED10_L1,3,VSS*%
%TO.N,GND_L*%
X269000000Y-73859851D03*
D19*
%TO.P,LED10_L1,4,DIN*%
%TO.N,Net-(LED00_L1-DOUT)*%
X269000000Y-72359851D03*
%TD*%
D22*
%TO.P,D40_L1,1,K*%
%TO.N,row0_L*%
X203500000Y-51609851D03*
%TO.P,D40_L1,2,A*%
%TO.N,Net-(D40_L1-A)*%
X206900000Y-51609851D03*
%TD*%
%TO.P,D31_R1,1,K*%
%TO.N,row1_R*%
X104600000Y-75609851D03*
%TO.P,D31_R1,2,A*%
%TO.N,Net-(D31_R1-A)*%
X108000000Y-75609851D03*
%TD*%
%TO.P,D32_R1,1,K*%
%TO.N,row2_R*%
X104600000Y-94609851D03*
%TO.P,D32_R1,2,A*%
%TO.N,Net-(D32_R1-A)*%
X108000000Y-94609851D03*
%TD*%
%TO.P,D20_R1,1,K*%
%TO.N,row0_R*%
X123600000Y-51609851D03*
%TO.P,D20_R1,2,A*%
%TO.N,Net-(D20_R1-A)*%
X127000000Y-51609851D03*
%TD*%
%TO.P,D30_L1,1,K*%
%TO.N,row0_L*%
X222500000Y-51609851D03*
%TO.P,D30_L1,2,A*%
%TO.N,Net-(D30_L1-A)*%
X225900000Y-51609851D03*
%TD*%
D19*
%TO.P,LED13_L1,1,VDD*%
%TO.N,VDD_L*%
X263900000Y-129359851D03*
%TO.P,LED13_L1,2,DOUT*%
%TO.N,Net-(LED13_L1-DOUT)*%
X263900000Y-130859851D03*
D21*
%TO.P,LED13_L1,3,VSS*%
%TO.N,GND_L*%
X269000000Y-130859851D03*
D19*
%TO.P,LED13_L1,4,DIN*%
%TO.N,Net-(LED03_L1-DOUT)*%
X269000000Y-129359851D03*
%TD*%
%TO.P,LED42_L1,1,VDD*%
%TO.N,VDD_L*%
X206900000Y-100359851D03*
%TO.P,LED42_L1,2,DOUT*%
%TO.N,Net-(LED42_L1-DOUT)*%
X206900000Y-101859851D03*
D21*
%TO.P,LED42_L1,3,VSS*%
%TO.N,GND_L*%
X212000000Y-101859851D03*
D19*
%TO.P,LED42_L1,4,DIN*%
%TO.N,Net-(LED32_L1-DOUT)*%
X212000000Y-100359851D03*
%TD*%
%TO.P,LED52_R1,1,VDD*%
%TO.N,VDD_R*%
X70000000Y-115359851D03*
%TO.P,LED52_R1,2,DOUT*%
%TO.N,Net-(LED03_R1-DIN)*%
X70000000Y-116859851D03*
D21*
%TO.P,LED52_R1,3,VSS*%
%TO.N,GND_R*%
X75100000Y-116859851D03*
D19*
%TO.P,LED52_R1,4,DIN*%
%TO.N,Net-(LED42_R1-DOUT)*%
X75100000Y-115359851D03*
%TD*%
%TO.P,LED11_R1,1,VDD*%
%TO.N,VDD_R*%
X146000000Y-81359851D03*
%TO.P,LED11_R1,2,DOUT*%
%TO.N,Net-(LED11_R1-DOUT)*%
X146000000Y-82859851D03*
D21*
%TO.P,LED11_R1,3,VSS*%
%TO.N,GND_R*%
X151100000Y-82859851D03*
D19*
%TO.P,LED11_R1,4,DIN*%
%TO.N,Net-(LED01_R1-DOUT)*%
X151100000Y-81359851D03*
%TD*%
D22*
%TO.P,D22_R1,1,K*%
%TO.N,row2_R*%
X123600000Y-89609851D03*
%TO.P,D22_R1,2,A*%
%TO.N,Net-(D22_R1-A)*%
X127000000Y-89609851D03*
%TD*%
D19*
%TO.P,LED53_R1,1,VDD*%
%TO.N,VDD_R*%
X70000000Y-134359851D03*
%TO.P,LED53_R1,2,DOUT*%
%TO.N,LED_Main_R*%
X70000000Y-135859851D03*
D21*
%TO.P,LED53_R1,3,VSS*%
%TO.N,GND_R*%
X75100000Y-135859851D03*
D19*
%TO.P,LED53_R1,4,DIN*%
%TO.N,Net-(LED43_R1-DOUT)*%
X75100000Y-134359851D03*
%TD*%
%TO.P,LED31_L1,1,VDD*%
%TO.N,VDD_L*%
X225900000Y-81359851D03*
%TO.P,LED31_L1,2,DOUT*%
%TO.N,Net-(LED31_L1-DOUT)*%
X225900000Y-82859851D03*
D21*
%TO.P,LED31_L1,3,VSS*%
%TO.N,GND_L*%
X231000000Y-82859851D03*
D19*
%TO.P,LED31_L1,4,DIN*%
%TO.N,Net-(LED21_L1-DOUT)*%
X231000000Y-81359851D03*
%TD*%
D22*
%TO.P,D33_R1,1,K*%
%TO.N,row3_R*%
X104600000Y-113609851D03*
%TO.P,D33_R1,2,A*%
%TO.N,Net-(D33_R1-A)*%
X108000000Y-113609851D03*
%TD*%
D19*
%TO.P,LED23_L1,1,VDD*%
%TO.N,VDD_L*%
X244900000Y-124359851D03*
%TO.P,LED23_L1,2,DOUT*%
%TO.N,Net-(LED23_L1-DOUT)*%
X244900000Y-125859851D03*
D21*
%TO.P,LED23_L1,3,VSS*%
%TO.N,GND_L*%
X250000000Y-125859851D03*
D19*
%TO.P,LED23_L1,4,DIN*%
%TO.N,Net-(LED13_L1-DOUT)*%
X250000000Y-124359851D03*
%TD*%
D22*
%TO.P,D02_L1,1,K*%
%TO.N,row2_L*%
X279500000Y-104609851D03*
%TO.P,D02_L1,2,A*%
%TO.N,Net-(D02_L1-A)*%
X282900000Y-104609851D03*
%TD*%
%TO.P,D32_L1,1,K*%
%TO.N,row2_L*%
X222500000Y-89609851D03*
%TO.P,D32_L1,2,A*%
%TO.N,Net-(D32_L1-A)*%
X225900000Y-89609851D03*
%TD*%
D19*
%TO.P,LED21_L1,1,VDD*%
%TO.N,VDD_L*%
X244900000Y-86359851D03*
%TO.P,LED21_L1,2,DOUT*%
%TO.N,Net-(LED21_L1-DOUT)*%
X244900000Y-87859851D03*
D21*
%TO.P,LED21_L1,3,VSS*%
%TO.N,GND_L*%
X250000000Y-87859851D03*
D19*
%TO.P,LED21_L1,4,DIN*%
%TO.N,Net-(LED11_L1-DOUT)*%
X250000000Y-86359851D03*
%TD*%
D22*
%TO.P,D41_L1,1,K*%
%TO.N,row1_L*%
X203500000Y-70609851D03*
%TO.P,D41_L1,2,A*%
%TO.N,Net-(D41_L1-A)*%
X206900000Y-70609851D03*
%TD*%
%TO.P,D51_R1,1,K*%
%TO.N,row1_R*%
X66600000Y-85609851D03*
%TO.P,D51_R1,2,A*%
%TO.N,Net-(D51_R1-A)*%
X70000000Y-85609851D03*
%TD*%
%TO.P,D23_R1,1,K*%
%TO.N,row3_R*%
X123600000Y-108609851D03*
%TO.P,D23_R1,2,A*%
%TO.N,Net-(D23_R1-A)*%
X127000000Y-108609851D03*
%TD*%
%TO.P,D31_L1,1,K*%
%TO.N,row1_L*%
X222500000Y-70609851D03*
%TO.P,D31_L1,2,A*%
%TO.N,Net-(D31_L1-A)*%
X225900000Y-70609851D03*
%TD*%
%TO.P,D13_R1,1,K*%
%TO.N,row3_R*%
X142600000Y-108609851D03*
%TO.P,D13_R1,2,A*%
%TO.N,Net-(D13_R1-A)*%
X146000000Y-108609851D03*
%TD*%
%TO.P,D40_R1,1,K*%
%TO.N,row0_R*%
X85600000Y-61609851D03*
%TO.P,D40_R1,2,A*%
%TO.N,Net-(D40_R1-A)*%
X89000000Y-61609851D03*
%TD*%
%TO.P,D52_R1,1,K*%
%TO.N,row2_R*%
X66600000Y-104609851D03*
%TO.P,D52_R1,2,A*%
%TO.N,Net-(D52_R1-A)*%
X70000000Y-104609851D03*
%TD*%
D19*
%TO.P,LED13_R1,1,VDD*%
%TO.N,VDD_R*%
X146000000Y-119359851D03*
%TO.P,LED13_R1,2,DOUT*%
%TO.N,Net-(LED13_R1-DOUT)*%
X146000000Y-120859851D03*
D21*
%TO.P,LED13_R1,3,VSS*%
%TO.N,GND_R*%
X151100000Y-120859851D03*
D19*
%TO.P,LED13_R1,4,DIN*%
%TO.N,Net-(LED03_R1-DOUT)*%
X151100000Y-119359851D03*
%TD*%
%TO.P,LED14_R1,1,VDD*%
%TO.N,VDD_Sub_R*%
X133550000Y-139250000D03*
%TO.P,LED14_R1,2,DOUT*%
%TO.N,unconnected-(LED14_R1-DOUT-Pad2)*%
X133550000Y-137750000D03*
D20*
%TO.P,LED14_R1,3,VSS*%
%TO.N,GND_Sub_R*%
X128450000Y-137750000D03*
D19*
%TO.P,LED14_R1,4,DIN*%
%TO.N,Net-(LED04_R1-DOUT)*%
X128450000Y-139250000D03*
%TD*%
D22*
%TO.P,D54_L1,1,K*%
%TO.N,row4_Sub_L*%
X251900000Y-150000000D03*
%TO.P,D54_L1,2,A*%
%TO.N,Net-(D54_L1-A)*%
X248500000Y-150000000D03*
%TD*%
D19*
%TO.P,LED41_R1,1,VDD*%
%TO.N,VDD_R*%
X89000000Y-91359851D03*
%TO.P,LED41_R1,2,DOUT*%
%TO.N,Net-(LED41_R1-DOUT)*%
X89000000Y-92859851D03*
D21*
%TO.P,LED41_R1,3,VSS*%
%TO.N,GND_R*%
X94100000Y-92859851D03*
D19*
%TO.P,LED41_R1,4,DIN*%
%TO.N,Net-(LED31_R1-DOUT)*%
X94100000Y-91359851D03*
%TD*%
D22*
%TO.P,D12_L1,1,K*%
%TO.N,row2_L*%
X260500000Y-99609851D03*
%TO.P,D12_L1,2,A*%
%TO.N,Net-(D12_L1-A)*%
X263900000Y-99609851D03*
%TD*%
%TO.P,D21_L1,1,K*%
%TO.N,row1_L*%
X241500000Y-75553306D03*
%TO.P,D21_L1,2,A*%
%TO.N,Net-(D21_L1-A)*%
X244900000Y-75553306D03*
%TD*%
D19*
%TO.P,LED04_R1,1,VDD*%
%TO.N,VDD_Sub_R*%
X114550000Y-139250000D03*
%TO.P,LED04_R1,2,DOUT*%
%TO.N,Net-(LED04_R1-DOUT)*%
X114550000Y-137750000D03*
D20*
%TO.P,LED04_R1,3,VSS*%
%TO.N,GND_Sub_R*%
X109450000Y-137750000D03*
D19*
%TO.P,LED04_R1,4,DIN*%
%TO.N,LED_Sub_R*%
X109450000Y-139250000D03*
%TD*%
D22*
%TO.P,D12_R1,1,K*%
%TO.N,row2_R*%
X142600000Y-89609851D03*
%TO.P,D12_R1,2,A*%
%TO.N,Net-(D12_R1-A)*%
X146000000Y-89609851D03*
%TD*%
%TO.P,D43_R1,1,K*%
%TO.N,row3_R*%
X85600000Y-118609851D03*
%TO.P,D43_R1,2,A*%
%TO.N,Net-(D43_R1-A)*%
X89000000Y-118609851D03*
%TD*%
D19*
%TO.P,LED00_L1,1,VDD*%
%TO.N,VDD_L*%
X282900000Y-77359851D03*
%TO.P,LED00_L1,2,DOUT*%
%TO.N,Net-(LED00_L1-DOUT)*%
X282900000Y-78859851D03*
D21*
%TO.P,LED00_L1,3,VSS*%
%TO.N,GND_L*%
X288000000Y-78859851D03*
D19*
%TO.P,LED00_L1,4,DIN*%
%TO.N,LED_L*%
X288000000Y-77359851D03*
%TD*%
%TO.P,LED30_L1,1,VDD*%
%TO.N,VDD_L*%
X225900000Y-62359851D03*
%TO.P,LED30_L1,2,DOUT*%
%TO.N,Net-(LED30_L1-DOUT)*%
X225900000Y-63859851D03*
D21*
%TO.P,LED30_L1,3,VSS*%
%TO.N,GND_L*%
X231000000Y-63859851D03*
D19*
%TO.P,LED30_L1,4,DIN*%
%TO.N,Net-(LED20_L1-DOUT)*%
X231000000Y-62359851D03*
%TD*%
%TO.P,LED32_R1,1,VDD*%
%TO.N,VDD_R*%
X108000000Y-105359851D03*
%TO.P,LED32_R1,2,DOUT*%
%TO.N,Net-(LED32_R1-DOUT)*%
X108000000Y-106859851D03*
D21*
%TO.P,LED32_R1,3,VSS*%
%TO.N,GND_R*%
X113100000Y-106859851D03*
D19*
%TO.P,LED32_R1,4,DIN*%
%TO.N,Net-(LED22_R1-DOUT)*%
X113100000Y-105359851D03*
%TD*%
%TO.P,LED12_R1,1,VDD*%
%TO.N,VDD_R*%
X146000000Y-100359851D03*
%TO.P,LED12_R1,2,DOUT*%
%TO.N,Net-(LED12_R1-DOUT)*%
X146000000Y-101859851D03*
D21*
%TO.P,LED12_R1,3,VSS*%
%TO.N,GND_R*%
X151100000Y-101859851D03*
D19*
%TO.P,LED12_R1,4,DIN*%
%TO.N,Net-(LED02_R1-DOUT)*%
X151100000Y-100359851D03*
%TD*%
%TO.P,LED42_R1,1,VDD*%
%TO.N,VDD_R*%
X89000000Y-110359851D03*
%TO.P,LED42_R1,2,DOUT*%
%TO.N,Net-(LED42_R1-DOUT)*%
X89000000Y-111859851D03*
D21*
%TO.P,LED42_R1,3,VSS*%
%TO.N,GND_R*%
X94100000Y-111859851D03*
D19*
%TO.P,LED42_R1,4,DIN*%
%TO.N,Net-(LED32_R1-DOUT)*%
X94100000Y-110359851D03*
%TD*%
%TO.P,LED51_L1,1,VDD*%
%TO.N,VDD_L*%
X187900000Y-86359851D03*
%TO.P,LED51_L1,2,DOUT*%
%TO.N,Net-(LED02_L1-DIN)*%
X187900000Y-87859851D03*
D21*
%TO.P,LED51_L1,3,VSS*%
%TO.N,GND_L*%
X193000000Y-87859851D03*
D19*
%TO.P,LED51_L1,4,DIN*%
%TO.N,Net-(LED41_L1-DOUT)*%
X193000000Y-86359851D03*
%TD*%
D22*
%TO.P,D30_R1,1,K*%
%TO.N,row0_R*%
X104600000Y-56609851D03*
%TO.P,D30_R1,2,A*%
%TO.N,Net-(D30_R1-A)*%
X108000000Y-56609851D03*
%TD*%
%TO.P,D14_R1,1,K*%
%TO.N,row4_Sub_R*%
X136900000Y-150000000D03*
%TO.P,D14_R1,2,A*%
%TO.N,Net-(D14_R1-A)*%
X133500000Y-150000000D03*
%TD*%
D19*
%TO.P,LED54_L1,1,VDD*%
%TO.N,VDD_Sub_L*%
X248550000Y-139250000D03*
%TO.P,LED54_L1,2,DOUT*%
%TO.N,unconnected-(LED54_L1-DOUT-Pad2)*%
X248550000Y-137750000D03*
D20*
%TO.P,LED54_L1,3,VSS*%
%TO.N,GND_Sub_L*%
X243450000Y-137750000D03*
D19*
%TO.P,LED54_L1,4,DIN*%
%TO.N,Net-(LED44_L1-DOUT)*%
X243450000Y-139250000D03*
%TD*%
%TO.P,LED53_L1,1,VDD*%
%TO.N,VDD_L*%
X187900000Y-124359851D03*
%TO.P,LED53_L1,2,DOUT*%
%TO.N,LED_Main_L*%
X187900000Y-125859851D03*
D21*
%TO.P,LED53_L1,3,VSS*%
%TO.N,GND_L*%
X193000000Y-125859851D03*
D19*
%TO.P,LED53_L1,4,DIN*%
%TO.N,Net-(LED43_L1-DOUT)*%
X193000000Y-124359851D03*
%TD*%
%TO.P,LED40_L1,1,VDD*%
%TO.N,VDD_L*%
X206900000Y-62359851D03*
%TO.P,LED40_L1,2,DOUT*%
%TO.N,Net-(LED40_L1-DOUT)*%
X206900000Y-63859851D03*
D21*
%TO.P,LED40_L1,3,VSS*%
%TO.N,GND_L*%
X212000000Y-63859851D03*
D19*
%TO.P,LED40_L1,4,DIN*%
%TO.N,Net-(LED30_L1-DOUT)*%
X212000000Y-62359851D03*
%TD*%
%TO.P,LED12_L1,1,VDD*%
%TO.N,VDD_L*%
X263900000Y-110359851D03*
%TO.P,LED12_L1,2,DOUT*%
%TO.N,Net-(LED12_L1-DOUT)*%
X263900000Y-111859851D03*
D21*
%TO.P,LED12_L1,3,VSS*%
%TO.N,GND_L*%
X269000000Y-111859851D03*
D19*
%TO.P,LED12_L1,4,DIN*%
%TO.N,Net-(LED02_L1-DOUT)*%
X269000000Y-110359851D03*
%TD*%
D22*
%TO.P,D51_L1,1,K*%
%TO.N,row1_L*%
X184500000Y-75609851D03*
%TO.P,D51_L1,2,A*%
%TO.N,Net-(D51_L1-A)*%
X187900000Y-75609851D03*
%TD*%
D19*
%TO.P,LED01_L1,1,VDD*%
%TO.N,VDD_L*%
X282900000Y-96359851D03*
%TO.P,LED01_L1,2,DOUT*%
%TO.N,Net-(LED01_L1-DOUT)*%
X282900000Y-97859851D03*
D21*
%TO.P,LED01_L1,3,VSS*%
%TO.N,GND_L*%
X288000000Y-97859851D03*
D19*
%TO.P,LED01_L1,4,DIN*%
%TO.N,Net-(LED01_L1-DIN)*%
X288000000Y-96359851D03*
%TD*%
%TO.P,LED20_L1,1,VDD*%
%TO.N,VDD_L*%
X244900000Y-67359851D03*
%TO.P,LED20_L1,2,DOUT*%
%TO.N,Net-(LED20_L1-DOUT)*%
X244900000Y-68859851D03*
D21*
%TO.P,LED20_L1,3,VSS*%
%TO.N,GND_L*%
X250000000Y-68859851D03*
D19*
%TO.P,LED20_L1,4,DIN*%
%TO.N,Net-(LED10_L1-DOUT)*%
X250000000Y-67359851D03*
%TD*%
%TO.P,LED22_L1,1,VDD*%
%TO.N,VDD_L*%
X244900000Y-105359851D03*
%TO.P,LED22_L1,2,DOUT*%
%TO.N,Net-(LED22_L1-DOUT)*%
X244900000Y-106859851D03*
D21*
%TO.P,LED22_L1,3,VSS*%
%TO.N,GND_L*%
X250000000Y-106859851D03*
D19*
%TO.P,LED22_L1,4,DIN*%
%TO.N,Net-(LED12_L1-DOUT)*%
X250000000Y-105359851D03*
%TD*%
D22*
%TO.P,D42_L1,1,K*%
%TO.N,row2_L*%
X203500000Y-89609851D03*
%TO.P,D42_L1,2,A*%
%TO.N,Net-(D42_L1-A)*%
X206900000Y-89609851D03*
%TD*%
%TO.P,D03_R1,1,K*%
%TO.N,row3_R*%
X161600000Y-113609851D03*
%TO.P,D03_R1,2,A*%
%TO.N,Net-(D03_R1-A)*%
X165000000Y-113609851D03*
%TD*%
%TO.P,D52_L1,1,K*%
%TO.N,row2_L*%
X184500000Y-94609851D03*
%TO.P,D52_L1,2,A*%
%TO.N,Net-(D52_L1-A)*%
X187900000Y-94609851D03*
%TD*%
%TO.P,D13_L1,1,K*%
%TO.N,row3_L*%
X260500000Y-118609851D03*
%TO.P,D13_L1,2,A*%
%TO.N,Net-(D13_L1-A)*%
X263900000Y-118609851D03*
%TD*%
D23*
%TO.N,row0_L*%
X233377673Y-50648281D03*
%TO.N,row1_L*%
X233364696Y-69635304D03*
%TO.N,row2_L*%
X233364696Y-88635304D03*
%TO.N,row3_L*%
X233364696Y-107635304D03*
%TO.N,Net-(LED01_R1-DIN)*%
X152245074Y-65654926D03*
X156783883Y-79250000D03*
%TO.N,Net-(LED02_R1-DIN)*%
X156783883Y-98250000D03*
X152000000Y-84500000D03*
%TO.N,Net-(LED03_R1-DIN)*%
X152000000Y-103500000D03*
X156783883Y-117250000D03*
%TO.N,Net-(LED01_L1-DIN)*%
X269850000Y-75704926D03*
X274683883Y-89250000D03*
%TO.N,Net-(LED02_L1-DIN)*%
X274683883Y-108250000D03*
X269754926Y-94700000D03*
%TO.N,Net-(LED03_L1-DIN)*%
X269750000Y-113604926D03*
X274000000Y-127275500D03*
%TO.N,LED_Sub_L*%
X236300500Y-140500000D03*
%TO.N,LED_Main_L*%
X212500000Y-122600000D03*
%TO.N,col0_L*%
X278500000Y-111039851D03*
X278500000Y-73039851D03*
X278500000Y-92039851D03*
X278500000Y-130039851D03*
%TO.N,col1_L*%
X259500000Y-106039851D03*
X259500000Y-87039851D03*
X259500000Y-68039851D03*
X259500000Y-125039851D03*
%TO.N,GND_L*%
X217200000Y-101859851D03*
X217200000Y-120859851D03*
X217200000Y-63859851D03*
X217200000Y-82859851D03*
%TO.N,GND_R*%
X154300000Y-120859851D03*
X99110304Y-70310304D03*
X99200000Y-89100000D03*
X99200000Y-108100000D03*
X140300000Y-120000000D03*
X99225000Y-127175000D03*
%TO.N,col2_L*%
X240500000Y-101039851D03*
X240500000Y-120039851D03*
X240500000Y-63039851D03*
X240500000Y-82039851D03*
%TO.N,col3_L*%
X221500000Y-115039851D03*
X221500000Y-96039851D03*
X221500000Y-77039851D03*
X221500000Y-58039851D03*
%TO.N,col4_L*%
X202500000Y-58039851D03*
X202500000Y-77039851D03*
X202500000Y-115039851D03*
X202500000Y-96039851D03*
%TO.N,col5_L*%
X183500000Y-101039851D03*
X183500000Y-82039851D03*
X183500000Y-120039851D03*
X183500000Y-63039851D03*
%TO.N,LED_L*%
X275400000Y-132109851D03*
X277500000Y-81250000D03*
%TO.N,row0_R*%
X115364697Y-55635305D03*
%TO.N,row1_R*%
X115364696Y-74635304D03*
%TO.N,row2_R*%
X115377673Y-93648281D03*
%TO.N,row3_R*%
X115377673Y-112648281D03*
%TO.N,LED_R*%
X156000000Y-124000000D03*
X159900000Y-70800000D03*
%TO.N,LED_Sub_R*%
X121750000Y-140500000D03*
%TO.N,LED_Main_R*%
X152300000Y-122600000D03*
%TO.N,col1_R*%
X141600000Y-58039851D03*
X141600000Y-77039851D03*
X141600000Y-115039851D03*
X141600000Y-96039851D03*
%TO.N,col0_R*%
X160650000Y-120450000D03*
X160600000Y-101039851D03*
X160600000Y-82039851D03*
X160600000Y-63039851D03*
%TO.N,col2_R*%
X122600000Y-96039851D03*
X122600000Y-115039851D03*
X122600000Y-58039851D03*
X122600000Y-77039851D03*
%TO.N,col3_R*%
X103600000Y-82039851D03*
X103600000Y-101039851D03*
X103600000Y-120039851D03*
X103600000Y-63039851D03*
%TO.N,col4_R*%
X84600000Y-125039851D03*
X84600000Y-68039851D03*
X84600000Y-106039851D03*
X84600000Y-87039851D03*
%TO.N,col5_R*%
X65590000Y-111049851D03*
X65590000Y-130049851D03*
X65590000Y-92049851D03*
X65590000Y-73049851D03*
%TO.N,VDD_R*%
X80100000Y-73400000D03*
X141345075Y-123300500D03*
X102000000Y-128574500D03*
X80668628Y-91359851D03*
X80668628Y-129359851D03*
X80668628Y-110359851D03*
%TO.N,VDD_L*%
X197400000Y-63493125D03*
X197900000Y-100993125D03*
X217899500Y-118000000D03*
X198533274Y-119359851D03*
X198533274Y-81359851D03*
%TO.N,VDD_Sub_R*%
X121000000Y-139750000D03*
%TO.N,GND_Sub_R*%
X122500000Y-138300500D03*
%TO.N,VDD_Sub_L*%
X235500000Y-139750000D03*
%TO.N,GND_Sub_L*%
X237000000Y-138300500D03*
%TD*%
D24*
%TO.N,Net-(D00_R1-A)*%
X171940149Y-56000000D02*
X165799851Y-56000000D01*
X165799851Y-56000000D02*
X165160000Y-56639851D01*
X174000000Y-58059851D02*
X171940149Y-56000000D01*
%TO.N,Net-(D01_R1-A)*%
X165799851Y-75000000D02*
X165160000Y-75639851D01*
X171940149Y-75000000D02*
X165799851Y-75000000D01*
X174000000Y-77059851D02*
X171940149Y-75000000D01*
%TO.N,Net-(D02_R1-A)*%
X165799851Y-94000000D02*
X165160000Y-94639851D01*
X171940149Y-94000000D02*
X165799851Y-94000000D01*
X174000000Y-96059851D02*
X171940149Y-94000000D01*
%TO.N,Net-(D03_R1-A)*%
X174000000Y-115059851D02*
X171940149Y-113000000D01*
X171940149Y-113000000D02*
X165799851Y-113000000D01*
X165799851Y-113000000D02*
X165160000Y-113639851D01*
%TO.N,Net-(D04_R1-A)*%
X113800000Y-150750000D02*
X114550000Y-150000000D01*
X107880000Y-150750000D02*
X113800000Y-150750000D01*
X105710000Y-148580000D02*
X107880000Y-150750000D01*
%TO.N,Net-(D10_R1-A)*%
X154840000Y-53079851D02*
X152770000Y-51009851D01*
X152770000Y-51009851D02*
X146650000Y-51009851D01*
X146650000Y-51009851D02*
X146000000Y-51659851D01*
%TO.N,Net-(D11_R1-A)*%
X152770000Y-70009851D02*
X146650000Y-70009851D01*
X146650000Y-70009851D02*
X146000000Y-70659851D01*
X154840000Y-72079851D02*
X152770000Y-70009851D01*
%TO.N,Net-(D12_R1-A)*%
X146650000Y-89009851D02*
X146000000Y-89659851D01*
X152770000Y-89009851D02*
X146650000Y-89009851D01*
X154840000Y-91079851D02*
X152770000Y-89009851D01*
%TO.N,Net-(D13_R1-A)*%
X146650000Y-108009851D02*
X146000000Y-108659851D01*
X154840000Y-110079851D02*
X152770000Y-108009851D01*
X152770000Y-108009851D02*
X146650000Y-108009851D01*
%TO.N,Net-(D14_R1-A)*%
X132750000Y-150750000D02*
X133500000Y-150000000D01*
X124710000Y-148580000D02*
X126880000Y-150750000D01*
X126880000Y-150750000D02*
X132750000Y-150750000D01*
%TO.N,Net-(D20_R1-A)*%
X133750000Y-51009851D02*
X127590000Y-51009851D01*
X127590000Y-51009851D02*
X126960000Y-51639851D01*
X135800000Y-53059851D02*
X133750000Y-51009851D01*
%TO.N,Net-(D21_R1-A)*%
X135800000Y-72059851D02*
X133750000Y-70009851D01*
X127590000Y-70009851D02*
X126960000Y-70639851D01*
X133750000Y-70009851D02*
X127590000Y-70009851D01*
%TO.N,Net-(D22_R1-A)*%
X127590000Y-89009851D02*
X126960000Y-89639851D01*
X135800000Y-91059851D02*
X133750000Y-89009851D01*
X133750000Y-89009851D02*
X127590000Y-89009851D01*
%TO.N,Net-(D23_R1-A)*%
X127590000Y-108009851D02*
X126960000Y-108639851D01*
X133750000Y-108009851D02*
X127590000Y-108009851D01*
X135800000Y-110059851D02*
X133750000Y-108009851D01*
%TO.N,Net-(D30_R1-A)*%
X108590000Y-56009851D02*
X107960000Y-56639851D01*
X116800000Y-58059851D02*
X114750000Y-56009851D01*
X114750000Y-56009851D02*
X108590000Y-56009851D01*
%TO.N,Net-(D31_R1-A)*%
X116800000Y-77059851D02*
X114750000Y-75009851D01*
X114750000Y-75009851D02*
X108590000Y-75009851D01*
X108590000Y-75009851D02*
X107960000Y-75639851D01*
%TO.N,Net-(D32_R1-A)*%
X108590000Y-94009851D02*
X107960000Y-94639851D01*
X114750000Y-94009851D02*
X108590000Y-94009851D01*
X116800000Y-96059851D02*
X114750000Y-94009851D01*
%TO.N,Net-(D33_R1-A)*%
X114750000Y-113009851D02*
X108590000Y-113009851D01*
X108590000Y-113009851D02*
X107960000Y-113639851D01*
X116800000Y-115059851D02*
X114750000Y-113009851D01*
%TO.N,Net-(D40_R1-A)*%
X97800000Y-63059851D02*
X95750000Y-61009851D01*
X89590000Y-61009851D02*
X88960000Y-61639851D01*
X95750000Y-61009851D02*
X89590000Y-61009851D01*
%TO.N,Net-(D41_R1-A)*%
X97800000Y-82059851D02*
X95750000Y-80009851D01*
X89590000Y-80009851D02*
X88960000Y-80639851D01*
X95750000Y-80009851D02*
X89590000Y-80009851D01*
%TO.N,Net-(D42_R1-A)*%
X95750000Y-99009851D02*
X89590000Y-99009851D01*
X89590000Y-99009851D02*
X88960000Y-99639851D01*
X97800000Y-101059851D02*
X95750000Y-99009851D01*
%TO.N,Net-(D43_R1-A)*%
X97800000Y-120059851D02*
X95750000Y-118009851D01*
X89590000Y-118009851D02*
X88960000Y-118639851D01*
X95750000Y-118009851D02*
X89590000Y-118009851D01*
%TO.N,Net-(D44_L1-A)*%
X220710000Y-148580000D02*
X222880000Y-150750000D01*
X222880000Y-150750000D02*
X228800000Y-150750000D01*
X228800000Y-150750000D02*
X229550000Y-150000000D01*
%TO.N,Net-(D50_L1-A)*%
X194750000Y-56009851D02*
X188590000Y-56009851D01*
X196800000Y-58059851D02*
X194750000Y-56009851D01*
X188590000Y-56009851D02*
X187960000Y-56639851D01*
%TO.N,Net-(D50_R1-A)*%
X78840000Y-68029851D02*
X76820000Y-66009851D01*
X70600000Y-66009851D02*
X70000000Y-66609851D01*
X76820000Y-66009851D02*
X70600000Y-66009851D01*
%TO.N,Net-(D51_L1-A)*%
X188590000Y-75009851D02*
X187960000Y-75639851D01*
X196800000Y-77059851D02*
X194750000Y-75009851D01*
X194750000Y-75009851D02*
X188590000Y-75009851D01*
%TO.N,Net-(D51_R1-A)*%
X70600000Y-85009851D02*
X70000000Y-85609851D01*
X78840000Y-87029851D02*
X76820000Y-85009851D01*
X76820000Y-85009851D02*
X70600000Y-85009851D01*
%TO.N,Net-(D52_L1-A)*%
X196800000Y-96059851D02*
X194750000Y-94009851D01*
X188590000Y-94009851D02*
X187960000Y-94639851D01*
X194750000Y-94009851D02*
X188590000Y-94009851D01*
%TO.N,Net-(D52_R1-A)*%
X78840000Y-106029851D02*
X76820000Y-104009851D01*
X70600000Y-104009851D02*
X70000000Y-104609851D01*
X76820000Y-104009851D02*
X70600000Y-104009851D01*
%TO.N,Net-(D53_R1-A)*%
X78840000Y-125029851D02*
X76820000Y-123009851D01*
X76820000Y-123009851D02*
X70600000Y-123009851D01*
X70600000Y-123009851D02*
X70000000Y-123609851D01*
%TO.N,Net-(D54_L1-A)*%
X239710000Y-148580000D02*
X241880000Y-150750000D01*
X241880000Y-150750000D02*
X247750000Y-150750000D01*
X247750000Y-150750000D02*
X248500000Y-150000000D01*
%TO.N,Net-(LE300_R1-DOUT)*%
X99540149Y-68859851D02*
X108000000Y-68859851D01*
X94100000Y-72359851D02*
X96040149Y-72359851D01*
X96040149Y-72359851D02*
X99540149Y-68859851D01*
%TO.N,Net-(LE300_R1-DIN)*%
X115068628Y-67359851D02*
X118568628Y-63859851D01*
X118568628Y-63859851D02*
X127000000Y-63859851D01*
X113100000Y-67359851D02*
X115068628Y-67359851D01*
%TO.N,Net-(LED00_R1-DOUT)*%
X163865686Y-68859851D02*
X165000000Y-68859851D01*
X151100000Y-62359851D02*
X157365686Y-62359851D01*
X157365686Y-62359851D02*
X163865686Y-68859851D01*
%TO.N,Net-(LED01_R1-DOUT)*%
X163865686Y-87859851D02*
X165000000Y-87859851D01*
X157365686Y-81359851D02*
X163865686Y-87859851D01*
X151100000Y-81359851D02*
X157365686Y-81359851D01*
%TO.N,Net-(D00_L1-A)*%
X289750000Y-66009851D02*
X283590000Y-66009851D01*
X283590000Y-66009851D02*
X282960000Y-66639851D01*
X291800000Y-68059851D02*
X289750000Y-66009851D01*
%TO.N,row0_L*%
X203500000Y-51609851D02*
X204509851Y-50600000D01*
X233377673Y-50648281D02*
X233329392Y-50600000D01*
X203500000Y-51609851D02*
X202790149Y-51609851D01*
X260500000Y-61609851D02*
X261509851Y-60600000D01*
X260400000Y-61509851D02*
X260400000Y-61609851D01*
X236043355Y-50648281D02*
X241500000Y-56104926D01*
X202790149Y-51609851D02*
X198800000Y-55600000D01*
X221490149Y-50600000D02*
X222500000Y-51609851D01*
X233329392Y-50600000D02*
X223509851Y-50600000D01*
X198800000Y-55600000D02*
X185509851Y-55600000D01*
X273490149Y-60600000D02*
X279500000Y-66609851D01*
X185509851Y-55600000D02*
X184500000Y-56609851D01*
X261509851Y-60600000D02*
X273490149Y-60600000D01*
X233377673Y-50648281D02*
X236043355Y-50648281D01*
X241500000Y-56104926D02*
X241500000Y-56609851D01*
X204509851Y-50600000D02*
X221490149Y-50600000D01*
X223509851Y-50600000D02*
X222500000Y-51609851D01*
X241500000Y-56609851D02*
X242509851Y-55600000D01*
X242509851Y-55600000D02*
X254490149Y-55600000D01*
X254490149Y-55600000D02*
X260400000Y-61509851D01*
%TO.N,Net-(D01_L1-A)*%
X283646545Y-84953306D02*
X282960000Y-85639851D01*
X289693455Y-84953306D02*
X283646545Y-84953306D01*
X291800000Y-87059851D02*
X289693455Y-84953306D01*
%TO.N,row1_L*%
X241500000Y-75553306D02*
X241500000Y-75609851D01*
X185509851Y-74600000D02*
X184500000Y-75609851D01*
X260500000Y-80609851D02*
X261609851Y-79500000D01*
X221500000Y-69609851D02*
X222500000Y-70609851D01*
X223509851Y-69600000D02*
X222500000Y-70609851D01*
X203500000Y-70609851D02*
X204500000Y-69609851D01*
X273446694Y-79500000D02*
X279556545Y-85609851D01*
X235935304Y-69635304D02*
X241500000Y-75200000D01*
X261609851Y-79500000D02*
X273446694Y-79500000D01*
X202690149Y-70609851D02*
X198700000Y-74600000D01*
X233364696Y-69635304D02*
X235935304Y-69635304D01*
X254446694Y-74500000D02*
X260400000Y-80453306D01*
X203500000Y-70609851D02*
X202690149Y-70609851D01*
X233329392Y-69600000D02*
X223509851Y-69600000D01*
X260400000Y-80453306D02*
X260400000Y-80609851D01*
X242609851Y-74500000D02*
X254446694Y-74500000D01*
X198700000Y-74600000D02*
X185509851Y-74600000D01*
X241500000Y-75609851D02*
X242609851Y-74500000D01*
X204500000Y-69609851D02*
X221500000Y-69609851D01*
X233364696Y-69635304D02*
X233329392Y-69600000D01*
X241500000Y-75200000D02*
X241500000Y-75553306D01*
%TO.N,Net-(D02_L1-A)*%
X291800000Y-106059851D02*
X289750000Y-104009851D01*
X289750000Y-104009851D02*
X283590000Y-104009851D01*
X283590000Y-104009851D02*
X282960000Y-104639851D01*
%TO.N,row2_L*%
X203500000Y-89609851D02*
X202890149Y-89609851D01*
X233339243Y-88609851D02*
X223500000Y-88609851D01*
X260400000Y-99509851D02*
X260400000Y-99609851D01*
X233364696Y-88635304D02*
X236035304Y-88635304D01*
X236035304Y-88635304D02*
X241500000Y-94100000D01*
X241500000Y-94609851D02*
X242500000Y-93609851D01*
X241500000Y-94100000D02*
X241500000Y-94609851D01*
X260500000Y-99609851D02*
X261500000Y-98609851D01*
X223500000Y-88609851D02*
X222500000Y-89609851D01*
X261500000Y-98609851D02*
X273500000Y-98609851D01*
X203500000Y-89609851D02*
X204500000Y-88609851D01*
X221500000Y-88609851D02*
X222500000Y-89609851D01*
X233364696Y-88635304D02*
X233339243Y-88609851D01*
X204500000Y-88609851D02*
X221500000Y-88609851D01*
X198890149Y-93609851D02*
X185500000Y-93609851D01*
X273500000Y-98609851D02*
X279500000Y-104609851D01*
X185500000Y-93609851D02*
X184500000Y-94609851D01*
X242500000Y-93609851D02*
X254500000Y-93609851D01*
X254500000Y-93609851D02*
X260400000Y-99509851D01*
X202890149Y-89609851D02*
X198890149Y-93609851D01*
%TO.N,Net-(D03_L1-A)*%
X289750000Y-123009851D02*
X283500000Y-123009851D01*
X282960000Y-123549851D02*
X282960000Y-123639851D01*
X283500000Y-123009851D02*
X282960000Y-123549851D01*
X291800000Y-125059851D02*
X289750000Y-123009851D01*
%TO.N,row3_L*%
X236035304Y-107635304D02*
X241500000Y-113100000D01*
X203500000Y-108609851D02*
X202690149Y-108609851D01*
X260400000Y-118509851D02*
X260400000Y-118609851D01*
X260500000Y-118609851D02*
X261500000Y-117609851D01*
X185500000Y-112609851D02*
X184500000Y-113609851D01*
X203500000Y-108609851D02*
X204500000Y-107609851D01*
X254500000Y-112609851D02*
X260400000Y-118509851D01*
X261500000Y-117609851D02*
X273500000Y-117609851D01*
X202690149Y-108609851D02*
X198690149Y-112609851D01*
X221500000Y-107609851D02*
X222500000Y-108609851D01*
X204500000Y-107609851D02*
X221500000Y-107609851D01*
X233364696Y-107635304D02*
X233339243Y-107609851D01*
X198690149Y-112609851D02*
X185500000Y-112609851D01*
X273500000Y-117609851D02*
X279500000Y-123609851D01*
X223500000Y-107609851D02*
X222500000Y-108609851D01*
X241500000Y-113100000D02*
X241500000Y-113609851D01*
X241500000Y-113609851D02*
X242500000Y-112609851D01*
X233339243Y-107609851D02*
X223500000Y-107609851D01*
X242500000Y-112609851D02*
X254500000Y-112609851D01*
X233364696Y-107635304D02*
X236035304Y-107635304D01*
%TO.N,Net-(LED01_R1-DIN)*%
X169390785Y-85000000D02*
X170100000Y-85709215D01*
X99709851Y-70700000D02*
X94709851Y-75700000D01*
X117859851Y-65700000D02*
X112859851Y-70700000D01*
X94709851Y-75700000D02*
X79959851Y-75700000D01*
X70000000Y-79469851D02*
X70000000Y-78859851D01*
X79959851Y-75700000D02*
X75459851Y-80200000D01*
X70730149Y-80200000D02*
X70000000Y-79469851D01*
X112859851Y-70700000D02*
X99709851Y-70700000D01*
X152245074Y-65654926D02*
X152200000Y-65700000D01*
X156783883Y-79575968D02*
X162207915Y-85000000D01*
X170100000Y-85709215D02*
X170100000Y-86359851D01*
X75459851Y-80200000D02*
X70730149Y-80200000D01*
X156783883Y-79250000D02*
X156783883Y-79575968D01*
X152200000Y-65700000D02*
X117859851Y-65700000D01*
X162207915Y-85000000D02*
X169390785Y-85000000D01*
%TO.N,row4_Sub_L*%
X233000000Y-150050000D02*
X232950000Y-150000000D01*
X233000000Y-155500000D02*
X237350000Y-151150000D01*
X250750000Y-151150000D02*
X251900000Y-150000000D01*
X237350000Y-151150000D02*
X250750000Y-151150000D01*
X233000000Y-155500000D02*
X233000000Y-150050000D01*
%TO.N,Net-(D10_L1-A)*%
X270750000Y-61009851D02*
X264590000Y-61009851D01*
X264590000Y-61009851D02*
X263960000Y-61639851D01*
X272800000Y-63059851D02*
X270750000Y-61009851D01*
%TO.N,Net-(D11_L1-A)*%
X272800000Y-82059851D02*
X270750000Y-80009851D01*
X264590000Y-80009851D02*
X263960000Y-80639851D01*
X270750000Y-80009851D02*
X264590000Y-80009851D01*
%TO.N,Net-(D12_L1-A)*%
X272800000Y-101059851D02*
X270750000Y-99009851D01*
X270750000Y-99009851D02*
X264590000Y-99009851D01*
X264590000Y-99009851D02*
X263960000Y-99639851D01*
%TO.N,Net-(D13_L1-A)*%
X270750000Y-118009851D02*
X264590000Y-118009851D01*
X272800000Y-120059851D02*
X270750000Y-118009851D01*
X264590000Y-118009851D02*
X263960000Y-118639851D01*
%TO.N,Net-(LED02_R1-DOUT)*%
X157365686Y-100359851D02*
X163865686Y-106859851D01*
X163865686Y-106859851D02*
X165000000Y-106859851D01*
X151100000Y-100359851D02*
X157365686Y-100359851D01*
%TO.N,Net-(LED02_R1-DIN)*%
X169250000Y-104000000D02*
X170100000Y-104850000D01*
X70000000Y-98469851D02*
X70000000Y-97859851D01*
X80159851Y-94500000D02*
X75409851Y-99250000D01*
X152000000Y-84500000D02*
X118059851Y-84500000D01*
X156783883Y-98575968D02*
X162207915Y-104000000D01*
X118059851Y-84500000D02*
X113059851Y-89500000D01*
X94909851Y-94500000D02*
X80159851Y-94500000D01*
X162207915Y-104000000D02*
X169250000Y-104000000D01*
X75409851Y-99250000D02*
X70780149Y-99250000D01*
X70780149Y-99250000D02*
X70000000Y-98469851D01*
X113059851Y-89500000D02*
X99909851Y-89500000D01*
X156783883Y-98250000D02*
X156783883Y-98575968D01*
X170100000Y-104850000D02*
X170100000Y-105359851D01*
X99909851Y-89500000D02*
X94909851Y-94500000D01*
%TO.N,Net-(D20_L1-A)*%
X251750000Y-56009851D02*
X245590000Y-56009851D01*
X253800000Y-58059851D02*
X251750000Y-56009851D01*
X245590000Y-56009851D02*
X244960000Y-56639851D01*
%TO.N,Net-(D21_L1-A)*%
X251750000Y-75009851D02*
X245590000Y-75009851D01*
X245590000Y-75009851D02*
X244960000Y-75639851D01*
X253800000Y-77059851D02*
X251750000Y-75009851D01*
%TO.N,Net-(D22_L1-A)*%
X245590000Y-94009851D02*
X244960000Y-94639851D01*
X251750000Y-94009851D02*
X245590000Y-94009851D01*
X253800000Y-96059851D02*
X251750000Y-94009851D01*
%TO.N,Net-(D23_L1-A)*%
X251750000Y-113009851D02*
X245590000Y-113009851D01*
X253800000Y-115059851D02*
X251750000Y-113009851D01*
X245590000Y-113009851D02*
X244960000Y-113639851D01*
%TO.N,Net-(D30_L1-A)*%
X234800000Y-53059851D02*
X232750000Y-51009851D01*
X226590000Y-51009851D02*
X225960000Y-51639851D01*
X232750000Y-51009851D02*
X226590000Y-51009851D01*
%TO.N,Net-(D31_L1-A)*%
X234800000Y-72059851D02*
X232750000Y-70009851D01*
X232750000Y-70009851D02*
X226590000Y-70009851D01*
X226590000Y-70009851D02*
X225960000Y-70639851D01*
%TO.N,Net-(D32_L1-A)*%
X226590000Y-89009851D02*
X225960000Y-89639851D01*
X234800000Y-91059851D02*
X232750000Y-89009851D01*
X232750000Y-89009851D02*
X226590000Y-89009851D01*
%TO.N,Net-(D33_L1-A)*%
X226590000Y-108009851D02*
X225960000Y-108639851D01*
X232750000Y-108009851D02*
X226590000Y-108009851D01*
X234800000Y-110059851D02*
X232750000Y-108009851D01*
%TO.N,Net-(LED03_R1-DOUT)*%
X151100000Y-119359851D02*
X157365686Y-119359851D01*
X163865686Y-125859851D02*
X165000000Y-125859851D01*
X157365686Y-119359851D02*
X163865686Y-125859851D01*
%TO.N,Net-(D40_L1-A)*%
X207590000Y-51009851D02*
X206960000Y-51639851D01*
X215800000Y-53059851D02*
X213750000Y-51009851D01*
X213750000Y-51009851D02*
X207590000Y-51009851D01*
%TO.N,Net-(D41_L1-A)*%
X207590000Y-70009851D02*
X206960000Y-70639851D01*
X213750000Y-70009851D02*
X207590000Y-70009851D01*
X215800000Y-72059851D02*
X213750000Y-70009851D01*
%TO.N,Net-(D42_L1-A)*%
X213750000Y-89009851D02*
X207590000Y-89009851D01*
X207590000Y-89009851D02*
X206960000Y-89639851D01*
X215800000Y-91059851D02*
X213750000Y-89009851D01*
%TO.N,Net-(D43_L1-A)*%
X207590000Y-108009851D02*
X206960000Y-108639851D01*
X215800000Y-110059851D02*
X213750000Y-108009851D01*
X213750000Y-108009851D02*
X207590000Y-108009851D01*
%TO.N,Net-(LED03_R1-DIN)*%
X152000000Y-103500000D02*
X118059851Y-103500000D01*
X113059851Y-108500000D02*
X99909851Y-108500000D01*
X70000000Y-117469851D02*
X70000000Y-116859851D01*
X94909851Y-113500000D02*
X80159851Y-113500000D01*
X80159851Y-113500000D02*
X75409851Y-118250000D01*
X162357915Y-123150000D02*
X169400000Y-123150000D01*
X156783883Y-117250000D02*
X156783883Y-117575968D01*
X99909851Y-108500000D02*
X94909851Y-113500000D01*
X156783883Y-117575968D02*
X162357915Y-123150000D01*
X118059851Y-103500000D02*
X113059851Y-108500000D01*
X169400000Y-123150000D02*
X170100000Y-123850000D01*
X170100000Y-123850000D02*
X170100000Y-124359851D01*
X75409851Y-118250000D02*
X70780149Y-118250000D01*
X70780149Y-118250000D02*
X70000000Y-117469851D01*
%TO.N,Net-(LED04_R1-DOUT)*%
X128200000Y-139000000D02*
X128450000Y-139250000D01*
X114550000Y-137750000D02*
X115934314Y-137750000D01*
X117184314Y-139000000D02*
X128200000Y-139000000D01*
X115934314Y-137750000D02*
X117184314Y-139000000D01*
%TO.N,Net-(LED10_R1-DOUT)*%
X133394314Y-62359851D02*
X132100000Y-62359851D01*
X142590149Y-61500000D02*
X134254165Y-61500000D01*
X144950000Y-63859851D02*
X142590149Y-61500000D01*
X134254165Y-61500000D02*
X133394314Y-62359851D01*
X146000000Y-63859851D02*
X144950000Y-63859851D01*
%TO.N,Net-(LED11_R1-DOUT)*%
X146000000Y-82859851D02*
X144950000Y-82859851D01*
X144950000Y-82859851D02*
X142515149Y-80425000D01*
X133394314Y-81359851D02*
X132100000Y-81359851D01*
X134329165Y-80425000D02*
X133394314Y-81359851D01*
X142515149Y-80425000D02*
X134329165Y-80425000D01*
%TO.N,Net-(LED12_R1-DOUT)*%
X144950000Y-101859851D02*
X142515149Y-99425000D01*
X134329165Y-99425000D02*
X133394314Y-100359851D01*
X133394314Y-100359851D02*
X132100000Y-100359851D01*
X146000000Y-101859851D02*
X144950000Y-101859851D01*
X142515149Y-99425000D02*
X134329165Y-99425000D01*
%TO.N,Net-(LED13_R1-DOUT)*%
X146000000Y-120859851D02*
X144950000Y-120859851D01*
X134329165Y-118425000D02*
X133394314Y-119359851D01*
X142515149Y-118425000D02*
X134329165Y-118425000D01*
X144950000Y-120859851D02*
X142515149Y-118425000D01*
X133394314Y-119359851D02*
X132100000Y-119359851D01*
%TO.N,Net-(D53_L1-A)*%
X196800000Y-115059851D02*
X194750000Y-113009851D01*
X194750000Y-113009851D02*
X188590000Y-113009851D01*
X188590000Y-113009851D02*
X187960000Y-113639851D01*
%TO.N,JS_SEL_m*%
X210297055Y-132000000D02*
X208102942Y-132000000D01*
X208102942Y-132000000D02*
X203910000Y-136192945D01*
X213000000Y-134250000D02*
X212547058Y-134250000D01*
X203910000Y-136192945D02*
X203910000Y-136476000D01*
X212547058Y-134250000D02*
X210297055Y-132000000D01*
%TO.N,JS_V*%
X193750000Y-155750000D02*
X191210000Y-153210000D01*
X213000000Y-155750000D02*
X193750000Y-155750000D01*
X191210000Y-153210000D02*
X191210000Y-151716000D01*
%TO.N,JS_H*%
X195950000Y-155350000D02*
X193750000Y-153150000D01*
X193750000Y-153150000D02*
X193750000Y-151716000D01*
X211400000Y-155350000D02*
X195950000Y-155350000D01*
X213000000Y-153750000D02*
X211400000Y-155350000D01*
%TO.N,Net-(LED00_L1-DOUT)*%
X281598960Y-78859851D02*
X282900000Y-78859851D01*
X275098960Y-72359851D02*
X281598960Y-78859851D01*
X269000000Y-72359851D02*
X275098960Y-72359851D01*
%TO.N,Net-(LED01_L1-DOUT)*%
X275098960Y-91359851D02*
X281598960Y-97859851D01*
X269000000Y-91359851D02*
X275098960Y-91359851D01*
X281598960Y-97859851D02*
X282900000Y-97859851D01*
%TO.N,Net-(LED01_L1-DIN)*%
X274683883Y-89250000D02*
X274683883Y-89625968D01*
X287250000Y-95000000D02*
X288000000Y-95750000D01*
X280057915Y-95000000D02*
X287250000Y-95000000D01*
X288000000Y-95750000D02*
X288000000Y-96368430D01*
X262807737Y-75700000D02*
X257807737Y-70700000D01*
X243807737Y-70700000D02*
X238807737Y-65700000D01*
X269845074Y-75700000D02*
X262807737Y-75700000D01*
X238807737Y-65700000D02*
X197759851Y-65700000D01*
X274683883Y-89625968D02*
X280057915Y-95000000D01*
X187900000Y-69400000D02*
X187900000Y-68859851D01*
X257807737Y-70700000D02*
X243807737Y-70700000D01*
X193209851Y-70250000D02*
X188750000Y-70250000D01*
X269850000Y-75704926D02*
X269845074Y-75700000D01*
X188750000Y-70250000D02*
X187900000Y-69400000D01*
X197759851Y-65700000D02*
X193209851Y-70250000D01*
%TO.N,Net-(LED02_L1-DOUT)*%
X269000000Y-110359851D02*
X275098960Y-110359851D01*
X275098960Y-110359851D02*
X281598960Y-116859851D01*
X281598960Y-116859851D02*
X282900000Y-116859851D01*
%TO.N,Net-(LED02_L1-DIN)*%
X274683883Y-108625968D02*
X280057915Y-114000000D01*
X262807737Y-94700000D02*
X257807737Y-89700000D01*
X287250000Y-114000000D02*
X288000000Y-114750000D01*
X187900000Y-88400000D02*
X187900000Y-87859851D01*
X243807738Y-89700000D02*
X238807738Y-84700000D01*
X238807738Y-84700000D02*
X197759851Y-84700000D01*
X280057915Y-114000000D02*
X287250000Y-114000000D01*
X257807737Y-89700000D02*
X243807738Y-89700000D01*
X288000000Y-114750000D02*
X288000000Y-115368430D01*
X269754926Y-94700000D02*
X262807737Y-94700000D01*
X193209851Y-89250000D02*
X188750000Y-89250000D01*
X274683883Y-108250000D02*
X274683883Y-108625968D01*
X188750000Y-89250000D02*
X187900000Y-88400000D01*
X197759851Y-84700000D02*
X193209851Y-89250000D01*
%TO.N,Net-(LED03_L1-DOUT)*%
X281598960Y-135859851D02*
X282900000Y-135859851D01*
X275098960Y-129359851D02*
X281598960Y-135859851D01*
X269000000Y-129359851D02*
X275098960Y-129359851D01*
%TO.N,Net-(LED03_L1-DIN)*%
X188750000Y-108250000D02*
X187900000Y-107400000D01*
X287215785Y-133000000D02*
X288000000Y-133784215D01*
X238607737Y-103500000D02*
X238457737Y-103650000D01*
X187900000Y-107400000D02*
X187900000Y-106859851D01*
X288000000Y-133784215D02*
X288000000Y-134368430D01*
X197809851Y-103650000D02*
X193209851Y-108250000D01*
X243707737Y-108600000D02*
X238607737Y-103500000D01*
X274000000Y-127275500D02*
X274333415Y-127275500D01*
X280057915Y-133000000D02*
X287215785Y-133000000D01*
X269745074Y-113600000D02*
X262707737Y-113600000D01*
X269750000Y-113604926D02*
X269745074Y-113600000D01*
X262707737Y-113600000D02*
X257707737Y-108600000D01*
X257707737Y-108600000D02*
X243707737Y-108600000D01*
X274333415Y-127275500D02*
X280057915Y-133000000D01*
X193209851Y-108250000D02*
X188750000Y-108250000D01*
X238457737Y-103650000D02*
X197809851Y-103650000D01*
%TO.N,Net-(LED21_R1-DOUT)*%
X113100000Y-86359851D02*
X115068628Y-86359851D01*
X115068628Y-86359851D02*
X118568628Y-82859851D01*
X118568628Y-82859851D02*
X127000000Y-82859851D01*
%TO.N,LED_Sub_L*%
X236300500Y-140500000D02*
X225050000Y-140500000D01*
X225050000Y-140500000D02*
X224500000Y-139950000D01*
X224500000Y-139950000D02*
X224500000Y-139250000D01*
%TO.N,Net-(LED22_R1-DOUT)*%
X114234314Y-105359851D02*
X117734314Y-101859851D01*
X113100000Y-105359851D02*
X114234314Y-105359851D01*
X117734314Y-101859851D02*
X127000000Y-101859851D01*
%TO.N,Net-(LED23_R1-DOUT)*%
X115068628Y-124359851D02*
X118568630Y-120859851D01*
X118568630Y-120859851D02*
X127000000Y-120859851D01*
X113100000Y-124359851D02*
X115068628Y-124359851D01*
%TO.N,Net-(LED31_R1-DOUT)*%
X99390149Y-87859851D02*
X108000000Y-87859851D01*
X94100000Y-91359851D02*
X95890149Y-91359851D01*
X95890149Y-91359851D02*
X99390149Y-87859851D01*
%TO.N,Net-(LED32_R1-DOUT)*%
X99390149Y-106859851D02*
X108000000Y-106859851D01*
X95890149Y-110359851D02*
X99390149Y-106859851D01*
X94100000Y-110359851D02*
X95890149Y-110359851D01*
%TO.N,Net-(LED33_R1-DOUT)*%
X94100000Y-129359851D02*
X95234314Y-129359851D01*
X98734314Y-125859851D02*
X108000000Y-125859851D01*
X95234314Y-129359851D02*
X98734314Y-125859851D01*
%TO.N,Net-(LED40_R1-DOUT)*%
X77168628Y-77359851D02*
X75100000Y-77359851D01*
X89000000Y-73859851D02*
X80668628Y-73859851D01*
X80668628Y-73859851D02*
X77168628Y-77359851D01*
%TO.N,Net-(LED41_R1-DOUT)*%
X80668628Y-92859851D02*
X77168628Y-96359851D01*
X89000000Y-92859851D02*
X80668628Y-92859851D01*
X77168628Y-96359851D02*
X75100000Y-96359851D01*
%TO.N,Net-(LED10_L1-DOUT)*%
X250000000Y-67359851D02*
X255598960Y-67359851D01*
X255598960Y-67359851D02*
X262098960Y-73859851D01*
X262098960Y-73859851D02*
X263900000Y-73859851D01*
%TO.N,Net-(LED11_L1-DOUT)*%
X262098960Y-92859851D02*
X263900000Y-92859851D01*
X255598960Y-86359851D02*
X262098960Y-92859851D01*
X250000000Y-86359851D02*
X255598960Y-86359851D01*
%TO.N,Net-(LED12_L1-DOUT)*%
X250000000Y-105359851D02*
X255598960Y-105359851D01*
X262098960Y-111859851D02*
X263900000Y-111859851D01*
X255598960Y-105359851D02*
X262098960Y-111859851D01*
%TO.N,Net-(LED13_L1-DOUT)*%
X250000000Y-124359851D02*
X255598960Y-124359851D01*
X255598960Y-124359851D02*
X262098960Y-130859851D01*
X262098960Y-130859851D02*
X263900000Y-130859851D01*
%TO.N,Net-(LED42_R1-DOUT)*%
X80668628Y-111859851D02*
X77168628Y-115359851D01*
X89000000Y-111859851D02*
X80668628Y-111859851D01*
X77168628Y-115359851D02*
X75100000Y-115359851D01*
%TO.N,Net-(LED43_R1-DOUT)*%
X81008777Y-130859851D02*
X77508777Y-134359851D01*
X77508777Y-134359851D02*
X75100000Y-134359851D01*
X89000000Y-130859851D02*
X81008777Y-130859851D01*
%TO.N,Net-(LED20_L1-DOUT)*%
X236598960Y-62359851D02*
X243098960Y-68859851D01*
X243098960Y-68859851D02*
X244900000Y-68859851D01*
X231000000Y-62359851D02*
X236598960Y-62359851D01*
%TO.N,Net-(LED21_L1-DOUT)*%
X236598960Y-81359851D02*
X243098960Y-87859851D01*
X231000000Y-81359851D02*
X236598960Y-81359851D01*
X243098960Y-87859851D02*
X244900000Y-87859851D01*
%TO.N,Net-(LED22_L1-DOUT)*%
X236598960Y-100359851D02*
X243098960Y-106859851D01*
X231000000Y-100359851D02*
X236598960Y-100359851D01*
X243098960Y-106859851D02*
X244900000Y-106859851D01*
%TO.N,Net-(LED23_L1-DOUT)*%
X231000000Y-119359851D02*
X236598960Y-119359851D01*
X236598960Y-119359851D02*
X243098960Y-125859851D01*
X243098960Y-125859851D02*
X244900000Y-125859851D01*
%TO.N,Net-(LED30_L1-DOUT)*%
X212000000Y-62359851D02*
X212934851Y-61425000D01*
X222170835Y-61425000D02*
X224605686Y-63859851D01*
X212934851Y-61425000D02*
X222170835Y-61425000D01*
X224605686Y-63859851D02*
X225900000Y-63859851D01*
%TO.N,Net-(LED31_L1-DOUT)*%
X222170835Y-80425000D02*
X224605686Y-82859851D01*
X212934851Y-80425000D02*
X222170835Y-80425000D01*
X224605686Y-82859851D02*
X225900000Y-82859851D01*
X212000000Y-81359851D02*
X212934851Y-80425000D01*
%TO.N,Net-(LED32_L1-DOUT)*%
X224605686Y-101859851D02*
X225900000Y-101859851D01*
X212450000Y-99909851D02*
X222655686Y-99909851D01*
X212000000Y-100359851D02*
X212450000Y-99909851D01*
X222655686Y-99909851D02*
X224605686Y-101859851D01*
%TO.N,Net-(LED33_L1-DOUT)*%
X212000000Y-119359851D02*
X212109851Y-119250000D01*
X222995835Y-119250000D02*
X224605686Y-120859851D01*
X212109851Y-119250000D02*
X222995835Y-119250000D01*
X224605686Y-120859851D02*
X225900000Y-120859851D01*
%TO.N,Net-(LED40_L1-DOUT)*%
X193000000Y-67359851D02*
X194968628Y-67359851D01*
X198468628Y-63859851D02*
X206900000Y-63859851D01*
X194968628Y-67359851D02*
X198468628Y-63859851D01*
%TO.N,Net-(LED41_L1-DOUT)*%
X198468630Y-82859851D02*
X206900000Y-82859851D01*
X193000000Y-86359851D02*
X194968628Y-86359851D01*
X194968628Y-86359851D02*
X198468630Y-82859851D01*
%TO.N,Net-(LED42_L1-DOUT)*%
X193000000Y-105359851D02*
X194968628Y-105359851D01*
X198468628Y-101859851D02*
X206900000Y-101859851D01*
X194968628Y-105359851D02*
X198468628Y-101859851D01*
%TO.N,Net-(LED43_L1-DOUT)*%
X194968628Y-124359851D02*
X198468628Y-120859851D01*
X193000000Y-124359851D02*
X194968628Y-124359851D01*
X198468628Y-120859851D02*
X206900000Y-120859851D01*
%TO.N,Net-(LED44_L1-DOUT)*%
X232234314Y-139000000D02*
X243250000Y-139000000D01*
X229600000Y-137750000D02*
X230984314Y-137750000D01*
X243250000Y-139000000D02*
X243500000Y-139250000D01*
X230984314Y-137750000D02*
X232234314Y-139000000D01*
%TO.N,LED_Main_L*%
X188750000Y-127250000D02*
X187900000Y-126400000D01*
X187900000Y-126400000D02*
X187900000Y-125859851D01*
X197859851Y-122600000D02*
X193209851Y-127250000D01*
X193209851Y-127250000D02*
X188750000Y-127250000D01*
X212500000Y-122600000D02*
X197859851Y-122600000D01*
D25*
%TO.N,col0_L*%
X278500000Y-130039851D02*
X277900000Y-129439851D01*
X277900000Y-91439851D02*
X277900000Y-89559851D01*
X278500000Y-73039851D02*
X277900000Y-72439851D01*
X277900000Y-110439851D02*
X277900000Y-108559851D01*
X277900000Y-72439851D02*
X277900000Y-70559851D01*
X278500000Y-92039851D02*
X277900000Y-91439851D01*
X278500000Y-111039851D02*
X277900000Y-110439851D01*
X277900000Y-129439851D02*
X277900000Y-127559851D01*
%TO.N,col1_L*%
X259500000Y-125039851D02*
X258900000Y-124439851D01*
X259500000Y-87039851D02*
X258900000Y-86439851D01*
X258900000Y-124439851D02*
X258900000Y-122559851D01*
X259500000Y-68039851D02*
X258900000Y-67439851D01*
X258900000Y-67439851D02*
X258900000Y-65559851D01*
X258900000Y-86439851D02*
X258900000Y-84559851D01*
X259500000Y-106039851D02*
X258900000Y-105439851D01*
X258900000Y-105439851D02*
X258900000Y-103559851D01*
D24*
%TO.N,row4_L*%
X224250000Y-127400000D02*
X225250000Y-126400000D01*
X210740149Y-127400000D02*
X224250000Y-127400000D01*
X209700000Y-126359851D02*
X210740149Y-127400000D01*
%TO.N,GND_R1*%
X170900000Y-155700000D02*
X173200000Y-153400000D01*
X166700000Y-155700000D02*
X170900000Y-155700000D01*
X173200000Y-137806000D02*
X171870000Y-136476000D01*
X173200000Y-153400000D02*
X173200000Y-137806000D01*
%TO.N,GND_L*%
X243923423Y-127250000D02*
X249250000Y-127250000D01*
X276033274Y-130859851D02*
X282423423Y-137250000D01*
X288000000Y-79500000D02*
X288000000Y-78859851D01*
X282423423Y-99250000D02*
X287250000Y-99250000D01*
X250000000Y-69500000D02*
X250000000Y-68859851D01*
X225430149Y-122250000D02*
X230250000Y-122250000D01*
X243873423Y-108200000D02*
X249300000Y-108200000D01*
X256533274Y-106859851D02*
X262873423Y-113200000D01*
X211250000Y-103250000D02*
X212000000Y-102500000D01*
X288000000Y-136500000D02*
X288000000Y-135859851D01*
X224040000Y-82859851D02*
X225480149Y-84300000D01*
X282423423Y-137250000D02*
X287250000Y-137250000D01*
X193000000Y-125859851D02*
X194034314Y-125859851D01*
X197644166Y-103250000D02*
X211250000Y-103250000D01*
X194034314Y-106859851D02*
X197644166Y-103250000D01*
X217200000Y-101859851D02*
X224040000Y-101859851D01*
X282423423Y-118250000D02*
X287250000Y-118250000D01*
X231000000Y-102500000D02*
X231000000Y-101859851D01*
X212000000Y-64479925D02*
X212000000Y-63859851D01*
X211300000Y-122200000D02*
X212000000Y-121500000D01*
X276033274Y-73859851D02*
X282273423Y-80100000D01*
X250000000Y-126500000D02*
X250000000Y-125859851D01*
X250000000Y-106859851D02*
X256533274Y-106859851D01*
X249250000Y-127250000D02*
X250000000Y-126500000D01*
X276033274Y-92859851D02*
X282423423Y-99250000D01*
X287250000Y-118250000D02*
X288000000Y-117500000D01*
X193000000Y-87859851D02*
X194034314Y-87859851D01*
X262873423Y-113200000D02*
X268300000Y-113200000D01*
X250000000Y-107500000D02*
X250000000Y-106859851D01*
X217200000Y-120859851D02*
X224040000Y-120859851D01*
X194034314Y-68859851D02*
X197594166Y-65300000D01*
X287250000Y-137250000D02*
X288000000Y-136500000D01*
X212000000Y-121500000D02*
X212000000Y-120859851D01*
X262773423Y-132100000D02*
X268179926Y-132100000D01*
X269000000Y-74500000D02*
X269000000Y-73859851D01*
X212000000Y-82859851D02*
X217200000Y-82859851D01*
X225480149Y-84300000D02*
X230200000Y-84300000D01*
X230250000Y-122250000D02*
X231000000Y-121500000D01*
X212000000Y-120859851D02*
X217200000Y-120859851D01*
X269000000Y-130859851D02*
X276033274Y-130859851D01*
X217200000Y-63859851D02*
X224040000Y-63859851D01*
X212000000Y-83479925D02*
X212000000Y-82859851D01*
X211179925Y-65300000D02*
X212000000Y-64479925D01*
X194034314Y-87859851D02*
X197594166Y-84300000D01*
X212000000Y-102500000D02*
X212000000Y-101859851D01*
X197594166Y-84300000D02*
X211179925Y-84300000D01*
X231000000Y-83500000D02*
X231000000Y-82859851D01*
X224040000Y-63859851D02*
X225480149Y-65300000D01*
X249300000Y-108200000D02*
X250000000Y-107500000D01*
X262973423Y-75300000D02*
X268200000Y-75300000D01*
X249200000Y-70300000D02*
X250000000Y-69500000D01*
X268104925Y-94300000D02*
X269000000Y-93404925D01*
X269000000Y-73859851D02*
X276033274Y-73859851D01*
X231000000Y-82859851D02*
X237533274Y-82859851D01*
X225430149Y-103250000D02*
X230250000Y-103250000D01*
X231000000Y-121500000D02*
X231000000Y-120859851D01*
X269000000Y-111859851D02*
X276033274Y-111859851D01*
X217200000Y-82859851D02*
X224040000Y-82859851D01*
X231000000Y-101859851D02*
X237533274Y-101859851D01*
X250000000Y-88500000D02*
X250000000Y-87859851D01*
X193000000Y-68859851D02*
X194034314Y-68859851D01*
X269000000Y-131279926D02*
X269000000Y-130859851D01*
X288000000Y-117500000D02*
X288000000Y-116859851D01*
X269000000Y-92859851D02*
X276033274Y-92859851D01*
X268179926Y-132100000D02*
X269000000Y-131279926D01*
X237533274Y-120859851D02*
X243923423Y-127250000D01*
X231000000Y-120859851D02*
X237533274Y-120859851D01*
X288000000Y-98500000D02*
X288000000Y-97859851D01*
X250000000Y-125859851D02*
X256533274Y-125859851D01*
X256533274Y-68859851D02*
X262973423Y-75300000D01*
X237533274Y-63859851D02*
X243973423Y-70300000D01*
X287250000Y-99250000D02*
X288000000Y-98500000D01*
X230200000Y-65300000D02*
X231000000Y-64500000D01*
X256533274Y-87859851D02*
X262973423Y-94300000D01*
X193000000Y-106859851D02*
X194034314Y-106859851D01*
X250000000Y-87859851D02*
X256533274Y-87859851D01*
X212000000Y-63859851D02*
X217200000Y-63859851D01*
X276033274Y-111859851D02*
X282423423Y-118250000D01*
X287400000Y-80100000D02*
X288000000Y-79500000D01*
X256533274Y-125859851D02*
X262773423Y-132100000D01*
X282273423Y-80100000D02*
X287400000Y-80100000D01*
X243973423Y-89300000D02*
X249200000Y-89300000D01*
X197594166Y-65300000D02*
X211179925Y-65300000D01*
X230250000Y-103250000D02*
X231000000Y-102500000D01*
X268200000Y-75300000D02*
X269000000Y-74500000D01*
X224040000Y-101859851D02*
X225430149Y-103250000D01*
X230200000Y-84300000D02*
X231000000Y-83500000D01*
X269000000Y-112500000D02*
X269000000Y-111859851D01*
X243973423Y-70300000D02*
X249200000Y-70300000D01*
X224040000Y-120859851D02*
X225430149Y-122250000D01*
X250000000Y-68859851D02*
X256533274Y-68859851D01*
X194034314Y-125859851D02*
X197694166Y-122200000D01*
X269000000Y-93404925D02*
X269000000Y-92859851D01*
X262973423Y-94300000D02*
X268104925Y-94300000D01*
X225480149Y-65300000D02*
X230200000Y-65300000D01*
X237533274Y-101859851D02*
X243873423Y-108200000D01*
X211179925Y-84300000D02*
X212000000Y-83479925D01*
X231000000Y-63859851D02*
X237533274Y-63859851D01*
X231000000Y-64500000D02*
X231000000Y-63859851D01*
X212000000Y-101859851D02*
X217200000Y-101859851D01*
X197694166Y-122200000D02*
X211300000Y-122200000D01*
X249200000Y-89300000D02*
X250000000Y-88500000D01*
X237533274Y-82859851D02*
X243973423Y-89300000D01*
X268300000Y-113200000D02*
X269000000Y-112500000D01*
%TO.N,GND_R*%
X132460000Y-101859851D02*
X132100000Y-101859851D01*
X131400000Y-84100000D02*
X132100000Y-83400000D01*
X164690149Y-108250000D02*
X169250000Y-108250000D01*
X75100000Y-97859851D02*
X76234314Y-97859851D01*
X99225000Y-127175000D02*
X112325000Y-127175000D01*
X113100000Y-69400000D02*
X113100000Y-68859851D01*
X99110304Y-70310304D02*
X99533862Y-70310304D01*
X169400000Y-127100000D02*
X170100000Y-126400000D01*
X117694166Y-65300000D02*
X131200000Y-65300000D01*
X98809851Y-108100000D02*
X95050000Y-111859851D01*
X99533862Y-70310304D02*
X99544166Y-70300000D01*
X150300000Y-122200000D02*
X151100000Y-121400000D01*
X112200000Y-70300000D02*
X113100000Y-69400000D01*
X132460000Y-82859851D02*
X134494851Y-80825000D01*
X99200000Y-89100000D02*
X95440149Y-92859851D01*
X132100000Y-102650000D02*
X132100000Y-101859851D01*
X76234314Y-78859851D02*
X79794166Y-75300000D01*
X80134315Y-132300000D02*
X93200000Y-132300000D01*
X151100000Y-101859851D02*
X151100000Y-102400000D01*
X95440149Y-92859851D02*
X94100000Y-92859851D01*
X76234314Y-116859851D02*
X79994166Y-113100000D01*
X93200636Y-75300000D02*
X94100000Y-74400636D01*
X112400000Y-89100000D02*
X113100000Y-88400000D01*
X113100000Y-125859851D02*
X114134314Y-125859851D01*
X164540149Y-127100000D02*
X169400000Y-127100000D01*
X79794166Y-75300000D02*
X93200636Y-75300000D01*
X114134314Y-125859851D02*
X117794166Y-122200000D01*
X113100000Y-107400000D02*
X113100000Y-106859851D01*
X145740149Y-65300000D02*
X142340149Y-61900000D01*
X113100000Y-106859851D02*
X113300000Y-106859851D01*
X150400000Y-103100000D02*
X145540149Y-103100000D01*
X75100000Y-78859851D02*
X76234314Y-78859851D01*
X158300000Y-101859851D02*
X164690149Y-108250000D01*
X164690149Y-89250000D02*
X169375000Y-89250000D01*
X94100000Y-74400636D02*
X94100000Y-73859851D01*
X131300000Y-122200000D02*
X132100000Y-121400000D01*
X170100000Y-107400000D02*
X170100000Y-106859851D01*
X95540149Y-130859851D02*
X94100000Y-130859851D01*
X99544166Y-70300000D02*
X112200000Y-70300000D01*
X93400000Y-94100000D02*
X94100000Y-93400000D01*
X158300000Y-63859851D02*
X164840149Y-70400000D01*
X150400000Y-84100000D02*
X151100000Y-83400000D01*
X142265149Y-99825000D02*
X134494851Y-99825000D01*
X143440149Y-120000000D02*
X145640149Y-122200000D01*
X142340149Y-61900000D02*
X134419851Y-61900000D01*
X114134314Y-68859851D02*
X117694166Y-65300000D01*
X151100000Y-120859851D02*
X154300000Y-120859851D01*
X94100000Y-131400000D02*
X94100000Y-130859851D01*
X93400000Y-113100000D02*
X94100000Y-112400000D01*
X169250000Y-108250000D02*
X170100000Y-107400000D01*
X99200000Y-108100000D02*
X98809851Y-108100000D01*
X112400000Y-108100000D02*
X113100000Y-107400000D01*
X79994166Y-113100000D02*
X93400000Y-113100000D01*
X131200000Y-65300000D02*
X132100000Y-64400000D01*
X145640149Y-122200000D02*
X150300000Y-122200000D01*
X94100000Y-112400000D02*
X94100000Y-111859851D01*
X134419851Y-61900000D02*
X132460000Y-63859851D01*
X113100000Y-68859851D02*
X114134314Y-68859851D01*
X95560757Y-73859851D02*
X94100000Y-73859851D01*
X94100000Y-93400000D02*
X94100000Y-92859851D01*
X134494851Y-99825000D02*
X132460000Y-101859851D01*
X170100000Y-69400000D02*
X170100000Y-68859851D01*
X99225000Y-127175000D02*
X95540149Y-130859851D01*
X117894166Y-84100000D02*
X131400000Y-84100000D01*
X170100000Y-88525000D02*
X170100000Y-87859851D01*
X112325000Y-127175000D02*
X113100000Y-126400000D01*
X158300000Y-82859851D02*
X164690149Y-89250000D01*
X151100000Y-83400000D02*
X151100000Y-82859851D01*
X154300000Y-120859851D02*
X158300000Y-120859851D01*
X164840149Y-70400000D02*
X169100000Y-70400000D01*
X158300000Y-120859851D02*
X164540149Y-127100000D01*
X132100000Y-64400000D02*
X132100000Y-63859851D01*
X151100000Y-63859851D02*
X158300000Y-63859851D01*
X132460000Y-63859851D02*
X132100000Y-63859851D01*
X151100000Y-64400000D02*
X150200000Y-65300000D01*
X150200000Y-65300000D02*
X145740149Y-65300000D01*
X140300000Y-120000000D02*
X143440149Y-120000000D01*
X75100000Y-135859851D02*
X76574463Y-135859851D01*
X151100000Y-121400000D02*
X151100000Y-120859851D01*
X113100000Y-87859851D02*
X114134314Y-87859851D01*
X75100000Y-116859851D02*
X76234314Y-116859851D01*
X76234314Y-97859851D02*
X79994166Y-94100000D01*
X142265149Y-80825000D02*
X145540149Y-84100000D01*
X132100000Y-121400000D02*
X132100000Y-120859851D01*
X145540149Y-84100000D02*
X150400000Y-84100000D01*
X117059851Y-103100000D02*
X131650000Y-103100000D01*
X169375000Y-89250000D02*
X170100000Y-88525000D01*
X99200000Y-108100000D02*
X112400000Y-108100000D01*
X170100000Y-126400000D02*
X170100000Y-125859851D01*
X140300000Y-120000000D02*
X133319851Y-120000000D01*
X114134314Y-87859851D02*
X117894166Y-84100000D01*
X131650000Y-103100000D02*
X132100000Y-102650000D01*
X79994166Y-94100000D02*
X93400000Y-94100000D01*
X132100000Y-82859851D02*
X132460000Y-82859851D01*
X151100000Y-63859851D02*
X151100000Y-64400000D01*
X95050000Y-111859851D02*
X94100000Y-111859851D01*
X151100000Y-102400000D02*
X150400000Y-103100000D01*
X145540149Y-103100000D02*
X142265149Y-99825000D01*
X99110304Y-70310304D02*
X95560757Y-73859851D01*
X93200000Y-132300000D02*
X94100000Y-131400000D01*
X133319851Y-120000000D02*
X132460000Y-120859851D01*
X76574463Y-135859851D02*
X80134315Y-132300000D01*
X151100000Y-101859851D02*
X158300000Y-101859851D01*
X113100000Y-126400000D02*
X113100000Y-125859851D01*
X99200000Y-89100000D02*
X112400000Y-89100000D01*
X169100000Y-70400000D02*
X170100000Y-69400000D01*
X113300000Y-106859851D02*
X117059851Y-103100000D01*
X132460000Y-120859851D02*
X132100000Y-120859851D01*
X113100000Y-88400000D02*
X113100000Y-87859851D01*
X134494851Y-80825000D02*
X142265149Y-80825000D01*
X151100000Y-82859851D02*
X158300000Y-82859851D01*
X132100000Y-83400000D02*
X132100000Y-82859851D01*
X117794166Y-122200000D02*
X131300000Y-122200000D01*
D25*
%TO.N,col2_L*%
X239900000Y-81439851D02*
X239900000Y-79559851D01*
X239900000Y-119439851D02*
X239900000Y-117559851D01*
X240500000Y-101039851D02*
X239900000Y-100439851D01*
X240500000Y-120039851D02*
X239900000Y-119439851D01*
X240500000Y-63039851D02*
X239900000Y-62439851D01*
X239900000Y-62439851D02*
X239900000Y-60559851D01*
X240500000Y-82039851D02*
X239900000Y-81439851D01*
X239900000Y-100439851D02*
X239900000Y-98559851D01*
%TO.N,col3_L*%
X220900000Y-76439851D02*
X220900000Y-74559851D01*
X220900000Y-95439851D02*
X220900000Y-93559851D01*
X221500000Y-77039851D02*
X220900000Y-76439851D01*
X221500000Y-58039851D02*
X220900000Y-57439851D01*
X220900000Y-57439851D02*
X220900000Y-55559851D01*
X221500000Y-115039851D02*
X220900000Y-114439851D01*
X221500000Y-96039851D02*
X220900000Y-95439851D01*
X220900000Y-114439851D02*
X220900000Y-112559851D01*
%TO.N,col4_L*%
X202500000Y-96039851D02*
X201900000Y-95439851D01*
X202500000Y-115039851D02*
X201900000Y-114439851D01*
X201900000Y-57439851D02*
X201900000Y-55559851D01*
X202500000Y-58039851D02*
X201900000Y-57439851D01*
X201900000Y-95439851D02*
X201900000Y-93559851D01*
X201900000Y-114439851D02*
X201900000Y-112559851D01*
X201900000Y-76439851D02*
X201900000Y-74559851D01*
X202500000Y-77039851D02*
X201900000Y-76439851D01*
D24*
%TO.N,col5_L*%
X220000000Y-127800000D02*
X209140149Y-127800000D01*
D25*
X182900000Y-100439851D02*
X182900000Y-98559851D01*
D24*
X198059851Y-123000000D02*
X193409851Y-127650000D01*
D25*
X183500000Y-101039851D02*
X182900000Y-100439851D01*
D24*
X187830149Y-127650000D02*
X183500000Y-123319851D01*
D25*
X183500000Y-82039851D02*
X182900000Y-81439851D01*
X182900000Y-81439851D02*
X182900000Y-79559851D01*
D24*
X183500000Y-123319851D02*
X183500000Y-120039851D01*
D25*
X183500000Y-120039851D02*
X182900000Y-119439851D01*
D24*
X204340149Y-123000000D02*
X198059851Y-123000000D01*
D25*
X183500000Y-63039851D02*
X182900000Y-62439851D01*
X182900000Y-119439851D02*
X182900000Y-117559851D01*
D24*
X209140149Y-127800000D02*
X207700000Y-126359851D01*
X223000000Y-130800000D02*
X220000000Y-127800000D01*
X207700000Y-126359851D02*
X204340149Y-123000000D01*
D25*
X182900000Y-62439851D02*
X182900000Y-60559851D01*
D24*
X225250000Y-130800000D02*
X223000000Y-130800000D01*
X193409851Y-127650000D02*
X187830149Y-127650000D01*
%TO.N,LED_L*%
X289700000Y-79240149D02*
X289700000Y-78240149D01*
X289700000Y-78240149D02*
X288859851Y-77400000D01*
X288440149Y-80500000D02*
X289700000Y-79240149D01*
X288859851Y-77400000D02*
X288000000Y-77400000D01*
X278250000Y-80500000D02*
X288440149Y-80500000D01*
X277500000Y-81250000D02*
X278250000Y-80500000D01*
X275400000Y-132109851D02*
X275009851Y-132500000D01*
X241350000Y-132500000D02*
X235250000Y-126400000D01*
X275009851Y-132500000D02*
X241350000Y-132500000D01*
%TO.N,col4_Sub_L*%
X231000000Y-153500000D02*
X231000000Y-149600000D01*
X229000000Y-155500000D02*
X231000000Y-153500000D01*
X231000000Y-149600000D02*
X234560000Y-146040000D01*
%TO.N,col5_Sub_L*%
X247300000Y-156500000D02*
X253560000Y-150240000D01*
X231000000Y-155500000D02*
X232000000Y-156500000D01*
X232000000Y-156500000D02*
X247300000Y-156500000D01*
X253560000Y-150240000D02*
X253560000Y-146040000D01*
%TO.N,I2C_SCL*%
X146750000Y-154000000D02*
X147950000Y-155200000D01*
X147950000Y-155200000D02*
X152200000Y-155200000D01*
X152200000Y-155200000D02*
X152900000Y-154500000D01*
X152900000Y-154500000D02*
X159436610Y-154500000D01*
X160620000Y-153316609D02*
X160620000Y-137566000D01*
X160620000Y-137566000D02*
X161710000Y-136476000D01*
X159436610Y-154500000D02*
X160620000Y-153316609D01*
%TO.N,row0_R*%
X103540000Y-56609851D02*
X104600000Y-56609851D01*
X141600000Y-50609851D02*
X142600000Y-51609851D01*
X84550000Y-61609851D02*
X85600000Y-61609851D01*
X86590000Y-60609851D02*
X99540000Y-60609851D01*
X85560000Y-61639851D02*
X86590000Y-60609851D01*
X143600000Y-50609851D02*
X155775000Y-50609851D01*
X99540000Y-60609851D02*
X103540000Y-56609851D01*
X67600000Y-65609851D02*
X80550000Y-65609851D01*
X118624546Y-55635305D02*
X122650000Y-51609851D01*
X161600000Y-56434851D02*
X161600000Y-56609851D01*
X115364697Y-55635305D02*
X118624546Y-55635305D01*
X155775000Y-50609851D02*
X161600000Y-56434851D01*
X105600000Y-55609851D02*
X104600000Y-56609851D01*
X123600000Y-51609851D02*
X124600000Y-50609851D01*
X124600000Y-50609851D02*
X141600000Y-50609851D01*
X115339243Y-55609851D02*
X105600000Y-55609851D01*
X115364697Y-55635305D02*
X115339243Y-55609851D01*
X80550000Y-65609851D02*
X84550000Y-61609851D01*
X142600000Y-51609851D02*
X143600000Y-50609851D01*
X66600000Y-66609851D02*
X67600000Y-65609851D01*
X122650000Y-51609851D02*
X123600000Y-51609851D01*
%TO.N,row1_R*%
X105600000Y-74609851D02*
X104600000Y-75609851D01*
X88100000Y-79639851D02*
X88130000Y-79609851D01*
X122650000Y-70609851D02*
X123600000Y-70609851D01*
X155775000Y-69609851D02*
X161600000Y-75434851D01*
X141600000Y-69609851D02*
X142600000Y-70609851D01*
X103540000Y-75609851D02*
X104600000Y-75609851D01*
X115364696Y-74635304D02*
X115339243Y-74609851D01*
X85560000Y-80639851D02*
X86560000Y-79639851D01*
X88130000Y-79609851D02*
X99540000Y-79609851D01*
X66600000Y-85609851D02*
X67600000Y-84609851D01*
X115339243Y-74609851D02*
X105600000Y-74609851D01*
X123600000Y-70609851D02*
X124600000Y-69609851D01*
X80550000Y-84609851D02*
X84550000Y-80609851D01*
X161600000Y-75434851D02*
X161600000Y-75609851D01*
X67600000Y-84609851D02*
X80550000Y-84609851D01*
X143600000Y-69609851D02*
X155775000Y-69609851D01*
X115364696Y-74635304D02*
X118624547Y-74635304D01*
X86560000Y-79639851D02*
X88100000Y-79639851D01*
X84550000Y-80609851D02*
X85600000Y-80609851D01*
X118624547Y-74635304D02*
X122650000Y-70609851D01*
X142600000Y-70609851D02*
X143600000Y-69609851D01*
X99540000Y-79609851D02*
X103540000Y-75609851D01*
X124600000Y-69609851D02*
X141600000Y-69609851D01*
%TO.N,row2_R*%
X161600000Y-94434851D02*
X161600000Y-94609851D01*
X67600000Y-103609851D02*
X80550000Y-103609851D01*
X85560000Y-99639851D02*
X86560000Y-98639851D01*
X88100000Y-98639851D02*
X88130000Y-98609851D01*
X141600000Y-88609851D02*
X142600000Y-89609851D01*
X105600000Y-93609851D02*
X104600000Y-94609851D01*
X80550000Y-103609851D02*
X84550000Y-99609851D01*
X99540000Y-98609851D02*
X103540000Y-94609851D01*
X66600000Y-104609851D02*
X67600000Y-103609851D01*
X84550000Y-99609851D02*
X85600000Y-99609851D01*
X86560000Y-98639851D02*
X88100000Y-98639851D01*
X122650000Y-89609851D02*
X123600000Y-89609851D01*
X115377673Y-93648281D02*
X115339243Y-93609851D01*
X118611570Y-93648281D02*
X122650000Y-89609851D01*
X143600000Y-88609851D02*
X155775000Y-88609851D01*
X88130000Y-98609851D02*
X99540000Y-98609851D01*
X123600000Y-89609851D02*
X124600000Y-88609851D01*
X103540000Y-94609851D02*
X104600000Y-94609851D01*
X142600000Y-89609851D02*
X143600000Y-88609851D01*
X155775000Y-88609851D02*
X161600000Y-94434851D01*
X115377673Y-93648281D02*
X118611570Y-93648281D01*
X115339243Y-93609851D02*
X105600000Y-93609851D01*
X124600000Y-88609851D02*
X141600000Y-88609851D01*
%TO.N,row3_R*%
X143600000Y-107609851D02*
X155775000Y-107609851D01*
X80550000Y-122609851D02*
X84550000Y-118609851D01*
X161600000Y-113434851D02*
X161600000Y-113609851D01*
X88100000Y-117639851D02*
X88130000Y-117609851D01*
X122650000Y-108609851D02*
X123600000Y-108609851D01*
X86560000Y-117639851D02*
X88100000Y-117639851D01*
X141600000Y-107609851D02*
X142600000Y-108609851D01*
X115377673Y-112648281D02*
X118611570Y-112648281D01*
X115377673Y-112648281D02*
X115339243Y-112609851D01*
X123600000Y-108609851D02*
X124600000Y-107609851D01*
X118611570Y-112648281D02*
X122650000Y-108609851D01*
X155775000Y-107609851D02*
X161600000Y-113434851D01*
X105600000Y-112609851D02*
X104600000Y-113609851D01*
X115339243Y-112609851D02*
X105600000Y-112609851D01*
X88130000Y-117609851D02*
X99540000Y-117609851D01*
X84550000Y-118609851D02*
X85600000Y-118609851D01*
X142600000Y-108609851D02*
X143600000Y-107609851D01*
X99540000Y-117609851D02*
X103540000Y-113609851D01*
X66600000Y-123609851D02*
X67600000Y-122609851D01*
X103540000Y-113609851D02*
X104600000Y-113609851D01*
X67600000Y-122609851D02*
X80550000Y-122609851D01*
X85560000Y-118639851D02*
X86560000Y-117639851D01*
X124600000Y-107609851D02*
X141600000Y-107609851D01*
%TO.N,row4_Sub_R*%
X135750000Y-151150000D02*
X136900000Y-150000000D01*
X127000000Y-155500000D02*
X131350000Y-151150000D01*
X117950000Y-150000000D02*
X121500000Y-150000000D01*
X121500000Y-150000000D02*
X127000000Y-155500000D01*
X131350000Y-151150000D02*
X135750000Y-151150000D01*
%TO.N,LED_R*%
X171800000Y-68200000D02*
X170959851Y-67359851D01*
X135150000Y-124000000D02*
X132750000Y-126400000D01*
X171800000Y-69200000D02*
X171800000Y-68200000D01*
X170200000Y-70800000D02*
X171800000Y-69200000D01*
X156000000Y-124000000D02*
X135150000Y-124000000D01*
X170959851Y-67359851D02*
X170100000Y-67359851D01*
X159900000Y-70800000D02*
X170200000Y-70800000D01*
%TO.N,LED_Sub_R*%
X121750000Y-140500000D02*
X110000000Y-140500000D01*
X109450000Y-139950000D02*
X109450000Y-139250000D01*
X110000000Y-140500000D02*
X109450000Y-139950000D01*
%TO.N,LED_Main_R*%
X80300000Y-132700000D02*
X75700000Y-137300000D01*
X75700000Y-137300000D02*
X70830149Y-137300000D01*
X94709851Y-132700000D02*
X80300000Y-132700000D01*
X70830149Y-137300000D02*
X70000000Y-136469851D01*
X99834851Y-127575000D02*
X94709851Y-132700000D01*
X117959851Y-122600000D02*
X112984851Y-127575000D01*
X70000000Y-136469851D02*
X70000000Y-135859851D01*
X112984851Y-127575000D02*
X99834851Y-127575000D01*
X152300000Y-122600000D02*
X117959851Y-122600000D01*
%TO.N,row4_R*%
X122750000Y-126400000D02*
X124250000Y-127900000D01*
X124250000Y-127900000D02*
X148759851Y-127900000D01*
X148759851Y-127900000D02*
X150300000Y-126359851D01*
D25*
%TO.N,col1_R*%
X141000000Y-57439851D02*
X141000000Y-55559851D01*
X141600000Y-115039851D02*
X141000000Y-114439851D01*
X141000000Y-114439851D02*
X141000000Y-112559851D01*
X141600000Y-96039851D02*
X141000000Y-95439851D01*
X141000000Y-76439851D02*
X141000000Y-74559851D01*
X141600000Y-77039851D02*
X141000000Y-76439851D01*
X141000000Y-95439851D02*
X141000000Y-93559851D01*
X141600000Y-58039851D02*
X141000000Y-57439851D01*
%TO.N,col0_R*%
X160600000Y-63039851D02*
X160000000Y-62439851D01*
D24*
X171100000Y-127500000D02*
X164374463Y-127500000D01*
X161874463Y-125000000D02*
X147659851Y-125000000D01*
D25*
X160600000Y-101039851D02*
X160000000Y-100439851D01*
D24*
X172400000Y-126200000D02*
X171100000Y-127500000D01*
X164374463Y-127500000D02*
X161874463Y-125000000D01*
D25*
X160000000Y-81439851D02*
X160000000Y-79559851D01*
D24*
X147659851Y-125000000D02*
X146300000Y-126359851D01*
X159990000Y-119790000D02*
X159990000Y-117569851D01*
D25*
X160000000Y-100439851D02*
X160000000Y-98559851D01*
X160000000Y-62439851D02*
X160000000Y-60559851D01*
D24*
X172400000Y-124000000D02*
X172400000Y-126200000D01*
D25*
X160600000Y-82039851D02*
X160000000Y-81439851D01*
D24*
X171150000Y-122750000D02*
X172400000Y-124000000D01*
X160650000Y-120450000D02*
X162950000Y-122750000D01*
X160650000Y-120450000D02*
X159990000Y-119790000D01*
X162950000Y-122750000D02*
X171150000Y-122750000D01*
D25*
%TO.N,col2_R*%
X122000000Y-114439851D02*
X122000000Y-112559851D01*
X122600000Y-96039851D02*
X122000000Y-95439851D01*
X122000000Y-57439851D02*
X122000000Y-55559851D01*
X122600000Y-77039851D02*
X122000000Y-76439851D01*
X122000000Y-95439851D02*
X122000000Y-93559851D01*
X122600000Y-115039851D02*
X122000000Y-114439851D01*
X122600000Y-58039851D02*
X122000000Y-57439851D01*
X122000000Y-76439851D02*
X122000000Y-74559851D01*
%TO.N,col3_R*%
X103600000Y-120039851D02*
X103000000Y-119439851D01*
X103600000Y-63039851D02*
X103000000Y-62439851D01*
X103000000Y-62439851D02*
X103000000Y-60559851D01*
X103000000Y-81439851D02*
X103000000Y-79559851D01*
X103000000Y-119439851D02*
X103000000Y-117559851D01*
X103600000Y-101039851D02*
X103000000Y-100439851D01*
X103600000Y-82039851D02*
X103000000Y-81439851D01*
X103000000Y-100439851D02*
X103000000Y-98559851D01*
%TO.N,col4_R*%
X84000000Y-67439851D02*
X84000000Y-65559851D01*
X84600000Y-87039851D02*
X84000000Y-86439851D01*
X84000000Y-105439851D02*
X84000000Y-103559851D01*
X84000000Y-124439851D02*
X84000000Y-122559851D01*
X84600000Y-125039851D02*
X84000000Y-124439851D01*
X84600000Y-106039851D02*
X84000000Y-105439851D01*
X84000000Y-86439851D02*
X84000000Y-84559851D01*
X84600000Y-68039851D02*
X84000000Y-67439851D01*
%TO.N,col5_R*%
X64990000Y-91449851D02*
X64990000Y-89569851D01*
X65590000Y-73049851D02*
X64990000Y-72449851D01*
X65590000Y-130049851D02*
X64990000Y-129449851D01*
X64990000Y-129449851D02*
X64990000Y-127569851D01*
X65590000Y-111049851D02*
X64990000Y-110449851D01*
X65590000Y-92049851D02*
X64990000Y-91449851D01*
X64990000Y-110449851D02*
X64990000Y-108569851D01*
X64990000Y-72449851D02*
X64990000Y-70569851D01*
%TO.N,VDD_R*%
X146000000Y-61779926D02*
X146779926Y-61000000D01*
X119467588Y-62359851D02*
X115827439Y-66000000D01*
X89000000Y-71699851D02*
X89699851Y-71000000D01*
X162966726Y-124359851D02*
X165000000Y-124359851D01*
X70000000Y-76749851D02*
X70000000Y-77359851D01*
X146000000Y-119359851D02*
X146000000Y-118750000D01*
X70000000Y-115359851D02*
X70000000Y-114749851D01*
X127000000Y-100359851D02*
X127000000Y-99750000D01*
X162966726Y-67359851D02*
X165000000Y-67359851D01*
X96798960Y-71000000D02*
X100439109Y-67359851D01*
X144051040Y-62359851D02*
X146000000Y-62359851D01*
X70749851Y-114000000D02*
X76993125Y-114000000D01*
X80633274Y-110359851D02*
X80668628Y-110359851D01*
X156606875Y-61000000D02*
X162966726Y-67359851D01*
X127000000Y-119359851D02*
X127000000Y-118750000D01*
X119467588Y-119359851D02*
X115827439Y-123000000D01*
X108000000Y-66750000D02*
X108000000Y-67359851D01*
X76993125Y-95000000D02*
X80633274Y-91359851D01*
X127000000Y-81359851D02*
X127000000Y-80750000D01*
X76993125Y-114000000D02*
X80633274Y-110359851D01*
X100261711Y-86359851D02*
X96621562Y-90000000D01*
X127750000Y-99000000D02*
X142691189Y-99000000D01*
X156606875Y-80000000D02*
X162966726Y-86359851D01*
X127000000Y-62359851D02*
X119467588Y-62359851D01*
X127750000Y-118000000D02*
X142691189Y-118000000D01*
X89000000Y-128699851D02*
X89699851Y-128000000D01*
X89000000Y-129359851D02*
X89000000Y-128699851D01*
X144051040Y-81359851D02*
X146000000Y-81359851D01*
X77500000Y-76000000D02*
X70749851Y-76000000D01*
X102000000Y-128574500D02*
X112586391Y-128574500D01*
X119467588Y-81359851D02*
X115827439Y-85000000D01*
X127000000Y-119359851D02*
X119467588Y-119359851D01*
X108000000Y-85750000D02*
X108000000Y-86359851D01*
X70749851Y-76000000D02*
X70000000Y-76749851D01*
X127000000Y-100359851D02*
X118633274Y-100359851D01*
X142691189Y-61000000D02*
X144051040Y-62359851D01*
X70000000Y-133749851D02*
X70749851Y-133000000D01*
X115827439Y-123000000D02*
X108750000Y-123000000D01*
X146000000Y-81359851D02*
X146000000Y-80750000D01*
X89000000Y-110359851D02*
X89000000Y-109699851D01*
X100439109Y-67359851D02*
X108000000Y-67359851D01*
X89000000Y-90699851D02*
X89000000Y-91359851D01*
X80668628Y-91359851D02*
X89000000Y-91359851D01*
X80633274Y-91359851D02*
X80668628Y-91359851D01*
X108000000Y-86359851D02*
X100261711Y-86359851D01*
X115827439Y-66000000D02*
X108750000Y-66000000D01*
X156606875Y-118000000D02*
X162966726Y-124359851D01*
X146000000Y-100359851D02*
X146000000Y-99750000D01*
X118633274Y-100359851D02*
X114993125Y-104000000D01*
X96621562Y-90000000D02*
X89699851Y-90000000D01*
X89699851Y-90000000D02*
X89000000Y-90699851D01*
X80100000Y-73400000D02*
X81140149Y-72359851D01*
X146750000Y-80000000D02*
X156606875Y-80000000D01*
X146000000Y-118750000D02*
X146750000Y-118000000D01*
X142691189Y-80000000D02*
X144051040Y-81359851D01*
X162966726Y-105359851D02*
X165000000Y-105359851D01*
X95993125Y-128000000D02*
X99633274Y-124359851D01*
X162966726Y-86359851D02*
X165000000Y-86359851D01*
X115827439Y-85000000D02*
X108750000Y-85000000D01*
X89699851Y-109000000D02*
X96648960Y-109000000D01*
X99633274Y-124359851D02*
X108000000Y-124359851D01*
X142691189Y-99000000D02*
X144051040Y-100359851D01*
X117860391Y-123300500D02*
X141345075Y-123300500D01*
X146000000Y-99750000D02*
X146750000Y-99000000D01*
X96648960Y-109000000D02*
X100289109Y-105359851D01*
X89000000Y-109699851D02*
X89699851Y-109000000D01*
X114993125Y-104000000D02*
X108750000Y-104000000D01*
X89699851Y-128000000D02*
X95993125Y-128000000D01*
X112586391Y-128574500D02*
X117860391Y-123300500D01*
X108000000Y-123750000D02*
X108000000Y-124359851D01*
X127000000Y-61779926D02*
X127779926Y-61000000D01*
X127000000Y-80750000D02*
X127750000Y-80000000D01*
X70000000Y-134359851D02*
X70000000Y-133749851D01*
X146000000Y-80750000D02*
X146750000Y-80000000D01*
X142691189Y-118000000D02*
X144051040Y-119359851D01*
X146750000Y-99000000D02*
X156606875Y-99000000D01*
X80668628Y-110359851D02*
X89000000Y-110359851D01*
X108750000Y-66000000D02*
X108000000Y-66750000D01*
X81140149Y-72359851D02*
X89000000Y-72359851D01*
X146000000Y-62359851D02*
X146000000Y-61779926D01*
X108750000Y-123000000D02*
X108000000Y-123750000D01*
X70000000Y-114749851D02*
X70749851Y-114000000D01*
X100289109Y-105359851D02*
X108000000Y-105359851D01*
X76993125Y-133000000D02*
X80633274Y-129359851D01*
X70000000Y-95749851D02*
X70749851Y-95000000D01*
X146750000Y-118000000D02*
X156606875Y-118000000D01*
X80668628Y-129359851D02*
X89000000Y-129359851D01*
X108000000Y-104750000D02*
X108000000Y-105359851D01*
X89000000Y-72359851D02*
X89000000Y-71699851D01*
X144051040Y-119359851D02*
X146000000Y-119359851D01*
X127000000Y-62359851D02*
X127000000Y-61779926D01*
X70749851Y-133000000D02*
X76993125Y-133000000D01*
X80633274Y-129359851D02*
X80668628Y-129359851D01*
X146779926Y-61000000D02*
X156606875Y-61000000D01*
X127750000Y-80000000D02*
X142691189Y-80000000D01*
X127000000Y-118750000D02*
X127750000Y-118000000D01*
X144051040Y-100359851D02*
X146000000Y-100359851D01*
X70000000Y-96359851D02*
X70000000Y-95749851D01*
X127779926Y-61000000D02*
X142691189Y-61000000D01*
X70749851Y-95000000D02*
X76993125Y-95000000D01*
X80100000Y-73400000D02*
X77500000Y-76000000D01*
X89699851Y-71000000D02*
X96798960Y-71000000D01*
X108750000Y-104000000D02*
X108000000Y-104750000D01*
X108750000Y-85000000D02*
X108000000Y-85750000D01*
X127000000Y-99750000D02*
X127750000Y-99000000D01*
X156606875Y-99000000D02*
X162966726Y-105359851D01*
X127000000Y-81359851D02*
X119467588Y-81359851D01*
%TO.N,VDD_L*%
X261200000Y-129359851D02*
X263900000Y-129359851D01*
X274340149Y-128000000D02*
X280700000Y-134359851D01*
X222346875Y-80000000D02*
X223706726Y-81359851D01*
X274340149Y-109000000D02*
X280700000Y-115359851D01*
X198533274Y-62359851D02*
X206900000Y-62359851D01*
X261200000Y-91359851D02*
X263900000Y-91359851D01*
X206900000Y-61600000D02*
X207500000Y-61000000D01*
X223706726Y-62359851D02*
X225900000Y-62359851D01*
X198533274Y-119359851D02*
X194893125Y-123000000D01*
X225900000Y-81359851D02*
X225900000Y-80725000D01*
X244900000Y-67359851D02*
X244900000Y-66691537D01*
X194893125Y-66000000D02*
X188750000Y-66000000D01*
X254840149Y-66000000D02*
X261200000Y-72359851D01*
X223706726Y-100359851D02*
X225900000Y-100359851D01*
X207591537Y-80000000D02*
X222346875Y-80000000D01*
X235840149Y-80000000D02*
X242200000Y-86359851D01*
X263900000Y-128850000D02*
X264750000Y-128000000D01*
X235840149Y-99000000D02*
X242200000Y-105359851D01*
X280700000Y-115359851D02*
X282900000Y-115359851D01*
X245850000Y-84900000D02*
X254740149Y-84900000D01*
X206900000Y-99850000D02*
X207750000Y-99000000D01*
X254840149Y-123000000D02*
X261200000Y-129359851D01*
X225900000Y-62359851D02*
X225900000Y-61600000D01*
X194893125Y-123000000D02*
X188750000Y-123000000D01*
X222346875Y-118000000D02*
X207750000Y-118000000D01*
X263900000Y-71725000D02*
X264625000Y-71000000D01*
X207750000Y-99000000D02*
X222346875Y-99000000D01*
X226750000Y-118000000D02*
X235840149Y-118000000D01*
X244900000Y-105359851D02*
X244900000Y-104850000D01*
X263900000Y-91359851D02*
X263900000Y-90850000D01*
X206900000Y-62359851D02*
X206900000Y-61600000D01*
X226500000Y-61000000D02*
X235840149Y-61000000D01*
X225900000Y-100359851D02*
X225900000Y-99816537D01*
X222346875Y-61000000D02*
X223706726Y-62359851D01*
X188750000Y-104000000D02*
X187900000Y-104850000D01*
X263900000Y-110359851D02*
X263900000Y-109850000D01*
X226625000Y-80000000D02*
X235840149Y-80000000D01*
X198533274Y-81359851D02*
X194893125Y-85000000D01*
X188750000Y-123000000D02*
X187900000Y-123850000D01*
X254740149Y-84900000D02*
X261200000Y-91359851D01*
X263900000Y-90850000D02*
X264850000Y-89900000D01*
X223706726Y-119359851D02*
X222346875Y-118000000D01*
X222346875Y-99000000D02*
X223706726Y-100359851D01*
X206900000Y-81359851D02*
X206900000Y-80691537D01*
X264750000Y-128000000D02*
X274340149Y-128000000D01*
X225900000Y-99816537D02*
X226716537Y-99000000D01*
X264750000Y-109000000D02*
X274340149Y-109000000D01*
X244900000Y-66691537D02*
X245591537Y-66000000D01*
X245750000Y-123000000D02*
X254840149Y-123000000D01*
X206900000Y-100359851D02*
X206900000Y-99850000D01*
X225900000Y-118850000D02*
X226750000Y-118000000D01*
X242200000Y-86359851D02*
X244900000Y-86359851D01*
X264625000Y-71000000D02*
X274340149Y-71000000D01*
X198533274Y-100359851D02*
X206900000Y-100359851D01*
X274340149Y-71000000D02*
X280700000Y-77359851D01*
X263900000Y-72359851D02*
X263900000Y-71725000D01*
X244900000Y-124359851D02*
X244900000Y-123850000D01*
X206900000Y-118850000D02*
X206900000Y-119359851D01*
X197400000Y-63493125D02*
X194893125Y-66000000D01*
X187900000Y-85850000D02*
X187900000Y-86359851D01*
X225900000Y-80725000D02*
X226625000Y-80000000D01*
X274240149Y-89900000D02*
X280700000Y-96359851D01*
X261200000Y-110359851D02*
X263900000Y-110359851D01*
X280700000Y-96359851D02*
X282900000Y-96359851D01*
X235840149Y-118000000D02*
X242200000Y-124359851D01*
X197900000Y-100993125D02*
X198533274Y-100359851D01*
X254840149Y-104000000D02*
X261200000Y-110359851D01*
X244900000Y-123850000D02*
X245750000Y-123000000D01*
X194893125Y-104000000D02*
X188750000Y-104000000D01*
X188750000Y-85000000D02*
X187900000Y-85850000D01*
X244900000Y-86359851D02*
X244900000Y-85850000D01*
X207500000Y-61000000D02*
X222346875Y-61000000D01*
X244900000Y-85850000D02*
X245850000Y-84900000D01*
X198533274Y-119359851D02*
X206900000Y-119359851D01*
X223706726Y-81359851D02*
X225900000Y-81359851D01*
X263900000Y-129359851D02*
X263900000Y-128850000D01*
X225900000Y-61600000D02*
X226500000Y-61000000D01*
X242200000Y-67359851D02*
X244900000Y-67359851D01*
X280700000Y-134359851D02*
X282900000Y-134359851D01*
X206900000Y-80691537D02*
X207591537Y-80000000D01*
X197900000Y-100993125D02*
X194893125Y-104000000D01*
X235840149Y-61000000D02*
X242200000Y-67359851D01*
X242200000Y-105359851D02*
X244900000Y-105359851D01*
X263900000Y-109850000D02*
X264750000Y-109000000D01*
X197400000Y-63493125D02*
X198533274Y-62359851D01*
X188750000Y-66000000D02*
X187900000Y-66850000D01*
X194893125Y-85000000D02*
X188750000Y-85000000D01*
X264850000Y-89900000D02*
X274240149Y-89900000D01*
X245750000Y-104000000D02*
X254840149Y-104000000D01*
X242200000Y-124359851D02*
X244900000Y-124359851D01*
X245591537Y-66000000D02*
X254840149Y-66000000D01*
X225900000Y-119359851D02*
X223706726Y-119359851D01*
X261200000Y-72359851D02*
X263900000Y-72359851D01*
X187900000Y-123850000D02*
X187900000Y-124359851D01*
X280700000Y-77359851D02*
X282900000Y-77359851D01*
X187900000Y-66850000D02*
X187900000Y-67359851D01*
X198533274Y-81359851D02*
X206900000Y-81359851D01*
X207750000Y-118000000D02*
X206900000Y-118850000D01*
X225900000Y-119359851D02*
X225900000Y-118850000D01*
X244900000Y-104850000D02*
X245750000Y-104000000D01*
X226716537Y-99000000D02*
X235840149Y-99000000D01*
X187900000Y-104850000D02*
X187900000Y-105359851D01*
D24*
%TO.N,I2C_SDA*%
X144750000Y-154000000D02*
X145950000Y-152800000D01*
X151600000Y-152800000D02*
X152900000Y-154100000D01*
X160220000Y-137526000D02*
X159170000Y-136476000D01*
X152900000Y-154100000D02*
X159270924Y-154100000D01*
X145950000Y-152800000D02*
X151600000Y-152800000D01*
X159270924Y-154100000D02*
X160220000Y-153150923D01*
X160220000Y-153150923D02*
X160220000Y-137526000D01*
%TO.N,VCC_5V_L1*%
X184800000Y-157200000D02*
X186600000Y-159000000D01*
X186600000Y-159000000D02*
X211750000Y-159000000D01*
X211750000Y-159000000D02*
X213000000Y-157750000D01*
X184800000Y-152926000D02*
X184800000Y-157200000D01*
X183590000Y-151716000D02*
X184800000Y-152926000D01*
%TO.N,GND_L1*%
X211000000Y-149750000D02*
X209250000Y-149750000D01*
X213000000Y-147750000D02*
X211000000Y-149750000D01*
%TO.N,Net-(MCU1-8)*%
X146184314Y-144200000D02*
X147884315Y-145900000D01*
X150248314Y-145900000D02*
X151900000Y-147551686D01*
X151900000Y-147551686D02*
X151900000Y-149526000D01*
X151900000Y-149526000D02*
X154090000Y-151716000D01*
X144750000Y-144200000D02*
X146184314Y-144200000D01*
X147884315Y-145900000D02*
X150248314Y-145900000D01*
%TO.N,Net-(MCU1-9)*%
X148050000Y-145500000D02*
X150414000Y-145500000D01*
X144750000Y-142200000D02*
X148050000Y-145500000D01*
X150414000Y-145500000D02*
X154090000Y-149176000D01*
%TO.N,Net-(MCU1-10)*%
X151100000Y-143646000D02*
X154090000Y-146636000D01*
X147500000Y-132848529D02*
X149351471Y-132848529D01*
X146525000Y-133823529D02*
X147500000Y-132848529D01*
X151100000Y-134597058D02*
X151100000Y-143646000D01*
X149351471Y-132848529D02*
X151100000Y-134597058D01*
X144750000Y-140200000D02*
X146525000Y-138425000D01*
X146525000Y-138425000D02*
X146525000Y-133823529D01*
%TO.N,Net-(MCU1-11)*%
X153096000Y-144096000D02*
X154090000Y-144096000D01*
X151500000Y-134431372D02*
X151500000Y-142500000D01*
X147334315Y-132448529D02*
X149517157Y-132448529D01*
X146125000Y-133657843D02*
X147334315Y-132448529D01*
X146125000Y-136825000D02*
X146125000Y-133657843D01*
X151500000Y-142500000D02*
X153096000Y-144096000D01*
X149517157Y-132448529D02*
X151500000Y-134431372D01*
X144750000Y-138200000D02*
X146125000Y-136825000D01*
%TO.N,Net-(MCU1-12)*%
X151900000Y-134265686D02*
X151900000Y-140200000D01*
X151900000Y-140200000D02*
X153256000Y-141556000D01*
X147168630Y-132048529D02*
X149682843Y-132048529D01*
X145725000Y-135225000D02*
X145725000Y-133492157D01*
X153256000Y-141556000D02*
X154090000Y-141556000D01*
X145725000Y-133492157D02*
X147168630Y-132048529D01*
X144750000Y-136200000D02*
X145725000Y-135225000D01*
X149682843Y-132048529D02*
X151900000Y-134265686D01*
%TO.N,Net-(MCU1-13)*%
X152300000Y-137226000D02*
X152300000Y-134100000D01*
X152300000Y-134100000D02*
X149848529Y-131648529D01*
X144750000Y-133901473D02*
X144750000Y-134200000D01*
X154090000Y-139016000D02*
X152300000Y-137226000D01*
X147002944Y-131648529D02*
X144750000Y-133901473D01*
X149848529Y-131648529D02*
X147002944Y-131648529D01*
%TO.N,col1_Sub_R*%
X132275000Y-156475000D02*
X138560000Y-150190000D01*
X138560000Y-150190000D02*
X138560000Y-146040000D01*
X125975000Y-156475000D02*
X132275000Y-156475000D01*
X125000000Y-155500000D02*
X125975000Y-156475000D01*
%TO.N,col0_Sub_R*%
X119500000Y-154250000D02*
X116500000Y-151250000D01*
X121750000Y-154250000D02*
X119500000Y-154250000D01*
X123000000Y-155500000D02*
X121750000Y-154250000D01*
X116500000Y-149100000D02*
X119560000Y-146040000D01*
X116500000Y-151250000D02*
X116500000Y-149100000D01*
%TO.N,Net-(MCU2-9)*%
X210131370Y-132400000D02*
X208268628Y-132400000D01*
X206500000Y-134168630D02*
X206500000Y-137200000D01*
X206500000Y-137200000D02*
X204684000Y-139016000D01*
X204684000Y-139016000D02*
X203910000Y-139016000D01*
X208268628Y-132400000D02*
X206500000Y-134168630D01*
X213000000Y-136250000D02*
X211999999Y-135249999D01*
X211999999Y-135249999D02*
X212000000Y-134268628D01*
X212000000Y-134268628D02*
X210131370Y-132400000D01*
D25*
%TO.N,VDD_Sub_R*%
X127090000Y-139750000D02*
X127840000Y-140500000D01*
X115050000Y-139750000D02*
X127090000Y-139750000D01*
X114749500Y-139449500D02*
X115050000Y-139750000D01*
X133000000Y-140500000D02*
X133550000Y-139950000D01*
X133550000Y-139950000D02*
X133550000Y-139291421D01*
X127840000Y-140500000D02*
X133000000Y-140500000D01*
D24*
X133550000Y-139291421D02*
X133550000Y-139250000D01*
X114749500Y-139449500D02*
X114550000Y-139250000D01*
%TO.N,GND_Sub_R*%
X127899500Y-138300500D02*
X128450000Y-137750000D01*
X115000000Y-136250000D02*
X110250000Y-136250000D01*
X110250000Y-136250000D02*
X109450000Y-137050000D01*
X109450000Y-137050000D02*
X109450000Y-137750000D01*
X122500000Y-138300500D02*
X117050500Y-138300500D01*
X117050500Y-138300500D02*
X115000000Y-136250000D01*
X122500000Y-138300500D02*
X127899500Y-138300500D01*
D25*
%TO.N,VDD_Sub_L*%
X248050000Y-140500000D02*
X248600000Y-139950000D01*
D24*
X229799500Y-139449500D02*
X229600000Y-139250000D01*
D25*
X229799500Y-139449500D02*
X230100000Y-139750000D01*
X230100000Y-139750000D02*
X242140000Y-139750000D01*
X248600000Y-139950000D02*
X248600000Y-139291421D01*
X242890000Y-140500000D02*
X248050000Y-140500000D01*
X242140000Y-139750000D02*
X242890000Y-140500000D01*
D24*
X248600000Y-139291421D02*
X248600000Y-139250000D01*
%TO.N,GND_Sub_L*%
X237000000Y-138300500D02*
X242949500Y-138300500D01*
X242949500Y-138300500D02*
X243500000Y-137750000D01*
X237000000Y-138300500D02*
X232100500Y-138300500D01*
X232100500Y-138300500D02*
X230050000Y-136250000D01*
X230050000Y-136250000D02*
X225300000Y-136250000D01*
X225300000Y-136250000D02*
X224500000Y-137050000D01*
X224500000Y-137050000D02*
X224500000Y-137750000D01*
%TO.N,Net-(MCU2-10)*%
X213000000Y-138250000D02*
X211600000Y-136850000D01*
X211600000Y-134434314D02*
X209965685Y-132800000D01*
X211600000Y-136850000D02*
X211600000Y-134434314D01*
X206900000Y-134334315D02*
X206900000Y-139400000D01*
X209965685Y-132800000D02*
X208434314Y-132800000D01*
X206900000Y-139400000D02*
X204744000Y-141556000D01*
X204744000Y-141556000D02*
X203910000Y-141556000D01*
X208434314Y-132800000D02*
X206900000Y-134334315D01*
%TO.N,Net-(MCU2-11)*%
X211200000Y-134600000D02*
X209800000Y-133200000D01*
X207300000Y-141700000D02*
X204904000Y-144096000D01*
X207300000Y-134500000D02*
X207300000Y-141700000D01*
X211200000Y-138450000D02*
X211200000Y-134600000D01*
X209800000Y-133200000D02*
X208600000Y-133200000D01*
X204904000Y-144096000D02*
X203910000Y-144096000D01*
X208600000Y-133200000D02*
X207300000Y-134500000D01*
X213000000Y-140250000D02*
X211200000Y-138450000D01*
%TO.N,Net-(MCU2-12)*%
X210884314Y-145800000D02*
X211742157Y-144942157D01*
X203910000Y-146636000D02*
X207364000Y-146636000D01*
X211742157Y-144942157D02*
X211742157Y-143507843D01*
X207364000Y-146636000D02*
X208200000Y-145800000D01*
X211742157Y-143507843D02*
X213000000Y-142250000D01*
X208200000Y-145800000D02*
X210884314Y-145800000D01*
D25*
%TO.N,Net-(Joystick2-Pin_1)*%
X264403246Y-150701873D02*
X258203246Y-144501873D01*
X264403246Y-155701873D02*
X264403246Y-150701873D01*
D24*
%TO.N,Net-(Joystick2-Pin_3)*%
X277008452Y-147107079D02*
X275903246Y-146001873D01*
X272098040Y-150507079D02*
X274808452Y-150507079D01*
X266903246Y-155701873D02*
X272098040Y-150507079D01*
X275308452Y-151007079D02*
X276442675Y-151007079D01*
X274808452Y-150507079D02*
X275308452Y-151007079D01*
X276442675Y-151007079D02*
X277008452Y-150441302D01*
X277008452Y-150441302D02*
X277008452Y-147107079D01*
%TO.N,Net-(Joystick2-Pin_4)*%
X274953246Y-148001873D02*
X263653246Y-136701873D01*
X275903246Y-148001873D02*
X274953246Y-148001873D01*
%TO.N,Net-(Joystick2-Pin_5)*%
X267587560Y-141201873D02*
X275903246Y-149517559D01*
X275903246Y-149517559D02*
X275903246Y-150001873D01*
X263653246Y-141201873D02*
X267587560Y-141201873D01*
%TO.N,Net-(MCU2-13)*%
X211050000Y-146200000D02*
X213000000Y-144250000D01*
X203910000Y-149176000D02*
X205424000Y-149176000D01*
X208400000Y-146200000D02*
X211050000Y-146200000D01*
X205424000Y-149176000D02*
X208400000Y-146200000D01*
%TD*%
M02*
